<svg width="1055" height="845" viewBox="0 0 1055 845" fill="none" xmlns="http://www.w3.org/2000/svg">
<path d="M5 0H0V5H5V0Z" fill="#C4C2CC"/>
<path d="M40 0H35V5H40V0Z" fill="#C4C2CC"/>
<path d="M75 0H70V5H75V0Z" fill="#C4C2CC"/>
<path d="M110 0H105V5H110V0Z" fill="#C4C2CC"/>
<path d="M145 0H140V5H145V0Z" fill="#C4C2CC"/>
<path d="M180 0H175V5H180V0Z" fill="#C4C2CC"/>
<path d="M215 0H210V5H215V0Z" fill="#C4C2CC"/>
<path d="M250 0H245V5H250V0Z" fill="#C4C2CC"/>
<path d="M285 0H280V5H285V0Z" fill="#C4C2CC"/>
<path d="M5 35H0V40H5V35Z" fill="#C4C2CC"/>
<path d="M40 35H35V40H40V35Z" fill="#C4C2CC"/>
<path d="M75 35H70V40H75V35Z" fill="#C4C2CC"/>
<path d="M110 35H105V40H110V35Z" fill="#C4C2CC"/>
<path d="M145 35H140V40H145V35Z" fill="#C4C2CC"/>
<path d="M180 35H175V40H180V35Z" fill="#C4C2CC"/>
<path d="M215 35H210V40H215V35Z" fill="#C4C2CC"/>
<path d="M250 35H245V40H250V35Z" fill="#C4C2CC"/>
<path d="M285 35H280V40H285V35Z" fill="#C4C2CC"/>
<path d="M5 70H0V75H5V70Z" fill="#C4C2CC"/>
<path d="M40 70H35V75H40V70Z" fill="#C4C2CC"/>
<path d="M75 70H70V75H75V70Z" fill="#C4C2CC"/>
<path d="M110 70H105V75H110V70Z" fill="#C4C2CC"/>
<path d="M145 70H140V75H145V70Z" fill="#C4C2CC"/>
<path d="M180 70H175V75H180V70Z" fill="#C4C2CC"/>
<path d="M215 70H210V75H215V70Z" fill="#C4C2CC"/>
<path d="M250 70H245V75H250V70Z" fill="#C4C2CC"/>
<path d="M285 70H280V75H285V70Z" fill="#C4C2CC"/>
<path d="M5 105H0V110H5V105Z" fill="#C4C2CC"/>
<path d="M40 105H35V110H40V105Z" fill="#C4C2CC"/>
<path d="M75 105H70V110H75V105Z" fill="#C4C2CC"/>
<path d="M110 105H105V110H110V105Z" fill="#C4C2CC"/>
<path d="M145 105H140V110H145V105Z" fill="#C4C2CC"/>
<path d="M180 105H175V110H180V105Z" fill="#C4C2CC"/>
<path d="M215 105H210V110H215V105Z" fill="#C4C2CC"/>
<path d="M250 105H245V110H250V105Z" fill="#C4C2CC"/>
<path d="M285 105H280V110H285V105Z" fill="#C4C2CC"/>
<path d="M5 140H0V145H5V140Z" fill="#C4C2CC"/>
<path d="M40 140H35V145H40V140Z" fill="#C4C2CC"/>
<path d="M75 140H70V145H75V140Z" fill="#C4C2CC"/>
<path d="M110 140H105V145H110V140Z" fill="#C4C2CC"/>
<path d="M145 140H140V145H145V140Z" fill="#C4C2CC"/>
<path d="M180 140H175V145H180V140Z" fill="#C4C2CC"/>
<path d="M215 140H210V145H215V140Z" fill="#C4C2CC"/>
<path d="M250 140H245V145H250V140Z" fill="#C4C2CC"/>
<path d="M285 140H280V145H285V140Z" fill="#C4C2CC"/>
<path d="M320 140H315V145H320V140Z" fill="#C4C2CC"/>
<path d="M355 140H350V145H355V140Z" fill="#C4C2CC"/>
<path d="M390 140H385V145H390V140Z" fill="#C4C2CC"/>
<path d="M425 140H420V145H425V140Z" fill="#C4C2CC"/>
<path d="M460 140H455V145H460V140Z" fill="#C4C2CC"/>
<path d="M495 140H490V145H495V140Z" fill="#C4C2CC"/>
<path d="M530 140H525V145H530V140Z" fill="#C4C2CC"/>
<path d="M565 140H560V145H565V140Z" fill="#C4C2CC"/>
<path d="M600 140H595V145H600V140Z" fill="#C4C2CC"/>
<path d="M635 140H630V145H635V140Z" fill="#C4C2CC"/>
<path d="M670 140H665V145H670V140Z" fill="#C4C2CC"/>
<path d="M705 140H700V145H705V140Z" fill="#C4C2CC"/>
<path d="M740 140H735V145H740V140Z" fill="#C4C2CC"/>
<path d="M775 140H770V145H775V140Z" fill="#C4C2CC"/>
<path d="M5 175H0V180H5V175Z" fill="#C4C2CC"/>
<path d="M40 175H35V180H40V175Z" fill="#C4C2CC"/>
<path d="M75 175H70V180H75V175Z" fill="#C4C2CC"/>
<path d="M110 175H105V180H110V175Z" fill="#C4C2CC"/>
<path d="M145 175H140V180H145V175Z" fill="#C4C2CC"/>
<path d="M180 175H175V180H180V175Z" fill="#C4C2CC"/>
<path d="M215 175H210V180H215V175Z" fill="#C4C2CC"/>
<path d="M250 175H245V180H250V175Z" fill="#C4C2CC"/>
<path d="M285 175H280V180H285V175Z" fill="#C4C2CC"/>
<path d="M320 175H315V180H320V175Z" fill="#C4C2CC"/>
<path d="M355 175H350V180H355V175Z" fill="#C4C2CC"/>
<path d="M390 175H385V180H390V175Z" fill="#C4C2CC"/>
<path d="M425 175H420V180H425V175Z" fill="#C4C2CC"/>
<path d="M460 175H455V180H460V175Z" fill="#C4C2CC"/>
<path d="M495 175H490V180H495V175Z" fill="#C4C2CC"/>
<path d="M530 175H525V180H530V175Z" fill="#C4C2CC"/>
<path d="M565 175H560V180H565V175Z" fill="#C4C2CC"/>
<path d="M600 175H595V180H600V175Z" fill="#C4C2CC"/>
<path d="M635 175H630V180H635V175Z" fill="#C4C2CC"/>
<path d="M670 175H665V180H670V175Z" fill="#C4C2CC"/>
<path d="M705 175H700V180H705V175Z" fill="#C4C2CC"/>
<path d="M740 175H735V180H740V175Z" fill="#C4C2CC"/>
<path d="M775 175H770V180H775V175Z" fill="#C4C2CC"/>
<path d="M5 210H0V215H5V210Z" fill="#C4C2CC"/>
<path d="M40 210H35V215H40V210Z" fill="#C4C2CC"/>
<path d="M75 210H70V215H75V210Z" fill="#C4C2CC"/>
<path d="M110 210H105V215H110V210Z" fill="#C4C2CC"/>
<path d="M145 210H140V215H145V210Z" fill="#C4C2CC"/>
<path d="M180 210H175V215H180V210Z" fill="#C4C2CC"/>
<path d="M215 210H210V215H215V210Z" fill="#C4C2CC"/>
<path d="M250 210H245V215H250V210Z" fill="#C4C2CC"/>
<path d="M285 210H280V215H285V210Z" fill="#C4C2CC"/>
<path d="M320 210H315V215H320V210Z" fill="#C4C2CC"/>
<path d="M355 210H350V215H355V210Z" fill="#C4C2CC"/>
<path d="M390 210H385V215H390V210Z" fill="#C4C2CC"/>
<path d="M425 210H420V215H425V210Z" fill="#C4C2CC"/>
<path d="M460 210H455V215H460V210Z" fill="#C4C2CC"/>
<path d="M495 210H490V215H495V210Z" fill="#C4C2CC"/>
<path d="M530 210H525V215H530V210Z" fill="#C4C2CC"/>
<path d="M565 210H560V215H565V210Z" fill="#C4C2CC"/>
<path d="M600 210H595V215H600V210Z" fill="#C4C2CC"/>
<path d="M635 210H630V215H635V210Z" fill="#C4C2CC"/>
<path d="M670 210H665V215H670V210Z" fill="#C4C2CC"/>
<path d="M705 210H700V215H705V210Z" fill="#C4C2CC"/>
<path d="M740 210H735V215H740V210Z" fill="#C4C2CC"/>
<path d="M775 210H770V215H775V210Z" fill="#C4C2CC"/>
<path d="M5 245H0V250H5V245Z" fill="#C4C2CC"/>
<path d="M40 245H35V250H40V245Z" fill="#C4C2CC"/>
<path d="M75 245H70V250H75V245Z" fill="#C4C2CC"/>
<path d="M110 245H105V250H110V245Z" fill="#C4C2CC"/>
<path d="M145 245H140V250H145V245Z" fill="#C4C2CC"/>
<path d="M180 245H175V250H180V245Z" fill="#C4C2CC"/>
<path d="M215 245H210V250H215V245Z" fill="#C4C2CC"/>
<path d="M250 245H245V250H250V245Z" fill="#C4C2CC"/>
<path d="M285 245H280V250H285V245Z" fill="#C4C2CC"/>
<path d="M320 245H315V250H320V245Z" fill="#C4C2CC"/>
<path d="M355 245H350V250H355V245Z" fill="#C4C2CC"/>
<path d="M390 245H385V250H390V245Z" fill="#C4C2CC"/>
<path d="M425 245H420V250H425V245Z" fill="#C4C2CC"/>
<path d="M460 245H455V250H460V245Z" fill="#C4C2CC"/>
<path d="M495 245H490V250H495V245Z" fill="#C4C2CC"/>
<path d="M530 245H525V250H530V245Z" fill="#C4C2CC"/>
<path d="M565 245H560V250H565V245Z" fill="#C4C2CC"/>
<path d="M600 245H595V250H600V245Z" fill="#C4C2CC"/>
<path d="M635 245H630V250H635V245Z" fill="#C4C2CC"/>
<path d="M670 245H665V250H670V245Z" fill="#C4C2CC"/>
<path d="M705 245H700V250H705V245Z" fill="#C4C2CC"/>
<path d="M740 245H735V250H740V245Z" fill="#C4C2CC"/>
<path d="M775 245H770V250H775V245Z" fill="#C4C2CC"/>
<path d="M5 280H0V285H5V280Z" fill="#C4C2CC"/>
<path d="M40 280H35V285H40V280Z" fill="#C4C2CC"/>
<path d="M75 280H70V285H75V280Z" fill="#C4C2CC"/>
<path d="M110 280H105V285H110V280Z" fill="#C4C2CC"/>
<path d="M145 280H140V285H145V280Z" fill="#C4C2CC"/>
<path d="M180 280H175V285H180V280Z" fill="#C4C2CC"/>
<path d="M215 280H210V285H215V280Z" fill="#C4C2CC"/>
<path d="M250 280H245V285H250V280Z" fill="#C4C2CC"/>
<path d="M285 280H280V285H285V280Z" fill="#C4C2CC"/>
<path d="M320 280H315V285H320V280Z" fill="#C4C2CC"/>
<path d="M355 280H350V285H355V280Z" fill="#C4C2CC"/>
<path d="M390 280H385V285H390V280Z" fill="#C4C2CC"/>
<path d="M425 280H420V285H425V280Z" fill="#C4C2CC"/>
<path d="M460 280H455V285H460V280Z" fill="#C4C2CC"/>
<path d="M495 280H490V285H495V280Z" fill="#C4C2CC"/>
<path d="M530 280H525V285H530V280Z" fill="#C4C2CC"/>
<path d="M565 280H560V285H565V280Z" fill="#C4C2CC"/>
<path d="M600 280H595V285H600V280Z" fill="#C4C2CC"/>
<path d="M635 280H630V285H635V280Z" fill="#C4C2CC"/>
<path d="M670 280H665V285H670V280Z" fill="#C4C2CC"/>
<path d="M705 280H700V285H705V280Z" fill="#C4C2CC"/>
<path d="M740 280H735V285H740V280Z" fill="#C4C2CC"/>
<path d="M775 280H770V285H775V280Z" fill="#C4C2CC"/>
<path d="M5 315H0V320H5V315Z" fill="#C4C2CC"/>
<path d="M40 315H35V320H40V315Z" fill="#C4C2CC"/>
<path d="M75 315H70V320H75V315Z" fill="#C4C2CC"/>
<path d="M110 315H105V320H110V315Z" fill="#C4C2CC"/>
<path d="M145 315H140V320H145V315Z" fill="#C4C2CC"/>
<path d="M180 315H175V320H180V315Z" fill="#C4C2CC"/>
<path d="M215 315H210V320H215V315Z" fill="#C4C2CC"/>
<path d="M250 315H245V320H250V315Z" fill="#C4C2CC"/>
<path d="M285 315H280V320H285V315Z" fill="#C4C2CC"/>
<path d="M320 315H315V320H320V315Z" fill="#C4C2CC"/>
<path d="M355 315H350V320H355V315Z" fill="#C4C2CC"/>
<path d="M390 315H385V320H390V315Z" fill="#C4C2CC"/>
<path d="M425 315H420V320H425V315Z" fill="#C4C2CC"/>
<path d="M460 315H455V320H460V315Z" fill="#C4C2CC"/>
<path d="M495 315H490V320H495V315Z" fill="#C4C2CC"/>
<path d="M530 315H525V320H530V315Z" fill="#C4C2CC"/>
<path d="M565 315H560V320H565V315Z" fill="#C4C2CC"/>
<path d="M600 315H595V320H600V315Z" fill="#C4C2CC"/>
<path d="M635 315H630V320H635V315Z" fill="#C4C2CC"/>
<path d="M670 315H665V320H670V315Z" fill="#C4C2CC"/>
<path d="M705 315H700V320H705V315Z" fill="#C4C2CC"/>
<path d="M740 315H735V320H740V315Z" fill="#C4C2CC"/>
<path d="M775 315H770V320H775V315Z" fill="#C4C2CC"/>
<path d="M5 350H0V355H5V350Z" fill="#C4C2CC"/>
<path d="M40 350H35V355H40V350Z" fill="#C4C2CC"/>
<path d="M75 350H70V355H75V350Z" fill="#C4C2CC"/>
<path d="M110 350H105V355H110V350Z" fill="#C4C2CC"/>
<path d="M145 350H140V355H145V350Z" fill="#C4C2CC"/>
<path d="M180 350H175V355H180V350Z" fill="#C4C2CC"/>
<path d="M215 350H210V355H215V350Z" fill="#C4C2CC"/>
<path d="M250 350H245V355H250V350Z" fill="#C4C2CC"/>
<path d="M285 350H280V355H285V350Z" fill="#C4C2CC"/>
<path d="M320 350H315V355H320V350Z" fill="#C4C2CC"/>
<path d="M355 350H350V355H355V350Z" fill="#C4C2CC"/>
<path d="M390 350H385V355H390V350Z" fill="#C4C2CC"/>
<path d="M425 350H420V355H425V350Z" fill="#C4C2CC"/>
<path d="M460 350H455V355H460V350Z" fill="#C4C2CC"/>
<path d="M495 350H490V355H495V350Z" fill="#C4C2CC"/>
<path d="M530 350H525V355H530V350Z" fill="#C4C2CC"/>
<path d="M565 350H560V355H565V350Z" fill="#C4C2CC"/>
<path d="M600 350H595V355H600V350Z" fill="#C4C2CC"/>
<path d="M635 350H630V355H635V350Z" fill="#C4C2CC"/>
<path d="M670 350H665V355H670V350Z" fill="#C4C2CC"/>
<path d="M705 350H700V355H705V350Z" fill="#C4C2CC"/>
<path d="M740 350H735V355H740V350Z" fill="#C4C2CC"/>
<path d="M775 350H770V355H775V350Z" fill="#C4C2CC"/>
<path d="M5 385H0V390H5V385Z" fill="#C4C2CC"/>
<path d="M40 385H35V390H40V385Z" fill="#C4C2CC"/>
<path d="M75 385H70V390H75V385Z" fill="#C4C2CC"/>
<path d="M110 385H105V390H110V385Z" fill="#C4C2CC"/>
<path d="M145 385H140V390H145V385Z" fill="#C4C2CC"/>
<path d="M180 385H175V390H180V385Z" fill="#C4C2CC"/>
<path d="M215 385H210V390H215V385Z" fill="#C4C2CC"/>
<path d="M250 385H245V390H250V385Z" fill="#C4C2CC"/>
<path d="M285 385H280V390H285V385Z" fill="#C4C2CC"/>
<path d="M320 385H315V390H320V385Z" fill="#C4C2CC"/>
<path d="M355 385H350V390H355V385Z" fill="#C4C2CC"/>
<path d="M390 385H385V390H390V385Z" fill="#C4C2CC"/>
<path d="M425 385H420V390H425V385Z" fill="#C4C2CC"/>
<path d="M460 385H455V390H460V385Z" fill="#C4C2CC"/>
<path d="M495 385H490V390H495V385Z" fill="#C4C2CC"/>
<path d="M530 385H525V390H530V385Z" fill="#C4C2CC"/>
<path d="M565 385H560V390H565V385Z" fill="#C4C2CC"/>
<path d="M600 385H595V390H600V385Z" fill="#C4C2CC"/>
<path d="M635 385H630V390H635V385Z" fill="#C4C2CC"/>
<path d="M670 385H665V390H670V385Z" fill="#C4C2CC"/>
<path d="M705 385H700V390H705V385Z" fill="#C4C2CC"/>
<path d="M740 385H735V390H740V385Z" fill="#C4C2CC"/>
<path d="M775 385H770V390H775V385Z" fill="#C4C2CC"/>
<path d="M5 420H0V425H5V420Z" fill="#C4C2CC"/>
<path d="M40 420H35V425H40V420Z" fill="#C4C2CC"/>
<path d="M75 420H70V425H75V420Z" fill="#C4C2CC"/>
<path d="M110 420H105V425H110V420Z" fill="#C4C2CC"/>
<path d="M145 420H140V425H145V420Z" fill="#C4C2CC"/>
<path d="M180 420H175V425H180V420Z" fill="#C4C2CC"/>
<path d="M215 420H210V425H215V420Z" fill="#C4C2CC"/>
<path d="M250 420H245V425H250V420Z" fill="#C4C2CC"/>
<path d="M285 420H280V425H285V420Z" fill="#C4C2CC"/>
<path d="M320 420H315V425H320V420Z" fill="#C4C2CC"/>
<path d="M355 420H350V425H355V420Z" fill="#C4C2CC"/>
<path d="M390 420H385V425H390V420Z" fill="#C4C2CC"/>
<path d="M425 420H420V425H425V420Z" fill="#C4C2CC"/>
<path d="M460 420H455V425H460V420Z" fill="#C4C2CC"/>
<path d="M495 420H490V425H495V420Z" fill="#C4C2CC"/>
<path d="M530 420H525V425H530V420Z" fill="#C4C2CC"/>
<path d="M565 420H560V425H565V420Z" fill="#C4C2CC"/>
<path d="M600 420H595V425H600V420Z" fill="#C4C2CC"/>
<path d="M635 420H630V425H635V420Z" fill="#C4C2CC"/>
<path d="M670 420H665V425H670V420Z" fill="#C4C2CC"/>
<path d="M705 420H700V425H705V420Z" fill="#C4C2CC"/>
<path d="M740 420H735V425H740V420Z" fill="#C4C2CC"/>
<path d="M775 420H770V425H775V420Z" fill="#C4C2CC"/>
<path d="M5 455H0V460H5V455Z" fill="#C4C2CC"/>
<path d="M40 455H35V460H40V455Z" fill="#C4C2CC"/>
<path d="M75 455H70V460H75V455Z" fill="#C4C2CC"/>
<path d="M110 455H105V460H110V455Z" fill="#C4C2CC"/>
<path d="M145 455H140V460H145V455Z" fill="#C4C2CC"/>
<path d="M5 490H0V495H5V490Z" fill="#C4C2CC"/>
<path d="M40 490H35V495H40V490Z" fill="#C4C2CC"/>
<path d="M75 490H70V495H75V490Z" fill="#C4C2CC"/>
<path d="M110 490H105V495H110V490Z" fill="#C4C2CC"/>
<path d="M145 490H140V495H145V490Z" fill="#C4C2CC"/>
<path d="M5 525H0V530H5V525Z" fill="#C4C2CC"/>
<path d="M40 525H35V530H40V525Z" fill="#C4C2CC"/>
<path d="M75 525H70V530H75V525Z" fill="#C4C2CC"/>
<path d="M110 525H105V530H110V525Z" fill="#C4C2CC"/>
<path d="M145 525H140V530H145V525Z" fill="#C4C2CC"/>
<path d="M5 560H0V565H5V560Z" fill="#C4C2CC"/>
<path d="M40 560H35V565H40V560Z" fill="#C4C2CC"/>
<path d="M75 560H70V565H75V560Z" fill="#C4C2CC"/>
<path d="M110 560H105V565H110V560Z" fill="#C4C2CC"/>
<path d="M145 560H140V565H145V560Z" fill="#C4C2CC"/>
<path d="M5 595H0V600H5V595Z" fill="#C4C2CC"/>
<path d="M40 595H35V600H40V595Z" fill="#C4C2CC"/>
<path d="M75 595H70V600H75V595Z" fill="#C4C2CC"/>
<path d="M110 595H105V600H110V595Z" fill="#C4C2CC"/>
<path d="M145 595H140V600H145V595Z" fill="#C4C2CC"/>
<path d="M5 630H0V635H5V630Z" fill="#C4C2CC"/>
<path d="M40 630H35V635H40V630Z" fill="#C4C2CC"/>
<path d="M75 630H70V635H75V630Z" fill="#C4C2CC"/>
<path d="M110 630H105V635H110V630Z" fill="#C4C2CC"/>
<path d="M145 630H140V635H145V630Z" fill="#C4C2CC"/>
<path d="M5 665H0V670H5V665Z" fill="#C4C2CC"/>
<path d="M40 665H35V670H40V665Z" fill="#C4C2CC"/>
<path d="M75 665H70V670H75V665Z" fill="#C4C2CC"/>
<path d="M110 665H105V670H110V665Z" fill="#C4C2CC"/>
<path d="M145 665H140V670H145V665Z" fill="#C4C2CC"/>
<path d="M5 700H0V705H5V700Z" fill="#C4C2CC"/>
<path d="M40 700H35V705H40V700Z" fill="#C4C2CC"/>
<path d="M75 700H70V705H75V700Z" fill="#C4C2CC"/>
<path d="M110 700H105V705H110V700Z" fill="#C4C2CC"/>
<path d="M145 700H140V705H145V700Z" fill="#C4C2CC"/>
<path d="M5 735H0V740H5V735Z" fill="#C4C2CC"/>
<path d="M40 735H35V740H40V735Z" fill="#C4C2CC"/>
<path d="M75 735H70V740H75V735Z" fill="#C4C2CC"/>
<path d="M110 735H105V740H110V735Z" fill="#C4C2CC"/>
<path d="M145 735H140V740H145V735Z" fill="#C4C2CC"/>
<path d="M5 770H0V775H5V770Z" fill="#C4C2CC"/>
<path d="M40 770H35V775H40V770Z" fill="#C4C2CC"/>
<path d="M75 770H70V775H75V770Z" fill="#C4C2CC"/>
<path d="M110 770H105V775H110V770Z" fill="#C4C2CC"/>
<path d="M145 770H140V775H145V770Z" fill="#C4C2CC"/>
<path d="M5 805H0V810H5V805Z" fill="#C4C2CC"/>
<path d="M40 805H35V810H40V805Z" fill="#C4C2CC"/>
<path d="M75 805H70V810H75V805Z" fill="#C4C2CC"/>
<path d="M110 805H105V810H110V805Z" fill="#C4C2CC"/>
<path d="M145 805H140V810H145V805Z" fill="#C4C2CC"/>
<path d="M5 840H0V845H5V840Z" fill="#C4C2CC"/>
<path d="M40 840H35V845H40V840Z" fill="#C4C2CC"/>
<path d="M75 840H70V845H75V840Z" fill="#C4C2CC"/>
<path d="M110 840H105V845H110V840Z" fill="#C4C2CC"/>
<path d="M145 840H140V845H145V840Z" fill="#C4C2CC"/>
<path d="M810 140H805V145H810V140Z" fill="#C4C2CC"/>
<path d="M845 140H840V145H845V140Z" fill="#C4C2CC"/>
<path d="M880 140H875V145H880V140Z" fill="#C4C2CC"/>
<path d="M915 140H910V145H915V140Z" fill="#C4C2CC"/>
<path d="M950 140H945V145H950V140Z" fill="#C4C2CC"/>
<path d="M985 140H980V145H985V140Z" fill="#C4C2CC"/>
<path d="M1020 140H1015V145H1020V140Z" fill="#C4C2CC"/>
<path d="M1055 140H1050V145H1055V140Z" fill="#C4C2CC"/>
<path d="M810 175H805V180H810V175Z" fill="#C4C2CC"/>
<path d="M845 175H840V180H845V175Z" fill="#C4C2CC"/>
<path d="M880 175H875V180H880V175Z" fill="#C4C2CC"/>
<path d="M915 175H910V180H915V175Z" fill="#C4C2CC"/>
<path d="M950 175H945V180H950V175Z" fill="#C4C2CC"/>
<path d="M985 175H980V180H985V175Z" fill="#C4C2CC"/>
<path d="M1020 175H1015V180H1020V175Z" fill="#C4C2CC"/>
<path d="M1055 175H1050V180H1055V175Z" fill="#C4C2CC"/>
<path d="M810 210H805V215H810V210Z" fill="#C4C2CC"/>
<path d="M845 210H840V215H845V210Z" fill="#C4C2CC"/>
<path d="M880 210H875V215H880V210Z" fill="#C4C2CC"/>
<path d="M915 210H910V215H915V210Z" fill="#C4C2CC"/>
<path d="M950 210H945V215H950V210Z" fill="#C4C2CC"/>
<path d="M985 210H980V215H985V210Z" fill="#C4C2CC"/>
<path d="M1020 210H1015V215H1020V210Z" fill="#C4C2CC"/>
<path d="M1055 210H1050V215H1055V210Z" fill="#C4C2CC"/>
<path d="M810 245H805V250H810V245Z" fill="#C4C2CC"/>
<path d="M845 245H840V250H845V245Z" fill="#C4C2CC"/>
<path d="M880 245H875V250H880V245Z" fill="#C4C2CC"/>
<path d="M915 245H910V250H915V245Z" fill="#C4C2CC"/>
<path d="M950 245H945V250H950V245Z" fill="#C4C2CC"/>
<path d="M985 245H980V250H985V245Z" fill="#C4C2CC"/>
<path d="M1020 245H1015V250H1020V245Z" fill="#C4C2CC"/>
<path d="M1055 245H1050V250H1055V245Z" fill="#C4C2CC"/>
<path d="M810 280H805V285H810V280Z" fill="#C4C2CC"/>
<path d="M845 280H840V285H845V280Z" fill="#C4C2CC"/>
<path d="M880 280H875V285H880V280Z" fill="#C4C2CC"/>
<path d="M915 280H910V285H915V280Z" fill="#C4C2CC"/>
<path d="M950 280H945V285H950V280Z" fill="#C4C2CC"/>
<path d="M985 280H980V285H985V280Z" fill="#C4C2CC"/>
<path d="M1020 280H1015V285H1020V280Z" fill="#C4C2CC"/>
<path d="M1055 280H1050V285H1055V280Z" fill="#C4C2CC"/>
<path d="M810 315H805V320H810V315Z" fill="#C4C2CC"/>
<path d="M845 315H840V320H845V315Z" fill="#C4C2CC"/>
<path d="M880 315H875V320H880V315Z" fill="#C4C2CC"/>
<path d="M915 315H910V320H915V315Z" fill="#C4C2CC"/>
<path d="M950 315H945V320H950V315Z" fill="#C4C2CC"/>
<path d="M985 315H980V320H985V315Z" fill="#C4C2CC"/>
<path d="M1020 315H1015V320H1020V315Z" fill="#C4C2CC"/>
<path d="M1055 315H1050V320H1055V315Z" fill="#C4C2CC"/>
<path d="M810 350H805V355H810V350Z" fill="#C4C2CC"/>
<path d="M845 350H840V355H845V350Z" fill="#C4C2CC"/>
<path d="M880 350H875V355H880V350Z" fill="#C4C2CC"/>
<path d="M915 350H910V355H915V350Z" fill="#C4C2CC"/>
<path d="M950 350H945V355H950V350Z" fill="#C4C2CC"/>
<path d="M985 350H980V355H985V350Z" fill="#C4C2CC"/>
<path d="M1020 350H1015V355H1020V350Z" fill="#C4C2CC"/>
<path d="M1055 350H1050V355H1055V350Z" fill="#C4C2CC"/>
<path d="M810 385H805V390H810V385Z" fill="#C4C2CC"/>
<path d="M845 385H840V390H845V385Z" fill="#C4C2CC"/>
<path d="M880 385H875V390H880V385Z" fill="#C4C2CC"/>
<path d="M915 385H910V390H915V385Z" fill="#C4C2CC"/>
<path d="M950 385H945V390H950V385Z" fill="#C4C2CC"/>
<path d="M985 385H980V390H985V385Z" fill="#C4C2CC"/>
<path d="M1020 385H1015V390H1020V385Z" fill="#C4C2CC"/>
<path d="M1055 385H1050V390H1055V385Z" fill="#C4C2CC"/>
<path d="M810 420H805V425H810V420Z" fill="#C4C2CC"/>
<path d="M845 420H840V425H845V420Z" fill="#C4C2CC"/>
<path d="M880 420H875V425H880V420Z" fill="#C4C2CC"/>
<path d="M915 420H910V425H915V420Z" fill="#C4C2CC"/>
<path d="M950 420H945V425H950V420Z" fill="#C4C2CC"/>
<path d="M985 420H980V425H985V420Z" fill="#C4C2CC"/>
<path d="M1020 420H1015V425H1020V420Z" fill="#C4C2CC"/>
<path d="M1055 420H1050V425H1055V420Z" fill="#C4C2CC"/>
</svg>
