<?xml version="1.0" standalone="no"?>
<!DOCTYPE svg PUBLIC "-//W3C//DTD SVG 20010904//EN"
 "http://www.w3.org/TR/2001/REC-SVG-20010904/DTD/svg10.dtd">
<svg version="1.0" xmlns="http://www.w3.org/2000/svg"
 width="700.000000pt" height="700.000000pt" viewBox="0 0 700.000000 700.000000"
 preserveAspectRatio="xMidYMid meet">
<metadata>
Created by potrace 1.11, written by Peter Selinger 2001-2013
</metadata>
<g transform="translate(0.000000,700.000000) scale(0.100000,-0.100000)"
fill="#000000" stroke="none">
<path d="M1683 6061 c-10 -7 -11 -944 -1 -951 3 -3 820 -5 1815 -5 l1808 0 3
481 2 480 -1810 1 c-995 0 -1813 -3 -1817 -6z"/>
<path d="M1679 4018 c-7 -17 -2 -951 5 -956 7 -4 3395 -7 3589 -3 l37 1 0 480
0 480 -1815 0 c-998 0 -1815 -1 -1816 -2z"/>
<path d="M1678 1875 c-2 -11 -3 -227 -3 -480 l1 -460 1817 0 1817 -1 0 478 c0
263 -3 479 -7 479 -5 1 -821 2 -1815 3 -1800 1 -1807 1 -1810 -19z"/>
</g>
</svg>
