<svg width="256" height="115" viewBox="0 0 256 115" fill="none" xmlns="http://www.w3.org/2000/svg">
<path d="M63.0999 67.2916V67.1919H58.9999L48.8999 85.2335H52.7999L60.9999 70.4813L69.2999 85.2335H73.0999L63.0999 67.2916Z" fill="white"/>
<path d="M204.2 67.1919L196 82.0438L187.7 67.2916V67.1919H183.9L193.9 85.2335H198L208 67.2916L208.1 67.1919H204.2Z" fill="white"/>
<path d="M17.2 70.5807C15.3 70.0823 13.3 69.883 11.2 69.883C9.1 69.883 7.6 70.0823 6.8 70.3814C6 70.6804 5.6 71.3781 5.6 72.2752C5.6 73.0726 5.9 73.571 6.6 73.8701C7.3 74.1691 8.7 74.3685 10.9 74.5678C16.1 74.9665 18.3 76.5614 18.3 79.9504C18.3 82.0436 17.5 83.5388 16.1 84.3362C14.6 85.2333 12.2 85.632 8.8 85.632C6.1 85.632 3.8 85.4326 2 84.9343L2.7 81.8443C4.5 82.3427 6.5 82.542 8.7 82.542C10.8 82.542 12.3 82.3426 13.1 82.0436C13.9 81.7446 14.3 81.0468 14.3 80.1497C14.3 78.6546 13.5 78.0565 8.7 77.6578C3.8 77.3588 1.5 75.8636 1.5 72.6739C1.5 68.4875 4.5 66.793 11 66.793C13.7 66.793 15.9 66.9923 17.6 67.4907L17.2 70.5807Z" fill="white"/>
<path d="M37.0999 70.1822V85.2335H33.4V70.1822H25.7V67.1919H44.9V70.1822H37.0999Z" fill="white"/>
<path d="M96.6001 67.3915L96.1001 70.4815C94.8001 70.0828 93.2001 69.9831 91.3001 69.9831C90.3001 69.9831 89.5001 69.9831 88.9001 70.0828C87.7001 70.1824 86.3001 70.4815 85.7001 70.9798C84.6001 71.8769 84.1001 73.3721 84.1001 76.1631C84.1001 78.954 84.5001 80.5489 85.7001 81.446C86.9001 82.3431 88.4001 82.5424 91.3001 82.5424C93.2001 82.5424 94.8001 82.3431 96.1001 82.044L96.6001 85.134C94.8001 85.5328 92.8001 85.7321 90.5001 85.7321C86.9001 85.7321 84.4001 85.134 82.7001 83.7386C80.9001 82.2434 80.1001 79.8511 80.1001 76.1631C80.1001 72.475 80.9001 70.0827 82.7001 68.7869C84.5001 67.3915 86.9001 66.8931 90.5001 66.8931C92.7001 66.7934 94.8001 66.9928 96.6001 67.3915Z" fill="white"/>
<path d="M110.7 85.2335H107.1V67.1919H110.7V85.2335ZM121 85.2335C118.8 82.4425 116.8 80.2496 115 78.6548C113.2 76.9603 111.8 76.0632 110.9 75.7642C111.9 75.2658 113.2 74.1693 115 72.6742C116.8 71.179 118.6 69.2851 120.4 67.1919H125.1C123.1 69.3848 121.3 71.179 119.7 72.6742C118.1 74.1693 116.9 75.0664 116.2 75.4651C117 75.8638 118.2 76.8606 120 78.5551C121.8 80.2496 123.7 82.4425 125.8 85.1338H121V85.2335Z" fill="white"/>
<path d="M135.9 67.1919H139.6V82.3429H150.4V85.2335H135.9V67.1919Z" fill="white"/>
<path d="M160.5 67.1919H176.5V70.1822H164.2V74.3687H173V77.2593H164.2V82.3429H176.5V85.2335H160.5V67.1919Z" fill="white"/>
<path d="M215.4 67.1919H231.4V70.1822H219.1V74.3687H227.9V77.2593H219.1V82.3429H231.4V85.2335H215.4V67.1919Z" fill="white"/>
<path d="M241.5 67.1919H245.1V82.3429H256V85.2335H241.5V67.1919Z" fill="white"/>
<path d="M16.2999 106.265H11.2999V103.375H20.0999V113.542C18.1999 114.04 15.4999 114.239 12.2999 114.239C8.6999 114.239 6.1999 113.641 4.4999 112.246C2.6999 110.751 1.8999 108.358 1.8999 104.67C1.8999 100.982 2.7999 98.59 4.6999 97.1945C6.5999 95.9984 8.9999 95.5 12.8999 95.5C15.5999 95.5 17.7999 95.6994 19.5999 95.9984L18.9999 99.0884C18.4999 98.9887 17.5999 98.889 16.2999 98.6897C14.9999 98.59 13.9999 98.4903 13.1999 98.4903C12.1999 98.4903 11.2999 98.4903 10.6999 98.59C9.3999 98.6897 8.0999 98.9887 7.3999 99.5868C6.2999 100.484 5.7999 101.979 5.7999 104.77C5.7999 107.561 6.1999 109.156 7.3999 110.053C8.5999 110.95 10.0999 111.149 12.9999 111.149C14.1999 111.149 15.2999 111.05 16.2999 110.85V106.265Z" fill="white"/>
<path d="M27.8 95.8989H39.4001C41.6001 95.8989 43.2 96.3973 44.1 97.2944C45 98.1915 45.5 99.4873 45.5 101.182C45.5 104.372 43.6 106.066 39.7001 106.166C40.4001 106.365 41.3001 107.063 42.4001 108.259C43.5001 109.455 45.1 111.349 47.3 114.04H42.5C40.6 111.548 39.1 109.754 38 108.757C36.9 107.761 36 107.162 35.1 107.162H31.5V114.04H27.9V95.8989H27.8ZM31.4 98.7896V104.272H37.5C40 104.272 41.2001 103.773 41.2001 101.68C41.2001 99.6867 40.3 98.8892 38.3 98.8892H31.4V98.7896Z" fill="white"/>
<path d="M71.0001 97.3939C72.9001 98.7894 73.7001 101.182 73.7001 104.77C73.7001 108.458 72.9001 110.95 71.1001 112.345C69.3001 113.741 66.8001 114.339 63.2001 114.339C59.5001 114.339 57.1001 113.841 55.3001 112.345C53.5001 110.85 52.6001 108.458 52.6001 104.77C52.6001 101.182 53.4001 98.6897 55.2001 97.3939C57.1001 95.9984 59.4001 95.5 63.1001 95.5C66.8001 95.5 69.2001 95.9984 71.0001 97.3939ZM67.7001 110.551C69.3001 109.654 69.6001 108.059 69.7001 104.77C69.7001 101.979 69.5001 100.484 68.4001 99.5868C67.9001 99.0884 67.2001 98.7894 66.4001 98.6897C65.6001 98.59 64.5001 98.4903 63.1001 98.4903C60.8001 98.4903 59.6001 98.59 58.5001 99.0884C56.9001 99.8858 56.6001 101.381 56.5001 104.77C56.5001 110.252 57.8001 111.149 63.1001 111.149C65.4001 111.249 66.7001 111.05 67.7001 110.551Z" fill="white"/>
<path d="M99.2001 95.8989V108.458C99.2001 110.651 98.4001 112.246 96.9001 113.043C95.4001 113.841 93.0001 114.24 89.9001 114.24C86.8001 114.24 84.4001 113.841 82.9001 113.043C81.4001 112.246 80.6001 110.651 80.6001 108.458V95.8989H84.3001V106.365C84.3001 107.462 84.4001 108.259 84.4001 108.757C84.5001 109.256 84.7001 109.754 85.1001 110.153C85.9001 110.95 87.2001 111.15 89.9001 111.15C92.6001 111.15 93.9001 110.95 94.7001 110.153C95.1001 109.754 95.3001 109.256 95.4001 108.757C95.5001 108.259 95.5001 107.462 95.5001 106.365V95.8989H99.2001Z" fill="white"/>
<path d="M110.7 113.941H107.1V95.8989H118.8C122.8 95.8989 124.8 98.1915 124.8 102.079C124.8 103.773 124.3 105.169 123.3 106.265C122.3 107.362 120.8 107.96 118.9 107.96H110.8V113.941H110.7ZM117.4 105.169C119.5 105.169 120.6 104.172 120.6 102.079C120.6 99.886 119.6 98.7896 117.5 98.7896H110.7V105.169H117.4Z" fill="white"/>
<path d="M21.5 0.806641L0 12.6683V17.9512L21.5 29.9124V24.3305L5.3 15.3595L21.5 6.38858V0.806641Z" fill="white"/>
<path d="M0 28.1186L16.2 37.0895L0 46.0605V51.6424L21.5 39.6811V34.3982L0 22.5366V28.1186Z" fill="white"/>
</svg>
