<svg width="100" height="58" viewBox="0 0 100 58" fill="none" xmlns="http://www.w3.org/2000/svg">
<g clip-path="url(#clip0)">
<path fill-rule="evenodd" clip-rule="evenodd" d="M0.0678711 57.2232V48.5532H2.89169C3.82901 48.5532 4.53397 48.7477 5.00659 49.1367C5.4792 49.5258 5.71551 50.1014 5.71551 50.8636C5.71551 51.2685 5.60081 51.6268 5.37143 51.9384C5.14204 52.25 4.8296 52.4912 4.43411 52.6619C4.90079 52.7929 5.26959 53.042 5.5405 53.4092C5.81141 53.7764 5.94687 54.2141 5.94687 54.7222C5.94687 55.5003 5.69573 56.1116 5.19346 56.5562C4.69118 57.0008 3.98127 57.2232 3.06373 57.2232H0.0678711ZM1.20689 53.168V56.2883H3.08746C3.61742 56.2883 4.03565 56.1503 4.34216 55.8744C4.64867 55.5985 4.80192 55.2184 4.80192 54.7341C4.80192 53.6901 4.23637 53.168 3.10525 53.168H1.20689ZM1.20689 52.251H2.92728C3.42561 52.251 3.82406 52.126 4.12266 51.8759C4.42126 51.6258 4.57055 51.2864 4.57055 50.8576C4.57055 50.3813 4.43213 50.0349 4.15529 49.8185C3.87844 49.6022 3.45725 49.494 2.89169 49.494H1.20689V52.251ZM17.4673 53.2157H13.724V56.2883H18.0724V57.2232H12.5849V48.5532H18.0131V49.494H13.724V52.2808H17.4673V53.2157ZM25.5885 56.2883H29.6818V57.2232H24.4435V48.5532H25.5885V56.2883ZM40.8166 54.9604H37.1979L36.3851 57.2232H35.2105L38.5089 48.5532H39.5056L42.8099 57.2232H41.6412L40.8166 54.9604ZM37.542 54.0195H40.4785L39.0073 49.9644L37.542 54.0195ZM52.0938 53.7159H50.0649V57.2232H48.92V48.5532H51.7794C52.7523 48.5532 53.5008 48.7755 54.0248 49.2201C54.5489 49.6647 54.8109 50.3118 54.8109 51.1613C54.8109 51.7012 54.6655 52.1716 54.3748 52.5726C54.0841 52.9735 53.6798 53.2732 53.1617 53.4717L55.1905 57.1517V57.2232H53.9685L52.0938 53.7159ZM50.0649 52.781H51.815C52.3806 52.781 52.8304 52.6341 53.1646 52.3403C53.4988 52.0466 53.6659 51.6536 53.6659 51.1613C53.6659 50.6254 53.5067 50.2145 53.1884 49.9287C52.87 49.6429 52.4102 49.498 51.8091 49.494H50.0649V52.781ZM67.4406 48.5532V54.4483C67.4367 55.2661 67.1806 55.935 66.6724 56.455C66.1642 56.975 65.4751 57.2668 64.605 57.3303L64.3024 57.3422C63.3572 57.3422 62.6038 57.0862 62.0422 56.5741C61.4806 56.062 61.1958 55.3574 61.1879 54.4602V48.5532H62.3151V54.4245C62.3151 55.0517 62.4871 55.539 62.8312 55.8863C63.1753 56.2337 63.6657 56.4074 64.3024 56.4074C64.9471 56.4074 65.4404 56.2347 65.7825 55.8893C66.1246 55.5439 66.2957 55.0576 66.2957 54.4304V48.5532H67.4406ZM76.7364 53.3586C75.7596 53.0767 75.0487 52.7304 74.6037 52.3195C74.1588 51.9086 73.9363 51.4015 73.9363 50.7981C73.9363 50.1153 74.2082 49.5506 74.752 49.104C75.2958 48.6574 76.0028 48.4341 76.8729 48.4341C77.4661 48.4341 77.9951 48.5492 78.4598 48.7795C78.9245 49.0097 79.2844 49.3273 79.5395 49.7322C79.7946 50.1371 79.9221 50.5797 79.9221 51.0601H78.7772C78.7772 50.5361 78.6111 50.1242 78.2788 49.8245C77.9466 49.5248 77.478 49.3749 76.8729 49.3749C76.3113 49.3749 75.8733 49.499 75.5588 49.7471C75.2444 49.9952 75.0872 50.3396 75.0872 50.7802C75.0872 51.1335 75.2365 51.4322 75.5351 51.6764C75.8337 51.9205 76.3419 52.1438 77.0597 52.3463C77.7776 52.5487 78.3392 52.772 78.7445 53.0162C79.1499 53.2603 79.4505 53.5452 79.6463 53.8707C79.842 54.1962 79.9399 54.5793 79.9399 55.0199C79.9399 55.7226 79.667 56.2853 79.1212 56.7081C78.5755 57.1309 77.8458 57.3422 76.9322 57.3422C76.339 57.3422 75.7853 57.2281 75.2711 56.9999C74.757 56.7716 74.3605 56.459 74.0817 56.062C73.8029 55.665 73.6635 55.2144 73.6635 54.7103H74.8084C74.8084 55.2343 75.0012 55.6481 75.3868 55.9518C75.7724 56.2555 76.2875 56.4074 76.9322 56.4074C77.5333 56.4074 77.9941 56.2843 78.3144 56.0382C78.6348 55.792 78.795 55.4566 78.795 55.0318C78.795 54.6071 78.6467 54.2786 78.35 54.0463C78.0534 53.8141 77.5155 53.5849 76.7364 53.3586Z" fill="#617087"/>
<path fill-rule="evenodd" clip-rule="evenodd" d="M79.9066 29.1164V43.152H69.6262V15.0094C69.6262 6.71993 76.4256 0 84.8131 0C93.2006 0 100 6.71993 100 15.0094C100 23.2988 93.2006 30.0188 84.8131 30.0188C83.8204 30.0188 83.1776 30.0188 81.7758 30.0188V20.1689C82.3752 20.4307 84.1177 20.1689 84.8131 20.1689C87.5229 20.1689 89.7197 17.9639 89.7197 15.2439C89.7197 12.5239 87.5229 10.3189 84.8131 10.3189C82.1033 10.3189 79.9066 12.5239 79.9066 15.2439C79.9066 15.4692 79.924 15.7055 79.9556 15.9475H79.9066V29.1164Z" fill="#2E3841"/>
<path fill-rule="evenodd" clip-rule="evenodd" d="M57.0095 11.7262V43.6211H46.7291V11.7262H37.3833V1.40723H66.3553V11.7262H57.0095Z" fill="#2E3841"/>
<path fill-rule="evenodd" clip-rule="evenodd" d="M10.2804 15.9476H21.4953V1.40723H31.7757V43.6211H21.4953V26.2665H10.2804V43.6211H0V1.40723H10.2804V15.9476Z" fill="#8C8C8C"/>
</g>
<defs>
<clipPath id="clip0">
<rect width="100" height="57.6923" fill="white"/>
</clipPath>
</defs>
</svg>
