<svg width="215" height="975" viewBox="0 0 215 975" fill="none" xmlns="http://www.w3.org/2000/svg">
<path d="M215 406L0 525.062V577.847L215 696.909V641.148L52.8558 551.455L215 461.761V406Z" fill="#EAE7EA"/>
<path d="M0 678.852L162.144 768.545L0 858.239V914L215 794.938V742.153L0 623.091V678.852Z" fill="#EAE7EA"/>
<path d="M86.34 911.93L140.91 927.06L140.91 931.48L49.62 941.68L49.62 965.99L171 951.54L171 914.48L109.97 898.33L109.97 893.91L171 877.93L171 840.87L49.62 826.42L49.62 850.39L140.91 860.76L140.91 865.01L86.34 880.31L86.34 911.93ZM148.39 778.011L119.83 778.011L119.83 727.861L97.73 727.861L97.73 778.011L72.23 778.011L72.23 713.581L49.62 713.581L49.62 803.341L171 803.341L171 711.711L148.39 711.711L148.39 778.011ZM171 562.904L171 537.234L49.62 575.994L49.62 615.264L171 653.854L171 628.864L138.19 619.004L138.19 572.764L171 562.904ZM73.93 599.794L73.93 592.314L116.09 579.564L116.09 612.544L73.93 599.794ZM49.62 520.119L171 520.119L171 494.789L125.27 494.789L125.27 461.979L171 445.659L171 420.159L119.83 438.349C113.71 426.789 102.49 420.329 87.36 420.329C63.56 420.329 49.62 435.969 49.62 462.999L49.62 520.119ZM71.89 494.789L71.89 469.119C71.89 452.289 76.31 446.169 87.7 446.169C97.9 446.169 103.68 451.609 103.68 466.569L103.68 494.789L71.89 494.789ZM148.39 371.439L119.83 371.439L119.83 321.289L97.73 321.289L97.73 371.439L72.23 371.439L72.23 307.009L49.62 307.009L49.62 396.769L171 396.769L171 305.139L148.39 305.139L148.39 371.439ZM171 212.432L145.16 212.432L145.16 238.612L171 238.612L171 212.432ZM171 162.627L145.16 162.627L145.16 188.807L171 188.807L171 162.627ZM171 112.822L145.16 112.822L145.16 139.002L171 139.002L171 112.822Z" fill="black"/>
</svg>
