<svg xmlns="http://www.w3.org/2000/svg" preserveAspectRatio="xMidYMid" width="1524" height="942" viewBox="0 0 1524 942"><defs><style>.cls-1{fill:#a9a8c3;opacity:.2;fill-rule:evenodd}</style></defs><path d="M1523.556 541.539a4.353 4.353 0 0 1-5.621 2.535l-.031-.012a4.354 4.354 0 0 1-2.526-5.592 4.368 4.368 0 0 1 5.663-2.539 4.35 4.35 0 0 1 2.515 5.608zm-13.929-112.228a4.354 4.354 0 0 1-2.529-5.612 4.356 4.356 0 0 1 5.623-2.545 4.361 4.361 0 0 1 2.538 5.627c-.845 2.254-3.367 3.389-5.632 2.53zm-191.644 195.513a4.36 4.36 0 0 1-2.544-5.632c.852-2.248 3.362-3.376 5.62-2.534a4.374 4.374 0 0 1 2.55 5.621 4.361 4.361 0 0 1-5.626 2.545zm61.493-130.73a4.367 4.367 0 0 1 5.62-2.554c-.859 2.265-3.367 3.408-5.62 2.554zm10.025 79.567a4.348 4.348 0 0 1-5.646 2.509 4.36 4.36 0 0 1-2.52-5.607 4.372 4.372 0 0 1 5.626-2.533 4.365 4.365 0 0 1 2.54 5.631zm48.687 174.178a4.382 4.382 0 0 1-2.8-3.628l-111.877 10.912a4.352 4.352 0 0 1-5.418 4.261l-59.254 169.67.369 2.821a4.362 4.362 0 0 1 .737 5.651l2.399 18.373a5.897 5.897 0 0 1 2.003.387 5.938 5.938 0 0 1-4.211 11.101 5.926 5.926 0 0 1-2.828-2.245l-43.974 23.183-52.991 64.846-.132.17-53.827-8.632-143.087 75.436a4.358 4.358 0 0 1 3.464-.157 4.355 4.355 0 0 1 2.542 5.615 4.369 4.369 0 0 1-5.623 2.551l-.011-.005a4.361 4.361 0 0 1-2.534-5.629 4.316 4.316 0 0 1 1.914-2.244l-46.833 24.69a6.875 6.875 0 0 1-8.829 8.97 6.903 6.903 0 0 1-1.723-.952l-180.945 190.819a6.874 6.874 0 0 1 1.025 6.686c-1.345 3.546-5.329 5.328-8.886 3.979a6.875 6.875 0 0 1-3.877-9.161l-95.827-81.17-64.517 46.519a4.342 4.342 0 0 1 .33 3.767 4.373 4.373 0 0 1-5.629 2.541l-.009-.004a4.357 4.357 0 0 1-2.534-5.62 4.399 4.399 0 0 1 .878-1.426l-176.267-195.77a4.357 4.357 0 0 1-4.156.582 4.355 4.355 0 1 1 3.079-8.149l.008.003.036.013 59.066-118.475a4.326 4.326 0 0 1-.881-.716l-80.565 63.325a4.36 4.36 0 0 1 .429 3.928 4.369 4.369 0 0 1-5.631 2.532l-.011-.005c-2.249-.853-3.371-3.364-2.535-5.62a4.344 4.344 0 0 1 2.125-2.354l-49.486-125.687-87.722-24.638a4.356 4.356 0 0 1-5.615 2.519l-.024-.009c-2.254-.855-3.369-3.365-2.536-5.614a4.383 4.383 0 0 1 5.254-2.664l38.098-100.91c-2.011-.969-2.969-3.345-2.174-5.472.026-.07.054-.141.085-.209l-130.979-72.082a4.37 4.37 0 0 1-4.566.923c-2.251-.854-3.38-3.37-2.537-5.63a4.363 4.363 0 0 1 4.001-2.814l10.039-113.845a4.381 4.381 0 0 1-.699-.199 4.374 4.374 0 0 1-2.539-5.62 4.356 4.356 0 0 1 5.628-2.534 4.356 4.356 0 0 1 2.652 2.876l128.88-31.591a4.306 4.306 0 0 1 .232-2.185c.844-2.265 3.368-3.394 5.636-2.541a4.366 4.366 0 0 1 2.815 3.824l8.704.267-2.898-63.492a6.236 6.236 0 0 1-.713-.222c-3.083-1.169-4.628-4.596-3.465-7.663 1.164-3.069 4.593-4.608 7.676-3.439.457.174.882.398 1.268.664l506.579-331.678a5.94 5.94 0 0 1 7.403-8.247 5.938 5.938 0 0 1 1.323 10.403l80.55 160.017a5.922 5.922 0 0 1 3.718.167 5.94 5.94 0 0 1 3.454 7.66 5.895 5.895 0 0 1-2.692 3.091l34.521 110.248 52.121-36.016a4.353 4.353 0 0 1-.29-3.699c.838-2.235 3.376-3.386 5.626-2.533.224.085.437.187.639.303l100.885-142.93a4.354 4.354 0 0 1-1.116-4.743 4.367 4.367 0 0 1 5.625-2.53c2.254.855 3.404 3.369 2.551 5.617a4.377 4.377 0 0 1-.894 1.44l103.942 111.314a4.355 4.355 0 0 1 4.918-.295l29.225-39.96 190.663 115.436a4.348 4.348 0 0 1 3.89-.366 4.352 4.352 0 0 1 2.521 5.61c-.85 2.242-3.371 3.373-5.624 2.53a4.38 4.38 0 0 1-1.491-.944l-118.549 133.33-.13.151-86.27-7.497a4.457 4.457 0 0 1-.216.773c-.839 2.257-3.371 3.393-5.622 2.539a4.363 4.363 0 0 1-1.999-1.532l-12.738 7.525 39.828 11.732c1.25-2.903 4.587-4.33 7.577-3.196a5.94 5.94 0 0 1 .05 11.084l11.404 87.357 144.102-8.027c.036-.383.121-.767.264-1.143.846-2.251 3.377-3.39 5.647-2.543a4.368 4.368 0 0 1 1.572 7.132l58.945 61.323a4.356 4.356 0 0 1 3.972-.454 4.368 4.368 0 0 1 2.551 5.621 4.369 4.369 0 0 1-5.632 2.548zm-120.845 11.282c-2.083-.952-3.104-3.351-2.291-5.511.096-.251.213-.489.347-.712l-87.968-64.432 31.176 238.812 58.736-168.157zm-56.518 196.949l-2.249-17.224a4.362 4.362 0 0 1-3.819.349l-.011-.004a4.347 4.347 0 0 1-.887-.458l-9.15 11.199 13.054 8.002a5.962 5.962 0 0 1 3.062-1.864zM766.756 530.02a4.375 4.375 0 0 1-1.491-.24l-17.957 40.125 22.944-8.666-3.497-31.219h.001zm6-119.02a4.367 4.367 0 0 1-3.523 2.781l-.11 5.661 89.515-97.825a5.908 5.908 0 0 1-.754-.934l-67.527 27.726 8.861 27.149-27.212 31.071a4.375 4.375 0 0 1 .75 4.371zm-2.534-5.635c.456.173.868.416 1.225.712l26.871-30.706-8.699-26.659-55.976 22.983 9.292 9.817 23.139 24.436a4.4 4.4 0 0 1 4.148-.583zm-502.421 82.046l297.902 146.716a5.943 5.943 0 0 1 5.841-2.788l8.237-30.631-22.615-110.999a4.336 4.336 0 0 1-2.016-.257 4.383 4.383 0 0 1-2.555-5.622 4.38 4.38 0 0 1 5.628-2.551c.294.112.567.251.822.413l49.383-63.532-340.719 66.286c.275.944.319 1.96.092 2.965zm139.942 277.288a4.358 4.358 0 0 1-5.62 2.537l-.009-.003a4.366 4.366 0 0 1-2.283-1.979l-48.492 36.003 6.225 17.867a4.332 4.332 0 0 1 2.088.259 4.346 4.346 0 0 1 2.457 2.343l67.266-10.425a4.382 4.382 0 0 1 .267-1.823c.854-2.251 3.382-3.377 5.632-2.532a4.377 4.377 0 0 1 2.428 2.262l137.637-48.52-5.156-117.549a5.939 5.939 0 0 1-1.512-.359 5.914 5.914 0 0 1-2.08-1.337L406.775 760.099a4.372 4.372 0 0 1 .968 4.6zm-42.087-61.45a4.386 4.386 0 0 1 5.101-2.697l41.169-83.992-49.246-57.35-97.593-3.005 2.396 52.458 10.037 32.204 11.207 35.939a4.366 4.366 0 0 1 2.461.188 4.363 4.363 0 0 1 2.541 5.623 4.347 4.347 0 0 1-1.58 2.028l44.863 77.965a4.337 4.337 0 0 1 3.361-.116l.02.008 26.617-54.306a4.394 4.394 0 0 1-1.354-4.947zm-30.902 61.779a4.348 4.348 0 0 1 1.562-2.017l-44.853-77.976a4.355 4.355 0 0 1-3.276.143l-.005-.001.003.001-14.595 31.678-1.062 2.307 2.785 60.981 59.188-13.027a4.363 4.363 0 0 1 .253-2.089zm-63.62-42.837L242.433 784.5a4.345 4.345 0 0 1 1.98 2.444l29.381-6.466-2.66-58.287zm1.314-4.771l15.006-32.577a4.354 4.354 0 0 1 .503-7.797l-8.456-27.132-11.875-38.095 4.822 105.601zm67.438 53.389a4.352 4.352 0 0 1-2.594-.16l-.017-.005a4.34 4.34 0 0 1-2.601-2.744l-59.324 13.06 3.077 67.391a5.884 5.884 0 0 1 2.299.383c.85.322 1.583.815 2.175 1.424l67.233-49.919-10.248-29.43zm-56.066 80.578a5.92 5.92 0 0 1 .765 2.807l48.32 5.875 22.311-33.34a4.354 4.354 0 0 1-1.201-4.819 4.355 4.355 0 0 1 2.758-2.613l-6.109-17.538-66.844 49.628zM434.08 984.79l89.848 16.35 54.46-105.07a5.954 5.954 0 0 1-2.951-4.967L432.69 873.749l-2.451 106.322a4.388 4.388 0 0 1 1.043.258 4.352 4.352 0 0 1 2.798 4.461zm261.153 218.071a4.329 4.329 0 0 1 2.689-2.587l-40.06-170.137a4.315 4.315 0 0 1-2.138-.241 4.383 4.383 0 0 1-2.744-3.221l-188.065 99.699a6.843 6.843 0 0 1 .012 4.9c-.181.478-.41.924-.68 1.336l9.047 7.662 221.943 62.577-.004.012zm36.947-50.3a6.87 6.87 0 0 1 5.32-4.347l16.622-170.058a6.962 6.962 0 0 1-1.013-.299 6.839 6.839 0 0 1-3.239-2.546l-89.498 47.445a4.368 4.368 0 0 1 .977 4.609 4.347 4.347 0 0 1-2.708 2.591l40.058 170.135a4.356 4.356 0 0 1 3.785 1.321l32.295-25.362 1.427-14.603a.5.5 0 0 1-.026-.011c-3.557-1.349-5.345-5.329-4-8.875zm92.668-51.489a4.318 4.318 0 0 1 2.003-2.288l-37.976-88.176-29.39-33.531a6.91 6.91 0 0 1-3.833 1.229l-16.6 169.831a6.897 6.897 0 0 1 6.333 5.573l18.87-.806 61.015-47.912a4.381 4.381 0 0 1-.422-3.92zm11.415-36.402l-45.69-52.124 37.005 85.928a4.357 4.357 0 0 1 1.835-.184h.004a.01.01 0 0 1-.003-.001l-.001.001 6.85-33.62zm170.841-37.171a4.342 4.342 0 0 1 3.022-2.686l-3.407-22.002-9.999-64.511.012-.001-.008.001a4.37 4.37 0 0 1-4.575-5.085v-.003l-117.887-31.453-.012.03a4.35 4.35 0 0 1-4.564 2.793l-4.711 23.117-27.669 135.835 22.844 26.06 146.857-59.29a4.337 4.337 0 0 1 .097-2.805zm29.774-228.711l.018-.048.003-.006a4.44 4.44 0 0 1 .001-.003l-.004.009-42.691-21.255-9.284 7.849a5.926 5.926 0 0 1 .433 5.634l48.41 29.672 5.436-16.327a4.357 4.357 0 0 1-2.322-5.525zM854.007 641.686a4.29 4.29 0 0 1 1.101-1.646l-7.139-9.181-49.893 84.024a5.938 5.938 0 0 1 1.9 6.399l8.958 3.308 15.419-25.761 31.16-52.071a4.357 4.357 0 0 1-1.506-5.072zM738.111 445.477l-101.256-29.986c-1.097 2.605-3.892 4.052-6.613 3.521l-20.479 76.126 76.639 14.707 53.818-58.815a5.946 5.946 0 0 1-2.109-5.553zm-96.173 56.657l-32.386-6.212-28.627 106.419 3.795 18.626 101.042-110.425-43.824-8.408zM437.823 812.562a4.367 4.367 0 0 1-3.787 2.811l-1.31 56.83 142.867 17.368a5.953 5.953 0 0 1 5.198-4.556l-5.416-123.494-137.407 48.432a4.312 4.312 0 0 1-.145 2.609zm428.259 86.147a4.349 4.349 0 0 1 3.557-2.788l.012-.001-.009.001h-.003l-.445-16.128-100.509 81.925 19.92 46.256 48.043 54.808 10.598-52.023 21.66-106.338a5.78 5.78 0 0 1-.288-.099l-.005-.002-.003-.002a4.345 4.345 0 0 1-2.528-5.609zm8.387 2.28l117.889 31.449.013-.034a4.363 4.363 0 0 1 5.086-2.698l-.01-.002 12.537-37.626 23.279-69.931-48.718-29.859a5.948 5.948 0 0 1-6.727 1.81 5.952 5.952 0 0 1-1.975-1.234l-105.864 86.289.463 16.747c.423.027.849.118 1.266.276l.015.005a4.362 4.362 0 0 1 2.746 4.808zm100.401-109.32a5.822 5.822 0 0 1-.461-.908l-102.66 26.447a4.37 4.37 0 0 1-3.415 2.411l1.591 57.589 104.945-85.539zm-28.197-14.575l-137.778-50.876-14.15 23.644a4.369 4.369 0 0 1 1.043 5.971l68.92 56.398a4.359 4.359 0 0 1 4.663-1.016 4.336 4.336 0 0 1 2.541 2.554 4.37 4.37 0 0 1 .272 1.74l101.839-26.234a5.91 5.91 0 0 1 .103-2.044l-26.406-9.751-27.767 13.289-48.041 23a4.375 4.375 0 0 0-.342-.714l-.004-.006 75.107-35.955zm-156.414-19.781a4.37 4.37 0 0 1-2.181-5.461l.03-.079-96.056-48.778a4.361 4.361 0 0 1-5.238 1.756 4.363 4.363 0 0 1-1.946-1.46l-59.206 36.504-11.397 7.028a4.34 4.34 0 0 1 .176 3.486 4.368 4.368 0 0 1-.905 1.448l4.362 4.92 89.74 101.223 49.457-12.742 33.172-87.843-.002-.001-33.17 87.844 33.164-87.845zm-47.083 138.214a4.344 4.344 0 0 1-2.007 2.293l26.882 62.424 101.09-82.397-1.604-58.207a4.4 4.4 0 0 1-2.213-.777l-4.463 1.15-76.901 47.006-40.959 25.039a4.367 4.367 0 0 1 .175 3.469zm-.59-4.148l115.614-70.68-100.826 25.975-16.383 43.385a4.34 4.34 0 0 1 1.595 1.32zm13.846-44.463l-47.648 12.275 27.717 31.265a4.36 4.36 0 0 1 3.746-.68l16.185-42.86zm-21.444 45.525c.21-.555.521-1.041.903-1.447l-27.989-31.575L587.3 890.488a5.901 5.901 0 0 1-.248 2.19l118.395 54.736 31.002-49.95a4.39 4.39 0 0 1-1.461-5.023zm-28.231-34.315L612.94 752.283a4.365 4.365 0 0 1-4.123.568 4.362 4.362 0 0 1-2.422-2.264l-29.514 10.403 5.445 124.072c.385.063.77.166 1.149.31a5.936 5.936 0 0 1 3.51 3.61l119.772-30.856zM611.9 744.686l.006.002a4.34 4.34 0 0 1 1.947 1.466l-.002-.004 26.151-16.127 44.444-27.416a4.326 4.326 0 0 1-.173-3.473c.83-2.225 3.288-3.365 5.493-2.6l5.494-12.278-105.587-38.989 20.209 99.164a4.368 4.368 0 0 1 2.018.255zm146.137 100.23l104.649-26.96 1.218-.745a4.328 4.328 0 0 1-.166-3.46c.122-.325.28-.627.465-.904l-68.92-56.394.002-.003 68.921 56.393-68.919-56.394-.004.004a4.367 4.367 0 0 1-4.274 1.143l-32.972 87.32zm10.008 117.323l-6.709 5.468a6.858 6.858 0 0 1-.698 8.362l26.269 29.968-18.862-43.798zm-.635-1.473l-26.974-62.632a4.368 4.368 0 0 1-2.889-.066l-.013-.005a4.523 4.523 0 0 1-.402-.176l-.006-.003.004.002-30.949 49.867 43.483 20.103a6.879 6.879 0 0 1 8.322-2.857 6.87 6.87 0 0 1 2.375 1.513l7.049-5.746zm-18.392 8.491l-43.655-20.186-44.483 71.668 88.267-46.792a6.857 6.857 0 0 1-.129-4.69zm-44.389-20.525l-118.212-54.66a5.952 5.952 0 0 1-6.605 2.592l-54.302 104.765 127.539 23.211a4.37 4.37 0 0 1 5.754-2.906l.114.044.554-.293 45.158-72.753zM576.844 760.157l29.284-10.324a4.313 4.313 0 0 1 .148-2.605 4.318 4.318 0 0 1 2.821-2.638l-20.302-99.648-12.863-4.749a5.941 5.941 0 0 1-4.226 2.903l5.138 117.061zm-2.594-127.748l9.806-10.717-3.593-17.636-7.445 27.674c.445.182.857.41 1.232.679zm33.789-136.778l-47.159-9.044a4.359 4.359 0 0 1-2.94 2.964l22.302 109.441 27.797-103.361zm-23.6 127.941l-9.059 9.9c.28.342.52.713.716 1.105l9.83-3.712-1.487-7.293zm-7.838 12.459a5.894 5.894 0 0 1-.082 2.743l11.914 4.399-2.197-10.782-9.635 3.64zm12.711 7.466L695.89 682.85l49.478-110.568-158.377 59.825 2.321 11.39zm107.328 39.63l91.024 33.609-2.387-21.316-14.849-132.605-24.005 9.07-49.783 111.242zm-.629 1.406l-5.517 12.33a4.367 4.367 0 0 1 1.915 5.42l16.136 8.195 79.926 40.582-.004.006-.002.003.006-.009a4.374 4.374 0 0 1 2.817-1.947l-3.432-30.665-91.845-33.915zm96.064 64.49a4.378 4.378 0 0 1 1.979.426l14.075-23.515-8.808-3.252a5.943 5.943 0 0 1-10.24-.393l2.994 26.734zm51.987-81.572l-34.363 57.422 138.914 51.293 18.714-8.96a4.348 4.348 0 0 1 .009-3.051c.197-.523.483-.986.835-1.378l.007-.008-.005.005-.002.003-107.427-116.084a4.349 4.349 0 0 1-4.543.475l-12.139 20.283zm79.985 46.474l44.71 48.309a4.392 4.392 0 0 1 3.445-.839l.801-2.871-27.184-133.062-71.699 14.852-11.692 2.422a4.37 4.37 0 0 1-1.098 3.417l62.717 67.772zm48.921 47.679c.262.1.508.223.739.365l-.356-1.74-.383 1.375zm.94-6.326l39.159-140.39a4.37 4.37 0 0 1-2.622-2.813l-63.121 13.075 26.584 130.128zm-4.031 14.493l-.02-.007a4.31 4.31 0 0 1-2.183-1.833l-18.013 8.621 24.998 9.231a5.921 5.921 0 0 1 3.33-2.854l-3.004-14.704a4.38 4.38 0 0 1-5.108 1.546zm9.618 12.851a5.938 5.938 0 0 1 2.535.373c.722.274 1.36.674 1.899 1.165l8.779-7.421-16.048-7.991 2.835 13.874zm45.747 66.158l-27.04 81.176a4.361 4.361 0 0 1 2.334 5.538 4.35 4.35 0 0 1-3.025 2.685l13.405 86.512a4.415 4.415 0 0 1 2.04.366l89.62-160.43-68.607-42.048-8.727 26.201zm-188.32 216.643l-6.728 33.03c.094.027.186.059.278.094l.011.004a4.36 4.36 0 0 1 2.333 2.079l25.827-10.427-21.721-24.78zm-91.416 89.823a6.82 6.82 0 0 1-.443 2.201c-1.154 3.043-4.25 4.793-7.35 4.378l-1.262 12.914 25.73-20.206-16.675.713zm-93.252-129.935l-127.129-23.138-62.721 121.008a6.905 6.905 0 0 1 1.797 1.819l188.053-99.689zM433.231 815.354a4.355 4.355 0 0 1-3.734-3.281l-67.136 10.422a4.384 4.384 0 0 1-.172 2.501c-.856 2.254-3.377 3.376-5.635 2.536a4.29 4.29 0 0 1-.695-.336l-8.856 13.237-13.209 19.744 98.127 11.929 1.31-56.752zm126.432-333.181a4.362 4.362 0 0 1 1.372 3.614l47.215 9.059 20.525-76.323a5.955 5.955 0 0 1-3.113-3.716l-16.052 3.123-49.947 64.243zm65.769-68.892a5.94 5.94 0 0 1 8.049-5.649 5.933 5.933 0 0 1 2.884 2.33l95.36-39.146-.754-.797-3.026-3.197a4.365 4.365 0 0 1-4.247.644 4.365 4.365 0 0 1-2.755-3.314l-69.883 5.892a4.362 4.362 0 0 1-5.85 2.096l-34.161 43.939 14.383-2.798zm103.897-48.344c-.193.508-.47.96-.81 1.344l3.988 4.214 56.634-23.249-4.389-13.451a4.373 4.373 0 0 1-5.489-4.014l-40.038-2.332-12.082 32.012a4.367 4.367 0 0 1 2.186 5.476zm37.808 48.596l-.014-.006-.009-.003a4.352 4.352 0 0 1-2.518-5.608 4.32 4.32 0 0 1 .879-1.432l-32.614-34.468-95.83 39.346c.273.842.36 1.747.232 2.652l101.294 29.983a5.939 5.939 0 0 1 9.668-1.715l20.096-21.962.126-6.509a4.382 4.382 0 0 1-1.31-.278zm-17.973 30.009a5.917 5.917 0 0 1 .371 4.997c-1.164 3.068-4.605 4.602-7.665 3.442a6.577 6.577 0 0 1-.312-.128l-53.373 58.334 74.305 14.259-.002.005-74.311-14.257 74.311 14.26a4.272 4.272 0 0 0-.15.773l-.001.007-74.79-14.349-102.443 111.961 1.576 7.734 159.574-60.276 18.281-40.85a4.358 4.358 0 0 1-2.047-5l.002-.008a4.338 4.338 0 0 1 3.878-3.137l1.908-98.655-19.112 20.888zm21.858 117.406l17.458-6.594-19.453-25.014c-.45.286-.951.488-1.476.594l-.003.001 3.474 31.013zm.177 1.577L784.64 682.63l3.853 34.413.345.127a5.942 5.942 0 0 1 7.93-3.096l50.186-84.52-45.076-57.971-12.41-15.959-18.269 6.901zm20.552-5.25l55.636 71.548 4.191-7.058a4.3 4.3 0 0 1 .238-2.151 4.321 4.321 0 0 1 2.552-2.545l63.829-107.5a5.943 5.943 0 0 1-1.601-1.965l-126.355 47.728 1.51 1.943zm64.56 59.536c.379.035.761.12 1.135.26a4.363 4.363 0 0 1 2.537 5.627 4.357 4.357 0 0 1-5.626 2.53 4.35 4.35 0 0 1-2.072-1.638l-3.882 6.538 7.331 9.428a4.354 4.354 0 0 1 3.909-.384 4.35 4.35 0 0 1 2.622 2.791l83.394-17.282-.789-3.861c-.982 1.99-3.334 2.954-5.45 2.151l-.015-.005-.007-.003a4.368 4.368 0 0 1-2.537-5.613 4.364 4.364 0 0 1 5.626-2.532l.032.012c.483.183.913.444 1.284.763l-21.402-104.757a5.926 5.926 0 0 1-2.883-.474l-63.207 106.449zm90.854 7.559l63.117-13.081a4.368 4.368 0 0 1 2.818-4.584l-21.838-80.727-63.866-18.814a5.93 5.93 0 0 1-3.493 3.341l23.262 113.865zm64.81-24.862l1.891 6.987a4.334 4.334 0 0 1 2.3.215 4.379 4.379 0 0 1 2.813 3.809l40.176 1.075 41.061 1.092c.037-.37.123-.742.262-1.107.857-2.261 3.368-3.406 5.627-2.549.904.343 1.629.95 2.117 1.702l56.827-33.556-172.892-50.934 19.818 73.266zm91.048 17.69a4.375 4.375 0 0 1-2.812-3.714l-13.043-.349-68.209-1.83-.001.003 68.21 1.827-68.211-1.819a4.388 4.388 0 0 1-5.121 3.784l-38.975 139.717-.604 2.166v.001l2.2 10.772 16.914 8.422 137.807-116.495-24.632-42.676a4.351 4.351 0 0 1-3.523.191zM994.869 776.923l42.382 21.104a4.377 4.377 0 0 1 5.251-1.792 4.351 4.351 0 0 1 2.195 1.835l126.504-61.227a4.358 4.358 0 0 1 1.568-5.107l-40.81-70.701-137.09 115.888zm176.678-39.366l-126.504 61.229a4.362 4.362 0 0 1-5.076 5.785l-5.497 16.502 68.86 42.205 69.483-124.381a4.334 4.334 0 0 1-1.266-1.34zm-67.538 126.137l140.011 85.816 9.217-11.281a4.344 4.344 0 0 1-1.026-4.642 4.342 4.342 0 0 1 2.083-2.343l-66.728-164.574-11.025-27.189a4.334 4.334 0 0 1-2.795-.101l-.02-.008a3.719 3.719 0 0 1-.215-.088l-69.502 124.41zm152.618 100.079a5.915 5.915 0 0 1 .284-4.557l-13.186-8.082-27.908 34.153 40.81-21.514zm-96.747 88.722l51.65-63.218-103.985 54.82 52.335 8.398zm54.133-66.256l29.024-35.525-139.782-85.671-40.658 72.78-48.946 87.621a4.377 4.377 0 0 1 1.894 3.89l89.482 14.359 108.986-57.454zm-308.075 155.59a6.873 6.873 0 0 1 6.325-.747 6.851 6.851 0 0 1 3.228 2.529l188.374-99.306-88.445-14.181a4.37 4.37 0 0 1-5.774 2.999l-.009-.004a4.349 4.349 0 0 1-2.332-2.08L860.7 1090.221l45.238 51.608zm-46.746-50.999l-26.079 10.528a4.313 4.313 0 0 1-.087 2.8 4.368 4.368 0 0 1-7.261 1.464l-60.146 47.224 37.997-1.624a4.33 4.33 0 0 1-.066-3.231 4.373 4.373 0 0 1 5.627-2.542l.016.007a4.347 4.347 0 0 1 2.592 5.419l91.177-3.896c.049-.64.189-1.283.429-1.914a6.84 6.84 0 0 1 1.383-2.233l-45.582-52.002zm-137.458 250.782c.708.269 1.347.64 1.905 1.093l180.911-190.782a6.893 6.893 0 0 1-1.533-3.406l-92.136 3.937a4.359 4.359 0 0 1-4.79 1.149 4.395 4.395 0 0 1-1.428-.884l-41.119 1.757-27.2 21.356-16.168 165.387a6.902 6.902 0 0 1 1.558.393zm-7.974 2.34a6.888 6.888 0 0 1 4.879-2.759l16.034-164.049-31.7 24.889a4.346 4.346 0 0 1 .426 3.92c-.851 2.245-3.369 3.393-5.62 2.539l-.01-.004-.007-.002a4.338 4.338 0 0 1-1.743-1.215l-77.583 55.941 95.324 80.74zm-95.941-81.264l77.741-56.054a4.353 4.353 0 0 1-.539-3.014l-220.266-62.11 143.064 121.178zm-71.558 46.696a4.344 4.344 0 0 1 4.157-.586 4.378 4.378 0 0 1 1.757 1.221l64.361-46.406-145.338-123.106-100.335-28.293a4.329 4.329 0 0 1-.871 1.404l176.269 195.766zm-177.184-202.442a4.344 4.344 0 0 1 2.005 4.507l83.974 23.681 14.681 4.139-6.468-5.478a6.884 6.884 0 0 1-7.217 1.472 6.872 6.872 0 0 1-3.993-8.87 6.87 6.87 0 0 1 8.869-3.984l.12.046 62.494-120.57-89.608-16.31a3.829 3.829 0 0 1-.122.371c-.842 2.254-3.37 3.393-5.623 2.539a.122.122 0 0 0-.017-.007l-.027-.01-59.068 118.474zm-27.967-58.025a4.402 4.402 0 0 1 2.776.11c.637.242 1.186.62 1.625 1.087l80.559-63.335a4.353 4.353 0 0 1-.422-3.911 4.347 4.347 0 0 1 3.785-2.817l2.453-106.4-99.051-12.042-41.224 61.624 49.499 125.684zm-140.119-155.52a4.458 4.458 0 0 0-.353-.151h-.001a4.351 4.351 0 0 1 2.742 4.87l87.599 24.608 40.969-61.223-47.537-5.778a6.071 6.071 0 0 1-.21.669c-1.163 3.067-4.596 4.616-7.685 3.445-3.055-1.16-4.596-4.595-3.433-7.663a5.92 5.92 0 0 1 3.823-3.569l-3.074-67.312-29.243 6.438a4.374 4.374 0 0 1-5.5 4.755l-38.097 100.911zm50.368-333.767a4.395 4.395 0 0 1-5.037-2.85l-128.925 31.595a4.323 4.323 0 0 1-.263 1.961c-.655 1.765-2.345 2.841-4.131 2.823l-10.041 113.82c.28.046.56.122.837.228l.012.004a4.36 4.36 0 0 1 1.993 6.618l130.825 72.008a4.374 4.374 0 0 1 5.074-1.671l29.351-63.719-5.223-114.387-14.472-46.43a4.353 4.353 0 0 1 0 0zm3.428-3.741a4.379 4.379 0 0 1-.253 1.022 4.346 4.346 0 0 1-2.409 2.481l13.563 43.513-2.135-46.746-8.766-.27zm7.37-63.845l2.895 63.375 97.835 3.001.167.016 49.807 58.006-41.354 84.363a4.347 4.347 0 0 1 2.325 5.527 4.343 4.343 0 0 1-5.636 2.54l-.009-.003a4.432 4.432 0 0 1-.518-.237l-26.575 54.213a4.375 4.375 0 0 1 1.829 5.275 4.342 4.342 0 0 1-2.284 2.428l10.171 29.19 48.516-36.022a4.363 4.363 0 0 1 5.878-4.64l.01.004c.077.029.153.061.228.095l160.205-118.949a5.926 5.926 0 0 1-.569-4.694L267.265 488.866a5.942 5.942 0 0 1-5.108 3.178zm517.173-339.63a5.92 5.92 0 0 1-4.175-.014 5.93 5.93 0 0 1-2.314-1.582L266.555 482.287c.192.229.366.472.519.724l342.793-66.701 34.653-44.584a4.365 4.365 0 0 1-1.512-5.056 4.36 4.36 0 0 1 5.631-2.528 4.361 4.361 0 0 1 2.706 5.084l69.53-5.871a4.323 4.323 0 0 1 .282-1.504 4.378 4.378 0 0 1 5.246-2.666l12.291-32.559 40.603 2.363c.044-.324.125-.648.246-.966.846-2.232 3.361-3.37 5.631-2.528a4.38 4.38 0 0 1 2.544 5.617 4.373 4.373 0 0 1-2.219 2.408l4.38 13.423 67.337-27.643a5.893 5.893 0 0 1 .079-3.974 5.903 5.903 0 0 1 2.526-3.003L779.33 152.414zm84.961 170.78a5.903 5.903 0 0 1-3.544-.209 5.824 5.824 0 0 1-.89-.424l-90.779 99.216-1.928 99.548a4.355 4.355 0 0 1 2.868 1.541l128.901-89.07-34.628-110.602zm34.874 111.389L770.47 523.52a4.385 4.385 0 0 1 .288 3.691 4.317 4.317 0 0 1-1.103 1.644l19.598 25.207 126.829-47.907a5.883 5.883 0 0 1 .251-3.344 5.915 5.915 0 0 1 3.152-3.325l-20.32-64.903zm55.453-35.786a4.352 4.352 0 0 1-1.808-1.285l-52.322 36.157 20.473 65.382a5.94 5.94 0 0 1 3.036.317 5.944 5.944 0 0 1 3.793 6.307l62.998 18.557-15.724-58.124-18.156-67.098a4.365 4.365 0 0 1-2.29-.213zm110.189-150.485a4.367 4.367 0 0 1-4.959.178l-100.86 142.907a4.43 4.43 0 0 1 1.408 2.297l-.002-.008 133.242-19.855a4.345 4.345 0 0 1-1.567-.293c-2.249-.853-3.368-3.37-2.529-5.61a4.37 4.37 0 0 1 8.178 3.082 4.351 4.351 0 0 1-2.818 2.633l72.748-10.839.001.008v-.006a4.331 4.331 0 0 1 .275-1.788c.194-.518.478-.978.823-1.368l-103.94-111.338zm120.919 313.932a4.368 4.368 0 0 1 2.827 4.064l85.868 7.467 118.492-133.262a4.343 4.343 0 0 1 .549-5.707l-189.781-114.894-28.798 39.363a4.366 4.366 0 0 1 1.204 4.826 4.355 4.355 0 0 1-3.43 2.768l-.002.001 11.681 195.1c.463.015.933.104 1.39.274zm-5.481 5.958a4.326 4.326 0 0 1-.142-3.405 4.35 4.35 0 0 1 3.435-2.78l-11.675-195.101a4.31 4.31 0 0 1-1.394-.281 4.367 4.367 0 0 1-2.703-3.046l-142.199 21.182-65.052 9.696a4.337 4.337 0 0 1-2.832 4.333l34.001 125.696 175.188 51.604 13.373-7.898zm27.067 21.425l-41.226-12.145-57.489 33.96c.411.99.459 2.135.052 3.225a4.34 4.34 0 0 1-1.427 1.915l24.574 42.578 76.798-64.92a5.952 5.952 0 0 1-1.282-4.613zm6.551 6.769a5.954 5.954 0 0 1-4.143-1.094l-77.142 65.211 40.879 70.829a4.361 4.361 0 0 1 3.367-.113 4.42 4.42 0 0 1 1.089.6l40.945-44.846a4.348 4.348 0 0 1-.864-4.492 4.349 4.349 0 0 1 5.618-2.533c.47.178.891.429 1.257.733l-11.006-84.295zm11.858 90.818l-.378-.277.007-.008-.005.005a4.367 4.367 0 0 1-5.904.582l-40.94 44.848a4.358 4.358 0 0 1-1.219 6.818l-.006.003.004-.002 77.754 191.762a4.332 4.332 0 0 1 2.312-.054l.139-.4-31.764-243.277zm145.15-11.067l-144.001 8.024.416 3.191 88.587 64.894a4.368 4.368 0 0 1 5.426-.887l50.688-72.692a4.385 4.385 0 0 1-1.116-2.53zm6.868 3.173a4.34 4.34 0 0 1-4.044.509l-.033-.012a4.325 4.325 0 0 1-1.077-.594l-28.435 40.77-22.197 31.832a4.393 4.393 0 0 1 1.478 2.513l111.943-10.91c.029-.41.118-.822.268-1.226a4.365 4.365 0 0 1 1.026-1.568l-58.929-61.314zm-235.708-14.973a4.357 4.357 0 0 1-2.536-5.615 4.341 4.341 0 0 1 5.642-2.525 4.356 4.356 0 0 1 2.527 5.61 4.367 4.367 0 0 1-5.633 2.53zm-1.723-212.841l-.019-.007a4.348 4.348 0 0 1-2.523-5.611 4.356 4.356 0 0 1 5.662-2.516c2.233.847 3.355 3.365 2.507 5.602a4.35 4.35 0 0 1-5.627 2.532zm-72.103 30.715a4.367 4.367 0 0 1-2.541-5.63 4.363 4.363 0 0 1 5.626-2.531 4.365 4.365 0 0 1 2.541 5.629 4.357 4.357 0 0 1-5.626 2.532zm269.007-17.729a4.377 4.377 0 0 1 2.546 5.632c-.845 2.254-3.363 3.377-5.625 2.533a4.379 4.379 0 0 1-2.546-5.633 4.366 4.366 0 0 1 5.625-2.532zm-358.559 29.813a4.37 4.37 0 0 1-5.63 2.544 4.368 4.368 0 0 1-2.538-5.628 4.36 4.36 0 0 1 5.626-2.532 4.365 4.365 0 0 1 2.542 5.616zm-174.039 27.382l-.033-.012a4.35 4.35 0 0 1-2.516-5.599c.854-2.251 3.369-3.396 5.622-2.541l.022.008a4.359 4.359 0 0 1 2.537 5.615 4.36 4.36 0 0 1-5.632 2.529zm37.675-77.58a4.375 4.375 0 0 1 2.561 5.616 4.369 4.369 0 0 1-5.634 2.535l-.014-.005-.006-.002a4.356 4.356 0 0 1 3.093-8.144zm-68.284-126.083l-.021-.008a4.345 4.345 0 0 1-2.52-5.61c.836-2.255 3.367-3.387 5.621-2.532l.031.011c2.232.847 3.359 3.365 2.512 5.598-.853 2.249-3.37 3.395-5.623 2.541zm-51.368-46.791a4.38 4.38 0 0 1-2.55-5.633 4.375 4.375 0 0 1 5.634-2.534c2.247.853 3.392 3.373 2.554 5.62a4.378 4.378 0 0 1-5.638 2.547zm-117.785 37.738c-2.264-.859-3.408-3.384-2.558-5.623a4.364 4.364 0 0 1 5.64-2.538c2.247.852 3.378 3.359 2.539 5.628a4.359 4.359 0 0 1-5.621 2.533zM451.278 715.73a4.367 4.367 0 0 1 2.54 5.623 4.356 4.356 0 0 1-5.621 2.536l-.012-.005a4.358 4.358 0 0 1-2.539-5.621 4.371 4.371 0 0 1 5.632-2.533zM166.777 587.626c-2.27-.861-3.409-3.381-2.555-5.631.852-2.247 3.378-3.384 5.633-2.535l.018.007a4.352 4.352 0 0 1 2.521 5.614 4.366 4.366 0 0 1-5.617 2.545zm425.413 648.448a4.369 4.369 0 0 1 5.642-2.529l.009.003a4.354 4.354 0 0 1 2.522 5.609c-.856 2.257-3.375 3.397-5.62 2.545l-.009-.003a4.368 4.368 0 0 1-2.544-5.625zm131.443-41.56l.017.006c2.244.851 3.367 3.372 2.517 5.614a4.351 4.351 0 0 1-5.616 2.534c-2.259-.857-3.399-3.367-2.547-5.613a4.361 4.361 0 0 1 5.629-2.541zm139.385-60.098c-2.26-.857-3.406-3.371-2.554-5.617a4.366 4.366 0 0 1 5.629-2.54 4.371 4.371 0 0 1 2.551 5.617 4.362 4.362 0 0 1-5.626 2.54zm164.138-79.566a4.379 4.379 0 0 1 2.544 5.634 4.368 4.368 0 0 1-5.626 2.531l-.014-.005a4.36 4.36 0 0 1-2.534-5.62 4.372 4.372 0 0 1 5.63-2.54zm38.156-219.088l-.031-.011c-2.237-.849-3.361-3.367-2.52-5.61.845-2.246 3.37-3.388 5.638-2.539a4.373 4.373 0 0 1 2.539 5.628 4.362 4.362 0 0 1-5.626 2.532zM795.553 692.578a4.378 4.378 0 0 1 2.54 5.636 4.361 4.361 0 0 1-5.621 2.533l-.015-.005-.007-.002a4.362 4.362 0 0 1-2.533-5.615c.857-2.261 3.373-3.385 5.636-2.547zM654.826 380.39l.022.009a4.355 4.355 0 0 1 2.525 5.61c-.841 2.252-3.373 3.386-5.621 2.534a4.346 4.346 0 0 1-2.543-5.612c.837-2.254 3.368-3.393 5.617-2.541zM410.107 837.139a.045.045 0 0 1 .008.003c2.234.847 3.385 3.367 2.531 5.617a4.367 4.367 0 0 1-5.634 2.539 4.355 4.355 0 0 1-2.527-5.618c.842-2.26 3.354-3.392 5.622-2.541zm635.932 117.053a4.372 4.372 0 0 1-5.642 2.531 4.358 4.358 0 1 1 3.096-8.15 4.37 4.37 0 0 1 2.546 5.619zm-109.7-208.443a4.366 4.366 0 0 1 2.553 5.617c-.851 2.264-3.376 3.385-5.629 2.543a4.379 4.379 0 0 1-2.548-5.632c.846-2.251 3.373-3.382 5.624-2.528zM682.13 634.797a4.367 4.367 0 0 1-2.541-5.616c.858-2.261 3.373-3.406 5.625-2.552a4.383 4.383 0 0 1 2.549 5.633 4.375 4.375 0 0 1-5.633 2.535zM791.092 874.2l.016.006a4.357 4.357 0 0 1 2.529 5.611 4.36 4.36 0 0 1-5.623 2.543l-.015-.006a4.366 4.366 0 0 1-2.535-5.619 4.362 4.362 0 0 1 5.628-2.535zm-48.218-77.958c2.252.854 3.397 3.367 2.545 5.614-.851 2.257-3.378 3.387-5.628 2.541a4.366 4.366 0 0 1-2.553-5.617 4.37 4.37 0 0 1 5.636-2.538zm-93.363-317.846a4.366 4.366 0 0 1-2.542-5.629c.841-2.255 3.385-3.383 5.637-2.529 2.246.852 3.395 3.366 2.542 5.616-.858 2.261-3.386 3.382-5.637 2.542zm200.988 580.457a4.372 4.372 0 0 1-2.542-5.623 4.361 4.361 0 0 1 5.622-2.539c2.258.856 3.403 3.368 2.547 5.625-.846 2.25-3.367 3.387-5.627 2.537zM527.46 927.559c2.251.854 3.39 3.374 2.553 5.637-.852 2.245-3.382 3.377-5.632 2.532-2.253-.855-3.399-3.372-2.547-5.618a4.374 4.374 0 0 1 5.626-2.551zm40.142-209.713a4.35 4.35 0 0 1 2.543 5.614c-.837 2.255-3.365 3.383-5.622 2.535l-.011-.004a4.367 4.367 0 0 1-2.542-5.618c.854-2.252 3.376-3.378 5.632-2.527zm-131.266-189.41a.43.43 0 0 0 .032.013c2.238.848 3.359 3.365 2.51 5.603-.833 2.252-3.371 3.401-5.637 2.542-2.235-.849-3.378-3.374-2.537-5.628a4.37 4.37 0 0 1 5.632-2.53zm807.721 265.486c-2.249-.853-3.395-3.366-2.548-5.618a4.362 4.362 0 0 1 5.626-2.531l.023.008a4.36 4.36 0 0 1 2.525 5.609c-.844 2.253-3.368 3.389-5.626 2.532zm124.681-390.701a4.37 4.37 0 0 1-2.552-5.622 4.35 4.35 0 0 1 5.62-2.532l.024.008a4.361 4.361 0 0 1 2.533 5.615 4.36 4.36 0 0 1-5.625 2.531zm-223.966-133.32c-2.257-.856-3.411-3.373-2.558-5.622.858-2.261 3.376-3.384 5.642-2.546a4.368 4.368 0 0 1 2.536 5.635 4.357 4.357 0 0 1-5.62 2.533zm-170.809-32.613c-2.27-.861-3.406-3.37-2.553-5.62a4.364 4.364 0 0 1 5.633-2.549 4.366 4.366 0 0 1 2.53 5.631 4.35 4.35 0 0 1-5.61 2.538zm-74.365-45.72a4.362 4.362 0 0 1 3.076-8.163c2.254.855 3.414 3.372 2.56 5.622-.858 2.262-3.384 3.381-5.636 2.541zm-64.101-4.262a4.36 4.36 0 0 1-2.538-5.628 4.34 4.34 0 0 1 5.617-2.542 4.353 4.353 0 0 1 2.531 5.613c-.841 2.268-3.35 3.394-5.61 2.557zM782.214 53.867c-2.264-.859-3.401-3.369-2.547-5.619.845-2.266 3.373-3.386 5.625-2.552a4.364 4.364 0 0 1 2.536 5.636c-.833 2.25-3.367 3.387-5.614 2.535zm-68.027 64.372c-2.247-.852-3.378-3.375-2.532-5.64a4.362 4.362 0 0 1 5.648-2.51c2.233.847 3.36 3.362 2.51 5.604-.843 2.255-3.358 3.392-5.626 2.546zM583.04 49.983l-.031-.011c-2.238-.849-3.362-3.365-2.525-5.623a4.375 4.375 0 0 1 5.633-2.53c2.253.855 3.4 3.369 2.546 5.619-.858 2.261-3.371 3.4-5.623 2.545zm-106.888 46.81l-.034-.013c-2.236-.848-3.356-3.365-2.503-5.614a4.363 4.363 0 0 1 5.614-2.535c2.251.853 3.397 3.38 2.543 5.629a4.358 4.358 0 0 1-5.62 2.533zM462.501 8.934a4.366 4.366 0 0 1-2.534-5.634c.835-2.25 3.366-3.388 5.62-2.533 2.246.852 3.407 3.371 2.55 5.632a4.375 4.375 0 0 1-5.636 2.535zm-61.624 312.005a4.357 4.357 0 0 1-2.56-5.622 4.373 4.373 0 0 1 5.631-2.529c2.242.851 3.378 3.379 2.531 5.611a4.346 4.346 0 0 1-5.602 2.54zm-9.257-194.695c-2.254-.855-3.407-3.357-2.549-5.618a4.365 4.365 0 0 1 5.654-2.521c2.248.853 3.364 3.364 2.526 5.609a4.37 4.37 0 0 1-5.631 2.53zm.852 81.696c2.247.852 3.394 3.366 2.543 5.61a4.364 4.364 0 0 1-5.637 2.546 4.365 4.365 0 0 1-2.543-5.629c.853-2.249 3.384-3.382 5.637-2.527zM344.718 46.672c-2.264-.858-3.406-3.39-2.56-5.622a4.366 4.366 0 0 1 5.636-2.542c2.254.855 3.398 3.382 2.545 5.631a4.363 4.363 0 0 1-5.621 2.533zm-43.014 269.256a4.35 4.35 0 0 1-2.526-5.623 4.37 4.37 0 0 1 5.62-2.535 4.355 4.355 0 0 1 2.537 5.629 4.363 4.363 0 0 1-5.631 2.529zm-18.61 114.598a4.351 4.351 0 0 1-2.54-5.617 4.356 4.356 0 0 1 5.624-2.544 4.353 4.353 0 0 1 2.537 5.628 4.36 4.36 0 0 1-5.621 2.533zm-76.562-99.967a4.366 4.366 0 0 1-2.543-5.629c.853-2.25 3.363-3.376 5.637-2.528a4.359 4.359 0 0 1 2.521 5.623c-.835 2.255-3.345 3.383-5.615 2.534zm-33.613 126.12a.23.23 0 0 1-.016-.006l-.008-.003a4.35 4.35 0 0 1-2.519-5.607 4.361 4.361 0 0 1 5.621-2.535l.033.013c2.249.853 3.357 3.366 2.504 5.617-.835 2.234-3.363 3.375-5.615 2.521zM99.576 978.057a4.351 4.351 0 0 1 2.528 5.608c-.835 2.257-3.364 3.384-5.616 2.529l-.01-.003-.005-.002c-2.247-.853-3.393-3.364-2.542-5.608a4.357 4.357 0 0 1 5.631-2.529l.014.005zm-5.414 214.221a4.357 4.357 0 0 1-5.635 2.538l-.009-.003a4.358 4.358 0 0 1-2.519-5.615 4.361 4.361 0 0 1 5.631-2.534 4.348 4.348 0 0 1 2.532 5.614zm-37.82 3.653c-2.253-.854-3.4-3.368-2.546-5.617.845-2.266 3.374-3.393 5.624-2.549l.006.002c2.252.854 3.388 3.367 2.548 5.636-.852 2.247-3.382 3.376-5.632 2.528zM3.426 916.475a4.388 4.388 0 0 1-2.557-5.634 4.38 4.38 0 0 1 5.636-2.543c2.253.854 3.396 3.383 2.544 5.632-.853 2.249-3.359 3.404-5.623 2.545zm-23.267 67.618c-2.264-.859-3.413-3.372-2.557-5.627a4.368 4.368 0 0 1 5.636-2.529 4.36 4.36 0 0 1 2.54 5.625 4.354 4.354 0 0 1-5.619 2.531zm-41.176 121.417a4.36 4.36 0 0 1-2.539-5.622 4.346 4.346 0 0 1 5.634-2.538 4.36 4.36 0 0 1 2.529 5.617 4.37 4.37 0 0 1-5.624 2.543zm-4.898-78.071l-.018-.006a4.356 4.356 0 0 1-2.534-5.62 4.358 4.358 0 0 1 5.631-2.53l.015.006a4.343 4.343 0 0 1 2.517 5.605c-.855 2.254-3.357 3.4-5.611 2.545zm190.194-228.707l.013.006c2.228.845 3.366 3.37 2.518 5.605a4.374 4.374 0 0 1-5.625 2.544 4.366 4.366 0 0 1-2.538-5.624c.833-2.248 3.367-3.39 5.632-2.531zm32.374 215.634a4.362 4.362 0 0 1 2.557 5.629 4.371 4.371 0 0 1-5.64 2.535l-.011-.004c-2.231-.847-3.362-3.368-2.511-5.611.835-2.256 3.368-3.392 5.605-2.549zm183.882 172.222a4.366 4.366 0 0 1 2.541 5.623 4.366 4.366 0 0 1-5.619 2.544 4.367 4.367 0 0 1-2.542-5.63c.842-2.254 3.366-3.386 5.62-2.537zm290.883 184.239l.017.007a4.364 4.364 0 0 1 2.533 5.609 4.373 4.373 0 0 1-5.619 2.537c-2.266-.859-3.404-3.37-2.551-5.62a4.353 4.353 0 0 1 5.62-2.533zm122.635 10.893a4.378 4.378 0 0 1 2.544 5.635 4.368 4.368 0 0 1-5.625 2.532l-.016-.006a4.36 4.36 0 0 1-2.532-5.621c.846-2.259 3.374-3.385 5.629-2.54zm76.946-137.775a4.373 4.373 0 0 1 2.548 5.625c-.848 2.254-3.375 3.39-5.635 2.539-2.253-.855-3.395-3.377-2.543-5.624a4.369 4.369 0 0 1 5.63-2.54zm94.529 103.288a4.377 4.377 0 0 1 2.537 5.632c-.847 2.247-3.365 3.383-5.626 2.531a4.367 4.367 0 0 1-2.548-5.626 4.372 4.372 0 0 1 5.637-2.537zm14.669-62.065c2.252.854 3.403 3.377 2.548 5.632a4.376 4.376 0 0 1-5.63 2.54c-2.251-.854-3.403-3.376-2.555-5.628a4.377 4.377 0 0 1 5.637-2.544zM994.38 1434.6a4.372 4.372 0 0 1 2.548 5.626c-.851 2.256-3.378 3.387-5.63 2.54-2.249-.853-3.403-3.37-2.554-5.629a4.379 4.379 0 0 1 5.636-2.537zm.2-139.074l-.011-.004a4.364 4.364 0 0 1-2.538-5.62c.854-2.25 3.376-3.396 5.63-2.541a4.364 4.364 0 0 1-3.081 8.165zm57.38 114.697l.013.005a4.366 4.366 0 0 1 2.536 5.621 4.365 4.365 0 0 1-5.637 2.532l-.011-.005a4.352 4.352 0 0 1-2.525-5.61 4.36 4.36 0 0 1 5.624-2.543zm31.248-171.918l.01.003a4.36 4.36 0 0 1-3.097 8.152c-2.25-.853-3.392-3.374-2.542-5.615a4.372 4.372 0 0 1 5.629-2.54zm12.808-96.086a4.372 4.372 0 0 1 2.537 5.632c-.845 2.249-3.372 3.38-5.625 2.532a4.37 4.37 0 0 1-2.547-5.625c.855-2.256 3.381-3.384 5.635-2.539zm9.009 194.573c2.249.853 3.402 3.376 2.547 5.63a4.364 4.364 0 0 1-5.635 2.531l-.004-.001a4.353 4.353 0 0 1-2.534-5.613 4.37 4.37 0 0 1 5.626-2.547zm19.463 225.721l.014.005a4.363 4.363 0 0 1 2.533 5.608c-.854 2.252-3.374 3.379-5.628 2.535l-.014-.005a4.358 4.358 0 0 1-2.53-5.611 4.353 4.353 0 0 1 5.625-2.532zm.039-410.8c-2.253-.855-3.394-3.379-2.542-5.624a4.36 4.36 0 0 1 5.624-2.545 4.37 4.37 0 0 1 2.548 5.626 4.382 4.382 0 0 1-5.63 2.543zm15.596 67.401a4.365 4.365 0 0 1 2.543 5.622 4.364 4.364 0 0 1-5.62 2.537c-2.26-.857-3.404-3.373-2.552-5.619a4.362 4.362 0 0 1 5.629-2.54zm-.242-138.434a4.363 4.363 0 0 1 5.627-2.534l.009.003c2.245.852 3.393 3.371 2.539 5.622-.849 2.251-3.376 3.39-5.635 2.538a4.367 4.367 0 0 1-2.54-5.629zm13.706 37.16l.011.004a4.382 4.382 0 0 1 2.543 5.633c-.852 2.247-3.367 3.382-5.64 2.526a4.364 4.364 0 0 1 3.086-8.163zm60.641 260.182a4.373 4.373 0 0 1 2.54 5.633c-.842 2.251-3.367 3.39-5.621 2.535-2.26-.854-3.411-3.374-2.558-5.623a4.376 4.376 0 0 1 5.639-2.545zm16.243-225.04a4.362 4.362 0 0 1 2.533 5.62 4.35 4.35 0 0 1-5.61 2.536l-.018-.007a4.36 4.36 0 0 1-2.536-5.62 4.362 4.362 0 0 1 5.631-2.529zm23.766 75.541a4.372 4.372 0 0 1 2.547 5.625 4.37 4.37 0 0 1-5.63 2.54c-2.255-.856-3.4-3.368-2.544-5.624a4.358 4.358 0 0 1 5.627-2.541zm33.936-126.265c2.259.857 3.406 3.382 2.551 5.637-.845 2.251-3.374 3.388-5.633 2.531l-.011-.005c-2.238-.85-3.384-3.365-2.532-5.613.85-2.264 3.375-3.391 5.625-2.55zm67.697-166.11a4.365 4.365 0 0 1 2.544 5.617 4.354 4.354 0 0 1-5.625 2.531l-.034-.011c-2.242-.852-3.361-3.368-2.517-5.607a4.365 4.365 0 0 1 5.632-2.53z" class="cls-1"/></svg>