<svg width="775" height="845" viewBox="0 0 775 845" fill="none" xmlns="http://www.w3.org/2000/svg">
<path d="M5 0H0V5H5V0Z" fill="#C4C2CC"/>
<path d="M40 0H35V5H40V0Z" fill="#C4C2CC"/>
<path d="M75 0H70V5H75V0Z" fill="#C4C2CC"/>
<path d="M110 0H105V5H110V0Z" fill="#C4C2CC"/>
<path d="M145 0H140V5H145V0Z" fill="#C4C2CC"/>
<path d="M180 0H175V5H180V0Z" fill="#C4C2CC"/>
<path d="M215 0H210V5H215V0Z" fill="#C4C2CC"/>
<path d="M250 0H245V5H250V0Z" fill="#C4C2CC"/>
<path d="M285 0H280V5H285V0Z" fill="#C4C2CC"/>
<path d="M320 0H315V5H320V0Z" fill="#C4C2CC"/>
<path d="M355 0H350V5H355V0Z" fill="#C4C2CC"/>
<path d="M390 0H385V5H390V0Z" fill="#C4C2CC"/>
<path d="M425 0H420V5H425V0Z" fill="#C4C2CC"/>
<path d="M460 0H455V5H460V0Z" fill="#C4C2CC"/>
<path d="M495 0H490V5H495V0Z" fill="#C4C2CC"/>
<path d="M530 0H525V5H530V0Z" fill="#C4C2CC"/>
<path d="M565 0H560V5H565V0Z" fill="#C4C2CC"/>
<path d="M600 0H595V5H600V0Z" fill="#C4C2CC"/>
<path d="M635 0H630V5H635V0Z" fill="#C4C2CC"/>
<path d="M670 0H665V5H670V0Z" fill="#C4C2CC"/>
<path d="M705 0H700V5H705V0Z" fill="#C4C2CC"/>
<path d="M740 0H735V5H740V0Z" fill="#C4C2CC"/>
<path d="M775 0H770V5H775V0Z" fill="#C4C2CC"/>
<path d="M5 35H0V40H5V35Z" fill="#C4C2CC"/>
<path d="M40 35H35V40H40V35Z" fill="#C4C2CC"/>
<path d="M75 35H70V40H75V35Z" fill="#C4C2CC"/>
<path d="M110 35H105V40H110V35Z" fill="#C4C2CC"/>
<path d="M145 35H140V40H145V35Z" fill="#C4C2CC"/>
<path d="M180 35H175V40H180V35Z" fill="#C4C2CC"/>
<path d="M215 35H210V40H215V35Z" fill="#C4C2CC"/>
<path d="M250 35H245V40H250V35Z" fill="#C4C2CC"/>
<path d="M285 35H280V40H285V35Z" fill="#C4C2CC"/>
<path d="M320 35H315V40H320V35Z" fill="#C4C2CC"/>
<path d="M355 35H350V40H355V35Z" fill="#C4C2CC"/>
<path d="M390 35H385V40H390V35Z" fill="#C4C2CC"/>
<path d="M425 35H420V40H425V35Z" fill="#C4C2CC"/>
<path d="M460 35H455V40H460V35Z" fill="#C4C2CC"/>
<path d="M495 35H490V40H495V35Z" fill="#C4C2CC"/>
<path d="M530 35H525V40H530V35Z" fill="#C4C2CC"/>
<path d="M565 35H560V40H565V35Z" fill="#C4C2CC"/>
<path d="M600 35H595V40H600V35Z" fill="#C4C2CC"/>
<path d="M635 35H630V40H635V35Z" fill="#C4C2CC"/>
<path d="M670 35H665V40H670V35Z" fill="#C4C2CC"/>
<path d="M705 35H700V40H705V35Z" fill="#C4C2CC"/>
<path d="M740 35H735V40H740V35Z" fill="#C4C2CC"/>
<path d="M775 35H770V40H775V35Z" fill="#C4C2CC"/>
<path d="M5 70H0V75H5V70Z" fill="#C4C2CC"/>
<path d="M40 70H35V75H40V70Z" fill="#C4C2CC"/>
<path d="M75 70H70V75H75V70Z" fill="#C4C2CC"/>
<path d="M110 70H105V75H110V70Z" fill="#C4C2CC"/>
<path d="M145 70H140V75H145V70Z" fill="#C4C2CC"/>
<path d="M180 70H175V75H180V70Z" fill="#C4C2CC"/>
<path d="M215 70H210V75H215V70Z" fill="#C4C2CC"/>
<path d="M250 70H245V75H250V70Z" fill="#C4C2CC"/>
<path d="M285 70H280V75H285V70Z" fill="#C4C2CC"/>
<path d="M320 70H315V75H320V70Z" fill="#C4C2CC"/>
<path d="M355 70H350V75H355V70Z" fill="#C4C2CC"/>
<path d="M390 70H385V75H390V70Z" fill="#C4C2CC"/>
<path d="M425 70H420V75H425V70Z" fill="#C4C2CC"/>
<path d="M460 70H455V75H460V70Z" fill="#C4C2CC"/>
<path d="M495 70H490V75H495V70Z" fill="#C4C2CC"/>
<path d="M530 70H525V75H530V70Z" fill="#C4C2CC"/>
<path d="M565 70H560V75H565V70Z" fill="#C4C2CC"/>
<path d="M600 70H595V75H600V70Z" fill="#C4C2CC"/>
<path d="M635 70H630V75H635V70Z" fill="#C4C2CC"/>
<path d="M670 70H665V75H670V70Z" fill="#C4C2CC"/>
<path d="M705 70H700V75H705V70Z" fill="#C4C2CC"/>
<path d="M740 70H735V75H740V70Z" fill="#C4C2CC"/>
<path d="M775 70H770V75H775V70Z" fill="#C4C2CC"/>
<path d="M5 105H0V110H5V105Z" fill="#C4C2CC"/>
<path d="M40 105H35V110H40V105Z" fill="#C4C2CC"/>
<path d="M75 105H70V110H75V105Z" fill="#C4C2CC"/>
<path d="M110 105H105V110H110V105Z" fill="#C4C2CC"/>
<path d="M145 105H140V110H145V105Z" fill="#C4C2CC"/>
<path d="M180 105H175V110H180V105Z" fill="#C4C2CC"/>
<path d="M215 105H210V110H215V105Z" fill="#C4C2CC"/>
<path d="M250 105H245V110H250V105Z" fill="#C4C2CC"/>
<path d="M285 105H280V110H285V105Z" fill="#C4C2CC"/>
<path d="M320 105H315V110H320V105Z" fill="#C4C2CC"/>
<path d="M355 105H350V110H355V105Z" fill="#C4C2CC"/>
<path d="M390 105H385V110H390V105Z" fill="#C4C2CC"/>
<path d="M425 105H420V110H425V105Z" fill="#C4C2CC"/>
<path d="M460 105H455V110H460V105Z" fill="#C4C2CC"/>
<path d="M495 105H490V110H495V105Z" fill="#C4C2CC"/>
<path d="M530 105H525V110H530V105Z" fill="#C4C2CC"/>
<path d="M565 105H560V110H565V105Z" fill="#C4C2CC"/>
<path d="M600 105H595V110H600V105Z" fill="#C4C2CC"/>
<path d="M635 105H630V110H635V105Z" fill="#C4C2CC"/>
<path d="M670 105H665V110H670V105Z" fill="#C4C2CC"/>
<path d="M705 105H700V110H705V105Z" fill="#C4C2CC"/>
<path d="M740 105H735V110H740V105Z" fill="#C4C2CC"/>
<path d="M775 105H770V110H775V105Z" fill="#C4C2CC"/>
<path d="M5 140H0V145H5V140Z" fill="#C4C2CC"/>
<path d="M40 140H35V145H40V140Z" fill="#C4C2CC"/>
<path d="M75 140H70V145H75V140Z" fill="#C4C2CC"/>
<path d="M110 140H105V145H110V140Z" fill="#C4C2CC"/>
<path d="M145 140H140V145H145V140Z" fill="#C4C2CC"/>
<path d="M180 140H175V145H180V140Z" fill="#C4C2CC"/>
<path d="M215 140H210V145H215V140Z" fill="#C4C2CC"/>
<path d="M250 140H245V145H250V140Z" fill="#C4C2CC"/>
<path d="M285 140H280V145H285V140Z" fill="#C4C2CC"/>
<path d="M320 140H315V145H320V140Z" fill="#C4C2CC"/>
<path d="M355 140H350V145H355V140Z" fill="#C4C2CC"/>
<path d="M390 140H385V145H390V140Z" fill="#C4C2CC"/>
<path d="M425 140H420V145H425V140Z" fill="#C4C2CC"/>
<path d="M460 140H455V145H460V140Z" fill="#C4C2CC"/>
<path d="M495 140H490V145H495V140Z" fill="#C4C2CC"/>
<path d="M530 140H525V145H530V140Z" fill="#C4C2CC"/>
<path d="M565 140H560V145H565V140Z" fill="#C4C2CC"/>
<path d="M600 140H595V145H600V140Z" fill="#C4C2CC"/>
<path d="M635 140H630V145H635V140Z" fill="#C4C2CC"/>
<path d="M670 140H665V145H670V140Z" fill="#C4C2CC"/>
<path d="M705 140H700V145H705V140Z" fill="#C4C2CC"/>
<path d="M740 140H735V145H740V140Z" fill="#C4C2CC"/>
<path d="M775 140H770V145H775V140Z" fill="#C4C2CC"/>
<path d="M5 175H0V180H5V175Z" fill="#C4C2CC"/>
<path d="M40 175H35V180H40V175Z" fill="#C4C2CC"/>
<path d="M75 175H70V180H75V175Z" fill="#C4C2CC"/>
<path d="M110 175H105V180H110V175Z" fill="#C4C2CC"/>
<path d="M145 175H140V180H145V175Z" fill="#C4C2CC"/>
<path d="M180 175H175V180H180V175Z" fill="#C4C2CC"/>
<path d="M215 175H210V180H215V175Z" fill="#C4C2CC"/>
<path d="M250 175H245V180H250V175Z" fill="#C4C2CC"/>
<path d="M285 175H280V180H285V175Z" fill="#C4C2CC"/>
<path d="M320 175H315V180H320V175Z" fill="#C4C2CC"/>
<path d="M355 175H350V180H355V175Z" fill="#C4C2CC"/>
<path d="M390 175H385V180H390V175Z" fill="#C4C2CC"/>
<path d="M425 175H420V180H425V175Z" fill="#C4C2CC"/>
<path d="M460 175H455V180H460V175Z" fill="#C4C2CC"/>
<path d="M495 175H490V180H495V175Z" fill="#C4C2CC"/>
<path d="M530 175H525V180H530V175Z" fill="#C4C2CC"/>
<path d="M565 175H560V180H565V175Z" fill="#C4C2CC"/>
<path d="M600 175H595V180H600V175Z" fill="#C4C2CC"/>
<path d="M635 175H630V180H635V175Z" fill="#C4C2CC"/>
<path d="M670 175H665V180H670V175Z" fill="#C4C2CC"/>
<path d="M705 175H700V180H705V175Z" fill="#C4C2CC"/>
<path d="M740 175H735V180H740V175Z" fill="#C4C2CC"/>
<path d="M775 175H770V180H775V175Z" fill="#C4C2CC"/>
<path d="M5 210H0V215H5V210Z" fill="#C4C2CC"/>
<path d="M40 210H35V215H40V210Z" fill="#C4C2CC"/>
<path d="M75 210H70V215H75V210Z" fill="#C4C2CC"/>
<path d="M110 210H105V215H110V210Z" fill="#C4C2CC"/>
<path d="M145 210H140V215H145V210Z" fill="#C4C2CC"/>
<path d="M180 210H175V215H180V210Z" fill="#C4C2CC"/>
<path d="M215 210H210V215H215V210Z" fill="#C4C2CC"/>
<path d="M250 210H245V215H250V210Z" fill="#C4C2CC"/>
<path d="M285 210H280V215H285V210Z" fill="#C4C2CC"/>
<path d="M320 210H315V215H320V210Z" fill="#C4C2CC"/>
<path d="M355 210H350V215H355V210Z" fill="#C4C2CC"/>
<path d="M390 210H385V215H390V210Z" fill="#C4C2CC"/>
<path d="M425 210H420V215H425V210Z" fill="#C4C2CC"/>
<path d="M460 210H455V215H460V210Z" fill="#C4C2CC"/>
<path d="M495 210H490V215H495V210Z" fill="#C4C2CC"/>
<path d="M530 210H525V215H530V210Z" fill="#C4C2CC"/>
<path d="M565 210H560V215H565V210Z" fill="#C4C2CC"/>
<path d="M600 210H595V215H600V210Z" fill="#C4C2CC"/>
<path d="M635 210H630V215H635V210Z" fill="#C4C2CC"/>
<path d="M670 210H665V215H670V210Z" fill="#C4C2CC"/>
<path d="M705 210H700V215H705V210Z" fill="#C4C2CC"/>
<path d="M740 210H735V215H740V210Z" fill="#C4C2CC"/>
<path d="M775 210H770V215H775V210Z" fill="#C4C2CC"/>
<path d="M5 245H0V250H5V245Z" fill="#C4C2CC"/>
<path d="M40 245H35V250H40V245Z" fill="#C4C2CC"/>
<path d="M75 245H70V250H75V245Z" fill="#C4C2CC"/>
<path d="M110 245H105V250H110V245Z" fill="#C4C2CC"/>
<path d="M145 245H140V250H145V245Z" fill="#C4C2CC"/>
<path d="M180 245H175V250H180V245Z" fill="#C4C2CC"/>
<path d="M215 245H210V250H215V245Z" fill="#C4C2CC"/>
<path d="M250 245H245V250H250V245Z" fill="#C4C2CC"/>
<path d="M285 245H280V250H285V245Z" fill="#C4C2CC"/>
<path d="M320 245H315V250H320V245Z" fill="#C4C2CC"/>
<path d="M355 245H350V250H355V245Z" fill="#C4C2CC"/>
<path d="M390 245H385V250H390V245Z" fill="#C4C2CC"/>
<path d="M425 245H420V250H425V245Z" fill="#C4C2CC"/>
<path d="M460 245H455V250H460V245Z" fill="#C4C2CC"/>
<path d="M495 245H490V250H495V245Z" fill="#C4C2CC"/>
<path d="M530 245H525V250H530V245Z" fill="#C4C2CC"/>
<path d="M565 245H560V250H565V245Z" fill="#C4C2CC"/>
<path d="M600 245H595V250H600V245Z" fill="#C4C2CC"/>
<path d="M635 245H630V250H635V245Z" fill="#C4C2CC"/>
<path d="M670 245H665V250H670V245Z" fill="#C4C2CC"/>
<path d="M705 245H700V250H705V245Z" fill="#C4C2CC"/>
<path d="M740 245H735V250H740V245Z" fill="#C4C2CC"/>
<path d="M775 245H770V250H775V245Z" fill="#C4C2CC"/>
<path d="M5 280H0V285H5V280Z" fill="#C4C2CC"/>
<path d="M40 280H35V285H40V280Z" fill="#C4C2CC"/>
<path d="M75 280H70V285H75V280Z" fill="#C4C2CC"/>
<path d="M110 280H105V285H110V280Z" fill="#C4C2CC"/>
<path d="M145 280H140V285H145V280Z" fill="#C4C2CC"/>
<path d="M180 280H175V285H180V280Z" fill="#C4C2CC"/>
<path d="M215 280H210V285H215V280Z" fill="#C4C2CC"/>
<path d="M250 280H245V285H250V280Z" fill="#C4C2CC"/>
<path d="M285 280H280V285H285V280Z" fill="#C4C2CC"/>
<path d="M320 280H315V285H320V280Z" fill="#C4C2CC"/>
<path d="M355 280H350V285H355V280Z" fill="#C4C2CC"/>
<path d="M390 280H385V285H390V280Z" fill="#C4C2CC"/>
<path d="M425 280H420V285H425V280Z" fill="#C4C2CC"/>
<path d="M460 280H455V285H460V280Z" fill="#C4C2CC"/>
<path d="M495 280H490V285H495V280Z" fill="#C4C2CC"/>
<path d="M530 280H525V285H530V280Z" fill="#C4C2CC"/>
<path d="M565 280H560V285H565V280Z" fill="#C4C2CC"/>
<path d="M600 280H595V285H600V280Z" fill="#C4C2CC"/>
<path d="M635 280H630V285H635V280Z" fill="#C4C2CC"/>
<path d="M670 280H665V285H670V280Z" fill="#C4C2CC"/>
<path d="M705 280H700V285H705V280Z" fill="#C4C2CC"/>
<path d="M740 280H735V285H740V280Z" fill="#C4C2CC"/>
<path d="M775 280H770V285H775V280Z" fill="#C4C2CC"/>
<path d="M5 315H0V320H5V315Z" fill="#C4C2CC"/>
<path d="M40 315H35V320H40V315Z" fill="#C4C2CC"/>
<path d="M75 315H70V320H75V315Z" fill="#C4C2CC"/>
<path d="M110 315H105V320H110V315Z" fill="#C4C2CC"/>
<path d="M145 315H140V320H145V315Z" fill="#C4C2CC"/>
<path d="M180 315H175V320H180V315Z" fill="#C4C2CC"/>
<path d="M215 315H210V320H215V315Z" fill="#C4C2CC"/>
<path d="M250 315H245V320H250V315Z" fill="#C4C2CC"/>
<path d="M285 315H280V320H285V315Z" fill="#C4C2CC"/>
<path d="M320 315H315V320H320V315Z" fill="#C4C2CC"/>
<path d="M355 315H350V320H355V315Z" fill="#C4C2CC"/>
<path d="M390 315H385V320H390V315Z" fill="#C4C2CC"/>
<path d="M425 315H420V320H425V315Z" fill="#C4C2CC"/>
<path d="M460 315H455V320H460V315Z" fill="#C4C2CC"/>
<path d="M495 315H490V320H495V315Z" fill="#C4C2CC"/>
<path d="M530 315H525V320H530V315Z" fill="#C4C2CC"/>
<path d="M565 315H560V320H565V315Z" fill="#C4C2CC"/>
<path d="M600 315H595V320H600V315Z" fill="#C4C2CC"/>
<path d="M635 315H630V320H635V315Z" fill="#C4C2CC"/>
<path d="M670 315H665V320H670V315Z" fill="#C4C2CC"/>
<path d="M705 315H700V320H705V315Z" fill="#C4C2CC"/>
<path d="M740 315H735V320H740V315Z" fill="#C4C2CC"/>
<path d="M775 315H770V320H775V315Z" fill="#C4C2CC"/>
<path d="M5 350H0V355H5V350Z" fill="#C4C2CC"/>
<path d="M40 350H35V355H40V350Z" fill="#C4C2CC"/>
<path d="M75 350H70V355H75V350Z" fill="#C4C2CC"/>
<path d="M110 350H105V355H110V350Z" fill="#C4C2CC"/>
<path d="M145 350H140V355H145V350Z" fill="#C4C2CC"/>
<path d="M180 350H175V355H180V350Z" fill="#C4C2CC"/>
<path d="M215 350H210V355H215V350Z" fill="#C4C2CC"/>
<path d="M250 350H245V355H250V350Z" fill="#C4C2CC"/>
<path d="M285 350H280V355H285V350Z" fill="#C4C2CC"/>
<path d="M320 350H315V355H320V350Z" fill="#C4C2CC"/>
<path d="M355 350H350V355H355V350Z" fill="#C4C2CC"/>
<path d="M390 350H385V355H390V350Z" fill="#C4C2CC"/>
<path d="M425 350H420V355H425V350Z" fill="#C4C2CC"/>
<path d="M460 350H455V355H460V350Z" fill="#C4C2CC"/>
<path d="M495 350H490V355H495V350Z" fill="#C4C2CC"/>
<path d="M530 350H525V355H530V350Z" fill="#C4C2CC"/>
<path d="M565 350H560V355H565V350Z" fill="#C4C2CC"/>
<path d="M600 350H595V355H600V350Z" fill="#C4C2CC"/>
<path d="M635 350H630V355H635V350Z" fill="#C4C2CC"/>
<path d="M670 350H665V355H670V350Z" fill="#C4C2CC"/>
<path d="M705 350H700V355H705V350Z" fill="#C4C2CC"/>
<path d="M740 350H735V355H740V350Z" fill="#C4C2CC"/>
<path d="M775 350H770V355H775V350Z" fill="#C4C2CC"/>
<path d="M5 385H0V390H5V385Z" fill="#C4C2CC"/>
<path d="M40 385H35V390H40V385Z" fill="#C4C2CC"/>
<path d="M75 385H70V390H75V385Z" fill="#C4C2CC"/>
<path d="M110 385H105V390H110V385Z" fill="#C4C2CC"/>
<path d="M145 385H140V390H145V385Z" fill="#C4C2CC"/>
<path d="M180 385H175V390H180V385Z" fill="#C4C2CC"/>
<path d="M215 385H210V390H215V385Z" fill="#C4C2CC"/>
<path d="M250 385H245V390H250V385Z" fill="#C4C2CC"/>
<path d="M285 385H280V390H285V385Z" fill="#C4C2CC"/>
<path d="M320 385H315V390H320V385Z" fill="#C4C2CC"/>
<path d="M355 385H350V390H355V385Z" fill="#C4C2CC"/>
<path d="M390 385H385V390H390V385Z" fill="#C4C2CC"/>
<path d="M425 385H420V390H425V385Z" fill="#C4C2CC"/>
<path d="M460 385H455V390H460V385Z" fill="#C4C2CC"/>
<path d="M495 385H490V390H495V385Z" fill="#C4C2CC"/>
<path d="M530 385H525V390H530V385Z" fill="#C4C2CC"/>
<path d="M565 385H560V390H565V385Z" fill="#C4C2CC"/>
<path d="M600 385H595V390H600V385Z" fill="#C4C2CC"/>
<path d="M635 385H630V390H635V385Z" fill="#C4C2CC"/>
<path d="M670 385H665V390H670V385Z" fill="#C4C2CC"/>
<path d="M705 385H700V390H705V385Z" fill="#C4C2CC"/>
<path d="M740 385H735V390H740V385Z" fill="#C4C2CC"/>
<path d="M775 385H770V390H775V385Z" fill="#C4C2CC"/>
<path d="M5 420H0V425H5V420Z" fill="#C4C2CC"/>
<path d="M40 420H35V425H40V420Z" fill="#C4C2CC"/>
<path d="M75 420H70V425H75V420Z" fill="#C4C2CC"/>
<path d="M110 420H105V425H110V420Z" fill="#C4C2CC"/>
<path d="M145 420H140V425H145V420Z" fill="#C4C2CC"/>
<path d="M180 420H175V425H180V420Z" fill="#C4C2CC"/>
<path d="M215 420H210V425H215V420Z" fill="#C4C2CC"/>
<path d="M250 420H245V425H250V420Z" fill="#C4C2CC"/>
<path d="M285 420H280V425H285V420Z" fill="#C4C2CC"/>
<path d="M320 420H315V425H320V420Z" fill="#C4C2CC"/>
<path d="M355 420H350V425H355V420Z" fill="#C4C2CC"/>
<path d="M390 420H385V425H390V420Z" fill="#C4C2CC"/>
<path d="M425 420H420V425H425V420Z" fill="#C4C2CC"/>
<path d="M460 420H455V425H460V420Z" fill="#C4C2CC"/>
<path d="M495 420H490V425H495V420Z" fill="#C4C2CC"/>
<path d="M530 420H525V425H530V420Z" fill="#C4C2CC"/>
<path d="M565 420H560V425H565V420Z" fill="#C4C2CC"/>
<path d="M600 420H595V425H600V420Z" fill="#C4C2CC"/>
<path d="M635 420H630V425H635V420Z" fill="#C4C2CC"/>
<path d="M670 420H665V425H670V420Z" fill="#C4C2CC"/>
<path d="M705 420H700V425H705V420Z" fill="#C4C2CC"/>
<path d="M740 420H735V425H740V420Z" fill="#C4C2CC"/>
<path d="M775 420H770V425H775V420Z" fill="#C4C2CC"/>
<path d="M5 455H0V460H5V455Z" fill="#C4C2CC"/>
<path d="M40 455H35V460H40V455Z" fill="#C4C2CC"/>
<path d="M75 455H70V460H75V455Z" fill="#C4C2CC"/>
<path d="M110 455H105V460H110V455Z" fill="#C4C2CC"/>
<path d="M145 455H140V460H145V455Z" fill="#C4C2CC"/>
<path d="M180 455H175V460H180V455Z" fill="#C4C2CC"/>
<path d="M215 455H210V460H215V455Z" fill="#C4C2CC"/>
<path d="M250 455H245V460H250V455Z" fill="#C4C2CC"/>
<path d="M285 455H280V460H285V455Z" fill="#C4C2CC"/>
<path d="M320 455H315V460H320V455Z" fill="#C4C2CC"/>
<path d="M355 455H350V460H355V455Z" fill="#C4C2CC"/>
<path d="M390 455H385V460H390V455Z" fill="#C4C2CC"/>
<path d="M425 455H420V460H425V455Z" fill="#C4C2CC"/>
<path d="M460 455H455V460H460V455Z" fill="#C4C2CC"/>
<path d="M495 455H490V460H495V455Z" fill="#C4C2CC"/>
<path d="M530 455H525V460H530V455Z" fill="#C4C2CC"/>
<path d="M565 455H560V460H565V455Z" fill="#C4C2CC"/>
<path d="M600 455H595V460H600V455Z" fill="#C4C2CC"/>
<path d="M635 455H630V460H635V455Z" fill="#C4C2CC"/>
<path d="M670 455H665V460H670V455Z" fill="#C4C2CC"/>
<path d="M705 455H700V460H705V455Z" fill="#C4C2CC"/>
<path d="M740 455H735V460H740V455Z" fill="#C4C2CC"/>
<path d="M775 455H770V460H775V455Z" fill="#C4C2CC"/>
<path d="M5 490H0V495H5V490Z" fill="#C4C2CC"/>
<path d="M40 490H35V495H40V490Z" fill="#C4C2CC"/>
<path d="M75 490H70V495H75V490Z" fill="#C4C2CC"/>
<path d="M110 490H105V495H110V490Z" fill="#C4C2CC"/>
<path d="M145 490H140V495H145V490Z" fill="#C4C2CC"/>
<path d="M180 490H175V495H180V490Z" fill="#C4C2CC"/>
<path d="M215 490H210V495H215V490Z" fill="#C4C2CC"/>
<path d="M250 490H245V495H250V490Z" fill="#C4C2CC"/>
<path d="M285 490H280V495H285V490Z" fill="#C4C2CC"/>
<path d="M320 490H315V495H320V490Z" fill="#C4C2CC"/>
<path d="M355 490H350V495H355V490Z" fill="#C4C2CC"/>
<path d="M390 490H385V495H390V490Z" fill="#C4C2CC"/>
<path d="M425 490H420V495H425V490Z" fill="#C4C2CC"/>
<path d="M460 490H455V495H460V490Z" fill="#C4C2CC"/>
<path d="M495 490H490V495H495V490Z" fill="#C4C2CC"/>
<path d="M530 490H525V495H530V490Z" fill="#C4C2CC"/>
<path d="M565 490H560V495H565V490Z" fill="#C4C2CC"/>
<path d="M600 490H595V495H600V490Z" fill="#C4C2CC"/>
<path d="M635 490H630V495H635V490Z" fill="#C4C2CC"/>
<path d="M670 490H665V495H670V490Z" fill="#C4C2CC"/>
<path d="M705 490H700V495H705V490Z" fill="#C4C2CC"/>
<path d="M740 490H735V495H740V490Z" fill="#C4C2CC"/>
<path d="M775 490H770V495H775V490Z" fill="#C4C2CC"/>
<path d="M5 525H0V530H5V525Z" fill="#C4C2CC"/>
<path d="M40 525H35V530H40V525Z" fill="#C4C2CC"/>
<path d="M75 525H70V530H75V525Z" fill="#C4C2CC"/>
<path d="M110 525H105V530H110V525Z" fill="#C4C2CC"/>
<path d="M145 525H140V530H145V525Z" fill="#C4C2CC"/>
<path d="M180 525H175V530H180V525Z" fill="#C4C2CC"/>
<path d="M215 525H210V530H215V525Z" fill="#C4C2CC"/>
<path d="M250 525H245V530H250V525Z" fill="#C4C2CC"/>
<path d="M285 525H280V530H285V525Z" fill="#C4C2CC"/>
<path d="M320 525H315V530H320V525Z" fill="#C4C2CC"/>
<path d="M355 525H350V530H355V525Z" fill="#C4C2CC"/>
<path d="M390 525H385V530H390V525Z" fill="#C4C2CC"/>
<path d="M425 525H420V530H425V525Z" fill="#C4C2CC"/>
<path d="M460 525H455V530H460V525Z" fill="#C4C2CC"/>
<path d="M495 525H490V530H495V525Z" fill="#C4C2CC"/>
<path d="M530 525H525V530H530V525Z" fill="#C4C2CC"/>
<path d="M565 525H560V530H565V525Z" fill="#C4C2CC"/>
<path d="M600 525H595V530H600V525Z" fill="#C4C2CC"/>
<path d="M635 525H630V530H635V525Z" fill="#C4C2CC"/>
<path d="M670 525H665V530H670V525Z" fill="#C4C2CC"/>
<path d="M705 525H700V530H705V525Z" fill="#C4C2CC"/>
<path d="M740 525H735V530H740V525Z" fill="#C4C2CC"/>
<path d="M775 525H770V530H775V525Z" fill="#C4C2CC"/>
<path d="M5 560H0V565H5V560Z" fill="#C4C2CC"/>
<path d="M40 560H35V565H40V560Z" fill="#C4C2CC"/>
<path d="M75 560H70V565H75V560Z" fill="#C4C2CC"/>
<path d="M110 560H105V565H110V560Z" fill="#C4C2CC"/>
<path d="M145 560H140V565H145V560Z" fill="#C4C2CC"/>
<path d="M180 560H175V565H180V560Z" fill="#C4C2CC"/>
<path d="M215 560H210V565H215V560Z" fill="#C4C2CC"/>
<path d="M250 560H245V565H250V560Z" fill="#C4C2CC"/>
<path d="M285 560H280V565H285V560Z" fill="#C4C2CC"/>
<path d="M320 560H315V565H320V560Z" fill="#C4C2CC"/>
<path d="M355 560H350V565H355V560Z" fill="#C4C2CC"/>
<path d="M390 560H385V565H390V560Z" fill="#C4C2CC"/>
<path d="M425 560H420V565H425V560Z" fill="#C4C2CC"/>
<path d="M460 560H455V565H460V560Z" fill="#C4C2CC"/>
<path d="M495 560H490V565H495V560Z" fill="#C4C2CC"/>
<path d="M530 560H525V565H530V560Z" fill="#C4C2CC"/>
<path d="M565 560H560V565H565V560Z" fill="#C4C2CC"/>
<path d="M600 560H595V565H600V560Z" fill="#C4C2CC"/>
<path d="M635 560H630V565H635V560Z" fill="#C4C2CC"/>
<path d="M670 560H665V565H670V560Z" fill="#C4C2CC"/>
<path d="M705 560H700V565H705V560Z" fill="#C4C2CC"/>
<path d="M740 560H735V565H740V560Z" fill="#C4C2CC"/>
<path d="M775 560H770V565H775V560Z" fill="#C4C2CC"/>
<path d="M5 595H0V600H5V595Z" fill="#C4C2CC"/>
<path d="M40 595H35V600H40V595Z" fill="#C4C2CC"/>
<path d="M75 595H70V600H75V595Z" fill="#C4C2CC"/>
<path d="M110 595H105V600H110V595Z" fill="#C4C2CC"/>
<path d="M145 595H140V600H145V595Z" fill="#C4C2CC"/>
<path d="M180 595H175V600H180V595Z" fill="#C4C2CC"/>
<path d="M215 595H210V600H215V595Z" fill="#C4C2CC"/>
<path d="M250 595H245V600H250V595Z" fill="#C4C2CC"/>
<path d="M285 595H280V600H285V595Z" fill="#C4C2CC"/>
<path d="M320 595H315V600H320V595Z" fill="#C4C2CC"/>
<path d="M355 595H350V600H355V595Z" fill="#C4C2CC"/>
<path d="M390 595H385V600H390V595Z" fill="#C4C2CC"/>
<path d="M425 595H420V600H425V595Z" fill="#C4C2CC"/>
<path d="M460 595H455V600H460V595Z" fill="#C4C2CC"/>
<path d="M495 595H490V600H495V595Z" fill="#C4C2CC"/>
<path d="M530 595H525V600H530V595Z" fill="#C4C2CC"/>
<path d="M565 595H560V600H565V595Z" fill="#C4C2CC"/>
<path d="M600 595H595V600H600V595Z" fill="#C4C2CC"/>
<path d="M635 595H630V600H635V595Z" fill="#C4C2CC"/>
<path d="M670 595H665V600H670V595Z" fill="#C4C2CC"/>
<path d="M705 595H700V600H705V595Z" fill="#C4C2CC"/>
<path d="M740 595H735V600H740V595Z" fill="#C4C2CC"/>
<path d="M775 595H770V600H775V595Z" fill="#C4C2CC"/>
<path d="M5 630H0V635H5V630Z" fill="#C4C2CC"/>
<path d="M40 630H35V635H40V630Z" fill="#C4C2CC"/>
<path d="M75 630H70V635H75V630Z" fill="#C4C2CC"/>
<path d="M110 630H105V635H110V630Z" fill="#C4C2CC"/>
<path d="M145 630H140V635H145V630Z" fill="#C4C2CC"/>
<path d="M180 630H175V635H180V630Z" fill="#C4C2CC"/>
<path d="M215 630H210V635H215V630Z" fill="#C4C2CC"/>
<path d="M250 630H245V635H250V630Z" fill="#C4C2CC"/>
<path d="M285 630H280V635H285V630Z" fill="#C4C2CC"/>
<path d="M320 630H315V635H320V630Z" fill="#C4C2CC"/>
<path d="M355 630H350V635H355V630Z" fill="#C4C2CC"/>
<path d="M390 630H385V635H390V630Z" fill="#C4C2CC"/>
<path d="M425 630H420V635H425V630Z" fill="#C4C2CC"/>
<path d="M460 630H455V635H460V630Z" fill="#C4C2CC"/>
<path d="M495 630H490V635H495V630Z" fill="#C4C2CC"/>
<path d="M530 630H525V635H530V630Z" fill="#C4C2CC"/>
<path d="M565 630H560V635H565V630Z" fill="#C4C2CC"/>
<path d="M600 630H595V635H600V630Z" fill="#C4C2CC"/>
<path d="M635 630H630V635H635V630Z" fill="#C4C2CC"/>
<path d="M670 630H665V635H670V630Z" fill="#C4C2CC"/>
<path d="M705 630H700V635H705V630Z" fill="#C4C2CC"/>
<path d="M740 630H735V635H740V630Z" fill="#C4C2CC"/>
<path d="M775 630H770V635H775V630Z" fill="#C4C2CC"/>
<path d="M5 665H0V670H5V665Z" fill="#C4C2CC"/>
<path d="M40 665H35V670H40V665Z" fill="#C4C2CC"/>
<path d="M75 665H70V670H75V665Z" fill="#C4C2CC"/>
<path d="M110 665H105V670H110V665Z" fill="#C4C2CC"/>
<path d="M145 665H140V670H145V665Z" fill="#C4C2CC"/>
<path d="M180 665H175V670H180V665Z" fill="#C4C2CC"/>
<path d="M215 665H210V670H215V665Z" fill="#C4C2CC"/>
<path d="M250 665H245V670H250V665Z" fill="#C4C2CC"/>
<path d="M285 665H280V670H285V665Z" fill="#C4C2CC"/>
<path d="M320 665H315V670H320V665Z" fill="#C4C2CC"/>
<path d="M355 665H350V670H355V665Z" fill="#C4C2CC"/>
<path d="M390 665H385V670H390V665Z" fill="#C4C2CC"/>
<path d="M425 665H420V670H425V665Z" fill="#C4C2CC"/>
<path d="M460 665H455V670H460V665Z" fill="#C4C2CC"/>
<path d="M495 665H490V670H495V665Z" fill="#C4C2CC"/>
<path d="M530 665H525V670H530V665Z" fill="#C4C2CC"/>
<path d="M565 665H560V670H565V665Z" fill="#C4C2CC"/>
<path d="M600 665H595V670H600V665Z" fill="#C4C2CC"/>
<path d="M635 665H630V670H635V665Z" fill="#C4C2CC"/>
<path d="M670 665H665V670H670V665Z" fill="#C4C2CC"/>
<path d="M705 665H700V670H705V665Z" fill="#C4C2CC"/>
<path d="M740 665H735V670H740V665Z" fill="#C4C2CC"/>
<path d="M775 665H770V670H775V665Z" fill="#C4C2CC"/>
<path d="M5 700H0V705H5V700Z" fill="#C4C2CC"/>
<path d="M40 700H35V705H40V700Z" fill="#C4C2CC"/>
<path d="M75 700H70V705H75V700Z" fill="#C4C2CC"/>
<path d="M110 700H105V705H110V700Z" fill="#C4C2CC"/>
<path d="M145 700H140V705H145V700Z" fill="#C4C2CC"/>
<path d="M180 700H175V705H180V700Z" fill="#C4C2CC"/>
<path d="M215 700H210V705H215V700Z" fill="#C4C2CC"/>
<path d="M250 700H245V705H250V700Z" fill="#C4C2CC"/>
<path d="M285 700H280V705H285V700Z" fill="#C4C2CC"/>
<path d="M320 700H315V705H320V700Z" fill="#C4C2CC"/>
<path d="M355 700H350V705H355V700Z" fill="#C4C2CC"/>
<path d="M390 700H385V705H390V700Z" fill="#C4C2CC"/>
<path d="M425 700H420V705H425V700Z" fill="#C4C2CC"/>
<path d="M460 700H455V705H460V700Z" fill="#C4C2CC"/>
<path d="M495 700H490V705H495V700Z" fill="#C4C2CC"/>
<path d="M530 700H525V705H530V700Z" fill="#C4C2CC"/>
<path d="M565 700H560V705H565V700Z" fill="#C4C2CC"/>
<path d="M600 700H595V705H600V700Z" fill="#C4C2CC"/>
<path d="M635 700H630V705H635V700Z" fill="#C4C2CC"/>
<path d="M670 700H665V705H670V700Z" fill="#C4C2CC"/>
<path d="M705 700H700V705H705V700Z" fill="#C4C2CC"/>
<path d="M740 700H735V705H740V700Z" fill="#C4C2CC"/>
<path d="M775 700H770V705H775V700Z" fill="#C4C2CC"/>
<path d="M5 735H0V740H5V735Z" fill="#C4C2CC"/>
<path d="M40 735H35V740H40V735Z" fill="#C4C2CC"/>
<path d="M75 735H70V740H75V735Z" fill="#C4C2CC"/>
<path d="M110 735H105V740H110V735Z" fill="#C4C2CC"/>
<path d="M145 735H140V740H145V735Z" fill="#C4C2CC"/>
<path d="M180 735H175V740H180V735Z" fill="#C4C2CC"/>
<path d="M215 735H210V740H215V735Z" fill="#C4C2CC"/>
<path d="M250 735H245V740H250V735Z" fill="#C4C2CC"/>
<path d="M285 735H280V740H285V735Z" fill="#C4C2CC"/>
<path d="M320 735H315V740H320V735Z" fill="#C4C2CC"/>
<path d="M355 735H350V740H355V735Z" fill="#C4C2CC"/>
<path d="M390 735H385V740H390V735Z" fill="#C4C2CC"/>
<path d="M425 735H420V740H425V735Z" fill="#C4C2CC"/>
<path d="M460 735H455V740H460V735Z" fill="#C4C2CC"/>
<path d="M495 735H490V740H495V735Z" fill="#C4C2CC"/>
<path d="M530 735H525V740H530V735Z" fill="#C4C2CC"/>
<path d="M565 735H560V740H565V735Z" fill="#C4C2CC"/>
<path d="M600 735H595V740H600V735Z" fill="#C4C2CC"/>
<path d="M635 735H630V740H635V735Z" fill="#C4C2CC"/>
<path d="M670 735H665V740H670V735Z" fill="#C4C2CC"/>
<path d="M705 735H700V740H705V735Z" fill="#C4C2CC"/>
<path d="M740 735H735V740H740V735Z" fill="#C4C2CC"/>
<path d="M775 735H770V740H775V735Z" fill="#C4C2CC"/>
<path d="M5 770H0V775H5V770Z" fill="#C4C2CC"/>
<path d="M40 770H35V775H40V770Z" fill="#C4C2CC"/>
<path d="M75 770H70V775H75V770Z" fill="#C4C2CC"/>
<path d="M110 770H105V775H110V770Z" fill="#C4C2CC"/>
<path d="M145 770H140V775H145V770Z" fill="#C4C2CC"/>
<path d="M180 770H175V775H180V770Z" fill="#C4C2CC"/>
<path d="M215 770H210V775H215V770Z" fill="#C4C2CC"/>
<path d="M250 770H245V775H250V770Z" fill="#C4C2CC"/>
<path d="M285 770H280V775H285V770Z" fill="#C4C2CC"/>
<path d="M320 770H315V775H320V770Z" fill="#C4C2CC"/>
<path d="M355 770H350V775H355V770Z" fill="#C4C2CC"/>
<path d="M390 770H385V775H390V770Z" fill="#C4C2CC"/>
<path d="M425 770H420V775H425V770Z" fill="#C4C2CC"/>
<path d="M460 770H455V775H460V770Z" fill="#C4C2CC"/>
<path d="M495 770H490V775H495V770Z" fill="#C4C2CC"/>
<path d="M530 770H525V775H530V770Z" fill="#C4C2CC"/>
<path d="M565 770H560V775H565V770Z" fill="#C4C2CC"/>
<path d="M600 770H595V775H600V770Z" fill="#C4C2CC"/>
<path d="M635 770H630V775H635V770Z" fill="#C4C2CC"/>
<path d="M670 770H665V775H670V770Z" fill="#C4C2CC"/>
<path d="M705 770H700V775H705V770Z" fill="#C4C2CC"/>
<path d="M740 770H735V775H740V770Z" fill="#C4C2CC"/>
<path d="M775 770H770V775H775V770Z" fill="#C4C2CC"/>
<path d="M5 805H0V810H5V805Z" fill="#C4C2CC"/>
<path d="M40 805H35V810H40V805Z" fill="#C4C2CC"/>
<path d="M75 805H70V810H75V805Z" fill="#C4C2CC"/>
<path d="M110 805H105V810H110V805Z" fill="#C4C2CC"/>
<path d="M145 805H140V810H145V805Z" fill="#C4C2CC"/>
<path d="M180 805H175V810H180V805Z" fill="#C4C2CC"/>
<path d="M215 805H210V810H215V805Z" fill="#C4C2CC"/>
<path d="M250 805H245V810H250V805Z" fill="#C4C2CC"/>
<path d="M285 805H280V810H285V805Z" fill="#C4C2CC"/>
<path d="M320 805H315V810H320V805Z" fill="#C4C2CC"/>
<path d="M355 805H350V810H355V805Z" fill="#C4C2CC"/>
<path d="M390 805H385V810H390V805Z" fill="#C4C2CC"/>
<path d="M425 805H420V810H425V805Z" fill="#C4C2CC"/>
<path d="M460 805H455V810H460V805Z" fill="#C4C2CC"/>
<path d="M495 805H490V810H495V805Z" fill="#C4C2CC"/>
<path d="M530 805H525V810H530V805Z" fill="#C4C2CC"/>
<path d="M565 805H560V810H565V805Z" fill="#C4C2CC"/>
<path d="M600 805H595V810H600V805Z" fill="#C4C2CC"/>
<path d="M635 805H630V810H635V805Z" fill="#C4C2CC"/>
<path d="M670 805H665V810H670V805Z" fill="#C4C2CC"/>
<path d="M705 805H700V810H705V805Z" fill="#C4C2CC"/>
<path d="M740 805H735V810H740V805Z" fill="#C4C2CC"/>
<path d="M775 805H770V810H775V805Z" fill="#C4C2CC"/>
<path d="M5 840H0V845H5V840Z" fill="#C4C2CC"/>
<path d="M40 840H35V845H40V840Z" fill="#C4C2CC"/>
<path d="M75 840H70V845H75V840Z" fill="#C4C2CC"/>
<path d="M110 840H105V845H110V840Z" fill="#C4C2CC"/>
<path d="M145 840H140V845H145V840Z" fill="#C4C2CC"/>
<path d="M180 840H175V845H180V840Z" fill="#C4C2CC"/>
<path d="M215 840H210V845H215V840Z" fill="#C4C2CC"/>
<path d="M250 840H245V845H250V840Z" fill="#C4C2CC"/>
<path d="M285 840H280V845H285V840Z" fill="#C4C2CC"/>
<path d="M320 840H315V845H320V840Z" fill="#C4C2CC"/>
<path d="M355 840H350V845H355V840Z" fill="#C4C2CC"/>
<path d="M390 840H385V845H390V840Z" fill="#C4C2CC"/>
<path d="M425 840H420V845H425V840Z" fill="#C4C2CC"/>
<path d="M460 840H455V845H460V840Z" fill="#C4C2CC"/>
<path d="M495 840H490V845H495V840Z" fill="#C4C2CC"/>
<path d="M530 840H525V845H530V840Z" fill="#C4C2CC"/>
<path d="M565 840H560V845H565V840Z" fill="#C4C2CC"/>
<path d="M600 840H595V845H600V840Z" fill="#C4C2CC"/>
<path d="M635 840H630V845H635V840Z" fill="#C4C2CC"/>
<path d="M670 840H665V845H670V840Z" fill="#C4C2CC"/>
<path d="M705 840H700V845H705V840Z" fill="#C4C2CC"/>
<path d="M740 840H735V845H740V840Z" fill="#C4C2CC"/>
<path d="M775 840H770V845H775V840Z" fill="#C4C2CC"/>
</svg>
