<svg xmlns="http://www.w3.org/2000/svg" viewBox="0 0 296.429 296.429"><path d="M277.381 48.81V15.476l11.429 8.571 5.714-7.619L272.619 0l-21.905 16.429 5.714 7.619 11.429-8.571V48.81c0 13.129-10.681 23.81-23.81 23.81H225c-15.067 0-27.814 9.524-31.929 23.81h-6.819l-.176 9.524h5.59v14.843c-2.338-.333-4.71-.557-7.143-.557-11.076 0-21.724 3.7-30.467 10.51a33.324 33.324 0 0 0-24.295-10.51c-3.262 0-6.462.519-9.524 1.438v-30.01c0-15.757-12.814-28.571-28.571-28.571h-4.762v-9.524H77.38v9.524H63.095c-15.757 0-28.571 12.814-28.571 28.571v9.524c0 5.252-4.271 9.524-9.524 9.524h-9.524l8.571-11.429-7.619-5.714L0 115.476l16.429 21.905 7.619-5.714-8.571-11.429H25c10.505 0 19.048-8.543 19.048-19.048v-9.524c0-10.505 8.543-19.048 19.048-19.048h28.571c10.505 0 19.048 8.543 19.048 19.048v34.619c-2.071 1.448-4 3.11-5.714 5.014a39.833 39.833 0 0 0-10.952-1.538c-20.429 0-37.386 15.105-40.062 34.995C36.995 169.781 25 185.567 25 203.571a40.538 40.538 0 0 0 7.519 23.49 39.837 39.837 0 0 0-2.757 14.605c0 22.319 18.157 40.476 40.476 40.476 1.805 0 3.571-.162 5.314-.39.329-.043.657-.1.986-.152a39.952 39.952 0 0 0 5.181-1.143 40.049 40.049 0 0 0 21.852 6.448c8.729 0 17.043-2.748 23.943-7.838 7.505 10.838 19.757 17.362 33.2 17.362 12.486 0 23.986-5.629 31.633-15.271 6.262 3.776 13.343 5.748 20.748 5.748 22.319 0 40.476-18.157 40.476-40.476 0-4.819-.852-9.524-2.533-14.029a40.376 40.376 0 0 0 12.057-28.829c0-2.429-.238-4.814-.657-7.143h.657v-9.524h-3.638c-4.771-10.486-13.886-18.729-25.276-22.119-2.095-19.519-15.233-35.438-32.99-41.676v-17.157c0-13.129 10.681-23.81 23.81-23.81h19.048c18.375 0 33.332-14.957 33.332-33.333zm-52.462 119.938l.133 3.757 3.686.738c8.567 1.719 15.667 6.981 20.067 14.024v9.162h3.814c.562 2.314.952 4.686.952 7.143 0 7.562-2.767 14.714-7.662 20.314-6.848-9.429-17.69-15.195-30.124-16.019l-.624 8.91c15.819 1.043 28.257 12.452 28.829 30.729-.571 16.567-14.19 29.876-30.895 29.876-6.933 0-13.51-2.271-19.014-6.567l-1.9-1.486c-5.867-5.343-9.467-12.752-10.005-20.838l-9.505.633a40.305 40.305 0 0 0 12.105 26.243c-5.848 7.29-14.586 11.538-24.062 11.538-11.824 0-22.448-6.61-27.714-17.252l-2.933-5.919-4.69 4.662c-5.838 5.79-13.581 8.986-21.805 8.986-3.767 0-7.414-.752-10.876-2.067 10.857-7.267 18.019-19.633 18.019-33.648 0-1.014-.133-2-.205-3a40.337 40.337 0 0 0 20.405-10.014l-6.438-7.024a30.807 30.807 0 0 1-15.762 7.676c-3.186-9.943-10.081-18.443-19.643-23.481l-4.438 8.429c10.214 5.386 16.557 15.886 16.557 27.414 0 13.362-8.529 24.738-20.414 29.067a31.986 31.986 0 0 1-5.086 1.376c-.114.019-.229.033-.343.052-1.7.29-3.405.457-5.11.457-17.067 0-30.952-13.886-30.952-30.952 0-4.581 1.014-9.033 3.014-13.248l1.305-2.743-1.943-2.343a30.977 30.977 0 0 1-7.138-19.762c0-14.695 10.443-27.457 24.829-30.343l3.652-.729.171-3.714c.486-10.41 6.038-19.39 14.205-24.624v9.41h9.524v-13.424c2.295-.543 4.681-.862 7.143-.862 3.681 0 7.352.681 10.895 2.019l3.405 1.286 2.133-2.943c.071-.1.157-.186.233-.286v23.733h9.524v-31.276c2.976-1.314 6.205-2.057 9.524-2.057 6.59 0 12.786 2.748 17.243 7.452-7.981 9.081-13.671 20.838-13.671 33.024 0 27.571 25 50 48.81 50v-9.524c-19.048 0-39.286-18.157-39.286-40.476 0-9.938 4.286-19.529 10.838-26.905l2.729-2.319c7.6-7.257 17.624-11.252 27.952-11.252 2.443 0 4.971.243 7.29.657v18.39c0 13.129-10.681 23.81-23.81 23.81h-4.762v9.524h4.762c18.376 0 33.333-14.957 33.333-33.333v-15.448c13.577 6.12 23.148 19.482 23.729 35.387z"/><path d="M220.238 186.905h14.286v9.524h-14.286zm23.81-90.476h14.286v9.524h-14.286zm-73.872 4.995l4.8-8.224a24.226 24.226 0 0 1-8.429-8.271l-8.129 4.957a33.728 33.728 0 0 0 11.758 11.538zM153.57 72.619c.001.495.011.99.034 1.486l9.514-1.057-.024-14.714h-9.524v14.285zm.001-42.857h9.524v14.286h-9.524zM274.49 183.981l4.586 8.343a33.781 33.781 0 0 0 12.052-11.233l-8.01-5.162a24.245 24.245 0 0 1-8.628 8.052zm12.415-20.886c0 .562-.019 1.119-.062 1.681l9.505.662a35.03 35.03 0 0 0 .081-2.343V148.81h-9.524v14.285zm-71.429-66.666h14.286v9.524h-14.286zm79.8 24.666l-9.19 2.481a23.77 23.77 0 0 1 .819 6.186v4.762h9.524v-4.762c0-2.929-.386-5.848-1.153-8.667zm-8.114-14.352a33.536 33.536 0 0 0-13.971-8.748l-2.9 9.067a24.05 24.05 0 0 1 9.99 6.262l6.881-6.581zM153.571 15.476h9.524l11.429 8.572 5.714-7.619L158.333 0l-21.904 16.429 5.714 7.619zM77.381 25h9.524v14.286h-9.524zm0 85.714h9.524V125h-9.524zm0-28.571h9.524v14.286h-9.524zm0 85.714h9.524v14.286h-9.524zm4.762-155.952l16.19 12.143 5.715-7.619L82.143 0 60.238 16.429l5.714 7.619z"/></svg>