<svg xmlns="http://www.w3.org/2000/svg" viewBox="0 0 512.001 512.001"><path d="M218.61 133.898h-7.552c-13.541 0-24.557-11.016-24.557-24.557a8.621 8.621 0 0 0-17.242 0c0 9.171 2.977 17.657 8.005 24.557h-58.189a8.621 8.621 0 0 0 0 17.242h39.364c13.541 0 24.557 11.016 24.557 24.557v12.64a8.621 8.621 0 0 0 17.242 0v-12.64c0-9.171-2.977-17.657-8.005-24.557h26.377a8.621 8.621 0 0 0 0-17.242zm161.672 0h-58.189c5.028-6.9 8.005-15.385 8.005-24.557a8.621 8.621 0 0 0-17.242 0c0 13.541-11.016 24.557-24.557 24.557h-7.552a8.621 8.621 0 0 0 0 17.242h26.377c-5.028 6.9-8.005 15.386-8.005 24.557v12.64a8.621 8.621 0 0 0 17.242 0v-12.64c0-13.541 11.016-24.557 24.557-24.557h39.364a8.621 8.621 0 0 0 0-17.242z"/><path d="M385 91.847c-3.874-25.357-25.83-44.843-52.252-44.843h-24.045C302.548 19.722 278.418 0 249.678 0s-52.87 19.722-59.024 47.003H166.61c-26.423 0-48.379 19.487-52.252 44.843C89 95.72 69.514 117.676 69.514 144.098c0 29.147 23.711 52.859 52.858 52.859h8.217c9.268 25.948 33.833 43.54 61.922 43.54 23.489 0 45.063-12.2 57.167-30.823 12.104 18.623 33.678 30.823 57.166 30.823 28.089 0 52.656-17.592 61.922-43.54h8.217c29.146 0 52.858-23.712 52.858-52.858.002-26.423-19.485-48.379-44.841-52.252zm-8.015 87.869h-14.621a8.62 8.62 0 0 0-8.373 6.572c-5.325 21.766-24.712 36.969-47.147 36.969-22.331 0-43.013-15.437-48.546-36.054v-60.618c0-10.056 8.182-18.238 18.238-18.238h5.536a8.621 8.621 0 0 0 0-17.242h-5.536a35.27 35.27 0 0 0-18.238 5.06v-22.57a8.621 8.621 0 0 0-17.242 0v22.57a35.266 35.266 0 0 0-18.238-5.06h-5.536a8.621 8.621 0 0 0 0 17.242h5.536c10.056 0 18.238 8.182 18.238 18.238v60.618c-5.532 20.617-26.216 36.054-48.547 36.054-22.434 0-41.821-15.202-47.147-36.969a8.622 8.622 0 0 0-8.373-6.572H122.37c-19.639 0-35.617-15.978-35.617-35.617 0-19.639 15.978-35.617 35.618-35.617h27.439a8.621 8.621 0 0 0 0-17.242h-17.757c3.866-15.487 17.89-26.996 34.556-26.996h22.765V76.36a8.621 8.621 0 0 0 17.242 0V56.111c2.247-22.181 20.7-38.87 43.062-38.87 22.47 0 40.998 16.848 43.1 39.189.038.4.112.789.201 1.17v18.758a8.621 8.621 0 0 0 17.242 0V64.244h22.527c16.667 0 30.692 11.509 34.556 26.996h-17.757a8.621 8.621 0 0 0 0 17.242h27.439c19.639 0 35.617 15.977 35.617 35.617-.001 19.64-15.979 35.617-35.618 35.617z"/><path d="M249.678 233.599a8.621 8.621 0 0 0-8.621 8.621v41.377a8.621 8.621 0 0 0 17.242 0V242.22a8.621 8.621 0 0 0-8.621-8.621zm0 132.49a8.621 8.621 0 0 0-8.621 8.621v41.377a8.621 8.621 0 0 0 17.242 0V374.71a8.62 8.62 0 0 0-8.621-8.621zm-94.901-21.358c-2.417-4.101-7.701-5.463-11.803-3.047l-43.418 25.599a8.618 8.618 0 0 0-4.242 7.425v41.377a8.621 8.621 0 0 0 17.242 0v-36.451l39.176-23.097a8.624 8.624 0 0 0 3.045-11.806zm169.897-47.343H174.682a8.621 8.621 0 0 0-8.621 8.621v43.101a8.621 8.621 0 0 0 8.621 8.621h149.992a8.621 8.621 0 0 0 8.621-8.621v-43.101a8.621 8.621 0 0 0-8.621-8.621zm-8.621 43.102h-132.75v-25.861h132.75v25.861zm-31.465 92.338h-69.084a8.621 8.621 0 0 0-8.621 8.621v61.93a8.621 8.621 0 0 0 8.621 8.621h69.084a8.621 8.621 0 0 0 8.621-8.621v-61.93a8.621 8.621 0 0 0-8.621-8.621zm-8.62 61.931h-51.843V450.07h51.843v44.689zm-172.033-61.518c-21.715 0-39.38 17.665-39.38 39.38s17.667 39.38 39.38 39.38c21.714 0 39.38-17.665 39.38-39.38s-17.667-39.38-39.38-39.38zm0 61.518c-12.208 0-22.139-9.931-22.139-22.139s9.932-22.139 22.139-22.139 22.139 9.931 22.139 22.139-9.932 22.139-22.139 22.139zm339.809-31.184l-42.669-29.64a8.622 8.622 0 0 0-9.837 0l-42.667 29.64a8.62 8.62 0 0 0 0 14.16l42.667 29.64a8.616 8.616 0 0 0 9.836 0l42.669-29.64a8.62 8.62 0 0 0 .001-14.16zm-47.587 26.223L368.6 470.654l27.557-19.143 27.558 19.143-27.558 19.144zm4.379-122.514l-43.418-25.599a8.62 8.62 0 0 0-8.756 14.85l39.175 23.097v36.451a8.621 8.621 0 0 0 17.242 0v-41.375a8.623 8.623 0 0 0-4.243-7.424z"/></svg>