<svg xmlns="http://www.w3.org/2000/svg" viewBox="0 0 295.239 295.239"><circle cx="38.096" cy="90.476" r="4.762"/><circle cx="57.144" cy="90.476" r="4.762"/><circle cx="76.191" cy="90.476" r="4.762"/><path d="M33.334 261.905h61.29l-61.29-57.686v57.686zm9.524-35.643l27.752 26.119H42.858v-26.119z"/><path d="M295.239 28.571V.001h-28.571v9.524H171.43V.001h-28.571v28.571h28.571v-9.524h16.1c-15.424 10.243-25.624 27.757-25.624 47.619H28.572c-7.876 0-14.286 6.41-14.286 14.286V140.6c-4.338-3.657-7.976-2.767-9.376-2.162-1.476.638-4.91 2.81-4.91 9.182v133.333c0 7.876 6.41 14.286 14.286 14.286h142.857c6.233 0 8.386-3.086 9.119-4.924.729-1.843 1.276-5.562-3.267-9.833l-4.557-4.29h122.514c7.876 0 14.286-6.41 14.286-14.286V80.953c0-7.876-6.41-14.286-14.286-14.286h-4.762c0-19.862-10.2-37.376-25.624-47.619h16.1v9.524h28.573zM276.191 9.524h9.524v9.524h-9.524V9.524zm-114.285 9.524h-9.524V9.524h9.524v9.524zM23.811 80.951a4.77 4.77 0 0 1 4.761-4.761H162.72c.005.038.057.048.086.071 1.814 10.719 6.629 20.538 13.805 28.5h-152.8v-23.81zm-9.524 204.763a4.765 4.765 0 0 1-4.762-4.761v-4.762h9.524v-9.524H9.525v-9.524h9.524v-9.524H9.525v-9.524h9.524v-9.524H9.525v-9.524h9.524v-9.524H9.525v-9.522h9.524v-9.524H9.525v-9.524h9.524v-9.524H9.525v-22.314l49.819 46.89 14.367 13.519 80.952 76.19H14.287zM42.858 167.41v-34.076H147.62V200H77.487l-34.629-32.59zm242.856 94.5a4.765 4.765 0 0 1-4.761 4.757H148.32l-60.714-57.143h69.538V123.81H33.334v34.633l-9.524-8.962v-35.195h163.933c.919.6 1.776 1.271 2.733 1.824v5.376c-2.871 2.176-4.762 5.59-4.762 9.462 0 2.69.929 5.148 2.443 7.143-1.514 2-2.443 4.457-2.443 7.148 0 6.562 5.343 11.905 11.905 11.905h42.857c6.562 0 11.905-5.343 11.905-11.905 0-2.69-.929-5.148-2.443-7.143 1.514-1.995 2.443-4.452 2.443-7.143 0-3.871-1.89-7.286-4.762-9.462v-5.376c.957-.552 1.814-1.224 2.733-1.824h35.362V261.91zM197.62 142.857h42.857a2.382 2.382 0 0 1 2.381 2.381 2.382 2.382 0 0 1-2.381 2.381H197.62a2.382 2.382 0 0 1-2.381-2.381 2.383 2.383 0 0 1 2.381-2.381zm-2.381-11.905a2.382 2.382 0 0 1 2.381-2.381h42.857a2.382 2.382 0 0 1 2.381 2.381 2.382 2.382 0 0 1-2.381 2.381H197.62a2.382 2.382 0 0 1-2.381-2.381zm80.138-54.761h5.576a4.77 4.77 0 0 1 4.762 4.762v23.81h-24.233a56.566 56.566 0 0 0 13.676-27.838c.086-.219.172-.448.219-.734zm-8.709-9.524c0 17.938-9.952 34.176-25.981 42.376l-2.59 1.329v8.676h-14.286v-34.01c8.19-2.129 14.286-9.524 14.286-18.371 0-10.505-8.543-19.048-19.048-19.048s-19.048 8.543-19.048 19.048c0 8.848 6.095 16.243 14.286 18.371v34.01h-14.286v-8.676l-2.59-1.329c-16.029-8.2-25.981-24.438-25.981-42.376 0-26.257 21.362-47.619 47.619-47.619s47.619 21.362 47.619 47.619zm-47.619 9.524c-5.252 0-9.524-4.271-9.524-9.524 0-5.252 4.271-9.524 9.524-9.524 5.253 0 9.524 4.271 9.524 9.524-.001 5.253-4.272 9.524-9.524 9.524z"/><path d="M166.668 171.43h109.524v9.524H166.668zm0 19.047h109.524v9.524H166.668zm0 19.047h109.524v9.524H166.668zm0 19.047h109.524v9.524H166.668z"/></svg>