<svg width="953" height="103" viewBox="0 0 953 103" xmlns="http://www.w3.org/2000/svg"><g fill-rule="evenodd"><path d="M42.51 99.8c25.22 0 37.41-12.907 37.41-30.022 0-34.932-53.662-24.972-53.662-39.842 0-5.612 4.764-9.4 13.31-9.4 9.527 0 19.615 3.227 27.181 10.241l11.069-14.59C68.57 7.63 56.24 3.14 41.39 3.14c-21.997 0-35.448 12.907-35.448 28.48 0 35.212 53.802 23.848 53.802 40.403 0 5.33-5.324 10.381-16.253 10.381-12.89 0-23.118-5.752-29.703-12.626L3 84.929C11.687 93.768 24.577 99.8 42.51 99.8zm98.472-1.683V22.079h31.05V4.543H90V22.08h30.946v76.038h20.036zm128.078 0L233.052 4.543h-24.94l-36.147 93.574h22.697l5.885-15.853h40.07l5.745 15.853h22.698zm-34.907-33.39h-29.142l14.571-40.263 14.571 40.264zM325.001 99.8c20.596 0 32.365-11.363 39.09-23.008l-17.093-8.277c-3.923 7.716-12.33 13.608-21.997 13.608-16.953 0-29.282-13.046-29.282-30.723S308.048 20.677 325 20.677c9.668 0 18.074 6.032 21.997 13.608l17.093-8.418C357.506 14.223 345.597 3 325.001 3c-28.022 0-49.738 19.64-49.738 48.4 0 28.76 21.716 48.4 49.738 48.4zm132.001-1.683l-39.65-49.663 37.128-43.91h-24.519L396.896 46.35V4.543H377v93.574h19.896v-28.76l7.285-8.698 28.302 37.458h24.519zM724.04 98.38L760.02 5h-22.68l-25.76 71.82L685.68 5H663l36.12 93.38zM643 98.429v-17.64h-75V59.673l75 .337V42.195h-75V22.479l75 .024V5h-75v93.267zM548 98.38v-17.5h-55.92V5H473v93.38zM855 98.429v-17.64h-75V59.673l75 .337V42.195h-75V22.479l75 .024V5h-75v93.267zM950 98.38v-17.5h-55.92V5H875v93.38z"/></g></svg>
