<svg width="572" height="265" viewBox="0 0 572 265" xmlns="http://www.w3.org/2000/svg"><g fill="#fff" fill-rule="evenodd"><path d="M49.32 119.224c30.842 0 45.749-15.74 45.749-36.614 0-42.602-65.626-30.454-65.626-48.59 0-6.844 5.826-11.463 16.278-11.463 11.652 0 23.989 3.935 33.241 12.49L92.5 17.252C81.189 6.816 66.11 1.34 47.949 1.34c-26.902 0-43.35 15.74-43.35 34.732 0 42.944 65.796 29.086 65.796 49.275 0 6.501-6.511 12.66-19.876 12.66-15.764 0-28.272-7.014-36.325-15.398L1 101.088c10.623 10.779 26.387 18.136 48.32 18.136zm127.763-2.053V24.439h37.974V3.052H114.735v21.387h37.846v92.732h24.502zm165.195 0L298.242 3.052h-30.5l-44.207 114.119h27.758l7.197-19.334h49.005l7.025 19.334h27.758zm-41.466-40.72h-35.64l17.82-49.104 17.82 49.104zm108.657 42.773c25.188 0 39.58-13.859 47.805-28.06L436.37 81.07c-4.797 9.41-15.078 16.596-26.901 16.596-20.733 0-35.811-15.911-35.811-37.469s15.078-37.47 35.81-37.47c11.824 0 22.105 7.358 26.902 16.597l20.904-10.266c-8.053-14.2-22.617-27.888-47.805-27.888-34.27 0-60.828 23.953-60.828 59.027s26.559 59.027 60.828 59.027zm161.431-2.053l-48.49-60.567 45.406-53.552h-29.985l-40.438 50.986V3.052h-24.331v114.119h24.33V82.097l8.91-10.608 34.613 45.682H570.9zM298.229 263.597l44.002-113.884h-27.737l-31.503 87.59-31.675-87.59h-27.737l44.173 113.884zM452.273 263.656v-21.514h-91.722v-25.75l91.722.411v-21.728h-91.722V171.03l91.722.03v-21.347h-91.722V263.46zM205.235 263.656v-21.514h-91.722v-25.75l91.722.411v-21.728h-91.722V171.03l91.722.03v-21.347h-91.722V263.46z"/><path d="M298.229 263.597l44.002-113.884h-27.737l-31.503 87.59-31.675-87.59h-27.737l44.173 113.884zM564.785 263.597v-21.343h-68.387v-92.54h-23.335v113.883zM92.722 263.597v-21.343H24.334v-92.54H1v113.883z"/></g></svg>
