<svg xmlns="http://www.w3.org/2000/svg" viewBox="0 0 295.239 295.239"><path d="M47.619 0v200H14.286C6.41 200 0 206.41 0 214.286c0 7.876 6.41 14.286 14.286 14.286h14.286v4.762c0 7.876 6.41 14.286 14.286 14.286h4.762v47.619h206.733l40.886-40.886V0H47.619zM28.572 219.048H14.286a4.766 4.766 0 0 1-4.762-4.762 4.766 4.766 0 0 1 4.762-4.762h14.286v9.524zm19.047 19.047h-4.762a4.766 4.766 0 0 1-4.762-4.762v-4.762h9.524v9.524zm-9.524-19.047v-9.524h171.429v9.524H38.095zm219.048 59.933v-21.838h21.838l-21.838 21.838zm28.571-31.362h-38.095v38.095H57.143v-38.095h23.11l1.376-2.367c1.743-2.995 6.433-2.995 8.176 0l1.371 2.367h13.586v-9.524H96.31c-2.681-2.99-6.538-4.762-10.595-4.762s-7.914 1.771-10.595 4.762H57.143v-9.524H210.4c1.971 5.529 7.21 9.524 13.41 9.524 5.4 0 10.057-3.048 12.481-7.481l16.686 8.343 30.838-24.671-30.838-24.671-16.686 8.343c-2.424-4.433-7.081-7.481-12.481-7.481-6.2 0-11.438 3.995-13.41 9.524H57.143V9.524h228.571v238.095zm-66.666-23.809v-19.048A4.766 4.766 0 0 1 223.81 200a4.766 4.766 0 0 1 4.762 4.762v19.048a4.766 4.766 0 0 1-4.762 4.762 4.766 4.766 0 0 1-4.762-4.762zm43.567-4.762l-10.829 8.662-13.69-6.843v-13.162l13.69-6.843 10.829 8.662h-10.233v9.524h10.233z"/><path d="M219.048 23.81H71.429v104.762h147.619V23.81zm-9.524 95.237H80.952V84.176l42.857-17.143 45.848 18.343 3.538-8.843-11.319-4.529 28.81-14.405 18.838 7.529v53.919zm-59.158-51.652l-7.943-3.176c3.562-4.39 8.938-7.076 14.719-7.076 3.125 0 6.11.786 8.777 2.19l-15.667 7.833.114.229zm59.158-12.524l-19.262-7.705-14.667 7.334c-5.086-4.371-11.548-6.881-18.452-6.881-9.681 0-18.638 4.971-23.857 12.948l-9.476-3.79-42.858 17.142V33.333h128.572v21.538zm19.047-31.061h42.857v9.524h-42.857zm0 23.809h42.857v9.524h-42.857zm0 23.81h42.857v9.524h-42.857zm0 23.809h42.857v9.524h-42.857zm0 23.81h42.857v9.524h-42.857zM85.714 176.19h9.524v-23.809h14.286v-9.524H71.429v9.524h14.285zm38.096-33.333h147.619v9.524H123.81zm0 23.81h147.619v9.524H123.81z"/></svg>