<svg width="255" height="48" viewBox="0 0 255 48" fill="none" xmlns="http://www.w3.org/2000/svg">
<path d="M61.5999 0.5V0.400002H57.4999L47.3999 18.5H51.2999L59.4999 3.7L67.7999 18.5H71.5999L61.5999 0.5Z" fill="#2215F9"/>
<path d="M202.7 0.400002L194.5 15.3L186.2 0.5V0.400002H182.4L192.4 18.5H196.5L206.5 0.5L206.6 0.400002H202.7Z" fill="#2215F9"/>
<path d="M15.7 3.8C13.8 3.3 11.8 3.10001 9.7 3.10001C7.6 3.10001 6.1 3.30001 5.3 3.60001C4.5 3.90001 4.1 4.6 4.1 5.5C4.1 6.3 4.4 6.80001 5.1 7.10001C5.8 7.40001 7.2 7.6 9.4 7.8C14.6 8.2 16.8 9.8 16.8 13.2C16.8 15.3 16 16.8 14.6 17.6C13.1 18.5 10.7 18.9 7.3 18.9C4.6 18.9 2.3 18.7 0.5 18.2L1.2 15.1C3 15.6 5 15.8 7.2 15.8C9.3 15.8 10.8 15.6 11.6 15.3C12.4 15 12.8 14.3 12.8 13.4C12.8 11.9 12 11.3 7.2 10.9C2.3 10.6 0 9.1 0 5.9C0 1.7 3 0 9.5 0C12.2 0 14.4 0.200005 16.1 0.700005L15.7 3.8Z" fill="black"/>
<path d="M35.5999 3.4V18.5H31.9V3.4H24.2V0.400002H43.4V3.4H35.5999Z" fill="black"/>
<path d="M95.1001 0.600007L94.6001 3.70001C93.3001 3.30001 91.7001 3.20001 89.8001 3.20001C88.8001 3.20001 88.0001 3.2 87.4001 3.3C86.2001 3.4 84.8001 3.70001 84.2001 4.20001C83.1001 5.10001 82.6001 6.6 82.6001 9.4C82.6001 12.2 83.0001 13.8 84.2001 14.7C85.4001 15.6 86.9001 15.8 89.8001 15.8C91.7001 15.8 93.3001 15.6 94.6001 15.3L95.1001 18.4C93.3001 18.8 91.3001 19 89.0001 19C85.4001 19 82.9001 18.4 81.2001 17C79.4001 15.5 78.6001 13.1 78.6001 9.4C78.6001 5.7 79.4001 3.3 81.2001 2C83.0001 0.600001 85.4001 0.100007 89.0001 0.100007C91.2001 7.32392e-06 93.3001 0.200007 95.1001 0.600007Z" fill="black"/>
<path d="M109.2 18.5H105.6V0.400002H109.2V18.5ZM119.5 18.5C117.3 15.7 115.3 13.5 113.5 11.9C111.7 10.2 110.3 9.3 109.4 9C110.4 8.5 111.7 7.4 113.5 5.9C115.3 4.4 117.1 2.5 118.9 0.400002H123.6C121.6 2.6 119.8 4.4 118.2 5.9C116.6 7.4 115.4 8.3 114.7 8.7C115.5 9.1 116.7 10.1 118.5 11.8C120.3 13.5 122.2 15.7 124.3 18.4H119.5V18.5Z" fill="black"/>
<path d="M134.4 0.400002H138.1V15.6H148.9V18.5H134.4V0.400002Z" fill="black"/>
<path d="M159 0.400002H175V3.4H162.7V7.60001H171.5V10.5H162.7V15.6H175V18.5H159V0.400002Z" fill="black"/>
<path d="M213.9 0.400002H229.9V3.4H217.6V7.60001H226.4V10.5H217.6V15.6H229.9V18.5H213.9V0.400002Z" fill="black"/>
<path d="M240 0.400002H243.6V15.6H254.5V18.5H240V0.400002Z" fill="black"/>
<path d="M14.7999 39.6H9.7999V36.7H18.5999V46.9C16.6999 47.4 13.9999 47.6 10.7999 47.6C7.1999 47.6 4.6999 47 2.9999 45.6C1.1999 44.1 0.399902 41.7 0.399902 38C0.399902 34.3 1.2999 31.9 3.1999 30.5C5.0999 29.3 7.4999 28.8 11.3999 28.8C14.0999 28.8 16.2999 29 18.0999 29.3L17.4999 32.4C16.9999 32.3 16.0999 32.2 14.7999 32C13.4999 31.9 12.4999 31.8 11.6999 31.8C10.6999 31.8 9.7999 31.8 9.1999 31.9C7.8999 32 6.5999 32.3 5.8999 32.9C4.7999 33.8 4.2999 35.3 4.2999 38.1C4.2999 40.9 4.6999 42.5 5.8999 43.4C7.0999 44.3 8.5999 44.5 11.4999 44.5C12.6999 44.5 13.7999 44.4 14.7999 44.2V39.6Z" fill="black"/>
<path d="M26.3 29.2H37.9001C40.1001 29.2 41.7 29.7 42.6 30.6C43.5 31.5 44 32.8 44 34.5C44 37.7 42.1 39.4 38.2001 39.5C38.9001 39.7 39.8001 40.4 40.9001 41.6C42.0001 42.8 43.6 44.7 45.8 47.4H41C39.1 44.9 37.6 43.1 36.5 42.1C35.4 41.1 34.5 40.5 33.6 40.5H30V47.4H26.4V29.2H26.3ZM29.9 32.1V37.6H36C38.5 37.6 39.7001 37.1 39.7001 35C39.7001 33 38.8 32.2 36.8 32.2H29.9V32.1Z" fill="black"/>
<path d="M69.5001 30.7C71.4001 32.1 72.2001 34.5 72.2001 38.1C72.2001 41.8 71.4001 44.3 69.6001 45.7C67.8001 47.1 65.3001 47.7 61.7001 47.7C58.0001 47.7 55.6001 47.2 53.8001 45.7C52.0001 44.2 51.1001 41.8 51.1001 38.1C51.1001 34.5 51.9001 32 53.7001 30.7C55.6001 29.3 57.9001 28.8 61.6001 28.8C65.3001 28.8 67.7001 29.3 69.5001 30.7ZM66.2001 43.9C67.8001 43 68.1001 41.4 68.2001 38.1C68.2001 35.3 68.0001 33.8 66.9001 32.9C66.4001 32.4 65.7001 32.1 64.9001 32C64.1001 31.9 63.0001 31.8 61.6001 31.8C59.3001 31.8 58.1001 31.9 57.0001 32.4C55.4001 33.2 55.1001 34.7 55.0001 38.1C55.0001 43.6 56.3001 44.5 61.6001 44.5C63.9001 44.6 65.2001 44.4 66.2001 43.9Z" fill="black"/>
<path d="M97.7001 29.2V41.8C97.7001 44 96.9001 45.6 95.4001 46.4C93.9001 47.2 91.5001 47.6 88.4001 47.6C85.3001 47.6 82.9001 47.2 81.4001 46.4C79.9001 45.6 79.1001 44 79.1001 41.8V29.2H82.8001V39.7C82.8001 40.8 82.9001 41.6 82.9001 42.1C83.0001 42.6 83.2001 43.1 83.6001 43.5C84.4001 44.3 85.7001 44.5 88.4001 44.5C91.1001 44.5 92.4001 44.3 93.2001 43.5C93.6001 43.1 93.8001 42.6 93.9001 42.1C94.0001 41.6 94.0001 40.8 94.0001 39.7V29.2H97.7001Z" fill="black"/>
<path d="M109.2 47.3H105.6V29.2H117.3C121.3 29.2 123.3 31.5 123.3 35.4C123.3 37.1 122.8 38.5 121.8 39.6C120.8 40.7 119.3 41.3 117.4 41.3H109.3V47.3H109.2ZM115.9 38.5C118 38.5 119.1 37.5 119.1 35.4C119.1 33.2 118.1 32.1 116 32.1H109.2V38.5H115.9Z" fill="black"/>
</svg>
