<?xml version="1.0" encoding="UTF-8"?>
<svg width="500px" height="396px" viewBox="0 0 500 396" version="1.1" xmlns="http://www.w3.org/2000/svg" xmlns:xlink="http://www.w3.org/1999/xlink">
    <!-- Generator: Sketch 41.2 (35397) - http://www.bohemiancoding.com/sketch -->
    <title>Artboard 3</title>
    <desc>Created with Sketch.</desc>
    <defs></defs>
    <g id="Page-1" stroke="none" stroke-width="1" fill="none" fill-rule="evenodd">
        <g id="Artboard-3">
            <g id="Group-2" transform="translate(11.000000, 96.000000)">
                <path d="M0,41 L0,40 L0,14 L1,13 L2,13 L9,27 L1,41 L0,41 Z" id="Path-13" fill="#639D56"></path>
                <path d="M1,13 L24,0 L24,54 C24,54 13.8659372,36.0683375 9,27 C4.13406279,17.9316625 2,13 2,13 L1,13 Z" id="Path-14" fill="#72AC60"></path>
                <path d="M24,0 C24,0 35.3503059,18.2505098 40,26 C44.6496941,33.7494902 48,40 48,40 L48,41 L25,55 L24,55 L24,0 Z" id="Path-15" fill="#6BA65C"></path>
                <polygon id="Path-16" fill="#639D56" points="25 0 47 13 40 26 24 0"></polygon>
                <polygon id="Path-17" fill="#51934A" points="47 13 48 14 48 40 39.4000015 25"></polygon>
                <polygon id="Path-12" fill="#51934A" points="9 27 24 54 24 55 0 41 5 33"></polygon>
            </g>
            <g id="Group-2" transform="translate(271.000000, 96.000000)">
                <path d="M0,41 L0,40 L0,14 L1,13 L2,13 L9,27 L1,41 L0,41 Z" id="Path-13" fill="#639D56"></path>
                <path d="M1,13 L24,0 L24,54 C24,54 13.8659372,36.0683375 9,27 C4.13406279,17.9316625 2,13 2,13 L1,13 Z" id="Path-14" fill="#72AC60"></path>
                <path d="M24,0 C24,0 35.3503059,18.2505098 40,26 C44.6496941,33.7494902 48,40 48,40 L48,41 L25,55 L24,55 L24,0 Z" id="Path-15" fill="#6BA65C"></path>
                <polygon id="Path-16" fill="#639D56" points="25 0 47 13 40 26 24 0"></polygon>
                <polygon id="Path-17" fill="#51934A" points="47 13 48 14 48 40 39.4000015 25"></polygon>
                <polygon id="Path-12" fill="#51934A" points="9 27 24 54 24 55 0 41 5 33"></polygon>
            </g>
            <g id="Group-2" transform="translate(141.000000, 296.000000)">
                <path d="M0,41 L0,40 L0,14 L1,13 L2,13 L9,27 L1,41 L0,41 Z" id="Path-13" fill="#639D56"></path>
                <path d="M1,13 L24,0 L24,54 C24,54 13.8659372,36.0683375 9,27 C4.13406279,17.9316625 2,13 2,13 L1,13 Z" id="Path-14" fill="#72AC60"></path>
                <path d="M24,0 C24,0 35.3503059,18.2505098 40,26 C44.6496941,33.7494902 48,40 48,40 L48,41 L25,55 L24,55 L24,0 Z" id="Path-15" fill="#6BA65C"></path>
                <polygon id="Path-16" fill="#639D56" points="25 0 47 13 40 26 24 0"></polygon>
                <polygon id="Path-17" fill="#51934A" points="47 13 48 14 48 40 39.4000015 25"></polygon>
                <polygon id="Path-12" fill="#51934A" points="9 27 24 54 24 55 0 41 5 33"></polygon>
            </g>
            <g id="Group-2" transform="translate(401.000000, 296.000000)">
                <path d="M0,41 L0,40 L0,14 L1,13 L2,13 L9,27 L1,41 L0,41 Z" id="Path-13" fill="#639D56"></path>
                <path d="M1,13 L24,0 L24,54 C24,54 13.8659372,36.0683375 9,27 C4.13406279,17.9316625 2,13 2,13 L1,13 Z" id="Path-14" fill="#72AC60"></path>
                <path d="M24,0 C24,0 35.3503059,18.2505098 40,26 C44.6496941,33.7494902 48,40 48,40 L48,41 L25,55 L24,55 L24,0 Z" id="Path-15" fill="#6BA65C"></path>
                <polygon id="Path-16" fill="#639D56" points="25 0 47 13 40 26 24 0"></polygon>
                <polygon id="Path-17" fill="#51934A" points="47 13 48 14 48 40 39.4000015 25"></polygon>
                <polygon id="Path-12" fill="#51934A" points="9 27 24 54 24 55 0 41 5 33"></polygon>
            </g>
        </g>
    </g>
</svg>