<?xml version="1.0" encoding="UTF-8"?>
<svg width="500px" height="396px" viewBox="0 0 500 396" version="1.1" xmlns="http://www.w3.org/2000/svg" xmlns:xlink="http://www.w3.org/1999/xlink">
    <!-- Generator: Sketch 41.2 (35397) - http://www.bohemiancoding.com/sketch -->
    <title>Artboard 3</title>
    <desc>Created with Sketch.</desc>
    <defs></defs>
    <g id="Page-1" stroke="none" stroke-width="1" fill="none" fill-rule="evenodd">
        <g id="Artboard-3">
            <g id="Group" transform="translate(-75.000000, 100.000000)"></g>
            <g id="Group-3" transform="translate(5.000000, 100.000000)">
                <polygon id="Path-6" fill="#DE2443" points="30 0 46 0 60 15 45 15"></polygon>
                <polygon id="Path-6" fill="#DE2443" transform="translate(15.000000, 7.500000) scale(-1, 1) translate(-15.000000, -7.500000) " points="0 0 16 0 30 15 15 15"></polygon>
                <polygon id="Path-11" fill="#F23857" points="0 15 30 48 15 15"></polygon>
                <polygon id="Path-18" fill="#F23857" points="30 48 60 15 45 15"></polygon>
                <polygon id="Path-19" fill="#DE2443" points="15 15 45 15 30 48"></polygon>
                <polygon id="Path-20" fill="#EB3150" points="15 15 30 0 45 15"></polygon>
            </g>
            <g id="Group-3" transform="translate(265.000000, 100.000000)">
                <polygon id="Path-6" fill="#DE2443" points="30 0 46 0 60 15 45 15"></polygon>
                <polygon id="Path-6" fill="#DE2443" transform="translate(15.000000, 7.500000) scale(-1, 1) translate(-15.000000, -7.500000) " points="0 0 16 0 30 15 15 15"></polygon>
                <polygon id="Path-11" fill="#F23857" points="0 15 30 48 15 15"></polygon>
                <polygon id="Path-18" fill="#F23857" points="30 48 60 15 45 15"></polygon>
                <polygon id="Path-19" fill="#DE2443" points="15 15 45 15 30 48"></polygon>
                <polygon id="Path-20" fill="#EB3150" points="15 15 30 0 45 15"></polygon>
            </g>
            <g id="Group-3" transform="translate(135.000000, 298.000000)">
                <polygon id="Path-6" fill="#DE2443" points="30 0 46 0 60 15 45 15"></polygon>
                <polygon id="Path-6" fill="#DE2443" transform="translate(15.000000, 7.500000) scale(-1, 1) translate(-15.000000, -7.500000) " points="0 0 16 0 30 15 15 15"></polygon>
                <polygon id="Path-11" fill="#F23857" points="0 15 30 48 15 15"></polygon>
                <polygon id="Path-18" fill="#F23857" points="30 48 60 15 45 15"></polygon>
                <polygon id="Path-19" fill="#DE2443" points="15 15 45 15 30 48"></polygon>
                <polygon id="Path-20" fill="#EB3150" points="15 15 30 0 45 15"></polygon>
            </g>
            <g id="Group-3" transform="translate(395.000000, 298.000000)">
                <polygon id="Path-6" fill="#DE2443" points="30 0 46 0 60 15 45 15"></polygon>
                <polygon id="Path-6" fill="#DE2443" transform="translate(15.000000, 7.500000) scale(-1, 1) translate(-15.000000, -7.500000) " points="0 0 16 0 30 15 15 15"></polygon>
                <polygon id="Path-11" fill="#F23857" points="0 15 30 48 15 15"></polygon>
                <polygon id="Path-18" fill="#F23857" points="30 48 60 15 45 15"></polygon>
                <polygon id="Path-19" fill="#DE2443" points="15 15 45 15 30 48"></polygon>
                <polygon id="Path-20" fill="#EB3150" points="15 15 30 0 45 15"></polygon>
            </g>
        </g>
    </g>
</svg>