<?xml version="1.0" encoding="UTF-8"?>
<svg width="500px" height="396px" viewBox="0 0 500 396" version="1.1" xmlns="http://www.w3.org/2000/svg" xmlns:xlink="http://www.w3.org/1999/xlink">
    <!-- Generator: Sketch 41.2 (35397) - http://www.bohemiancoding.com/sketch -->
    <title>Artboard 3</title>
    <desc>Created with Sketch.</desc>
    <defs></defs>
    <g id="Page-1" stroke="none" stroke-width="1" fill="none" fill-rule="evenodd">
        <g id="Artboard-3">
            <g id="Group" transform="translate(-75.000000, 100.000000)"></g>
            <g id="Group-3" transform="translate(5.000000, 100.000000)">
              <g id="react">
                  <path d="M28.3592982,21.3357895 C28.3592982,23.7661404 26.3890351,25.7364035 23.9586842,25.7364035 C21.5283333,25.7364035 19.5580702,23.7661404 19.5580702,21.3357895 C19.5580702,18.9054386 21.5283333,16.9351754 23.9586842,16.9351754 C26.3890351,16.9351754 28.3592982,18.9054386 28.3592982,21.3357895 L28.3592982,21.3357895 Z" id="Shape" fill="#5EB6DE"></path>
                  <path d="M23.9586842,12.3884211 C29.8671053,12.3884211 35.3558772,13.2362281 39.494386,14.6609649 C44.4807018,16.3775439 47.5464912,18.9796491 47.5464912,21.3357895 C47.5464912,23.7911404 44.2972807,26.5553509 38.9427193,28.3294737 C34.894386,29.6707895 29.5673684,30.3708772 23.9586842,30.3708772 C18.2083333,30.3708772 12.7630702,29.7136842 8.67008772,28.3146491 C3.49061404,26.5442982 0.370877193,23.7442105 0.370877193,21.3357895 C0.370877193,18.9987719 3.29807018,16.4168421 8.21429825,14.702807 C12.3682456,13.2546491 17.9925439,12.3884211 23.9586842,12.3884211 L23.9586842,12.3884211 Z" id="Shape" stroke="#5EB6DE" stroke-width="2.1"></path>
                  <path d="M16.1698246,16.8878947 C19.1214912,11.7696491 22.5979825,7.43842105 25.8996491,4.56508772 C29.8777193,1.10315789 33.6634211,-0.252719298 35.7044737,0.924298246 C37.8314912,2.15087719 38.6028947,6.34657895 37.4647368,11.8713158 C36.6042105,16.0483333 34.5494737,21.0127193 31.7475439,25.8714035 C28.8748246,30.852807 25.5852632,35.2414912 22.3285088,38.0882456 C18.2073684,41.6907018 14.2232456,42.9942982 12.1368421,41.7911404 C10.1123684,40.6235965 9.33807018,36.7980702 10.3092982,31.6829825 C11.1299123,27.3610526 13.1892982,22.0562281 16.1698246,16.8878947 L16.1698246,16.8878947 Z" id="Shape" stroke="#5EB6DE" stroke-width="2.1"></path>
                  <path d="M16.1772807,25.884386 C13.2171053,20.7710526 11.2008772,15.5960526 10.3604386,11.300614 C9.34780702,6.12526316 10.0637719,2.16824561 12.1028947,0.987807018 C14.227807,-0.242368421 18.2480702,1.18464912 22.4660526,4.92991228 C25.6551754,7.76149123 28.9299123,12.0208772 31.74,16.8749123 C34.6210526,21.8514912 36.7804386,26.8932456 37.6203509,31.1364912 C38.6832456,36.5060526 37.8228947,40.6087719 35.7385088,41.8154386 C33.7159649,42.9863158 30.0149123,41.7466667 26.0684211,38.350614 C22.7339474,35.4812281 19.1664912,31.0477193 16.1772807,25.884386 L16.1772807,25.884386 Z" id="Shape" stroke="#5EB6DE" stroke-width="2.1"></path>
              </g>
            </g>
            <g id="Group-3" transform="translate(265.000000, 100.000000)">
              <g id="react">
                  <path d="M28.3592982,21.3357895 C28.3592982,23.7661404 26.3890351,25.7364035 23.9586842,25.7364035 C21.5283333,25.7364035 19.5580702,23.7661404 19.5580702,21.3357895 C19.5580702,18.9054386 21.5283333,16.9351754 23.9586842,16.9351754 C26.3890351,16.9351754 28.3592982,18.9054386 28.3592982,21.3357895 L28.3592982,21.3357895 Z" id="Shape" fill="#5EB6DE"></path>
                  <path d="M23.9586842,12.3884211 C29.8671053,12.3884211 35.3558772,13.2362281 39.494386,14.6609649 C44.4807018,16.3775439 47.5464912,18.9796491 47.5464912,21.3357895 C47.5464912,23.7911404 44.2972807,26.5553509 38.9427193,28.3294737 C34.894386,29.6707895 29.5673684,30.3708772 23.9586842,30.3708772 C18.2083333,30.3708772 12.7630702,29.7136842 8.67008772,28.3146491 C3.49061404,26.5442982 0.370877193,23.7442105 0.370877193,21.3357895 C0.370877193,18.9987719 3.29807018,16.4168421 8.21429825,14.702807 C12.3682456,13.2546491 17.9925439,12.3884211 23.9586842,12.3884211 L23.9586842,12.3884211 Z" id="Shape" stroke="#5EB6DE" stroke-width="2.1"></path>
                  <path d="M16.1698246,16.8878947 C19.1214912,11.7696491 22.5979825,7.43842105 25.8996491,4.56508772 C29.8777193,1.10315789 33.6634211,-0.252719298 35.7044737,0.924298246 C37.8314912,2.15087719 38.6028947,6.34657895 37.4647368,11.8713158 C36.6042105,16.0483333 34.5494737,21.0127193 31.7475439,25.8714035 C28.8748246,30.852807 25.5852632,35.2414912 22.3285088,38.0882456 C18.2073684,41.6907018 14.2232456,42.9942982 12.1368421,41.7911404 C10.1123684,40.6235965 9.33807018,36.7980702 10.3092982,31.6829825 C11.1299123,27.3610526 13.1892982,22.0562281 16.1698246,16.8878947 L16.1698246,16.8878947 Z" id="Shape" stroke="#5EB6DE" stroke-width="2.1"></path>
                  <path d="M16.1772807,25.884386 C13.2171053,20.7710526 11.2008772,15.5960526 10.3604386,11.300614 C9.34780702,6.12526316 10.0637719,2.16824561 12.1028947,0.987807018 C14.227807,-0.242368421 18.2480702,1.18464912 22.4660526,4.92991228 C25.6551754,7.76149123 28.9299123,12.0208772 31.74,16.8749123 C34.6210526,21.8514912 36.7804386,26.8932456 37.6203509,31.1364912 C38.6832456,36.5060526 37.8228947,40.6087719 35.7385088,41.8154386 C33.7159649,42.9863158 30.0149123,41.7466667 26.0684211,38.350614 C22.7339474,35.4812281 19.1664912,31.0477193 16.1772807,25.884386 L16.1772807,25.884386 Z" id="Shape" stroke="#5EB6DE" stroke-width="2.1"></path>
              </g>
            </g>
            <g id="Group-3" transform="translate(135.000000, 298.000000)">
              <g id="react">
                  <path d="M28.3592982,21.3357895 C28.3592982,23.7661404 26.3890351,25.7364035 23.9586842,25.7364035 C21.5283333,25.7364035 19.5580702,23.7661404 19.5580702,21.3357895 C19.5580702,18.9054386 21.5283333,16.9351754 23.9586842,16.9351754 C26.3890351,16.9351754 28.3592982,18.9054386 28.3592982,21.3357895 L28.3592982,21.3357895 Z" id="Shape" fill="#5EB6DE"></path>
                  <path d="M23.9586842,12.3884211 C29.8671053,12.3884211 35.3558772,13.2362281 39.494386,14.6609649 C44.4807018,16.3775439 47.5464912,18.9796491 47.5464912,21.3357895 C47.5464912,23.7911404 44.2972807,26.5553509 38.9427193,28.3294737 C34.894386,29.6707895 29.5673684,30.3708772 23.9586842,30.3708772 C18.2083333,30.3708772 12.7630702,29.7136842 8.67008772,28.3146491 C3.49061404,26.5442982 0.370877193,23.7442105 0.370877193,21.3357895 C0.370877193,18.9987719 3.29807018,16.4168421 8.21429825,14.702807 C12.3682456,13.2546491 17.9925439,12.3884211 23.9586842,12.3884211 L23.9586842,12.3884211 Z" id="Shape" stroke="#5EB6DE" stroke-width="2.1"></path>
                  <path d="M16.1698246,16.8878947 C19.1214912,11.7696491 22.5979825,7.43842105 25.8996491,4.56508772 C29.8777193,1.10315789 33.6634211,-0.252719298 35.7044737,0.924298246 C37.8314912,2.15087719 38.6028947,6.34657895 37.4647368,11.8713158 C36.6042105,16.0483333 34.5494737,21.0127193 31.7475439,25.8714035 C28.8748246,30.852807 25.5852632,35.2414912 22.3285088,38.0882456 C18.2073684,41.6907018 14.2232456,42.9942982 12.1368421,41.7911404 C10.1123684,40.6235965 9.33807018,36.7980702 10.3092982,31.6829825 C11.1299123,27.3610526 13.1892982,22.0562281 16.1698246,16.8878947 L16.1698246,16.8878947 Z" id="Shape" stroke="#5EB6DE" stroke-width="2.1"></path>
                  <path d="M16.1772807,25.884386 C13.2171053,20.7710526 11.2008772,15.5960526 10.3604386,11.300614 C9.34780702,6.12526316 10.0637719,2.16824561 12.1028947,0.987807018 C14.227807,-0.242368421 18.2480702,1.18464912 22.4660526,4.92991228 C25.6551754,7.76149123 28.9299123,12.0208772 31.74,16.8749123 C34.6210526,21.8514912 36.7804386,26.8932456 37.6203509,31.1364912 C38.6832456,36.5060526 37.8228947,40.6087719 35.7385088,41.8154386 C33.7159649,42.9863158 30.0149123,41.7466667 26.0684211,38.350614 C22.7339474,35.4812281 19.1664912,31.0477193 16.1772807,25.884386 L16.1772807,25.884386 Z" id="Shape" stroke="#5EB6DE" stroke-width="2.1"></path>
              </g>
            </g>
            <g id="Group-3" transform="translate(395.000000, 298.000000)">
              <g id="react">
                  <path d="M28.3592982,21.3357895 C28.3592982,23.7661404 26.3890351,25.7364035 23.9586842,25.7364035 C21.5283333,25.7364035 19.5580702,23.7661404 19.5580702,21.3357895 C19.5580702,18.9054386 21.5283333,16.9351754 23.9586842,16.9351754 C26.3890351,16.9351754 28.3592982,18.9054386 28.3592982,21.3357895 L28.3592982,21.3357895 Z" id="Shape" fill="#5EB6DE"></path>
                  <path d="M23.9586842,12.3884211 C29.8671053,12.3884211 35.3558772,13.2362281 39.494386,14.6609649 C44.4807018,16.3775439 47.5464912,18.9796491 47.5464912,21.3357895 C47.5464912,23.7911404 44.2972807,26.5553509 38.9427193,28.3294737 C34.894386,29.6707895 29.5673684,30.3708772 23.9586842,30.3708772 C18.2083333,30.3708772 12.7630702,29.7136842 8.67008772,28.3146491 C3.49061404,26.5442982 0.370877193,23.7442105 0.370877193,21.3357895 C0.370877193,18.9987719 3.29807018,16.4168421 8.21429825,14.702807 C12.3682456,13.2546491 17.9925439,12.3884211 23.9586842,12.3884211 L23.9586842,12.3884211 Z" id="Shape" stroke="#5EB6DE" stroke-width="2.1"></path>
                  <path d="M16.1698246,16.8878947 C19.1214912,11.7696491 22.5979825,7.43842105 25.8996491,4.56508772 C29.8777193,1.10315789 33.6634211,-0.252719298 35.7044737,0.924298246 C37.8314912,2.15087719 38.6028947,6.34657895 37.4647368,11.8713158 C36.6042105,16.0483333 34.5494737,21.0127193 31.7475439,25.8714035 C28.8748246,30.852807 25.5852632,35.2414912 22.3285088,38.0882456 C18.2073684,41.6907018 14.2232456,42.9942982 12.1368421,41.7911404 C10.1123684,40.6235965 9.33807018,36.7980702 10.3092982,31.6829825 C11.1299123,27.3610526 13.1892982,22.0562281 16.1698246,16.8878947 L16.1698246,16.8878947 Z" id="Shape" stroke="#5EB6DE" stroke-width="2.1"></path>
                  <path d="M16.1772807,25.884386 C13.2171053,20.7710526 11.2008772,15.5960526 10.3604386,11.300614 C9.34780702,6.12526316 10.0637719,2.16824561 12.1028947,0.987807018 C14.227807,-0.242368421 18.2480702,1.18464912 22.4660526,4.92991228 C25.6551754,7.76149123 28.9299123,12.0208772 31.74,16.8749123 C34.6210526,21.8514912 36.7804386,26.8932456 37.6203509,31.1364912 C38.6832456,36.5060526 37.8228947,40.6087719 35.7385088,41.8154386 C33.7159649,42.9863158 30.0149123,41.7466667 26.0684211,38.350614 C22.7339474,35.4812281 19.1664912,31.0477193 16.1772807,25.884386 L16.1772807,25.884386 Z" id="Shape" stroke="#5EB6DE" stroke-width="2.1"></path>
              </g>
            </g>
        </g>
    </g>
</svg>
