<svg xmlns="http://www.w3.org/2000/svg" viewBox="0 0 512 512"><path d="M264.551 0c-42.141 0-76.426 34.285-76.426 76.426s34.285 76.426 76.426 76.426 76.426-34.285 76.426-76.426C340.977 34.285 306.692 0 264.551 0zm-8.017 76.96h-9.62V50.238h9.62V76.96zm0-42.755h-17.637a8.017 8.017 0 0 0-8.017 8.017v42.756a8.017 8.017 0 0 0 8.017 8.017h17.637v18.171h-17.637c-4.427 0-8.017 3.588-8.017 8.017s3.589 8.017 8.017 8.017h17.637v9.072c-29.522-3.936-52.376-29.263-52.376-59.844s22.854-55.909 52.376-59.844v17.621zm16.034 58.789h9.62v18.171h-9.62V92.994zm0 43.276v-9.072h17.637a8.017 8.017 0 0 0 8.017-8.017V84.977a8.017 8.017 0 0 0-8.017-8.017h-17.637V50.238h17.637a8.017 8.017 0 0 0 8.017-8.017 8.017 8.017 0 0 0-8.017-8.017h-17.637V16.582c29.522 3.936 52.376 29.263 52.376 59.844s-22.854 55.908-52.376 59.844zM414.694 377.029a8.018 8.018 0 0 0-10.685 3.79c-11.049 23.199-34.742 38.187-60.36 38.187a8.017 8.017 0 0 0-8.017 8.017 8.017 8.017 0 0 0 8.017 8.017c31.768 0 61.142-18.576 74.835-47.324a8.018 8.018 0 0 0-3.79-10.687zM418.472 265.086a8.017 8.017 0 0 0-8.017 8.017v51.309a8.017 8.017 0 0 0 16.034 0v-51.309a8.017 8.017 0 0 0-8.017-8.017z"/><path d="M452.676 171.023c-4.427 0-8.017 3.588-8.017 8.017s3.589 8.017 8.017 8.017c23.87 0 43.29 19.42 43.29 43.29 0 21.164-15.27 38.817-35.369 42.551-2.363-61.289-52.952-110.425-114.811-110.425H208.293l-66.017-74.269a8.017 8.017 0 0 0-14.009 5.325v70.843c-53.443 9.834-94.063 56.764-94.063 113.007v8.886L6.698 290.85A8.015 8.015 0 0 0 0 298.756v68.409a8.016 8.016 0 0 0 6.699 7.907l30.429 5.072c11.202 48.841 53.204 84.898 103.144 88.73l5.178 36.243a8.017 8.017 0 0 0 7.937 6.884h51.307a8.018 8.018 0 0 0 7.937-6.884l5.124-35.872h76.492l5.124 35.872a8.017 8.017 0 0 0 7.937 6.884h51.307a8.018 8.018 0 0 0 7.937-6.884l5.559-38.917c51.666-12.074 88.583-58.21 88.583-111.861v-65.225C489.625 285.186 512 260.338 512 230.347c0-32.711-26.612-59.324-59.324-59.324zM16.033 360.374v-54.828l18.171-3.028v51.82c0 3.045.138 6.092.377 9.127l-18.548-3.091zm128.268-245.76l42.541 47.858H144.301v-47.858zm53.439 381.353h-37.401l-3.817-26.722h45.036l-3.818 26.722zm153.921 0H314.26l-3.818-26.722h35.345c3.252 0 6.508-.15 9.752-.423l-3.878 27.145zm92.999-214.314v72.685c0 47.852-34.117 88.765-81.122 97.282a99.89 99.89 0 0 1-17.751 1.591H149.111c-.479 0-.957-.009-1.432-.017l-.266-.005h-.002c-47.187-.795-87.412-35.05-95.646-81.449a99.835 99.835 0 0 1-1.526-17.402V277.378c0-54.519 44.354-98.873 98.873-98.873h196.676c54.519 0 98.873 44.354 98.873 98.873v4.275z"/><path d="M110.631 247.983c-18.566 0-33.67 15.105-33.67 33.67s15.105 33.67 33.67 33.67 33.67-15.105 33.67-33.67-15.105-33.67-33.67-33.67zm0 51.307c-9.725 0-17.637-7.912-17.637-17.637s7.912-17.637 17.637-17.637 17.637 7.912 17.637 17.637-7.913 17.637-17.637 17.637zM332.96 213.779H187.59a8.017 8.017 0 0 0-8.017 8.017v42.756a8.017 8.017 0 0 0 8.017 8.017h145.37a8.017 8.017 0 0 0 8.017-8.017v-42.756a8.016 8.016 0 0 0-8.017-8.017zm-8.016 42.755H195.608v-26.722h129.336v26.722z"/></svg>