<!DOCTYPE svg PUBLIC "-//W3C//DTD SVG 1.1//EN" "http://www.w3.org/Graphics/SVG/1.1/DTD/svg11.dtd" [
	<!ENTITY ns_flows "http://ns.adobe.com/Flows/1.0/">
]><svg xmlns="http://www.w3.org/2000/svg" width="60" height="60" viewBox="-1.324 -4.5 60 60" overflow="visible"><path fill="#8b9096" d="M25.657 0v8.44c-3.242.853-5.705 2.063-7.392 3.633-1.69 1.57-3.04 3.577-4.052 6.02-1.013 2.445-1.52 5.416-1.52 8.914 4.187 0 7.27 1.182 9.25 3.545 1.982 2.364 2.97 4.873 2.97 7.53 0 3.15-1.103 5.796-3.307 7.933-2.206 2.14-4.772 3.207-7.697 3.207-3.783 0-7.047-1.63-9.793-4.888C1.372 41.077 0 36.614 0 30.95c0-4.99 1.08-9.666 3.24-14.025 2.163-4.36 5.1-8.09 8.812-11.192C15.767 2.63 20.302.72 25.657 0zm33.02 0v8.44c-3.242.853-5.707 2.063-7.395 3.633-1.688 1.57-3.038 3.577-4.053 6.02-1.015 2.445-1.52 5.416-1.52 8.914 4.14 0 7.213 1.182 9.215 3.545 2.004 2.364 3.006 4.873 3.006 7.53 0 3.15-1.103 5.796-3.31 7.933-2.204 2.14-4.77 3.207-7.696 3.207-3.825 0-7.1-1.63-9.822-4.888-2.726-3.258-4.087-7.72-4.087-13.385 0-4.993 1.08-9.668 3.242-14.027A34.194 34.194 0 0 1 45.07 5.73C48.782 2.63 53.317.72 58.675 0z"/></svg>
