<svg xmlns="http://www.w3.org/2000/svg" width="130" height="130" viewBox="0 0 130 130"><g fill="#A62C46"><path d="M39.616 89.054h2.88v2.331h-2.88zm13.567-.212h3.216v3.587h-3.216z"/><path d="M65 0C29.102 0 0 29.102 0 65c0 35.899 29.102 65 65 65s65-29.101 65-65c0-35.898-29.102-65-65-65zm20.88 25.944l3.657 2.66-.664.997-3.104-1.662.111-1.995zm-10.638-3.213l.443 2.881-4.545.111-.663-3.214 4.765.222zm-14.074 1.552l2.659 2.992-3.656 2.105-2.66-3.213 3.657-1.884zm-12.411 9.53l3.878 2.549-2.991 3.545-3.99-2.658 3.103-3.436zm-9.863 14.628l5.098 1.995-1.551 4.322-5.209-1.663 1.662-4.654zm-5.541 18.506l5.763.443-.997 5.762-5.431-.665.665-5.54zm9.143 31.276l-3.039-3.039v3.41h-3.34V85.503h4.276c3.378 0 6.306.502 6.306 4.382-.222 4.227-3.146 4.274-3.146 4.274l4.064 4.063h-5.121zm17.4-.018h-3.445v-2.174H53.13v2.226h-3.428V89.16c0-3.445 2.535-3.615 4.364-3.604h.724c1.781 0 5.106.116 5.106 3.109v9.54zm6.979-.118h-3.546V85.564h3.546v12.523zm12.244.167h-8.531V85.731l3.49-.057v9.254h5.041v3.326zm-9.196-47.265l-.888 3.657-3.767-3.214 1.439-2.881 3.216 2.438zm-1.109-9.53l2.326-2.106 2.217 3.324-1.33 2.328-3.213-3.546zm.555 19.393l.221 3.657-4.654-1.995.222-3.878 4.211 2.216zm1.993 11.525l2.106 4.323-5.873-.333-1.109-3.99h4.876zm5.764-33.799l-1.44-2.659 3.102-.776.443 1.773-2.105 1.662zm8.422 59.786H81.06v-3.047h5.153c1.551 0 1.637-.507 1.637-.945 0-.44-.793-.646-2.407-.646-1.613 0-4.604-.793-4.604-3.896s1.552-4.267 4.655-4.267c3.102 0 4.931.057 4.931.057V89h-5.707v1.218h2.438c1.274 0 3.934-.056 3.934 3.934-.001 3.991-1.83 4.212-5.542 4.212zm-.333-62.224v-1.662l2.992.664v1.33l-2.992-.332zm6.539-.222s-3.324-3.769-9.42-3.104c-6.095.665-16.845 6.871-18.507 20.501s4.877 28.48 4.877 28.48H39.226s-.775-4.876 1.108-14.185c1.884-9.309 4.654-15.515 9.42-24.38 4.765-8.866 12.411-16.18 23.493-17.176 11.081-.998 19.837 7.868 19.837 7.868l-1.33 1.996z"/></g></svg>