<svg xmlns="http://www.w3.org/2000/svg" viewBox="0 0 60 60"><path d="M60 4.293c0-2.206-1.794-4-4-4H4c-2.206 0-4 1.794-4 4 0 1.859 1.28 3.411 3 3.858v48.556l3-3 6 6 6-6 6 6 6-6 6 6 6-6 6 6 6-6 3 3V8.151c1.72-.447 3-1.999 3-3.858zm-5 47.586l-1-1-6 6-6-6-6 6-6-6-6 6-6-6-6 6-6-6-1 1V5.293h50v46.586zm2-45.855V3.293H3v2.731a2 2 0 0 1 1-3.731h52a2 2 0 1 1 1 3.731z"/><path d="M44 40.293H29a1 1 0 1 0 0 2h15a1 1 0 1 0 0-2zM48.29 40.583c-.18.189-.29.439-.29.71 0 .26.11.52.29.71.19.18.45.29.71.29.26 0 .52-.11.71-.29.18-.19.29-.45.29-.71 0-.271-.11-.521-.29-.71-.38-.37-1.04-.37-1.42 0zM49 26.293H34a1 1 0 1 0 0 2h15a1 1 0 1 0 0-2zM49 33.293H39a1 1 0 1 0 0 2h10a1 1 0 1 0 0-2zM28 34.293a1 1 0 0 0 1 1h2a1 1 0 1 0 0-2h-2a1 1 0 0 0-1 1zM45 20.293a1 1 0 0 0-1-1H29a1 1 0 1 0 0 2h15a1 1 0 0 0 1-1zM48.29 19.583c-.18.189-.29.439-.29.71 0 .26.11.52.29.71.19.18.45.29.71.29.27 0 .52-.11.71-.29.18-.19.29-.45.29-.71s-.11-.521-.29-.71c-.37-.37-1.05-.37-1.42 0zM30.71 28.003c.18-.19.29-.44.29-.71 0-.271-.11-.521-.29-.71-.37-.37-1.04-.37-1.42 0-.18.189-.29.439-.29.71 0 .27.11.52.29.71.19.18.45.29.71.29.26 0 .52-.11.71-.29zM35.71 35.003a1.013 1.013 0 0 0 0-1.42c-.37-.37-1.04-.37-1.42 0-.18.189-.29.45-.29.71s.11.52.29.71c.19.18.45.29.71.29.26 0 .52-.11.71-.29zM17 21.394v-1.101a1 1 0 1 0-2 0v1.104a4.985 4.985 0 0 0-2.818 1.668 3.438 3.438 0 0 0-.794 2.603 3.65 3.65 0 0 0 1.383 2.491L15 29.893v5.438a2.996 2.996 0 0 1-2-2.816 1 1 0 1 0-2 0 5.01 5.01 0 0 0 4 4.899v.878a1 1 0 1 0 2 0v-.882a4.991 4.991 0 0 0 2.819-1.668 3.444 3.444 0 0 0 .793-2.605 3.646 3.646 0 0 0-1.383-2.488L17 28.916v-5.438c1.161.414 2 1.514 2 2.816a1 1 0 1 0 2 0 5.01 5.01 0 0 0-4-4.9zm1.001 10.834c.349.271.576.68.622 1.118.043.41-.075.803-.331 1.105a2.988 2.988 0 0 1-1.292.875v-3.878l1.001.78zm-4.002-5.647a1.642 1.642 0 0 1-.622-1.12 1.46 1.46 0 0 1 .331-1.104A2.988 2.988 0 0 1 15 23.482v3.877l-1.001-.778z"/><circle cx="40" cy="11.293" r="1"/><circle cx="36" cy="11.293" r="1"/><circle cx="44" cy="11.293" r="1"/><circle cx="32" cy="11.293" r="1"/><circle cx="48" cy="11.293" r="1"/><circle cx="20" cy="11.293" r="1"/><circle cx="24" cy="11.293" r="1"/><circle cx="28" cy="11.293" r="1"/><circle cx="52" cy="11.293" r="1"/><circle cx="16" cy="11.293" r="1"/><circle cx="12" cy="11.293" r="1"/><circle cx="8" cy="11.293" r="1"/></svg>