<svg xmlns="http://www.w3.org/2000/svg" viewBox="0 0 437.501 437.501"><path d="M219.626 170.276c-39.977 0-72.5 32.523-72.5 72.5s32.523 72.5 72.5 72.5 72.5-32.523 72.5-72.5-32.523-72.5-72.5-72.5zm0 130c-31.706 0-57.5-25.794-57.5-57.5s25.794-57.5 57.5-57.5 57.5 25.794 57.5 57.5-25.794 57.5-57.5 57.5z"/><path d="M219.626 198.064c-24.654 0-44.712 20.058-44.712 44.712 0 24.655 20.058 44.713 44.712 44.713s44.713-20.058 44.713-44.713c0-24.654-20.058-44.712-44.713-44.712zm0 15c2.157 0 4.26.237 6.288.676l-28.658 48.559c-4.566-5.226-7.342-12.054-7.342-19.522 0-16.384 13.329-29.713 29.712-29.713zm0 59.425c-3.49 0-6.838-.61-9.952-1.72l29.639-50.221c6.143 5.448 10.026 13.391 10.026 22.228 0 16.384-13.329 29.713-29.713 29.713z"/><path d="M356.848 289.825c-12.93-22.344-25.719-38.829-29.873-44.003-2.862-17.926-6.7-35.904-11.521-53.894-17.877-66.714-48.366-130.241-90.619-188.815a7.503 7.503 0 0 0-12.166-.001c-42.255 58.574-72.744 122.101-90.621 188.815-4.821 17.991-8.659 35.969-11.521 53.896-4.156 5.175-16.943 21.658-29.872 44.001-20.921 36.151-31.528 68.77-31.528 96.952a7.5 7.5 0 0 0 7.5 7.5c26.272 0 52.902-2.6 58.709-3.202a549.795 549.795 0 0 0 16.449 2.938l-3.382 30.62a7.503 7.503 0 0 0 6.633 8.278 762.276 762.276 0 0 0 83.593 4.59c27.929 0 55.858-1.53 83.592-4.59a7.498 7.498 0 0 0 6.632-8.279l-3.381-30.578a550.444 550.444 0 0 0 16.697-2.979c5.807.602 32.437 3.202 58.709 3.202a7.5 7.5 0 0 0 7.5-7.5c-.003-28.181-10.61-60.8-31.53-96.951zM218.751 20.475c17.277 24.842 32.402 50.562 45.322 77.017a107.07 107.07 0 0 1-45.327 10.075 107.06 107.06 0 0 1-45.319-10.072c12.921-26.456 28.046-52.178 45.324-77.02zM106.552 276.772c-3.263 33.681-3.023 67.1.726 100.001-9.247.828-25.788 2.104-42.863 2.427 2.818-37.766 25.711-77.988 42.137-102.428zm186.562 142.015a748.662 748.662 0 0 1-148.975 0l2.492-22.553a538.805 538.805 0 0 0 72.121 4.858c23.984 0 47.968-1.609 71.872-4.825l2.49 22.52zm21.972-41.628c-63.952 11.908-128.721 11.907-192.671 0-7.021-59.176-2.276-120.156 14.121-181.349 7.747-28.91 17.932-57.212 30.481-84.754a122.115 122.115 0 0 0 51.729 11.51c17.909 0 35.636-3.965 51.736-11.513 12.55 27.543 22.735 55.846 30.482 84.757 16.399 61.193 21.144 122.173 14.122 181.349zm15.138-.386c3.749-32.911 3.989-66.339.723-100.029 16.427 24.422 39.326 64.636 42.142 102.456-17.065-.322-33.614-1.599-42.865-2.427z"/></svg>