<svg xmlns="http://www.w3.org/2000/svg" viewBox="0 0 50 50"><linearGradient id="a" gradientUnits="userSpaceOnUse" x1="-148.636" y1="450.596" x2="-148.556" y2="450.596" gradientTransform="matrix(327.273 0 0 349.09 48656.457 -157283.547)"><stop offset="0" stop-color="#646464"/><stop offset="1"/></linearGradient><path fill="url(#a)" d="M12 17.3s26 2.6 26 6.9V13.9S38 9.6 12 7v10.3z"/><linearGradient id="b" gradientUnits="userSpaceOnUse" x1="-148.636" y1="450.136" x2="-148.556" y2="450.136" gradientTransform="matrix(327.273 0 0 349.09 48656.457 -157109)"><stop offset="0" stop-color="#646464"/><stop offset="1"/></linearGradient><path fill="url(#b)" d="M12 31.2s26 2.6 26 6.9V27.7s0-4.3-26-6.9v10.4z"/><linearGradient id="c" gradientUnits="userSpaceOnUse" x1="-148.636" y1="450.548" x2="-148.556" y2="450.548" gradientTransform="matrix(327.273 0 0 -349.09 48656.457 157291)"><stop offset="0" stop-color="#A00000"/><stop offset="1" stop-color="#F00"/></linearGradient><path fill="url(#c)" d="M12 6.9S38 4.3 38 0v10.4s0 4.3-26 6.9V6.9z"/><linearGradient id="d" gradientUnits="userSpaceOnUse" x1="-148.636" y1="451.009" x2="-148.556" y2="451.009" gradientTransform="matrix(327.273 0 0 -349.09 48656.457 157465.547)"><stop offset="0" stop-color="#A00000"/><stop offset="1" stop-color="#F00"/></linearGradient><path fill="url(#d)" d="M12 20.8s26-2.6 26-6.9v10.4s0 4.3-26 6.9V20.8z"/><linearGradient id="e" gradientUnits="userSpaceOnUse" x1="-148.636" y1="451.469" x2="-148.556" y2="451.469" gradientTransform="matrix(327.273 0 0 -349.09 48656.457 157640.094)"><stop offset="0" stop-color="#A00000"/><stop offset="1" stop-color="#F00"/></linearGradient><path fill="url(#e)" d="M12 34.7s26-2.6 26-6.9v10.4s0 4.3-26 6.9V34.7z"/></svg>