<svg xmlns="http://www.w3.org/2000/svg" viewBox="0 0 470 470"><path d="M337.218 228.614c20.688 0 37.519-16.831 37.519-37.518s-16.831-37.518-37.519-37.518-37.518 16.83-37.518 37.518 16.83 37.518 37.518 37.518zm0-60.036c12.417 0 22.519 10.102 22.519 22.518 0 12.417-10.102 22.518-22.519 22.518-12.416 0-22.518-10.102-22.518-22.518s10.102-22.518 22.518-22.518zM337.218 243.614c-10.181 0-20.277 2.529-29.198 7.313a7.5 7.5 0 0 0 7.088 13.219c6.749-3.619 14.396-5.532 22.11-5.532 23.313 0 42.708 17.096 46.31 39.408h-46.31c-4.143 0-7.5 3.358-7.5 7.5s3.357 7.5 7.5 7.5h54.408a7.5 7.5 0 0 0 7.5-7.5c0-34.137-27.772-61.908-61.908-61.908zM133.448 298.021H86.473c3.602-22.312 22.997-39.408 46.31-39.408 7.715 0 15.358 1.912 22.106 5.53a7.498 7.498 0 0 0 10.153-3.066 7.5 7.5 0 0 0-3.065-10.154c-8.92-4.783-19.015-7.311-29.194-7.311-34.137 0-61.908 27.771-61.908 61.908a7.5 7.5 0 0 0 7.5 7.5h55.074a7.5 7.5 0 1 0-.001-14.999zM132.782 228.614c20.688 0 37.518-16.831 37.518-37.518s-16.83-37.518-37.518-37.518-37.519 16.83-37.519 37.518 16.832 37.518 37.519 37.518zm0-60.036c12.416 0 22.518 10.102 22.518 22.518 0 12.417-10.102 22.518-22.518 22.518-12.417 0-22.519-10.102-22.519-22.518.001-12.416 10.102-22.518 22.519-22.518zM235 231.326c26.636 0 48.306-21.67 48.306-48.306 0-26.636-21.67-48.306-48.306-48.306s-48.306 21.67-48.306 48.306c0 26.636 21.67 48.306 48.306 48.306zm0-81.612c18.365 0 33.306 14.941 33.306 33.306 0 18.365-14.94 33.306-33.306 33.306s-33.306-14.941-33.306-33.306c0-18.365 14.941-33.306 33.306-33.306zM235 246.326c-44.918 0-81.461 36.543-81.461 81.46a7.5 7.5 0 0 0 7.5 7.5H308.96a7.5 7.5 0 0 0 7.5-7.5c0-44.917-36.543-81.46-81.46-81.46zm-66.04 73.96c3.735-33.13 31.928-58.96 66.04-58.96s62.304 25.83 66.039 58.96H168.96z"/><path d="M462.5 227.5h-18.21C440.413 117.968 352.032 29.587 242.5 25.711V7.5c0-4.142-3.357-7.5-7.5-7.5s-7.5 3.358-7.5 7.5v18.211C117.968 29.587 29.587 117.968 25.71 227.5H7.5c-4.143 0-7.5 3.358-7.5 7.5s3.357 7.5 7.5 7.5h18.21c3.877 109.532 92.258 197.913 201.79 201.789V462.5c0 4.142 3.357 7.5 7.5 7.5s7.5-3.358 7.5-7.5v-18.211c109.532-3.876 197.913-92.257 201.79-201.789h18.21c4.143 0 7.5-3.358 7.5-7.5s-3.357-7.5-7.5-7.5zm-220 201.779v-17.903c0-4.142-3.357-7.5-7.5-7.5s-7.5 3.358-7.5 7.5v17.903C126.24 425.418 44.581 343.76 40.72 242.5h17.904c4.143 0 7.5-3.358 7.5-7.5s-3.357-7.5-7.5-7.5H40.72C44.581 126.24 126.24 44.582 227.5 40.721v17.903c0 4.142 3.357 7.5 7.5 7.5s7.5-3.358 7.5-7.5V40.721C343.76 44.582 425.418 126.24 429.28 227.5h-17.904c-4.143 0-7.5 3.358-7.5 7.5s3.357 7.5 7.5 7.5h17.904c-3.862 101.26-85.52 182.918-186.78 186.779z"/></svg>