<svg xmlns="http://www.w3.org/2000/svg" viewBox="0 0 437.055 437.055"><path d="M197.229 116.46a7.5 7.5 0 0 0-7.5 7.5v66.231h-24.497c-4.143 0-7.5 3.358-7.5 7.5s3.357 7.5 7.5 7.5h31.997a7.5 7.5 0 0 0 7.5-7.5V123.96a7.5 7.5 0 0 0-7.5-7.5zM92.284 197.691a7.5 7.5 0 0 0-7.5-7.5H63.683c-4.143 0-7.5 3.358-7.5 7.5s3.357 7.5 7.5 7.5h21.102a7.5 7.5 0 0 0 7.499-7.5zM302.175 197.691a7.5 7.5 0 0 0 7.5 7.5h21.102c4.143 0 7.5-3.358 7.5-7.5s-3.357-7.5-7.5-7.5h-21.102a7.5 7.5 0 0 0-7.5 7.5zM197.229 56.644a7.5 7.5 0 0 0-7.5 7.5v21.102c0 4.142 3.357 7.5 7.5 7.5s7.5-3.358 7.5-7.5V64.144a7.5 7.5 0 0 0-7.5-7.5zM197.229 302.636a7.5 7.5 0 0 0-7.5 7.5v21.102c0 4.142 3.357 7.5 7.5 7.5s7.5-3.358 7.5-7.5v-21.102a7.5 7.5 0 0 0-7.5-7.5zM84.763 253.964l-6.938 4.006a7.5 7.5 0 0 0 7.5 12.99l6.938-4.006a7.5 7.5 0 0 0-7.5-12.99zM305.953 142.425a7.463 7.463 0 0 0 3.743-1.006l6.938-4.006a7.5 7.5 0 0 0-7.5-12.99l-6.938 4.006a7.5 7.5 0 0 0 3.757 13.996zM136.951 78.286a7.5 7.5 0 1 0-12.99 7.5l4.006 6.938a7.498 7.498 0 0 0 10.245 2.745 7.5 7.5 0 0 0 2.745-10.245l-4.006-6.938zM138.212 299.913a7.498 7.498 0 0 0-10.245 2.745l-4.006 6.938a7.5 7.5 0 0 0 12.99 7.5l4.006-6.938a7.5 7.5 0 0 0-2.745-10.245zM256.247 95.469a7.497 7.497 0 0 0 10.245-2.745l4.006-6.938a7.5 7.5 0 0 0-12.99-7.5l-4.006 6.938a7.5 7.5 0 0 0 2.745 10.245zM92.263 128.428l-6.938-4.006a7.498 7.498 0 0 0-10.245 2.745 7.5 7.5 0 0 0 2.745 10.245l6.938 4.006a7.497 7.497 0 0 0 10.245-2.745 7.5 7.5 0 0 0-2.745-10.245z"/><path d="M390.217 238.534a198.348 198.348 0 0 0 4.243-40.839C394.46 88.936 305.982.455 197.23.455S0 88.937 0 197.696c0 108.753 88.477 197.23 197.229 197.23 14.257 0 28.424-1.531 42.196-4.537 19.698 27.93 52.205 46.211 88.905 46.211 59.951 0 108.725-48.774 108.725-108.725 0-36.973-18.555-69.689-46.838-89.341zM197.229 379.926C96.748 379.926 15 298.177 15 197.696c0-100.488 81.748-182.24 182.229-182.24 100.482 0 182.23 81.752 182.23 182.24 0 11.016-.994 21.986-2.942 32.736a108.258 108.258 0 0 0-11.596-4.939 171.802 171.802 0 0 0 2.278-27.797c0-93.727-76.248-169.98-169.971-169.98-93.722 0-169.97 76.253-169.97 169.98 0 93.722 76.248 169.97 169.97 169.97 9.732 0 19.447-.842 28.973-2.478a107.94 107.94 0 0 0 5.026 11.559 183.41 183.41 0 0 1-33.998 3.179zm22.376-52.051c0 7.824.838 15.454 2.416 22.814a156.479 156.479 0 0 1-24.792 1.977c-85.45 0-154.97-69.519-154.97-154.97 0-85.456 69.52-154.98 154.97-154.98 85.451 0 154.971 69.524 154.971 154.98 0 7.941-.606 15.884-1.804 23.707a108.804 108.804 0 0 0-22.066-2.253c-59.951 0-108.725 48.774-108.725 108.725zm108.725 93.724c-51.68 0-93.725-42.045-93.725-93.725s42.045-93.725 93.725-93.725 93.725 42.045 93.725 93.725-42.045 93.725-93.725 93.725z"/><path d="M328.33 245.772c-45.271 0-82.103 36.831-82.103 82.103s36.831 82.103 82.103 82.103 82.103-36.831 82.103-82.103-36.831-82.103-82.103-82.103zm0 149.205c-37 0-67.103-30.102-67.103-67.103s30.103-67.103 67.103-67.103 67.103 30.102 67.103 67.103-30.103 67.103-67.103 67.103z"/><path d="M341.218 307.486c0 4.142 3.357 7.5 7.5 7.5s7.5-3.358 7.5-7.5c0-12.779-8.643-23.571-20.388-26.855v-2.979c0-4.142-3.357-7.5-7.5-7.5s-7.5 3.358-7.5 7.5v2.979c-11.745 3.285-20.389 14.076-20.389 26.855s8.643 23.571 20.389 26.855v24.381c-3.256-2.341-5.389-6.153-5.389-10.46 0-4.142-3.357-7.5-7.5-7.5s-7.5 3.358-7.5 7.5c0 12.779 8.643 23.571 20.389 26.855v2.979c0 4.142 3.357 7.5 7.5 7.5s7.5-3.358 7.5-7.5v-2.979c11.745-3.285 20.388-14.076 20.388-26.855s-8.643-23.571-20.388-26.855v-24.381c3.256 2.342 5.388 6.153 5.388 10.46zm-25.777 0c0-4.308 2.132-8.119 5.389-10.46v20.921c-3.256-2.342-5.389-6.153-5.389-10.461zm25.777 40.777c0 4.308-2.132 8.119-5.388 10.46v-20.92c3.256 2.341 5.388 6.152 5.388 10.46z"/></svg>