<svg xmlns="http://www.w3.org/2000/svg" viewBox="0 0 470 470"><path d="M16.105 219.443h50.842l18.252 36.506a7.5 7.5 0 0 0 13.416 0l18.253-36.506h3.724c4.142 0 7.5-3.357 7.5-7.5s-3.358-7.5-7.5-7.5h-8.359a7.497 7.497 0 0 0-6.708 4.146l-13.618 27.235-13.617-27.235a7.5 7.5 0 0 0-6.708-4.146H16.105A1.106 1.106 0 0 1 15 203.339V16.105c0-.609.496-1.105 1.105-1.105h151.604c.61 0 1.106.496 1.106 1.105v81.306c0 4.143 3.358 7.5 7.5 7.5s7.5-3.357 7.5-7.5V16.105C183.815 7.225 176.59 0 167.709 0H16.105C7.225 0 0 7.225 0 16.105v187.233c0 8.881 7.225 16.105 16.105 16.105z"/><path d="M91.908 30C71.22 30 54.39 46.83 54.39 67.518s16.831 37.519 37.518 37.519 37.518-16.831 37.518-37.519S112.595 30 91.908 30zm0 60.036c-12.417 0-22.518-10.102-22.518-22.519C69.39 55.102 79.491 45 91.908 45s22.518 10.102 22.518 22.518c0 12.417-10.102 22.518-22.518 22.518zM91.908 135.036a46.784 46.784 0 0 1 24.845 7.11c3.513 2.198 8.139 1.133 10.336-2.379s1.132-8.14-2.379-10.336a61.767 61.767 0 0 0-32.802-9.396C57.771 120.036 30 147.808 30 181.943a7.5 7.5 0 0 0 7.5 7.5h83.092c4.142 0 7.5-3.357 7.5-7.5s-3.358-7.5-7.5-7.5H45.599c3.601-22.311 22.996-39.407 46.309-39.407zM453.896 0H302.291c-8.881 0-16.106 7.225-16.106 16.105v81.306c0 4.143 3.357 7.5 7.5 7.5s7.5-3.357 7.5-7.5V16.105c0-.609.496-1.105 1.106-1.105h151.604c.609 0 1.104.496 1.104 1.105v187.233c0 .609-.495 1.104-1.104 1.104h-55.478a7.499 7.499 0 0 0-6.708 4.146l-13.617 27.235-13.618-27.235a7.5 7.5 0 0 0-6.708-4.146h-8.358c-4.143 0-7.5 3.357-7.5 7.5s3.357 7.5 7.5 7.5h3.724l18.253 36.506a7.5 7.5 0 0 0 13.416 0l18.253-36.506h50.842c8.88 0 16.104-7.225 16.104-16.104V16.105C470 7.225 462.775 0 453.896 0z"/><path d="M378.093 30c-20.688 0-37.519 16.83-37.519 37.518s16.831 37.519 37.519 37.519 37.518-16.831 37.518-37.519S398.78 30 378.093 30zm0 60.036c-12.417 0-22.519-10.102-22.519-22.519 0-12.416 10.102-22.518 22.519-22.518 12.416 0 22.518 10.102 22.518 22.518-.001 12.418-10.102 22.519-22.518 22.519zM341.908 181.943c0 4.143 3.357 7.5 7.5 7.5H432.5c4.143 0 7.5-3.357 7.5-7.5 0-34.136-27.771-61.907-61.907-61.907a61.756 61.756 0 0 0-32.802 9.396 7.5 7.5 0 0 0 7.957 12.715 46.784 46.784 0 0 1 24.845-7.11c23.313 0 42.707 17.096 46.309 39.407h-74.993a7.499 7.499 0 0 0-7.501 7.499zM143.092 136.01v187.234c0 8.88 7.225 16.104 16.105 16.104h50.842l18.252 36.506a7.5 7.5 0 0 0 13.416 0l18.253-36.506h50.841c8.881 0 16.105-7.225 16.105-16.104V136.01c0-8.88-7.225-16.104-16.105-16.104H159.197c-8.88-.001-16.105 7.224-16.105 16.104zm168.815 0v187.234c0 .609-.496 1.104-1.105 1.104h-55.476a7.497 7.497 0 0 0-6.708 4.146L235 355.729l-13.617-27.235a7.5 7.5 0 0 0-6.708-4.146h-55.477a1.106 1.106 0 0 1-1.105-1.104V136.01c0-.609.496-1.104 1.105-1.104h151.604a1.104 1.104 0 0 1 1.105 1.104z"/><path d="M235 224.941c20.687 0 37.518-16.831 37.518-37.519s-16.83-37.518-37.518-37.518c-20.688 0-37.518 16.83-37.518 37.518s16.83 37.519 37.518 37.519zm0-60.036c12.416 0 22.518 10.102 22.518 22.518 0 12.417-10.102 22.519-22.518 22.519-12.417 0-22.518-10.102-22.518-22.519 0-12.416 10.101-22.518 22.518-22.518zM180.592 309.349h108.815c4.143 0 7.5-3.357 7.5-7.5 0-34.136-27.771-61.907-61.907-61.907-34.136 0-61.908 27.771-61.908 61.907a7.5 7.5 0 0 0 7.5 7.5zM235 254.941c23.312 0 42.707 17.096 46.309 39.407h-92.617c3.6-22.311 22.995-39.407 46.308-39.407zM381.5 440.5c4.411 0 8-3.589 8-8s-3.589-8-8-8-8 3.589-8 8 3.589 8 8 8zM340.5 440.5c4.411 0 8-3.589 8-8s-3.589-8-8-8-8 3.589-8 8 3.589 8 8 8zM422.5 440.5c4.411 0 8-3.589 8-8s-3.589-8-8-8-8 3.589-8 8 3.589 8 8 8z"/><path d="M462.5 395H7.5a7.5 7.5 0 0 0-7.5 7.5v60a7.5 7.5 0 0 0 7.5 7.5h455c4.143 0 7.5-3.357 7.5-7.5v-60c0-4.143-3.357-7.5-7.5-7.5zM15 410h277.5v45H15v-45zm440 45H307.5v-45H455v45z"/></svg>