<?xml version="1.0" encoding="UTF-8"?>
<svg width="600px" height="300px" viewBox="0 0 600 300" version="1.1" xmlns="http://www.w3.org/2000/svg" xmlns:xlink="http://www.w3.org/1999/xlink">
    <!-- Generator: Sketch 50 (54983) - http://www.bohemiancoding.com/sketch -->
    <title>Artboard</title>
    <desc>Created with Sketch.</desc>
    <defs></defs>
    <g id="Artboard" stroke="none" stroke-width="1" fill="none" fill-rule="evenodd">
        <rect id="Rectangle-3" x="75" y="75" width="450" height="250"></rect>
        <g id="gazprom-ru" transform="translate(112.000000, 30.000000)" fill="#0079C2" fill-rule="nonzero">
            <polyline id="path26" points="115.534884 117.209302 138.976744 117.209302 138.976744 124.928097 127.825246 124.928097 127.825246 179.162791 115.534884 179.162791 115.534884 117.209302"></polyline>
            <path d="M153.641279,155.904836 L155.781157,124.928097 L156.497879,124.928097 L158.637757,155.904836 L153.641279,155.904836 Z M139.813953,179.162791 L152.038919,179.162791 L153.19592,162.709565 L159.083155,162.709565 L160.245237,179.162791 L172.465116,179.162791 L165.953318,117.209302 L146.325758,117.209302 L139.813953,179.162791 Z" id="path28"></path>
            <path d="M189.78128,157.479068 L189.78128,169.158813 C189.78128,170.733045 190.990413,171.190095 191.695714,171.190095 C192.854506,171.190095 193.66058,170.225244 193.66058,169.158813 L193.66058,154.736869 C193.66058,152.807162 193.30791,150.674345 188.723266,150.674345 L183.735558,150.674345 L183.735558,143.869616 L188.924774,143.869616 C192.401058,143.869616 193.66058,143.057086 193.66058,139.2485 L193.66058,126.959341 C193.66058,125.892948 192.854506,124.928097 191.695714,124.928097 C190.990413,124.928097 189.78128,125.334363 189.78128,126.959341 L189.78128,137.064892 L177.488372,137.064892 L177.488372,128.279672 C177.488372,123.963241 177.992166,117.209302 186.607276,117.209302 L196.784195,117.209302 C205.399306,117.209302 205.953488,123.963241 205.953488,128.279672 L205.953488,138.182069 C205.953488,144.936008 201.268066,146.764141 197.590274,146.611815 L197.590274,147.22119 C205.85271,147.01808 205.953488,153.416538 205.953488,155.600151 L205.953488,168.092421 C205.953488,172.459642 205.399306,179.162791 196.784195,179.162791 L186.607276,179.162791 C177.992166,179.162791 177.488372,172.459642 177.488372,168.092421 L177.488372,157.479068 L189.78128,157.479068" id="path30"></path>
            <polyline id="path32" points="214.325581 117.209302 242.790698 117.209302 242.790698 179.162791 230.497792 179.162791 230.497792 124.928097 226.618487 124.928097 226.618487 179.162791 214.325581 179.162791 214.325581 117.209302"></polyline>
            <path d="M263.455693,151.28372 L263.455693,124.928097 L265.06789,124.928097 C266.377758,124.928097 267.334999,126.045274 267.334999,128.025771 L267.334999,148.186047 C267.334999,150.166543 266.377758,151.28372 265.06789,151.28372 L263.455693,151.28372 Z M251.162791,179.162791 L263.455693,179.162791 L263.455693,158.088444 L270.508999,158.088444 C279.07373,158.088444 279.627907,151.385295 279.627907,147.01808 L279.627907,128.279672 C279.627907,123.963241 279.07373,117.209302 270.508999,117.209302 L251.162791,117.209302 L251.162791,179.162791 Z" id="path34"></path>
            <path d="M305.00942,169.158813 C305.00942,170.225244 304.203341,171.190095 303.044592,171.190095 C302.339253,171.190095 301.130115,170.733045 301.130115,169.158813 L301.130115,126.959341 C301.130115,125.334363 302.339253,124.928097 303.044592,124.928097 C304.203341,124.928097 305.00942,125.892948 305.00942,126.959341 L305.00942,169.158813 Z M288.837209,168.092421 C288.837209,172.459642 289.391387,179.162791 297.956115,179.162791 L308.183419,179.162791 C316.748143,179.162791 317.302326,172.459642 317.302326,168.092421 L317.302326,128.279672 C317.302326,123.963241 316.748143,117.209302 308.183419,117.209302 L297.956115,117.209302 C289.391387,117.209302 288.837209,123.963241 288.837209,128.279672 L288.837209,168.092421 Z" id="path36"></path>
            <polyline id="path38" points="358.012505 117.209302 374.232558 117.209302 374.232558 179.162791 361.786987 179.162791 361.786987 140.314892 361.327908 140.314892 354.901107 179.162791 344.954855 179.162791 338.579069 140.314892 338.119995 140.314892 338.119995 179.162791 325.674419 179.162791 325.674419 117.209302 341.843462 117.209302 349.953491 160.779858 358.012505 117.209302"></polyline>
            <path d="M99.0124357,32.502336 C95.2387503,15.7912324 85.7818518,2.19748827 84.4784844,0 C82.4173347,3.11736502 74.8750597,15.1268702 71.0407496,28.4140255 C66.8528494,43.2853811 66.2365302,56.4703162 67.6813281,69.3996927 C69.1160545,82.3801819 74.5365877,95.71845 74.5365877,95.71845 C77.416112,102.668617 81.7303247,110.180958 84.5391147,113.860465 C88.6562805,108.44343 98.1182747,92.2944631 101.068495,71.2394462 C102.710329,59.4854556 102.781025,49.2134837 99.0124357,32.502336 Z M84.4784844,109.669929 C82.6244857,106.143716 79.7449613,99.4490699 79.4721716,89.0237651 C79.4014373,79.0073023 83.3771779,70.3706822 84.5391147,68.5820416 C85.5747008,70.3706822 88.9998045,77.8830238 89.4090109,88.1549956 C89.6868581,98.1714584 86.3931135,106.092603 84.4784844,109.669929 Z M97.9161812,60.8652542 C97.7747506,67.2533172 97.0220202,73.9990765 96.062177,78.0363182 C96.405701,71.0861517 95.5822798,61.3252091 94.0061228,53.6595731 C92.4299658,46.0450059 87.9692324,33.2689239 84.4077501,27.3919286 C81.119063,33.0134093 77.0675359,44.0519249 74.945794,53.6084658 C72.8139534,63.1649626 72.7533232,74.7656588 72.7533232,78.2407641 C72.1875301,75.3278008 70.7730119,64.8514217 71.1721141,54.375004 C71.5055341,45.738384 73.5060155,36.7951365 74.6022699,32.7067819 C78.7851181,19.0619304 83.5186412,10.3230847 84.4077501,8.9432475 C85.296859,10.3230847 91.2579631,21.1060857 94.3496469,32.4001544 C97.4261745,43.6942287 98.0475403,54.528337 97.9161812,60.8652542 Z" id="path40"></path>
            <path d="M91.5221349,117.602309 L62.4335807,117.602309 L62.4335807,137.10477 C62.4591928,137.10477 62.4796825,137.053612 62.5053001,137.053612 C69.3586999,130.194476 80.4736966,130.194476 87.3322188,137.053612 C94.1856185,143.861558 94.1856185,154.969253 87.3322188,161.828389 C87.3015229,161.879586 87.2707883,161.879586 87.2400483,161.930782 C87.2400483,161.930782 87.2400483,161.930782 87.2400483,161.930782 C87.2041913,161.930782 87.1683288,161.981972 87.1375943,162.033168 C80.2995618,168.789918 71.3665906,172.168292 62.4335807,172.168292 C53.4596245,172.168292 44.4856761,168.789918 37.6425212,161.930782 C25.5747647,149.901667 24.1457134,131.2182 33.3450286,117.602309 C34.5845778,115.759558 36.0136733,114.019155 37.6425212,112.381183 C44.4856761,105.522047 53.4596245,102.143629 62.4335807,102.143629 L62.4335807,55.255814 C27.9514589,55.255814 0,83.1530348 0,117.602309 C0,152.051583 27.9514589,180 62.4335807,180 C80.4122606,180 96.6084145,172.373027 108,160.24157 L108,117.602309 L91.5221349,117.602309" id="path42"></path>
        </g>
    </g>
</svg>