<?xml version="1.0" encoding="UTF-8" standalone="no"?>
<svg
   xmlns:svg="http://www.w3.org/2000/svg"
   xmlns="http://www.w3.org/2000/svg"
   version="1.0"
   width="800.64563"
   height="390.40155"
   id="svg1936">
  <defs
     id="defs1938" />
  <g
     transform="translate(-68.17045,-40.27458)"
     id="layer1">
    <g
       transform="translate(5.323169,5.319048)"
       id="g4352">
      <path
         d="M 278.14025,108.86824 C 270.06111,73.618614 249.86328,44.955198 247.14095,40.274584 C 242.7501,46.852077 226.67964,72.160876 218.42484,100.24463 C 209.55538,131.54254 208.23817,159.31896 211.31174,186.67388 C 214.3853,214.02879 225.88933,242.11254 225.88933,242.11254 C 232.03646,256.87457 241.25723,272.67277 247.22878,280.4358 C 256.01041,269.0196 276.20831,234.94667 282.5311,190.47635 C 286.04374,165.76471 286.13157,144.11786 278.14025,108.86824 z M 247.14095,271.6541 C 243.18918,264.19847 237.04204,249.99847 236.42731,228.06185 C 236.25166,206.86292 244.76987,188.71999 247.22878,184.91752 C 249.42421,188.71999 256.8008,204.51819 257.67894,226.16504 C 258.20584,247.37275 251.18049,264.04916 247.14095,271.6541 z M 275.76917,168.68897 C 275.50575,182.13372 273.92506,196.32494 271.81746,204.80802 C 272.60777,190.18651 270.85149,169.56718 267.42661,153.47037 C 264.08956,137.38234 254.60537,110.47528 246.9653,98.040418 C 239.93995,109.8869 231.33391,133.14958 226.76747,153.32106 C 222.28879,173.51889 222.11321,197.93198 222.11321,205.25587 C 220.88375,199.08232 217.89794,177.07551 218.77615,154.93689 C 219.47871,136.67979 223.6939,117.93092 226.06492,109.30731 C 235.02227,80.494653 245.12119,62.070675 246.9653,59.146416 C 248.89731,62.070675 261.63072,84.736195 268.21699,108.5784 C 274.8032,132.4119 276.12048,155.22666 275.76917,168.68897"
         style="fill:#0079c1;fill-rule:nonzero;stroke:none"
         id="path4288" />
      <path
         d="M 260.75251,288.64662 L 199.5443,288.64662 L 199.5443,329.71855 C 199.63213,329.66585 199.71988,329.60437 199.71988,329.55168 C 214.12189,315.13218 237.56894,315.13218 251.97088,329.55168 C 266.37281,343.97996 266.37281,367.36553 251.97088,381.78503 C 251.88305,381.84651 251.88305,381.89921 251.79522,381.95191 C 251.79522,381.96069 251.79522,381.96069 251.79522,381.96947 C 251.70739,382.03974 251.61963,382.09243 251.5318,382.16269 C 237.21763,396.44167 218.33708,403.58998 199.5443,403.58998 C 180.66368,403.58998 161.78307,396.38897 147.38113,381.98704 C 122.00214,356.59919 119.01633,317.3276 138.33602,288.64662 C 140.97051,284.77388 143.95632,281.08559 147.38113,277.66078 C 161.78307,263.25006 180.66368,256.04906 199.5443,256.04906 L 199.5443,157.27284 C 127.00765,157.27284 68.170451,216.09248 68.170451,288.64662 C 68.170451,361.19205 127.00765,420.01168 199.5443,420.01168 C 237.39328,420.01168 271.46615,404.01148 295.44017,378.43049 L 295.44017,288.64662 L 260.75251,288.64662"
         style="fill:#0079c1;fill-rule:nonzero;stroke:none"
         id="path4290" />
      <path
         d="M 373.07015,396.5822 C 373.07015,405.77655 371.92852,420.03803 353.48698,420.03803 L 331.70846,420.03803 C 313.35474,420.03803 312.21311,405.77655 312.21311,396.5822 L 312.21311,312.13758 C 312.21311,302.93445 313.35474,288.67297 331.70846,288.67297 L 353.48698,288.67297 C 371.92852,288.67297 373.07015,302.93445 373.07015,312.13758 L 373.07015,330.71087 L 346.72512,330.71087 L 346.72512,309.29237 C 346.72512,307.04425 345.05659,304.98056 342.59775,304.98056 C 341.10481,304.98056 338.47032,305.9114 338.47032,309.29237 L 338.47032,398.87416 C 338.47032,402.24635 341.10481,403.18597 342.59775,403.18597 C 345.05659,403.18597 346.72512,401.12228 346.72512,398.87416 L 346.72512,370.12299 L 342.77334,370.12299 L 342.77334,355.66836 L 373.07015,355.66836 L 373.07015,396.5822"
         style="fill:#0079c1;fill-rule:nonzero;stroke:none"
         id="path4292" />
      <path
         d="M 412.58766,370.68502 L 417.06634,305.03326 L 418.55921,305.03326 L 423.12565,370.68502 L 412.58766,370.68502 z M 383.52031,420.03803 L 409.25061,420.03803 L 411.62169,385.13965 L 424.00386,385.13965 L 426.4627,420.03803 L 452.193,420.03803 L 438.49362,288.67297 L 397.21976,288.67297 L 383.52031,420.03803"
         style="fill:#0079c1;fill-rule:nonzero;stroke:none"
         id="path4294" />
      <path
         d="M 461.94068,403.5285 L 487.14408,305.03326 L 464.57517,305.03326 L 464.57517,288.67297 L 514.10377,288.67297 L 514.10377,304.99813 L 488.98819,403.19475 L 515.68447,403.19475 L 515.68447,420.03803 L 461.94068,420.03803 L 461.94068,403.5285"
         style="fill:#0079c1;fill-rule:nonzero;stroke:none"
         id="path4296" />
      <path
         d="M 554.32384,358.97906 L 554.32384,304.963 L 557.66089,304.963 C 560.55887,304.963 562.57864,307.39549 562.57864,311.53164 L 562.57864,352.41035 C 562.57864,356.53771 560.55887,358.97906 557.66089,358.97906 L 554.32384,358.97906 z M 527.97881,420.03803 L 554.32384,420.03803 L 554.32384,375.37441 L 569.3405,375.37441 C 587.69422,375.37441 588.83584,361.113 588.83584,351.91858 L 588.83584,312.13758 C 588.83584,302.93445 587.69422,288.67297 569.3405,288.67297 L 527.97881,288.67297 L 527.97881,420.03803"
         style="fill:#0079c1;fill-rule:nonzero;stroke:none"
         id="path4298" />
      <path
         d="M 628.61677,355.05363 L 628.61677,304.97178 L 632.04165,304.97178 C 634.8518,304.97178 636.87157,307.40427 636.87157,311.53164 L 636.87157,348.48492 C 636.87157,352.61235 634.8518,355.05363 632.04165,355.05363 L 628.61677,355.05363 z M 666.55366,420.03803 L 653.64459,368.80577 C 662.95312,365.056 663.12878,356.41483 663.12878,352.8582 L 663.12878,312.13758 C 663.12878,302.93445 662.07498,288.67297 643.63343,288.67297 L 602.35957,288.67297 L 602.35957,420.03803 L 628.61677,420.03803 L 628.61677,371.43149 L 630.54878,371.43149 L 639.50607,420.03803 L 666.55366,420.03803"
         style="fill:#0079c1;fill-rule:nonzero;stroke:none"
         id="path4300" />
      <path
         d="M 715.20411,398.87416 C 715.20411,401.13107 713.53559,403.19475 711.07668,403.19475 C 709.58381,403.19475 706.94931,402.25513 706.94931,398.87416 L 706.94931,309.29237 C 706.94931,305.9114 709.58381,304.98056 711.07668,304.98056 C 713.53559,304.98056 715.20411,307.04425 715.20411,309.29237 L 715.20411,398.87416 z M 680.69211,396.5822 C 680.69211,405.77655 681.83373,420.03803 700.27528,420.03803 L 721.96597,420.03803 C 740.40752,420.03803 741.54914,405.77655 741.54914,396.5822 L 741.54914,312.13758 C 741.54914,302.93445 740.40752,288.67297 721.96597,288.67297 L 700.27528,288.67297 C 681.83373,288.67297 680.69211,302.93445 680.69211,312.13758 L 680.69211,396.5822"
         style="fill:#0079c1;fill-rule:nonzero;stroke:none"
         id="path4302" />
      <path
         d="M 824.00905,288.67297 L 858.16974,288.67297 L 858.16974,420.03803 L 831.91254,420.03803 L 831.91254,337.64839 L 830.94657,337.64839 L 817.42277,420.03803 L 796.43456,420.03803 L 782.91077,337.64839 L 781.9448,337.64839 L 781.9448,420.03803 L 755.68759,420.03803 L 755.68759,288.67297 L 789.84829,288.67297 L 806.88479,381.0035 L 824.00905,288.67297"
         style="fill:#0079c1;fill-rule:nonzero;stroke:none"
         id="path4304" />
    </g>
  </g>
</svg>
