<?xml version="1.0" encoding="UTF-8"?>
<svg width="600px" height="300px" viewBox="0 0 600 300" version="1.1" xmlns="http://www.w3.org/2000/svg" xmlns:xlink="http://www.w3.org/1999/xlink">
    <!-- Generator: Sketch 50 (54983) - http://www.bohemiancoding.com/sketch -->
    <title>Artboard</title>
    <desc>Created with Sketch.</desc>
    <defs></defs>
    <g id="Artboard" stroke="none" stroke-width="1" fill="none" fill-rule="evenodd">
        <rect id="Rectangle-3" x="75" y="75" width="450" height="250"></rect>
        <g id="gazprom-en" transform="translate(112.000000, 30.000000)" fill="#0079C1" fill-rule="nonzero">
            <path d="M99.0146904,32.5202616 C95.2264617,15.8084092 85.7558995,2.21907973 84.479426,0 C82.4206,3.11839032 74.8853206,15.1172954 71.0147268,28.431807 C66.8559249,43.2701503 66.2382982,56.4389548 67.6794647,69.4079261 C69.1206265,82.3768927 74.5147521,95.6914023 74.5147521,95.6914023 C77.3970804,102.690083 81.720608,110.180012 84.5206086,113.860465 C88.6382278,108.448043 98.1088229,92.2940624 101.073516,71.2106777 C102.720558,59.4948858 102.761741,49.2321113 99.0146904,32.5202616 Z M84.479426,109.69706 C82.6264802,106.162345 79.7441472,99.4301228 79.4559064,89.0299683 C79.3735459,78.9795527 83.3676501,70.3779871 84.5206086,68.5752356 C85.550024,70.3779871 89.0088339,77.8679159 89.420585,88.1306904 C89.6676432,98.1852686 86.3735262,106.091557 84.479426,109.69706 Z M97.9029145,60.8812778 C97.7793994,67.2554356 97.0382296,73.983495 96.0499968,78.0053243 C96.4205654,71.0732645 95.5970631,61.2976373 93.9911708,53.6661375 C92.4264612,46.0388003 87.9794185,33.2821595 84.3970655,27.3867897 C81.1029485,33.0032085 77.0676617,44.0320482 74.9265033,53.5953496 C72.8264946,63.1711436 72.7441669,74.7453929 72.7441669,78.2176501 C72.1676853,75.2907692 70.7676686,64.8573376 71.1794525,54.3614148 C71.508876,45.7057213 73.4853368,36.8168794 74.5970845,32.7284248 C78.7970971,19.0683402 83.5323806,10.3335297 84.3970655,8.94713811 C85.3029658,10.3335297 91.2735355,21.0792558 94.3617722,32.3828484 C97.4499807,43.682314 98.0676402,54.4987948 97.9029145,60.8812778 Z" id="path4288"></path>
            <path d="M91.5162058,117.211358 L62.4296794,117.211358 L62.4296794,136.580777 C62.4714168,136.555924 62.5131161,136.52693 62.5131161,136.502082 C69.3570419,129.701882 80.4992275,129.701882 87.34312,136.502082 C94.1870077,143.306423 94.1870077,154.334999 87.34312,161.135199 C87.3013826,161.164192 87.3013826,161.189046 87.2596452,161.213899 C87.2596452,161.218039 87.2596452,161.218039 87.2596452,161.22218 C87.2179079,161.255319 87.1762038,161.280168 87.1344664,161.313302 C80.3322828,168.047233 71.3601267,171.418358 62.4296794,171.418358 C53.45749,171.418358 44.4853054,168.02238 37.6414129,161.230466 C25.5811572,149.25762 24.1622815,130.737237 33.3431197,117.211358 C34.595046,115.384984 36.0139216,113.645596 37.6414129,112.030464 C44.4853054,105.234405 53.45749,101.838431 62.4296794,101.838431 L62.4296794,55.255814 C27.9598071,55.255814 0,82.9950084 0,117.211358 C0,151.423601 27.9598071,179.162791 62.4296794,179.162791 C80.4157528,179.162791 96.6073949,171.617137 108,159.553206 L108,117.211358 L91.5162058,117.211358" id="path4290"></path>
            <path d="M144.837209,168.788435 C144.837209,173.183208 144.303226,180 135.677427,180 L125.490798,180 C116.906076,180 116.372093,173.183208 116.372093,168.788435 L116.372093,128.425064 C116.372093,124.026094 116.906076,117.209302 125.490798,117.209302 L135.677427,117.209302 C144.303226,117.209302 144.837209,124.026094 144.837209,128.425064 L144.837209,137.302842 L132.514652,137.302842 L132.514652,127.065093 C132.514652,125.990522 131.734218,125.004107 130.584127,125.004107 C129.885823,125.004107 128.653573,125.449036 128.653573,127.065093 L128.653573,169.88396 C128.653573,171.495821 129.885823,171.944946 130.584127,171.944946 C131.734218,171.944946 132.514652,170.958531 132.514652,169.88396 L132.514652,156.141295 L130.666257,156.141295 L130.666257,149.23218 L144.837209,149.23218 L144.837209,168.788435" id="path4292"></path>
            <path d="M163.680847,156.409938 L165.810283,125.029297 L166.520084,125.029297 L168.691246,156.409938 L163.680847,156.409938 Z M149.860465,180 L162.094211,180 L163.221566,163.319053 L169.108801,163.319053 L170.277882,180 L182.511628,180 L175.998112,117.209302 L156.374015,117.209302 L149.860465,180 Z" id="path4294"></path>
            <polyline id="path4296" points="186.697674 172.108671 198.47607 125.029297 187.92886 125.029297 187.92886 117.209302 211.075239 117.209302 211.075239 125.012505 199.337885 171.949143 211.813953 171.949143 211.813953 180 186.697674 180 186.697674 172.108671"></polyline>
            <path d="M230.834187,150.814649 L230.834187,124.995713 L232.39505,124.995713 C233.750544,124.995713 234.695267,126.15841 234.695267,128.135433 L234.695267,147.674896 C234.695267,149.647718 233.750544,150.814649 232.39505,150.814649 L230.834187,150.814649 Z M218.511628,180 L230.834187,180 L230.834187,158.651402 L237.858042,158.651402 C246.442766,158.651402 246.976744,151.834644 246.976744,147.439837 L246.976744,128.425064 C246.976744,124.026094 246.442766,117.209302 237.858042,117.209302 L218.511628,117.209302 L218.511628,180 Z" id="path4298"></path>
            <path d="M266.002342,148.938348 L266.002342,124.99991 L267.610345,124.99991 C268.929728,124.99991 269.878023,126.162607 269.878023,128.135433 L269.878023,145.798594 C269.878023,147.771449 268.929728,148.938348 267.610345,148.938348 L266.002342,148.938348 Z M283.813953,180 L277.753063,155.511682 C282.123477,153.719343 282.20595,149.588983 282.20595,147.888962 L282.20595,128.425064 C282.20595,124.026094 281.711185,117.209302 273.052759,117.209302 L253.674419,117.209302 L253.674419,180 L266.002342,180 L266.002342,156.76674 L266.909433,156.76674 L271.114937,180 L283.813953,180 Z" id="path4300"></path>
            <path d="M307.491394,169.88396 C307.491394,170.962732 306.710965,171.949143 305.560841,171.949143 C304.862569,171.949143 303.630315,171.500018 303.630315,169.88396 L303.630315,127.065093 C303.630315,125.449036 304.862569,125.004107 305.560841,125.004107 C306.710965,125.004107 307.491394,125.990522 307.491394,127.065093 L307.491394,169.88396 Z M291.348837,168.788435 C291.348837,173.183208 291.882816,180 300.508621,180 L310.65417,180 C319.279975,180 319.813953,173.183208 319.813953,168.788435 L319.813953,128.425064 C319.813953,124.026094 319.279975,117.209302 310.65417,117.209302 L300.508621,117.209302 C291.882816,117.209302 291.348837,124.026094 291.348837,128.425064 L291.348837,168.788435 Z" id="path4302"></path>
            <polyline id="path4304" points="359.441873 117.209302 375.906977 117.209302 375.906977 180 363.251275 180 363.251275 140.618882 362.785687 140.618882 356.267354 180 346.151251 180 339.632922 140.618882 339.167335 140.618882 339.167335 180 326.511628 180 326.511628 117.209302 342.976736 117.209302 351.188155 161.34203 359.441873 117.209302"></polyline>
        </g>
    </g>
</svg>