<?xml version="1.0" encoding="UTF-8"?>
<svg width="600px" height="300px" viewBox="0 0 600 300" version="1.1" xmlns="http://www.w3.org/2000/svg" xmlns:xlink="http://www.w3.org/1999/xlink">
    <!-- Generator: Sketch 50 (54983) - http://www.bohemiancoding.com/sketch -->
    <title>Artboard</title>
    <desc>Created with Sketch.</desc>
    <defs></defs>
    <g id="Artboard" stroke="none" stroke-width="1" fill="none" fill-rule="evenodd">
        <rect id="Rectangle-3" x="75" y="75" width="450" height="250"></rect>
        <g id="jammtravel" transform="translate(75.000000, 117.000000)" fill-rule="nonzero">
            <path d="M81,38.7692308 L81,50.3076923 L73.5398773,49.6153846 L73.5398773,48 L73.3067485,48 C69.1104294,53.7692308 62.8159509,54 60.9509202,54 C51.6257669,54 43,46.6153846 43,34.8461538 C43,23.3076923 50.9263804,15 61.1840491,15 C66.5460123,15 71.208589,17.0769231 75.404908,20.7692308 C79.601227,24.6923077 81,29.7692308 81,38.7692308 Z M70.7423313,34.6153846 C70.7423313,29.0769231 67.2453988,24.6923077 61.6503067,24.6923077 C56.0552147,24.6923077 52.3251534,29.0769231 52.3251534,34.8461538 C52.3251534,40.3846154 56.0552147,44.5384615 61.6503067,44.5384615 C67.0122699,44.5384615 70.7423313,40.3846154 70.7423313,34.6153846 Z" id="Shape" fill="#FF6700"></path>
            <circle id="Oval" fill="#FF6700" cx="76.5" cy="49.5" r="4.5"></circle>
            <path d="M33.2857143,19.3357664 C32.5714286,17.9343066 30.9047619,17 29,17 C27.0952381,17 25.4285714,17.9343066 24.7142857,19.3357664 C24.2380952,20.270073 24,21.4379562 24,23.540146 L23.6702205,46.1938222 C27.2416491,46.1938222 29.594037,47.7459111 32.9273703,47.7459111 L34,23.540146 C34,21.2043796 33.7619048,20.270073 33.2857143,19.3357664 Z" id="Shape" fill="#FF6700"></path>
            <circle id="Oval" fill="#FF6700" cx="28.5" cy="5.5" r="5.5"></circle>
            <path d="M109.577735,16 C113.953935,16 117.408829,17.3846154 119.712092,20.8461538 C122.93666,17.3846154 126.391555,16 131.228407,16 C135.143954,16 138.598848,17.1538462 140.671785,19.4615385 C143.666027,22.4615385 144.817658,26.1538462 144.817658,30.5384615 L144.817658,48.5384615 C144.817658,50.8461538 144.587332,51.7692308 144.126679,52.6923077 C143.435701,54.0769231 141.823417,55 139.980806,55 C138.138196,55 136.525912,54.0769231 135.834933,52.6923077 C135.37428,51.7692308 135.143954,50.6153846 135.143954,48.5384615 L135.143954,31.4615385 C135.143954,26.1538462 131.68906,24.5384615 128.694818,24.5384615 C125.930902,24.5384615 122.245681,26.1538462 122.245681,31.2307692 L122.245681,48.5384615 C122.245681,50.8461538 122.015355,51.7692308 121.554702,52.6923077 C120.863724,54.0769231 119.25144,55 117.408829,55 C115.566219,55 113.953935,54.0769231 113.262956,52.6923077 C112.802303,51.7692308 112.571977,50.8461538 112.571977,48.5384615 L112.571977,31.4615385 C112.571977,26.1538462 109.117083,24.5384615 106.122841,24.5384615 C103.128599,24.5384615 99.6737044,26.1538462 99.6737044,31.4615385 L99.6737044,48.5384615 C99.6737044,50.8461538 99.4433781,51.7692308 98.9827255,52.6923077 C98.2917466,54.0769231 96.6794626,55 94.8368522,55 C92.7639155,55 91.3819578,54.0769231 90.6909789,52.6923077 C90.2303263,51.7692308 90,50.6153846 90,48.5384615 L90,22.6923077 C90,20.1538462 90.2303263,19.4615385 90.6909789,18.3076923 C91.3819578,16.9230769 92.9942418,16 94.8368522,16 C96.21881,16 97.1401152,16.2307692 97.831094,17.1538462 C98.7523992,17.8461538 98.9827255,18.7692308 99.4433781,19.9230769 C102.667946,17.3846154 106.122841,16 109.577735,16 Z M174.760077,16 C178.90595,16 182.591171,17.6153846 184.894434,20.8461538 C188.119002,17.3846154 191.573896,16 196.410749,16 C200.326296,16 203.78119,17.1538462 205.854127,19.4615385 C208.848369,22.4615385 210,26.1538462 210,30.5384615 L210,48.5384615 C210,50.8461538 209.769674,51.7692308 209.309021,52.6923077 C208.618042,54.0769231 207.005758,55 205.163148,55 C203.320537,55 201.708253,54.0769231 201.017274,52.6923077 C200.556622,51.7692308 200.326296,50.8461538 200.326296,48.5384615 L200.326296,31.4615385 C200.326296,26.1538462 196.871401,24.5384615 193.877159,24.5384615 C191.113244,24.5384615 187.428023,26.1538462 187.428023,31.2307692 L187.428023,48.5384615 C187.428023,50.8461538 187.197697,51.7692308 186.737044,52.6923077 C186.046065,54.0769231 184.433781,55 182.591171,55 C180.74856,55 179.136276,54.0769231 178.445298,52.6923077 C177.984645,51.7692308 177.754319,50.6153846 177.754319,48.5384615 L177.754319,31.4615385 C177.754319,26.1538462 174.299424,24.5384615 171.305182,24.5384615 C168.31094,24.5384615 164.856046,26.1538462 164.856046,31.4615385 L164.856046,48.5384615 C164.856046,50.8461538 164.62572,51.7692308 164.165067,52.6923077 C163.474088,54.0769231 161.861804,55 160.019194,55 C158.176583,55 156.564299,54.0769231 155.873321,52.6923077 C155.412668,51.7692308 155.182342,50.6153846 155.182342,48.5384615 L155.182342,22.6923077 C155.182342,20.1538462 155.412668,19.4615385 155.873321,18.3076923 C156.564299,16.9230769 158.176583,16 160.019194,16 C161.401152,16 162.322457,16.2307692 163.013436,17.1538462 C163.934741,17.8461538 164.165067,18.7692308 164.62572,19.9230769 C167.619962,17.3846154 171.305182,16 174.760077,16 Z" id="Shape" fill="#FF6700"></path>
            <path d="M229.468172,54.7705628 C226.00308,54.7705628 223,52.017316 223,48.3463203 C223,44.6753247 225.772074,41.9220779 229.468172,41.9220779 C232.933265,41.9220779 235.936345,44.6753247 235.936345,48.3463203 C235.936345,52.017316 233.164271,54.7705628 229.468172,54.7705628 Z M249.103696,24.7142857 L248.179671,24.7142857 C246.331622,24.7142857 245.638604,24.4848485 244.945585,24.2554113 C243.790554,23.7965368 243.328542,22.6493506 243.328542,21.04329 C243.328542,19.4372294 244.021561,18.5194805 244.945585,17.8311688 C245.86961,17.6017316 246.562628,17.3722944 248.179671,17.3722944 L249.103696,17.3722944 L249.103696,12.3246753 C249.103696,10.030303 249.334702,9.11255411 249.796715,8.19480519 C250.489733,6.81818182 252.106776,5.9004329 253.954825,5.9004329 C255.802875,5.9004329 257.419918,6.81818182 258.112936,8.19480519 C258.574949,9.11255411 258.805955,10.2597403 258.805955,12.3246753 L258.805955,17.3722944 L261.578029,17.3722944 C263.426078,17.3722944 264.119097,17.6017316 264.812115,17.8311688 C265.967146,18.2900433 266.429158,19.4372294 266.429158,21.04329 C266.429158,22.6493506 265.73614,23.5670996 264.812115,24.2554113 C263.88809,24.4848485 263.195072,24.7142857 261.578029,24.7142857 L258.805955,24.7142857 L258.805955,43.0692641 C258.805955,44.9047619 259.498973,46.2813853 261.809035,46.5108225 C262.964066,46.5108225 263.88809,46.7402597 264.581109,46.969697 C265.73614,47.4285714 266.429158,48.5757576 266.429158,50.4112554 C266.429158,52.2467532 265.505133,53.1645022 264.581109,53.8528139 C263.657084,54.3116883 262.502053,54.5411255 260.654004,54.5411255 L259.960986,54.5411255 C252.106776,54.5411255 248.87269,49.2640693 248.87269,43.5281385 L249.103696,24.7142857 Z M292.994867,15.7662338 C295.997947,15.7662338 297.845996,16.4545455 299.694045,17.3722944 C301.311088,18.2900433 302.004107,19.6666667 302.004107,21.5021645 C302.004107,22.8787879 301.542094,24.2554113 300.387064,24.9437229 C299.463039,25.8614719 298.308008,26.3203463 297.152977,26.3203463 C296.228953,26.3203463 295.073922,26.0909091 293.918891,25.4025974 C292.76386,24.9437229 291.60883,24.4848485 290.222793,24.4848485 C286.988706,24.4848485 283.75462,26.7792208 283.75462,31.5974026 L283.75462,48.1168831 C283.75462,50.4112554 283.523614,51.3290043 283.061602,52.2467532 C282.368583,53.6233766 280.75154,54.5411255 278.903491,54.5411255 C277.055441,54.5411255 275.438398,53.6233766 274.74538,52.2467532 C274.283368,51.3290043 274.052361,50.1818182 274.052361,48.1168831 L274.052361,22.4199134 C274.052361,19.8961039 274.283368,19.2077922 274.74538,18.0606061 C275.438398,16.6839827 277.055441,15.7662338 278.903491,15.7662338 C280.289528,15.7662338 281.213552,15.995671 281.906571,16.9134199 C282.830595,17.6017316 283.061602,18.5194805 283.523614,19.6666667 C285.602669,17.8311688 289.067762,15.7662338 292.994867,15.7662338 Z M349.129363,23.3376623 C348.667351,21.7316017 347.974333,20.1255411 348.436345,18.978355 C349.129363,17.3722944 351.208419,15.995671 353.287474,15.995671 C356.752567,15.995671 357.445585,18.2900433 358.36961,20.5844156 L365.299795,39.1688312 L372.229979,20.5844156 C373.154004,18.2900433 374.078029,15.995671 377.312115,15.995671 C379.622177,15.995671 381.701232,17.1428571 382.163244,18.978355 C382.625257,20.3549784 382.163244,21.7316017 381.470226,23.3376623 L371.536961,49.7229437 C370.612936,52.017316 369.919918,52.9350649 369.226899,53.6233766 C368.302875,54.5411255 366.916838,54.7705628 365.299795,54.7705628 C363.682752,54.7705628 362.527721,54.5411255 361.37269,53.6233766 C360.448665,52.7056277 359.755647,52.017316 359.062628,49.7229437 L349.129363,23.3376623 Z M398.102669,38.4805195 C398.102669,43.5281385 400.874743,46.969697 406.649897,46.969697 C408.959959,46.969697 411.501027,46.2813853 413.349076,44.9047619 C414.966119,43.987013 415.659138,43.2987013 416.814168,43.2987013 C418.662218,43.2987013 420.741273,45.1341991 420.741273,47.4285714 C420.741273,49.2640693 419.12423,50.8701299 417.045175,52.2467532 C414.273101,53.8528139 410.808008,55 406.649897,55 C397.409651,55 388.862423,50.8701299 388.862423,35.2683983 C388.862423,22.8787879 395.561602,15.5367965 405.725873,15.5367965 C416.12115,15.5367965 422.12731,22.8787879 422.589322,32.7445887 C422.589322,34.3506494 422.358316,35.95671 421.203285,36.8744589 C420.048255,38.021645 418.431211,38.021645 417.045175,38.021645 L398.102669,38.4805195 Z M412.194045,27.6969697 C411.270021,25.4025974 408.959959,23.7965368 405.725873,23.7965368 C402.491786,23.7965368 400.412731,25.4025974 399.2577,27.6969697 C398.564682,29.0735931 398.333676,30.2207792 398.333676,31.8268398 L412.887064,31.8268398 C412.656057,30.2207792 412.656057,29.0735931 412.194045,27.6969697 Z M440.376797,43.0692641 C440.376797,44.9047619 441.069815,46.2813853 443.379877,46.5108225 C444.534908,46.5108225 445.458932,46.7402597 446.151951,46.969697 C447.306982,47.4285714 448,48.5757576 448,50.4112554 C448,52.2467532 447.075975,53.1645022 446.151951,53.8528139 C445.227926,54.3116883 444.072895,54.5411255 442.224846,54.5411255 L441.762834,54.5411255 C433.908624,54.5411255 430.674538,49.2640693 430.674538,43.5281385 L430.674538,8.42424242 C430.674538,6.12987013 430.905544,5.21212121 431.367556,4.29437229 C432.060575,2.91774892 433.677618,2 435.525667,2 C437.373717,2 438.99076,2.91774892 439.683778,4.29437229 C440.145791,5.21212121 440.376797,6.35930736 440.376797,8.42424242 L440.376797,43.0692641 C440.607803,43.0692641 440.376797,43.0692641 440.376797,43.0692641 Z M342.892197,38.4805195 L342.892197,49.952381 L335.5,49.2640693 L335.5,47.6580087 L335.268994,47.6580087 C331.110883,53.3939394 324.873717,53.6233766 323.025667,53.6233766 C313.785421,53.6233766 305.238193,46.2813853 305.238193,34.5800866 C305.238193,23.1082251 313.092402,14.8484848 323.256674,14.8484848 C328.569815,14.8484848 333.189938,16.9134199 337.348049,20.5844156 C341.737166,24.2554113 342.892197,29.3030303 342.892197,38.4805195 Z M332.727926,34.1212121 C332.727926,28.6147186 329.262834,24.2554113 323.718686,24.2554113 C318.174538,24.2554113 314.478439,28.6147186 314.478439,34.3506494 C314.478439,39.8571429 318.174538,43.987013 323.718686,43.987013 C329.262834,43.987013 332.727926,39.8571429 332.727926,34.1212121 Z" id="Shape" fill="#1F2329"></path>
            <circle id="Oval" fill="#1F2329" cx="338.5" cy="49.5" r="4.5"></circle>
            <path d="M23.6689655,46 C23.6689655,53.5294118 20.7103448,56.5882353 16.3862069,56.5882353 C12.9724138,56.5882353 10.0137931,53.7647059 8.87586207,49.7647059 C8.64827586,49.0588235 8.64827586,49.0588235 8.42068966,48.5882353 C5.23448276,49.7647059 2.73103448,50.2352941 0,51.4117647 C2.04827586,59.8823529 8.42068966,66 16.1586207,66 C25.4896552,66 33,58 33,46 L23.6689655,46 Z" id="Shape" fill="#FF6700"></path>
            <circle id="Oval" fill="#FF6700" cx="4.5" cy="49.5" r="4.5"></circle>
        </g>
    </g>
</svg>