<?xml version="1.0" encoding="UTF-8"?>
<svg width="600px" height="300px" viewBox="0 0 600 300" version="1.1" xmlns="http://www.w3.org/2000/svg" xmlns:xlink="http://www.w3.org/1999/xlink">
    <!-- Generator: Sketch 50 (54983) - http://www.bohemiancoding.com/sketch -->
    <title>Artboard</title>
    <desc>Created with Sketch.</desc>
    <defs></defs>
    <g id="Artboard" stroke="none" stroke-width="1" fill="none" fill-rule="evenodd">
        <rect id="Rectangle-3" x="75" y="75" width="450" height="250"></rect>
        <g id="nike" transform="translate(166.000000, 80.000000)" fill="#1A1919" fill-rule="nonzero">
            <path d="M217.270172,3.30317738 L217.68446,3.30317738 C217.962389,3.30317738 218.157808,3.25884526 218.271587,3.16844251 C218.385364,3.07803976 218.440949,2.9615593 218.440949,2.81987036 C218.440949,2.67644294 218.3871,2.56083172 218.280272,2.47129823 C218.169969,2.38089548 217.986708,2.33656336 217.725281,2.33656336 L217.270172,2.33656336 L217.270172,3.30317738 Z M216.319133,1.66723532 L218.03361,1.66723532 C218.519117,1.66723532 218.870003,1.76633065 219.088872,1.96104426 C219.306004,2.16010415 219.416307,2.42348908 219.416307,2.75293756 C219.416307,3.01110695 219.331191,3.23450606 219.165302,3.42313487 C219.00115,3.61176368 218.739724,3.74910632 218.383627,3.83342427 C218.531277,3.89079524 218.636369,3.94990474 218.707587,4.01249126 C218.803994,4.09941698 218.907349,4.23067482 219.012441,4.40278773 C219.019389,4.41495733 219.227836,4.78526091 219.635178,5.51282919 L218.503483,5.51282919 C218.136096,4.78178388 217.889434,4.34541676 217.764366,4.20198932 C217.638429,4.06116966 217.513359,3.98989056 217.387424,3.98989056 C217.358761,3.98989056 217.321415,3.99423686 217.270172,4.00206016 L217.270172,5.51282919 L216.319133,5.51282919 L216.319133,1.66723532 Z M220.838091,3.59090151 C220.838091,2.78944636 220.55495,2.1062102 219.991274,1.54119302 C219.426731,0.975306582 218.744935,0.691059477 217.945888,0.691059477 C217.148578,0.691059477 216.466782,0.975306582 215.90137,1.54119302 C215.336826,2.1062102 215.055422,2.78944636 215.055422,3.59090151 C215.055422,4.38887963 215.336826,5.07385429 215.90137,5.63887148 C216.466782,6.20388867 217.148578,6.48900503 217.945888,6.48900503 C218.744935,6.48900503 219.426731,6.20388867 219.991274,5.63887148 C220.55495,5.07385429 220.838091,4.38887963 220.838091,3.59090151 Z M221.53552,3.59090151 C221.53552,4.23328259 221.37571,4.8322008 221.055223,5.3867869 C220.734736,5.94224224 220.296997,6.37947861 219.743743,6.70110379 C219.188754,7.02099044 218.590336,7.18006451 217.947625,7.18006451 C217.309255,7.18006451 216.712575,7.02099044 216.157586,6.70110379 C215.602595,6.37947861 215.165726,5.94224224 214.844369,5.3867869 C214.522146,4.8322008 214.361467,4.23328259 214.361467,3.59090151 C214.361467,2.9493897 214.522146,2.35134074 214.844369,1.79414687 C215.165726,1.23869152 215.602595,0.800585885 216.157586,0.478960718 C216.712575,0.159943325 217.309255,0 217.947625,0 C218.590336,0 219.188754,0.159943325 219.743743,0.478960718 C220.296997,0.800585885 220.734736,1.23869152 221.055223,1.79414687 C221.37571,2.35134074 221.53552,2.9493897 221.53552,3.59090151 Z M44.4745236,89.229252 L44.8896807,89.229252 C45.16761,89.229252 45.3621606,89.1857892 45.4759379,89.0936479 C45.5879783,89.0049837 45.6470381,88.8876338 45.6470381,88.7459449 C45.6470381,88.6025175 45.5914523,88.4869063 45.4828862,88.3982421 C45.372583,88.30697 45.1901917,88.262638 44.9287645,88.262638 L44.4745236,88.262638 L44.4745236,89.229252 Z M43.5243525,87.5959178 L45.2388295,87.5959178 C45.7243374,87.5959178 46.0752232,87.6924052 46.2940925,87.8871189 C46.5103564,88.0861787 46.6197911,88.3486944 46.6197911,88.6790121 C46.6197911,88.9363124 46.5372809,89.1605807 46.3713917,89.3492095 C46.2037655,89.5378383 45.9432067,89.6734424 45.5862411,89.7586297 C45.7330226,89.8160006 45.8424572,89.8759793 45.9128082,89.9385658 C46.0083464,90.0263608 46.1117013,90.1576187 46.217662,90.327993 C46.2254787,90.3419012 46.4321887,90.7104663 46.8403976,91.4389038 L45.7095724,91.4389038 C45.3413159,90.7104663 45.093785,90.2714914 44.9695854,90.1306717 C44.8445171,89.9872443 44.7177118,89.9142267 44.5917752,89.9142267 C44.5648507,89.9142267 44.5248984,89.9177036 44.4745236,89.9298733 L44.4745236,91.4389038 L43.5243525,91.4389038 L43.5243525,87.5959178 Z M48.0433106,89.5169762 C48.0433106,88.7163902 47.7593015,88.0331542 47.1947574,87.4672677 C46.6302133,86.8996426 45.9492864,86.6188727 45.1502395,86.6188727 C44.3529295,86.6188727 43.6720025,86.8996426 43.1065899,87.4672677 C42.5411773,88.0331542 42.2589053,88.7163902 42.2589053,89.5169762 C42.2589053,90.3149542 42.5411773,90.9999289 43.1065899,91.5666846 C43.6720025,92.1308326 44.3529295,92.4150796 45.1502395,92.4150796 C45.9492864,92.4150796 46.6302133,92.1308326 47.1947574,91.5666846 C47.7593015,90.9999289 48.0433106,90.3149542 48.0433106,89.5169762 Z M48.7416082,89.5169762 C48.7416082,90.1593572 48.5809303,90.7565369 48.2604431,91.3137308 C47.9399557,91.8691861 47.5013484,92.3072917 46.946358,92.6280477 C46.3922364,92.947065 45.7929511,93.1061392 45.152845,93.1061392 C44.5144759,93.1061392 43.9177962,92.947065 43.3628061,92.6280477 C42.8078159,92.3072917 42.3692084,91.8691861 42.0487212,91.3137308 C41.7291023,90.7565369 41.5675559,90.1593572 41.5675559,89.5169762 C41.5675559,88.874595 41.7291023,88.2765461 42.0487212,87.7210907 C42.3692084,87.163897 42.8078159,86.7266606 43.3628061,86.4067738 C43.9177962,86.086018 44.5144759,85.9269439 45.152845,85.9269439 C45.7929511,85.9269439 46.3922364,86.086018 46.946358,86.4067738 C47.5013484,86.7266606 47.9399557,87.163897 48.2604431,87.7210907 C48.5809303,88.2765461 48.7416082,88.874595 48.7416082,89.5169762 Z M36.1392476,72.7542203 L52.9009952,72.7542203 L64.9700788,41.0445867 L63.6282011,72.7542203 L81.3965741,72.7542203 L108.553749,0.0243392012 L91.9587595,0.0243392012 L79.5526865,32.1529548 L81.5659375,0.0243392012 L63.6282011,0.0243392012 L36.1392476,72.7542203 Z M111.235768,0.0243392012 L84.2470874,72.7542203 L101.009704,72.7542203 L128.166879,0.0243392012 L111.235768,0.0243392012 Z M150.9623,67.7203517 L175.268962,1.95409019 L149.453664,29.4678192 L150.9623,67.7203517 Z M33.6648075,48.3428701 C33.6648075,48.3428701 26.7504455,61.428668 26.7504455,72.7542203 C26.7504455,72.7542203 26.1216303,99.429116 53.6557472,99.429116 L57.4269015,99.429116 C57.4269015,99.429116 62.9585649,101.189362 158.252735,72.7542203 L134.117173,72.7542203 L132.858674,42.8057017 L121.544343,72.7542203 L104.195469,72.7542203 L131.602781,0.0243392012 L148.198639,0.0243392012 L140.655462,20.9125898 L158.505477,0.0243392012 L210.807445,0.0243392012 L206.279801,12.1044066 L188.427181,12.1044066 L182.897255,27.4546195 L199.491377,27.4546195 L194.212454,41.0445867 L177.867602,41.0445867 L171.33105,58.9112993 L190.945048,58.9112993 L189.435544,64.1955137 C189.435544,64.1955137 260.591547,45.8255012 268.135593,43.8123015 C268.135593,43.8123015 65.3348611,139.999958 32.1440126,139.999958 C32.1440126,139.999958 0.0978857883,140.19554 0.0978857883,114.023075 C0.0978857883,114.023075 -3.54820036,89.6143329 33.6648075,48.3428701 Z" id="Fill-1"></path>
        </g>
    </g>
</svg>