<?xml version="1.0" encoding="UTF-8"?>
<svg width="170px" height="82px" viewBox="0 0 140 68" version="1.1" xmlns="http://www.w3.org/2000/svg" xmlns:xlink="http://www.w3.org/1999/xlink">
    <!-- Generator: Sketch 46.1 (44463) - http://www.bohemiancoding.com/sketch -->
    <title>gazprom-en</title>
    <desc>Created with Sketch.</desc>
    <defs></defs>
    <g id="Page-1" stroke="none" stroke-width="1" fill="none" fill-rule="evenodd">
        <g id="gazprom-en" fill-rule="nonzero" fill="#0079C1">
            <path d="M37.217992,12.1962833 C35.7881327,5.95774706 32.2134878,0.884849029 31.7316854,0.0564663424 C30.9545857,1.22056176 28.1104095,5.69975421 26.6494615,10.6700627 C25.0797301,16.2092178 24.8466081,21.1251338 25.3905735,25.9664521 C25.9345372,30.8077686 27.9705391,35.7780764 27.9705391,35.7780764 C29.0584682,38.3906845 30.6903751,41.1866757 31.7472297,42.5605894 C33.3014169,40.5401317 36.8760741,34.5098491 37.9950918,26.6394194 C38.6167646,22.2659132 38.6323089,18.4348184 37.217992,12.1962833 Z M31.7316854,41.0063898 C31.0322948,39.6868803 29.9443639,37.1737411 29.835568,33.2913624 C29.8044812,29.5395413 31.3120478,26.328576 31.7472297,25.6556086 C32.1357805,26.328576 33.4413014,29.1245671 33.5967161,32.9556619 C33.6899677,36.7090369 32.4466098,39.6604551 31.7316854,41.0063898 Z M36.7983544,22.7834534 C36.7517339,25.1629272 36.4719808,27.6745124 36.0989744,29.1758617 C36.2388447,26.5881231 35.9280154,22.9388805 35.3218746,20.0900408 C34.731278,17.2427551 33.0527507,12.4806998 31.7005986,10.2799577 C30.4572407,12.3765674 28.9341298,16.4936343 28.1259538,20.0636157 C27.3333097,23.6382606 27.3022353,27.958929 27.3022353,29.2551229 C27.0846434,28.162518 26.5562099,24.267717 26.711637,20.3495879 C26.8359772,17.1184167 27.5819884,13.8002111 28.0016153,12.2739906 C29.5869017,7.17467964 31.374225,3.91397401 31.7005986,3.39643389 C32.0425289,3.91397401 34.2961085,7.92535465 35.4617573,12.1449869 C36.6273955,16.3630785 36.8605298,20.4008719 36.7983544,22.7834534 L36.7983544,22.7834534 Z" id="path4288"></path>
            <path d="M34.1406815,44.0137536 L23.3079528,44.0137536 L23.3079528,51.2827307 C23.3234971,51.2734038 23.3390273,51.2625229 23.3390273,51.2531978 C25.8879185,48.7012112 30.0376155,48.7012112 32.5864943,51.2531978 C35.1353713,53.8067382 35.1353713,57.9455545 32.5864943,60.4975411 C32.57095,60.5084219 32.57095,60.5177489 32.5554057,60.5270758 C32.5554057,60.5286297 32.5554057,60.5286297 32.5554057,60.5301836 C32.5398614,60.5426201 32.5243295,60.5519452 32.5087852,60.56438 C29.9754401,63.0914971 26.6339296,64.3566166 23.3079528,64.3566166 C19.96643,64.3566166 16.6249089,63.0821702 14.0760301,60.5332931 C9.58441512,56.0401101 9.0559816,49.0897602 12.4752118,44.0137536 C12.9414681,43.3283498 13.4699016,42.6755902 14.0760301,42.0694618 C16.6249089,39.5190291 19.96643,38.2445844 23.3079528,38.2445844 L23.3079528,20.7630082 C10.4702984,20.7630082 0.0571951528,31.1730038 0.0571951528,44.0137536 C0.0571951528,56.852962 10.4702984,67.2629558 23.3079528,67.2629558 C30.0065269,67.2629558 36.0367989,64.4312144 40.27976,59.9038491 L40.27976,44.0137536 L34.1406815,44.0137536" id="path4290"></path>
            <path d="M54.0188403,63.1163683 C54.0188403,64.7435994 53.8167928,67.2676193 50.552979,67.2676193 L46.6985811,67.2676193 C43.4503098,67.2676193 43.2482623,64.7435994 43.2482623,63.1163683 L43.2482623,48.171222 C43.2482623,46.5424371 43.4503098,44.0184171 46.6985811,44.0184171 L50.552979,44.0184171 C53.8167928,44.0184171 54.0188403,46.5424371 54.0188403,48.171222 L54.0188403,51.4583531 L49.356254,51.4583531 L49.356254,47.6676721 C49.356254,47.2697962 49.0609548,46.9045609 48.6257853,46.9045609 C48.3615624,46.9045609 47.895306,47.0693025 47.895306,47.6676721 L47.895306,63.5220031 C47.895306,64.1188188 48.3615624,64.2851143 48.6257853,64.2851143 C49.0609548,64.2851143 49.356254,63.9198791 49.356254,63.5220031 L49.356254,58.4335743 L48.6568615,58.4335743 L48.6568615,55.8753703 L54.0188403,55.8753703 L54.0188403,63.1163683" id="path4292"></path>
            <path d="M61.0127135,58.5330432 L61.8053576,46.9138879 L62.0695682,46.9138879 L62.8777442,58.5330432 L61.0127135,58.5330432 Z M55.8683266,67.2676193 L60.422117,67.2676193 L60.8417546,61.0912472 L63.0331712,61.0912472 L63.4683407,67.2676193 L68.0221311,67.2676193 L65.5975925,44.0184171 L58.2928776,44.0184171 L55.8683266,67.2676193 L55.8683266,67.2676193 Z" id="path4294"></path>
            <polyline id="path4296" points="69.7472914 64.3457358 74.2078301 46.9138879 70.2135477 46.9138879 70.2135477 44.0184171 78.9792 44.0184171 78.9792 46.9076705 74.5342037 64.2866682 79.2589548 64.2866682 79.2589548 67.2676193 69.7472914 67.2676193 69.7472914 64.3457358"></polyline>
            <path d="M86.0974134,56.4613034 L86.0974134,46.9014531 L86.68801,46.9014531 C87.2008992,46.9014531 87.5583614,47.3319592 87.5583614,48.0639817 L87.5583614,55.2987624 C87.5583614,56.0292293 87.2008992,56.4613034 86.68801,56.4613034 L86.0974134,56.4613034 Z M81.4348271,67.2676193 L86.0974134,67.2676193 L86.0974134,59.3629791 L88.7550864,59.3629791 C92.0033576,59.3629791 92.2054034,56.8389716 92.2054034,55.2117281 L92.2054034,48.171222 C92.2054034,46.5424371 92.0033576,44.0184171 88.7550864,44.0184171 L81.4348271,44.0184171 L81.4348271,67.2676193 L81.4348271,67.2676193 Z" id="path4298"></path>
            <path d="M99.2458972,55.7665744 L99.2458972,46.903007 L99.852038,46.903007 C100.349383,46.903007 100.706845,47.3335131 100.706845,48.0639817 L100.706845,54.6040334 C100.706845,55.3345127 100.349383,55.7665744 99.852038,55.7665744 L99.2458972,55.7665744 Z M105.96003,67.2676193 L103.675361,58.2004505 C105.3228,57.5368101 105.353889,56.0074818 105.353889,55.3780236 L105.353889,48.171222 C105.353889,46.5424371 105.167386,44.0184171 101.90357,44.0184171 L94.5988551,44.0184171 L94.5988551,67.2676193 L99.2458972,67.2676193 L99.2458972,58.6651547 L99.5878274,58.6651547 L101.173103,67.2676193 L105.96003,67.2676193 L105.96003,67.2676193 Z" id="path4300"></path>
            <path d="M114.570266,63.5220031 C114.570266,63.9214347 114.274968,64.2866682 113.839786,64.2866682 C113.575576,64.2866682 113.109318,64.1203727 113.109318,63.5220031 L113.109318,47.6676721 C113.109318,47.0693025 113.575576,46.9045609 113.839786,46.9045609 C114.274968,46.9045609 114.570266,47.2697962 114.570266,47.6676721 L114.570266,63.5220031 Z M108.462276,63.1163683 C108.462276,64.7435994 108.664321,67.2676193 111.928137,67.2676193 L115.766991,67.2676193 C119.030806,67.2676193 119.232852,64.7435994 119.232852,63.1163683 L119.232852,48.171222 C119.232852,46.5424371 119.030806,44.0184171 115.766991,44.0184171 L111.928137,44.0184171 C108.664321,44.0184171 108.462276,46.5424371 108.462276,48.171222 L108.462276,63.1163683 L108.462276,63.1163683 Z" id="path4302"></path>
            <polyline id="path4304" points="133.826741 44.0184171 139.872556 44.0184171 139.872556 67.2676193 135.225514 67.2676193 135.225514 52.6861667 135.054555 52.6861667 132.66109 67.2676193 128.946563 67.2676193 126.5531 52.6861667 126.382142 52.6861667 126.382142 67.2676193 121.735098 67.2676193 121.735098 44.0184171 127.780914 44.0184171 130.796062 60.3592246 133.826741 44.0184171"></polyline>
        </g>
    </g>
</svg>
