<?xml version="1.0" encoding="UTF-8"?>
<svg width="600px" height="400px" viewBox="0 0 600 400" version="1.1" xmlns="http://www.w3.org/2000/svg" xmlns:xlink="http://www.w3.org/1999/xlink">
    <!-- Generator: Sketch 50 (54983) - http://www.bohemiancoding.com/sketch -->
    <title>Artboard</title>
    <desc>Created with Sketch.</desc>
    <defs></defs>
    <g id="Artboard" stroke="none" stroke-width="1" fill="none" fill-rule="evenodd">
        <rect id="Rectangle-3" x="75" y="75" width="450" height="250"></rect>
        <g id="logo" transform="translate(175.000000, 75.000000)" fill-rule="nonzero">
            <circle id="Oval-2" fill="#49DED3" cx="125" cy="125" r="125"></circle>
            <g id="Group-2" transform="translate(39.000000, 80.000000)" fill="#FFFFFF">
                <g id="Group-4">
                    <path d="M0,0 L16.9181953,0 C21.1214736,0 24.4840964,1.15332888 27.0060633,3.51490705 C29.5805713,5.87648524 30.8415548,8.84218806 30.8415548,12.5218564 C30.8415548,16.1466043 29.5805713,19.1672275 27.0060633,21.5288057 C24.4840964,23.8903839 21.1214736,25.0437127 16.9181953,25.0437127 L11.2963105,25.0437127 L11.2963105,38.4442959 L0,38.4442959 L0,0 Z M11.2963105,16.4761268 L15.3945069,16.4761268 C17.70631,16.4761268 19.2825394,15.0481958 19.2825394,13.0161402 C19.2825394,10.9840845 17.653769,9.61107398 15.3945069,9.61107398 L11.2963105,9.61107398 L11.2963105,16.4761268 Z" id="Combined-Shape"></path>
                    <path d="M39.9771374,38.4442959 L28.037777,38.4442959 L43.526677,0 L54.551762,0 L70.0944426,38.4442959 L57.6710542,38.4442959 L54.9820092,31.2905987 L42.7199633,31.2905987 L39.9771374,38.4442959 Z M48.8509862,13.4336602 L46.0543793,22.4986504 L51.5938124,22.4986504 L48.8509862,13.4336602 Z" id="Combined-Shape"></path>
                    <path d="M72.8982204,0 L89.8164158,0 C94.0196941,0 97.3823168,1.15332888 99.9042837,3.51490705 C102.478792,5.87648524 103.739775,8.84218806 103.739775,12.5218564 C103.739775,16.1466043 102.478792,19.1672275 99.9042837,21.5288057 C97.3823168,23.8903839 94.0196941,25.0437127 89.8164158,25.0437127 L84.1945309,25.0437127 L84.1945309,38.4442959 L72.8982204,38.4442959 L72.8982204,0 Z M84.1945309,16.4761268 L88.2927274,16.4761268 C90.6045304,16.4761268 92.1807598,15.0481958 92.1807598,13.0161402 C92.1807598,10.9840845 90.5519895,9.61107398 88.2927274,9.61107398 L84.1945309,9.61107398 L84.1945309,16.4761268 Z" id="Combined-Shape"></path>
                    <path d="M110.07158,38.4442959 L98.1322199,38.4442959 L113.62112,0 L124.646205,0 L140.188886,38.4442959 L127.765497,38.4442959 L125.076452,31.2905987 L112.814406,31.2905987 L110.07158,38.4442959 Z M118.945429,13.4336602 L116.148822,22.4986504 L121.688255,22.4986504 L118.945429,13.4336602 Z" id="Combined-Shape"></path>
                </g>
                <g id="Group-3" transform="translate(39.252887, 55.530649)">
                    <path d="M9.38356029,38.4442959 C13.2222895,38.4442959 16.3679148,37.6366426 19.1936461,35.6982749 C22.1260087,33.7060633 23.8321106,29.775484 23.8321106,24.3372853 L23.8321106,0 L12.3692386,0 L12.3692386,22.6681352 C12.3692386,26.5987145 10.5031897,27.9448032 6.8244075,27.9448032 C4.53183309,27.9448032 2.23925871,27.1371499 0,25.5756869 L0,36.5059281 C1.97268029,37.7981733 5.06498993,38.4442959 9.38356029,38.4442959 Z" id="JOBS"></path>
                    <path d="M28.037777,19.9340793 C28.037777,14.40292 29.8720242,9.74798387 33.5929255,5.85974309 C37.3138267,1.97150235 42.0304621,0 47.6904245,0 C53.3503871,0 58.0146154,1.97150235 61.7355166,5.85974309 C65.4564179,9.74798387 67.2906651,14.40292 67.2906651,19.9340793 C67.2906651,25.4652386 65.4564179,30.1749387 61.7355166,34.0631796 C58.0146154,37.9514202 53.3503871,39.8681588 47.6904245,39.8681588 C42.0304621,39.8681588 37.3138267,37.8966564 33.5929255,34.0084155 C29.8720242,30.1201749 28.037777,25.4104748 28.037777,19.9340793 Z M41.8732408,26.5605178 C43.3930456,28.2582004 45.3321069,29.1344236 47.6904245,29.1344236 C50.0487423,29.1344236 51.9878034,28.2582004 53.5076081,26.5605178 C55.0274131,24.8080713 55.8135188,22.6175131 55.8135188,19.9340793 C55.8135188,17.2506456 55.0274131,15.0600874 53.5076081,13.3624048 C51.9878034,11.6099583 50.0487423,10.733735 47.6904245,10.733735 C45.3321069,10.733735 43.3930456,11.6099583 41.8732408,13.3624048 C40.3534361,15.0600874 39.5673304,17.2506456 39.5673304,19.9340793 C39.5673304,22.6175131 40.3534361,24.8080713 41.8732408,26.5605178 Z" id="Combined-Shape"></path>
                    <path d="M91.350834,38.4442959 L71.4963315,38.4442959 L71.4963315,0 L90.5459217,0 C94.033875,0 96.8778983,0.82380634 99.1316524,2.52633944 C101.385407,4.17395212 102.512284,6.59045072 102.512284,9.83075567 C102.512284,11.6431296 102.029337,13.2358219 101.009781,14.4989916 C99.9902255,15.7621613 99.0243309,16.6408881 98.0047753,17.1351719 C99.6146,17.4646944 101.224424,18.5631029 102.780588,20.4303972 C104.336752,22.2427712 105.141664,24.549429 105.141664,27.29545 C105.141664,30.645596 103.853805,33.3366966 101.331746,35.3687522 C98.8096877,37.4008078 95.4827168,38.4442959 91.350834,38.4442959 Z M83.0334073,22.5722937 L83.0334073,28.9430628 L89.0970796,28.9430628 C91.1898516,28.9430628 92.531372,27.7348134 92.531372,25.8125988 C92.531372,23.8903839 91.0825299,22.5722937 89.0970796,22.5722937 L83.0334073,22.5722937 Z M83.0334073,9.1717106 L83.0334073,14.3342303 L88.8824364,14.3342303 C90.4386002,14.3342303 91.619138,13.2358219 91.619138,11.8628113 C91.619138,10.2701191 90.4386002,9.1717106 88.8824364,9.1717106 L83.0334073,9.1717106 Z" id="Combined-Shape"></path>
                    <path d="M123.609619,39.8681588 C128.615696,39.8681588 132.599026,38.7181156 135.613439,36.4727935 C138.681679,34.1727074 140.188886,31.1059259 140.188886,27.2724493 C140.188886,21.4127061 136.367041,17.7435212 128.561867,15.3339072 C124.955339,14.2386281 122.586872,13.4719328 121.510296,13.0338211 C120.487549,12.5409455 119.949261,12.0480699 119.949261,11.5551944 C119.949261,10.6242071 121.079666,10.1313315 123.286646,10.1313315 C125.493626,10.1313315 128.023579,10.5146792 130.822677,11.2813746 C133.621773,11.993306 135.936411,12.9242932 137.76659,14.0195723 L137.76659,3.06678143 C133.514116,1.04051513 128.992498,0 124.147907,0 C114.24341,0 107.945442,4.05253261 107.945442,11.8837781 C107.945442,18.4006886 112.520889,21.7960538 120.326063,24.1509038 C123.394304,25.0818911 125.493626,25.7938224 126.570202,26.286698 C127.646778,26.7795737 128.185066,27.2724493 128.185066,27.8200888 C128.185066,29.0248957 126.731689,29.6272992 123.824934,29.6272992 C121.294981,29.6272992 118.442055,29.0796598 115.266157,28.0391447 C112.090258,26.9986294 109.667963,25.7390586 107.945442,24.2604316 L107.945442,35.7608622 C112.197916,38.4990599 117.419308,39.8681588 123.609619,39.8681588 Z" id="Path"></path>
                </g>
            </g>
        </g>
    </g>
</svg>