<?xml version="1.0" encoding="UTF-8"?>
<svg width="600px" height="300px" viewBox="0 0 600 300" version="1.1" xmlns="http://www.w3.org/2000/svg" xmlns:xlink="http://www.w3.org/1999/xlink">
    <!-- Generator: Sketch 50 (54983) - http://www.bohemiancoding.com/sketch -->
    <title>Artboard</title>
    <desc>Created with Sketch.</desc>
    <defs></defs>
    <g id="Artboard" stroke="none" stroke-width="1" fill="none" fill-rule="evenodd">
        <rect id="Rectangle-3" x="75" y="75" width="450" height="250"></rect>
        <g id="logo" transform="translate(188.000000, 90.000000)" fill="#49DED3" fill-rule="nonzero">
            <g id="Group-2">
                <g id="Group-4">
                    <path d="M0,0 L21.1470722,0 C26.4010032,0 30.604148,1.4412082 33.7565065,4.39225357 C36.9745393,7.34329895 38.5507186,11.0492629 38.5507186,15.6474033 C38.5507186,20.1769148 36.9745393,23.9515078 33.7565065,26.9025531 C30.604148,29.8535986 26.4010032,31.2948067 21.1470722,31.2948067 L14.1199395,31.2948067 L14.1199395,48.0402734 L0,48.0402734 L0,0 Z M14.1199395,20.5886886 L19.2425222,20.5886886 C22.1321843,20.5886886 24.1024084,18.8043356 24.1024084,16.265064 C24.1024084,13.7257924 22.0665101,12.0100684 19.2425222,12.0100684 L14.1199395,12.0100684 L14.1199395,20.5886886 Z" id="Combined-Shape"></path>
                    <path d="M49.969834,48.0402734 L35.0461077,48.0402734 L54.4066175,0 L68.1875359,0 L87.6152694,48.0402734 L72.0865272,48.0402734 L68.7253278,39.1009611 L53.3982575,39.1009611 L49.969834,48.0402734 Z M61.0617926,16.7868001 L57.5661451,28.1144782 L64.4902164,28.1144782 L61.0617926,16.7868001 Z" id="Combined-Shape"></path>
                    <path d="M91.1198803,0 L112.266953,0 C117.520883,0 121.724028,1.4412082 124.876387,4.39225357 C128.09442,7.34329895 129.670599,11.0492629 129.670599,15.6474033 C129.670599,20.1769148 128.09442,23.9515078 124.876387,26.9025531 C121.724028,29.8535986 117.520883,31.2948067 112.266953,31.2948067 L105.23982,31.2948067 L105.23982,48.0402734 L91.1198803,48.0402734 L91.1198803,0 Z M105.23982,20.5886886 L110.362403,20.5886886 C113.252065,20.5886886 115.222289,18.8043356 115.222289,16.265064 C115.222289,13.7257924 113.186391,12.0100684 110.362403,12.0100684 L105.23982,12.0100684 L105.23982,20.5886886 Z" id="Combined-Shape"></path>
                    <path d="M137.585104,48.0402734 L122.661377,48.0402734 L142.021887,0 L155.802805,0 L175.230539,48.0402734 L159.701797,48.0402734 L156.340597,39.1009611 L141.013527,39.1009611 L137.585104,48.0402734 Z M148.677062,16.7868001 L145.181415,28.1144782 L152.105486,28.1144782 L148.677062,16.7868001 Z" id="Combined-Shape"></path>
                </g>
                <g id="Group-3" transform="translate(49.322127, 69.150567)">
                    <path d="M11.7290777,48.1051927 C16.5273367,48.1051927 20.4592435,47.0945794 23.9912953,44.6691077 C27.6566321,42.1762614 29.7891917,37.2579434 29.7891917,30.4531472 L29.7891917,0 L15.461057,0 L15.461057,28.3645464 C15.461057,33.2828644 13.1285699,34.9672198 8.53023833,34.9672198 C5.66461138,34.9672198 2.79898445,33.9566065 0,32.0027542 L0,45.679721 C2.46577201,47.2967021 6.33103626,48.1051927 11.7290777,48.1051927 Z" id="JOBS"></path>
                    <path d="M35.0461077,24.9434333 C35.0461077,18.0223158 37.3388439,12.197613 41.9898227,7.33227296 C46.6408015,2.46693296 52.5364083,0 59.6111365,0 C66.685865,0 72.5159651,2.46693296 77.1669439,7.33227296 C81.8179227,12.197613 84.1106589,18.0223158 84.1106589,24.9434333 C84.1106589,31.8645506 81.8179227,37.7577794 77.1669439,42.6231195 C72.5159651,47.4884594 66.685865,49.8868666 59.6111365,49.8868666 C52.5364083,49.8868666 46.6408015,47.4199337 41.9898227,42.5545935 C37.3388439,37.6892536 35.0461077,31.7960249 35.0461077,24.9434333 Z M52.339888,33.235069 C54.2395835,35.3593724 56.6633332,36.455787 59.6111365,36.455787 C62.5589401,36.455787 64.9826895,35.3593724 66.882385,33.235069 C68.7820809,31.0422398 69.7646819,28.3012031 69.7646819,24.9434333 C69.7646819,21.5856634 68.7820809,18.8446268 66.882385,16.7203234 C64.9826895,14.5274941 62.5589401,13.4310795 59.6111365,13.4310795 C56.6633332,13.4310795 54.2395835,14.5274941 52.339888,16.7203234 C50.4401925,18.8446268 49.4575915,21.5856634 49.4575915,24.9434333 C49.4575915,28.3012031 50.4401925,31.0422398 52.339888,33.235069 Z" id="Combined-Shape"></path>
                    <path d="M114.184914,48.1051927 L89.3675749,48.1051927 L89.3675749,0 L113.178806,0 C117.538609,0 121.093525,1.03082556 123.910628,3.16119838 C126.727732,5.2228495 128.136284,8.24660447 128.136284,12.301185 C128.136284,14.5690012 127.532619,16.5619307 126.258215,18.1425298 C124.983811,19.723129 123.776481,20.8226763 122.502077,21.4411716 C124.514294,21.8535018 126.52651,23.2279359 128.471653,25.5644739 C130.416796,27.8322901 131.422904,30.7186017 131.422904,34.1546868 C131.422904,38.3467109 129.813131,41.7140743 126.660658,44.2567773 C123.508185,46.7994803 119.349604,48.1051927 114.184914,48.1051927 Z M103.788461,28.2446203 L103.788461,36.216338 L111.367811,36.216338 C113.983693,36.216338 115.66054,34.7044604 115.66054,32.299201 C115.66054,29.8939413 113.849545,28.2446203 111.367811,28.2446203 L103.788461,28.2446203 Z M103.788461,11.4765246 L103.788461,17.9363647 L111.099515,17.9363647 C113.044658,17.9363647 114.520284,16.5619307 114.520284,14.843888 C114.520284,12.8509586 113.044658,11.4765246 111.099515,11.4765246 L103.788461,11.4765246 Z" id="Combined-Shape"></path>
                    <path d="M154.507114,49.8868666 C160.764512,49.8868666 165.743517,48.4478223 169.511412,45.6382598 C173.346591,42.7601713 175.230539,38.92272 175.230539,34.1259061 C175.230539,26.793633 170.453386,22.2023967 160.697228,19.1872564 C156.18921,17.816738 153.228721,16.8573752 151.883044,16.3091679 C150.604651,15.6924347 149.931813,15.0757014 149.931813,14.4589682 C149.931813,13.2940276 151.344774,12.6772944 154.103411,12.6772944 C156.862049,12.6772944 160.02439,13.1569758 163.52315,14.1163386 C167.02191,15.0071755 169.915115,16.1721161 172.202766,17.5426344 L172.202766,3.83745127 C166.887342,1.3019924 161.235499,0 155.179953,0 C142.799725,0 134.927515,5.07091774 134.927515,14.8701237 C134.927515,23.0247076 140.646642,27.2733144 150.4028,30.2199287 C154.237979,31.3848693 156.862049,32.2757062 158.207726,32.8924395 C159.553403,33.5091728 160.226241,34.1259061 160.226241,34.8111651 C160.226241,36.3187353 158.409578,37.0725203 154.77625,37.0725203 C151.613909,37.0725203 148.047865,36.3872613 144.078118,35.0852689 C140.108371,33.7832763 137.080598,32.2071804 134.927515,30.3569805 L134.927515,44.747423 C140.242939,48.1737188 146.769472,49.8868666 154.507114,49.8868666 Z" id="Path"></path>
                </g>
            </g>
        </g>
    </g>
</svg>