<?xml version="1.0" encoding="UTF-8"?>
<svg width="600px" height="300px" viewBox="0 0 600 300" version="1.1" xmlns="http://www.w3.org/2000/svg" xmlns:xlink="http://www.w3.org/1999/xlink">
    <!-- Generator: Sketch 50 (54983) - http://www.bohemiancoding.com/sketch -->
    <title>Artboard</title>
    <desc>Created with Sketch.</desc>
    <defs></defs>
    <g id="Artboard" stroke="none" stroke-width="1" fill="none" fill-rule="evenodd">
        <rect id="Rectangle-3" x="75" y="75" width="450" height="250"></rect>
        <g id="logo_en" transform="translate(76.000000, 121.000000)" fill-rule="nonzero">
            <path d="M29.820598,15.68 C29.820598,15.68 29.820598,15.52 30.2990034,14.88 C30.7774084,14.24 30.6179402,13.76 30.2990034,13.44 C30.1395348,13.28 25.5149501,10.56 25.5149501,10.56 C25.1960133,10.4 25.0365448,9.91999998 25.0365448,9.59999998 C25.0365448,8.95999998 25.5149501,8.47999999 26.3122922,8.15999999 C29.1827242,7.35999998 39.5481726,6.87999999 43.0564782,6.87999999 L47.8405315,6.87999999 L48,6.87999999 C42.8970099,2.56 36.3588039,0 29.1827242,0 C13.0764119,0 0,13.12 0,29.28 C0,36.3199999 2.55149502,42.88 6.69767439,48 C10.3654485,42.56 19.4551494,29.76 21.3687707,27.04 C23.7607973,23.52 29.820598,15.68 29.820598,15.68 Z" id="Shape" fill="#E00A1E"></path>
            <path d="M55.7338055,17.335443 C57.1518312,15.9113924 58.0971816,14.6455696 57.9396231,13.5379747 C57.7820646,10.5316456 54.1582214,8.15822784 54.1582214,8.15822784 C54.1582214,8.15822784 54.1582214,8.15822784 54.0006631,8 C54.1582214,8.15822784 54.3157798,8.3164557 54.4733383,8.63291139 C55.4186888,10.8481013 53.8431046,12.2721519 52.8977542,13.221519 C52.425079,13.6962025 45.0198342,20.6582279 36.354122,28.2531645 C28.7913187,34.8987341 20.283165,41.7025316 15.2412961,45.5000001 C8.30872644,50.7215189 6.89070083,51.5126581 6.89070083,51.5126581 C6.73314242,51.6708861 6.41802561,51.6708861 6.10290881,51.6708861 C5.63023361,51.6708861 5.3151168,51.3544304 5,51.0379748 C5,51.1962025 5,51.6708861 5.63023361,52.4620252 L5.94535041,52.7784811 C6.41802561,53.2531647 7.04825922,54.0443038 7.99360963,54.6772151 C9.41163527,55.9430381 10.0418689,55.3101266 13.0354785,53.0949367 C17.6046722,56.1012658 23.1192162,58 29.1064354,58 C45.0198342,58 57.9396231,45.0253165 57.9396231,29.0443037 C58.2547398,24.7721519 57.3093894,20.8164557 55.7338055,17.335443 Z" id="Shape" fill="#E00A1E"></path>
            <path d="M30.5641395,14.9225352 C31.0375493,14.2887324 30.8797461,13.8133803 30.5641395,13.4964789 C30.4063361,13.3380282 25.8300395,10.6443662 25.8300395,10.6443662 C25.5144329,10.4859155 25.3566295,10.0105634 25.3566295,9.69366197 C25.3566295,9.05985915 25.8300395,8.58450705 26.6190561,8.26760564 C29.4595161,7.4753521 39.7167325,7 43.1884057,7 C44.7664391,7 48.0803091,7 50.1317523,7.15845069 C52.4988023,7.31690141 54.3924421,7.79225351 54.7080489,8.90140846 C55.6548689,11.1197183 54.0768355,12.5457747 53.1300155,13.4964789 C52.6566055,13.971831 45.2398491,20.943662 36.5606659,28.5492958 C28.9861061,35.2042253 20.4647263,42.0176056 15.4150198,45.8204226 C8.47167324,51.0492957 7.05144328,51.8415492 7.05144328,51.8415492 C6.89363994,52 6.57803328,52 6.26242662,52 C5.47340998,52 5,51.5246479 5,50.7323944 C5,50.4154931 5.15780332,50.2570423 5.15780332,49.9401409 C5.15780332,49.9401409 18.886693,30.1338029 21.253743,26.806338 C23.7785962,23.4788733 29.7751227,15.7147887 29.7751227,15.7147887 C29.7751227,15.7147887 30.0907295,15.556338 30.5641395,14.9225352 Z" id="Shape" fill="#FFFFFF"></path>
            <path d="M101,5 L101,41.7264151 C101,49.7452829 93.9514562,56 84.5,56 C75.2087378,56 68,49.9056603 68,41.7264151 L68,13.6603773 C68,8.84905661 71.8446603,5 76.4902914,5 L77.1310679,5 L77.1310679,41.7264151 C77.1310679,46.0566036 80.9757282,48.7830187 84.8203883,48.7830187 C88.5048543,48.7830187 92.3495146,46.3773585 92.3495146,41.7264151 L92.3495146,13.1792453 C92.3495146,8.68867923 96.0339806,5 100.519417,5 L101,5 Z" id="Shape" fill="#212121"></path>
            <path d="M119,18 C131.133333,18 133,24.9871244 133,29.1158798 L133,55 L132.688889,55 C128.177778,55 124.444444,51.1888413 124.444444,46.5836911 L124.444444,29.1158798 C124.444444,26.7339057 123.511111,23.7167382 118.688889,23.7167382 C116.511111,23.7167382 115.111111,24.0343348 113.711111,24.5107297 L113.711111,54.8412016 L105,54.8412016 L105,20.5407725 C108.733333,18.9527897 114.8,18 119,18 Z" id="Shape" fill="#212121"></path>
            <path d="M143.004201,5 C145.835154,5 148,7.06349205 148,9.44444445 C148,11.8253968 145.835154,13.7301587 143.004201,13.7301587 C140.173248,13.7301587 138.008402,11.8253968 138.008402,9.44444445 C137.841875,6.90476191 140.173248,5 143.004201,5 Z M147.50042,17.8571428 L147.50042,46.5873014 C147.50042,51.1904761 143.670307,55 138.674508,55 L138.341455,55 L138.341455,17.8571428 L147.50042,17.8571428 Z" id="Shape" fill="#212121"></path>
            <path d="M171.842857,4 C175.928571,4 179.857143,4.95327103 183,6.85981307 L183,15.5981309 C180.957143,13.0560748 178.285714,11.1495327 173.728571,11.1495327 C164.771428,11.1495327 159.271429,20.046729 159.271429,29.2616822 C159.271429,38.0000001 165.085714,47.3738318 173.728571,47.3738318 C177.5,47.3738318 180.957143,46.2616824 183,43.4018692 L183,51.9813085 C180.485714,53.8878506 176.4,55 171.685714,55 C157.542857,55 150,41.8130843 150,29.2616822 C150.157143,17.0280374 157.7,4 171.842857,4 Z" id="Shape" fill="#212121"></path>
            <path d="M198.972973,18 C200.432433,18 202.378378,18.1581197 204,18.3162393 L204,25.4316238 C200.918919,23.2179487 196.702703,24.008547 194.918919,24.9572648 L194.918919,46.619658 C194.918919,51.2051281 191.027027,55 186.324324,55 L186,55 L186,20.8461538 C189.567567,19.1068376 193.135135,18 198.972973,18 Z" id="Shape" fill="#212121"></path>
            <path d="M234.840206,37.2405063 L212.628866,40.2869197 C213.427835,46.3797468 216.463917,49.5864979 222.056701,49.5864979 C228.28866,49.5864979 231.324742,47.5021098 233.72165,45.8987341 L233.72165,53.2742616 C231.484536,54.556962 227.329897,56 221.257732,56 C210.391753,56 204,48.6244725 204,36.9198313 C204,25.535865 210.072165,18 219.819588,18 C229.56701,18 235,24.4135021 235,35.7974683 L235,37.2405063 L234.840206,37.2405063 Z M227.170103,32.1097045 C226.850515,24.7341773 222.376289,23.9324895 219.819588,23.9324895 L219.5,23.9324895 C214.546392,24.092827 212.149485,27.6202531 212.149485,34.1940929 L227.170103,32.1097045 Z" id="Shape" fill="#212121"></path>
            <path d="M266,5 L266,55.0377358 C263.951085,55.5188679 257.016303,56 254.179348,56 L253.548912,56 C242.831522,55.8396226 237,49.5849057 237,38.3584904 C237,26.971698 243.146739,19.5943396 252.60326,19.5943396 C254.494566,19.5943396 256.070651,19.754717 257.331521,20.0754717 L257.331521,13.6603773 C257.331521,9.00943395 260.956521,5.16037737 265.684782,5.16037737 L266,5.16037737 L266,5 Z M257.48913,25.2075471 C256.543478,24.8867925 255.597827,24.8867925 254.494566,24.8867925 C247.244566,24.8867925 245.826087,31.9433961 245.826087,37.8773583 C245.826087,46.0566036 248.505435,50.2264149 254.021739,50.2264149 C254.967391,50.2264149 257.016303,50.0660377 257.646739,49.9056603 L257.646739,25.2075471 L257.48913,25.2075471 Z" id="Shape" fill="#212121"></path>
            <path d="M275.004201,5 C277.835154,5 280,7.06349205 280,9.44444445 C280,11.8253968 277.835154,13.7301587 275.004201,13.7301587 C272.17325,13.7301587 270.008402,11.8253968 270.008402,9.44444445 C269.841877,6.90476191 272.17325,5 275.004201,5 Z M279.500422,17.8571428 L279.500422,46.5873014 C279.500422,51.1904761 275.670309,55 270.67451,55 L270.341456,55 L270.341456,17.8571428 L279.500422,17.8571428 Z" id="Shape" fill="#212121"></path>
            <path d="M294.365216,5 L294.365216,17.990566 L300,17.990566 L300,25.2075471 L294.365216,25.2075471 L294.365216,45.0943397 C294.365216,47.4999999 295.147826,48.3018868 297.652174,48.3018868 C298.27826,48.3018868 299.21739,48.1415094 300,47.8207548 L300,55.198113 C299.686956,55.3584905 297.965216,56 295.61739,56 C289.2,56 285.756522,52.7924528 285.756522,47.0188678 L285.756522,25.2075471 L282,25.2075471 L282,17.990566 L285.756522,17.990566 L285.756522,13.5 C285.756522,8.84905661 289.356522,5 293.895652,5 L294.365216,5 Z" id="Shape" fill="#212121"></path>
            <path d="M340.704546,28.0656251 L340.704546,28.2249999 C345.477274,29.18125 352,33.325 352,40.6562501 C352,50.6968751 344.045455,55 332.272727,55 C321.136365,55 317,54.8406252 317,54.8406252 L317,6.86874999 C320.181818,5.27500001 325.431819,4 331.636365,4 C344.045455,4 350.250001,9.41875 350.250001,16.75 C350.409092,23.921875 345.159091,27.1093751 340.704546,28.0656251 Z M341.18182,17.546875 C341.18182,11.96875 338,9.41875 331.795456,9.41875 C329.568181,9.41875 327.818182,9.7375 326.068181,10.215625 L326.068181,25.9937499 L328.931819,25.9937499 C338.159091,26.471875 341.18182,23.603125 341.18182,17.546875 Z M328.931819,30.7750001 L326.068181,30.7750001 L326.068181,49.4218752 L332.113636,49.4218752 C338.159091,49.4218752 342.613636,47.0312501 342.613636,40.6562501 C342.613636,33.6437502 338.636365,30.4562502 328.931819,30.7750001 Z" id="Shape" fill="#212121"></path>
            <path d="M374.022347,31.9493672 L374.022347,29.5443038 C374.022347,24.7341773 371.206703,23.4514768 366.983241,23.4514768 C363.5419,23.4514768 360.100559,24.7341773 356.189944,26.8185654 L356.189944,20.886076 C358.536313,19.7637131 362.759775,18 368.391062,18 C375.743016,18 382,21.8481013 382,31.1476792 L382,55.0379747 C379.653631,55.5189873 374.022347,56 370.581006,56 L368.70391,56 C359.005587,56 354,51.8312236 354,44.7763714 C354,35.1561182 363.072625,32.9113925 374.022347,31.9493672 Z M374.022347,35.9578059 C366.357541,36.7594936 361.664803,38.3628693 361.664803,44.6160338 C361.664803,49.2658228 364.480447,51.3502109 369.173184,51.3502109 C371.050278,51.3502109 373.240222,51.1898735 374.022347,51.0295359 L374.022347,35.9578059 Z" id="Shape" fill="#212121"></path>
            <path d="M400.419891,18 C412.917128,18 415,24.957265 415,29.0683761 L415,55 L414.67956,55 C410.033148,55 406.027625,51.2051283 406.027625,46.6196582 L406.027625,29.2264956 C406.027625,26.854701 405.066299,23.8504274 400.099448,23.8504274 C397.856354,23.8504274 396.414365,24.1666667 394.972375,24.6410258 L394.972375,55 L386,55 L386,20.6880342 C389.845305,19.1068376 396.093922,18 400.419891,18 Z" id="Shape" fill="#212121"></path>
            <path d="M427.730158,46.4285714 C427.730158,51.1904763 424.079366,55 419,55 L419,13.5714286 C419,8.8095238 422.650794,5 427.730158,5 L427.730158,35.1587302 L438.68254,18.8095238 L446.936508,18.8095238 L435.666668,35.3174604 L449,55 L439.63492,55 L427.730158,36.5873016 L427.730158,46.4285714 Z" id="Shape" fill="#212121"></path>
        </g>
    </g>
</svg>