<?xml version="1.0" encoding="UTF-8"?>
<svg width="600px" height="300px" viewBox="0 0 600 300" version="1.1" xmlns="http://www.w3.org/2000/svg" xmlns:xlink="http://www.w3.org/1999/xlink">
    <!-- Generator: Sketch 50 (54983) - http://www.bohemiancoding.com/sketch -->
    <title>Artboard</title>
    <desc>Created with Sketch.</desc>
    <defs></defs>
    <g id="Artboard" stroke="none" stroke-width="1" fill="none" fill-rule="evenodd">
        <rect id="Rectangle-3" x="75" y="75" width="450" height="250"></rect>
        <g id="logo_ru" transform="translate(75.000000, 121.000000)">
            <path d="M130.678459,17 C126.956567,17 123.774781,20.1097816 123.774781,23.8039516 L123.774781,29.6624461 L114.229422,29.6624461 L114.229422,17 L113.905779,17 C110.183888,17 107,20.1097816 107,23.8039516 L107,47 L107.323643,47 C111.047636,47 114.229422,43.8923056 114.229422,40.1960484 L114.229422,34.5379157 L123.774781,34.5379157 L123.774781,47 L131,47 L131,17 L130.678459,17 Z" id="Shape" fill="#000000" fill-rule="nonzero"></path>
            <path d="M419.680532,17 C415.958315,17 412.77625,20.1097816 412.77625,23.8039516 L412.77625,29.6624461 L403.227953,29.6624461 L403.227953,17 L402.904282,17 C399.182065,17 396,20.1097816 396,23.8039516 L396,47 L396.325773,47 C400.043787,47 403.227953,43.8923056 403.227953,40.1960484 L403.227953,34.5379157 L412.77625,34.5379157 L412.77625,47 L420,47 L420,17 L419.680532,17 Z" id="Shape" fill="#000000" fill-rule="nonzero"></path>
            <path d="M89.9262651,42.0033099 C85.4492553,42.0033099 82.4915348,34.759679 82.4915348,26.2691073 C82.4915348,17.7827482 85.6109723,11.8387161 89.9262651,11.8387161 C94.2373022,11.8387161 97.5184568,17.7827482 97.5184568,26.2691073 C97.5184568,35.8802407 94.6990471,42.0033099 89.9262651,42.0033099 Z M89.9262651,6 C81.436118,6 75.9398649,13.2457372 75.1759645,23.7857573 L66.5347396,23.7857573 L66.5347396,6.59608826 L66.4794153,6.59608826 C62.2768989,6.59608826 59,9.89247743 59,13.9471414 L59,47.3554664 L59.0574521,47.3554664 C63.1812379,47.3217653 66.5347396,43.9832497 66.5347396,39.8401204 L66.5347396,29.1905717 L75.1759645,29.1905717 C75.8270885,39.0818455 81.3446202,48 89.9262651,48 C99.7697289,48 105,38.576329 105,26.3238716 C105,14.8654965 99.4313998,6 89.9262651,6 Z" id="Shape" fill="#000000" fill-rule="nonzero"></path>
            <path d="M157.330868,17 C154.91126,17 152.742844,17.7534437 151.010258,20.4291081 L141.381202,36.7147628 L141.381202,17 L134,17 L134,47 L137.125954,47 C139.509065,47 141.679628,46.2507305 143.446565,43.5708919 L153.616651,26.7300682 L153.616651,40.1960484 C153.616651,43.8923056 156.864981,47 160.665076,47 L161,47 L161,17 L157.330868,17 Z" id="Shape" fill="#000000" fill-rule="nonzero"></path>
            <path d="M304.336727,17 C301.91888,17 299.74153,17.7534437 298.017258,20.4291081 L288.384524,36.7147628 L288.384524,17 L281,17 L281,47 L284.130746,47 C286.512088,47 288.682997,46.2507305 290.448067,43.5708919 L300.619771,26.7300682 L300.619771,40.1960484 C300.619771,43.8923056 303.870765,47 307.673612,47 L308,47 L308,17 L304.336727,17 Z" id="Shape" fill="#000000" fill-rule="nonzero"></path>
            <path d="M186.019595,32.1517751 C184.338068,28.344375 181.824228,25.6260142 178.188666,24.2128055 L191.271198,6 L183.119172,6 L170.480259,24.0475428 L170.480259,6.08051264 L170.319712,6.08051264 C166.143357,6.08051264 163,9.12304274 163,13.2567309 L163,47 L163.16266,47 C167.336903,47 170.480259,43.9553511 170.480259,39.8237817 L170.480259,27.3083045 C174.221445,27.3083045 177.043706,29.8126712 178.395688,33.0713141 L183.769814,47 L192,47 L186.019595,32.1517751 Z" id="Shape" fill="#000000" fill-rule="nonzero"></path>
            <path d="M331,17 L309,17 L309,22.7353555 L316.399284,22.7353555 L316.399284,47 L316.726912,47 C320.545692,47 323.600716,43.942396 323.600716,40.248226 L323.600716,22.7353555 L331,22.7353555 L331,17 Z" id="Shape" fill="#000000" fill-rule="nonzero"></path>
            <path d="M255.040179,41.6538631 C258.395732,38.1139073 259.997629,31.7470199 260.756422,26.854415 L261.243314,22.4944812 L266.868924,22.4944812 L268.599394,41.6538631 L255.040179,41.6538631 Z M275.306284,41.4399558 L272.81702,17 L255.455408,17 L254.374127,24.3210817 C253.400343,30.8347682 251.865894,39.0219647 246,42.5136865 L246.484785,55 L246.872612,55 C249.730734,55 252.051377,52.6931567 252.051377,49.8431567 L252.148334,47.1441501 L271.908576,47.1441501 L272.178369,55 L272.561981,55 C275.426426,55 277.744961,52.6931567 277.744961,49.8431567 L278,42.5136865 L275.306284,41.4399558 Z" id="Shape" fill="#000000" fill-rule="nonzero"></path>
            <path d="M444.270023,37.4105205 C442.650866,34.2627331 440.727852,31.8580573 437.835894,30.6807682 L448.65577,17 L440.785224,17 L430.311703,30.520039 L430.311703,17 L423,17 L423,47 L423.327231,47 C427.092514,47 430.311703,43.8939605 430.311703,40.197189 L430.311703,33.3651545 C433.360902,33.3651545 435.545276,35.5903145 436.745832,38.2141664 L441.137954,47 L449,47 L444.270023,37.4105205 Z" id="Shape" fill="#000000" fill-rule="nonzero"></path>
            <path d="M354.595144,41.98677 L350.224375,41.9782946 L350.224375,27.428062 C351.142657,27.2098191 352.760682,26.8983463 354.162269,26.8983463 C359.390381,26.8983463 362.449918,30.0385013 362.449918,33.9244961 C362.449918,38.1071318 359.503852,41.98677 354.595144,41.98677 Z M354.918749,21.3469251 C353.141023,21.3469251 351.249825,21.6520413 350.224375,21.9232558 L350.224375,12.358708 L359.80014,12.358708 C363.225309,12.358708 366.001167,9.56180879 366.001167,6.10806202 L366.001167,6 L343,6 L343,47 L354.704413,47 C363.464861,47 370,42.234677 370,34.0834109 C370,27.0996382 364.572262,21.3469251 354.918749,21.3469251 Z" id="Shape" fill="#000000" fill-rule="nonzero"></path>
            <path d="M226.665829,30.1535771 C226.665829,24.7505316 228.547009,21.8587009 232.57751,21.7523836 L232.849841,21.7523836 C234.837858,21.7523836 238.547846,22.4051718 238.763617,28.4631319 L226.665829,30.1535771 Z M245,31.4634063 C245,22.2967282 240.642702,17 232.795375,17 C224.83702,17 220,23.0600864 220,32.3947459 C220,41.9951986 225.214094,48 233.978968,48 C238.813893,48 242.203369,46.7986144 244.030082,45.8162425 L244.030082,39.7604088 C242.203369,41.070238 239.676973,42.7053982 234.676554,42.7053982 C230.162142,42.7053982 227.686023,40.0878661 227.097369,35.1207216 L245,32.6116332 L245,31.4634063 Z" id="Shape" fill="#000000" fill-rule="nonzero"></path>
            <path d="M387.495267,43.8514987 C386.798107,44.0173537 385.02485,44.123671 383.521664,44.123671 C379.65274,44.123671 377.395867,42.4332259 377.395867,38.6674669 C377.395867,33.5918787 381.210359,32.2820495 387.495267,31.6824199 L387.495267,43.8514987 Z M371,38.8864806 C371,44.6191097 375.138995,48 383.088294,48 L384.595667,48 C387.386401,48 392.011105,47.5619727 394,47.1792304 L394,27.7529323 C394,20.1129707 388.948207,17 382.87475,17 C378.254233,17 374.711906,18.3693669 372.831877,19.2943275 L372.831877,24.1530283 C376.001547,22.4604568 378.846714,21.3675149 381.693974,21.3675149 C385.133716,21.3675149 387.495267,22.4051718 387.495267,26.2793744 L387.495267,28.2994033 C378.526397,29.1733315 371,31.0275053 371,38.8864806 Z" id="Shape" fill="#000000" fill-rule="nonzero"></path>
            <path d="M203.63271,42.8884903 C202.609471,42.8884903 201.800105,42.7796712 201.10187,42.5139013 L201.10187,22.0496263 C202.016075,21.7273543 202.930281,21.5662182 204.114975,21.5662182 C208.799231,21.5662182 210.843613,24.9500747 210.843613,32.1467862 C210.843613,36.9787743 209.6065,42.8884903 203.63271,42.8884903 Z M204.276428,17 C200.191857,17 196.797134,17.696861 194.161454,19.0947683 L194,19.2035874 L194,59 L194.377424,59 C198.088765,59 201.10187,55.9405082 201.10187,52.232287 L201.10187,47.02571 C202.125109,47.2914798 203.525773,47.5070254 205.085794,47.5070254 C212.885899,47.5070254 218,41.27713 218,31.9312407 C218,22.6397608 212.833479,17 204.276428,17 Z" id="Shape" fill="#000000" fill-rule="nonzero"></path>
            <g id="Group">
                <path d="M26.5429252,13.1697443 C26.5578393,13.1484375 26.5727535,13.125 26.5897982,13.1015625 C26.9839579,12.5284091 26.8199022,12.1022727 26.5557087,11.8742898 C26.3895225,11.7272727 22.4351422,9.33238636 22.4351422,9.33238636 C22.1496428,9.140625 21.9600201,8.81463068 21.9600201,8.44176136 C21.9600201,7.85582386 22.3115679,7.41264205 23.1084096,7.19318182 C25.6502068,6.49431818 34.5880436,6.12784091 37.626269,6.12784091 C38.6787818,6.12784091 40.4940469,6.12357955 42.1239504,6.17045455 L42.0515102,6.10014205 C37.5985712,2.296875 31.8161424,0 25.5010653,0 C11.4157163,0 0,11.4140625 0,25.5 C0,31.6917614 2.20516355,37.365767 5.87404437,41.7848011 C9.07845595,37.1761364 16.9872164,25.821733 18.7193884,23.5014205 C20.7157539,20.8274148 25.2709613,14.8828125 26.0401053,13.875 L26.0784559,13.828125 L26.5429252,13.1697443 Z" id="Shape" fill="#E2001A"></path>
                <path d="M9.951999,45.7137784 C14.2557965,49.0291193 19.6461963,51 25.5010653,51 C39.5842837,51 51,39.5838068 51,25.5 C51,21.2365057 49.9538789,17.2201705 48.106655,13.6896307 L48.1087856,13.6917614 C48.9865898,12.8458807 49.9986214,11.5078125 49.3338764,9.82883523 C49.1250783,9.33025568 48.1343527,8.19673295 47.8786815,7.921875 L47.9149016,8.01988636 C48.5349041,9.89275568 47.3076827,11.0667614 46.4256172,11.8636364 C45.9419727,12.3046875 39.4671011,18.4090909 31.8736684,25.0482955 C25.1793458,30.9012784 17.6945733,36.8565341 13.3566863,40.1036932 C7.2567991,44.6676136 6.0700589,45.3323864 6.0700589,45.3323864 C5.90813385,45.4197443 5.63967916,45.4943182 5.44366462,45.4943182 C5.07081088,45.4943182 4.74696077,45.328125 4.54242386,45.0596591 L4.53603208,45.053267 C4.50407319,45.1321023 4.49342023,45.2002841 4.52111793,45.2471591 C5.17520993,46.3082386 6.25968166,47.5333807 6.89246773,47.5333807 C7.08848227,47.5333807 7.35906755,47.4588068 7.52099261,47.3735795 C7.52099261,47.3735795 8.00037599,47.1072443 9.951999,45.7137784 Z" id="Shape" fill="#E2001A"></path>
                <path d="M26.5791453,13.1015625 C26.9711743,12.5305398 26.8071187,12.1044034 26.5450558,11.8742898 C26.3788695,11.7294034 22.4244893,9.33238636 22.4244893,9.33238636 C22.1389898,9.140625 21.9493671,8.81676136 21.9493671,8.44389205 C21.9493671,7.85582386 22.3009149,7.41477273 23.0977566,7.19318182 C25.6374232,6.49431818 34.5773907,6.12997159 37.6134854,6.12997159 C39.0473744,6.12997159 41.8874546,6.11931818 43.7559845,6.24289773 C45.8524878,6.37926136 47.4440406,6.81392045 47.8382003,7.828125 C48.6158666,9.81605114 47.3311192,11.0433239 46.4192255,11.8700284 C45.9377115,12.3089489 39.46284,18.4133523 31.8694072,25.0525568 C25.1750846,30.9055398 17.6881815,36.8586648 13.3524251,40.1079545 C7.25253791,44.671875 6.06579772,45.3366477 6.06579772,45.3366477 C5.90387267,45.4240057 5.63541797,45.4985795 5.43727284,45.4985795 C4.80661737,45.4985795 4.31018925,45.0149148 4.31018925,44.3799716 C4.31018925,44.1413352 4.3826294,43.915483 4.51046497,43.734375 C4.51046497,43.734375 16.5206166,26.4289773 18.7087354,23.5014205 C20.8947236,20.578125 26.1402431,13.7301136 26.1402431,13.7301136 C26.1402431,13.7301136 26.2020303,13.6534091 26.5791453,13.1015625 Z" id="Shape" fill="#FEFEFE"></path>
            </g>
        </g>
    </g>
</svg>