<?xml version="1.0" encoding="UTF-8"?>
<svg width="600px" height="300px" viewBox="0 0 600 300" version="1.1" xmlns="http://www.w3.org/2000/svg" xmlns:xlink="http://www.w3.org/1999/xlink">
    <!-- Generator: Sketch 50 (54983) - http://www.bohemiancoding.com/sketch -->
    <title>Artboard</title>
    <desc>Created with Sketch.</desc>
    <defs>
        <path d="M148.820274,76.3635981 L138,23.6058806 L146.630457,23.6058806 L153.650754,60.3262702 L160.284613,23.6058806 L169.108289,23.6058806 L158.223608,76.3635981 L148.820274,76.3635981 Z M174.872661,76.3635981 L174.872661,23.6058806 L184.469214,23.6058806 L184.469214,76.3635981 L174.872661,76.3635981 Z M202.309786,57.8443028 L209.458896,57.8443028 L205.884341,36.1748181 L202.309786,57.8443028 Z M189.911555,76.3635981 L200.764032,23.6058806 L210.908039,23.6058806 L221.728314,76.3635981 L212.679215,76.3635981 L210.521601,64.1128615 L201.279283,64.1128615 L199.089466,76.3635981 L189.911555,76.3635981 Z M240.438372,77 C231.034991,77 226.097217,71.6330643 225.624901,60.8990319 L234.094342,59.1489267 C234.309031,66.1281691 236.327078,69.617738 240.148543,69.617738 C241.629897,69.617738 242.730162,69.1722611 243.449371,68.281294 C244.168579,67.3903269 244.528178,66.1917819 244.528178,64.6856232 C244.528178,63.2218916 244.259821,61.8801576 243.723098,60.6603812 C243.186375,59.4406048 242.563786,58.4435851 241.855312,57.6692923 C241.146839,56.8949994 240.137815,55.9351028 238.828212,54.7895737 L231.807915,48.7755757 C229.7469,46.9936415 228.211896,45.1427912 227.202857,43.2229692 C226.193819,41.3031472 225.689307,38.900754 225.689307,36.0157177 C225.689307,31.9215116 226.907649,28.7395339 229.34437,26.4696892 C231.781091,24.1998444 235.124823,23.0437258 239.375666,23.0012988 C241.329337,22.9800853 243.057558,23.2187336 244.560381,23.7172509 C246.063204,24.2157683 247.303015,24.8839836 248.27985,25.7219169 C249.256686,26.5598503 250.072492,27.6045996 250.727293,28.8561963 C251.382095,30.1077929 251.870505,31.4071005 252.192539,32.7541579 C252.514572,34.1012153 252.739993,35.6020481 252.868806,37.2567014 L244.560381,38.8795262 C244.517443,37.8188511 244.44767,36.8960775 244.35106,36.1111779 C244.25445,35.3262783 244.088069,34.5307839 243.851911,33.7246708 C243.615753,32.9185577 243.309825,32.2662523 242.93412,31.767735 C242.558414,31.2692177 242.053902,30.8714704 241.420569,30.5744814 C240.787237,30.2774924 240.051938,30.1608199 239.21465,30.2244604 C237.776234,30.3093144 236.675969,30.7813077 235.913822,31.6404546 C235.151676,32.4996015 234.770609,33.6504167 234.770609,35.0929349 C234.770609,36.7900151 235.108739,38.184782 235.78501,39.2772774 C236.46128,40.3697728 237.518608,41.5418012 238.957025,42.7933979 L245.912915,48.7755757 C247.072236,49.8150374 248.08126,50.8226636 248.940016,51.7984848 C249.798772,52.7743059 250.619945,53.8879981 251.40356,55.1395947 C252.187176,56.3911914 252.782929,57.7700484 253.190838,59.2762071 C253.598747,60.7823658 253.802699,62.3733546 253.802699,64.0492213 C253.802699,67.8888653 252.573622,71.0072035 250.115433,73.4043293 C247.657243,75.8014551 244.431588,77 240.438372,77 Z M269.22803,46.0390476 L272.351741,46.0390476 C275.09976,46.0390476 276.956793,45.5034147 277.922894,44.4321328 C278.888995,43.3608509 279.372038,41.393328 279.372038,38.5295052 C279.372038,36.8960654 279.307632,35.633881 279.178818,34.7429139 C279.050005,33.8519467 278.749445,33.0405424 278.277129,32.3086766 C277.804813,31.5768107 277.101717,31.0729976 276.167819,30.7972221 C275.233922,30.5214465 273.972643,30.3835608 272.383944,30.3835608 L269.22803,30.3835608 L269.22803,46.0390476 Z M259.502665,76.3635981 L259.502665,23.6058806 L274.86359,23.6058806 C283.966406,23.6058806 288.517746,28.6015856 288.517746,38.5931453 C288.517746,43.4934645 287.272568,47.083796 284.782175,49.3642475 C282.291782,51.644699 278.781668,52.7849077 274.251729,52.7849077 L269.22803,52.7849077 L269.22803,76.3635981 L259.502665,76.3635981 Z M308.226103,77 C302.730063,77 298.790578,75.5256837 296.407529,72.5770068 C294.024481,69.6283299 292.832974,65.3114469 292.832974,59.6262281 L292.832974,40.15233 C292.832974,37.3521476 293.101332,34.923238 293.638054,32.8655282 C294.174777,30.8078185 295.038887,29.025911 296.230412,27.5197523 C297.421936,26.0135936 299.015978,24.8839915 301.012586,24.1309122 C303.009195,23.3778328 305.413676,23.0012988 308.226103,23.0012988 C313.700674,23.0012988 317.634792,24.4544019 320.028575,27.3606518 C322.422358,30.2669017 323.619231,34.5307518 323.619231,40.15233 L323.619231,59.6262281 C323.619231,62.3839835 323.345507,64.8075898 322.79805,66.8971198 C322.250593,68.9866499 321.381115,70.8003771 320.189591,72.3383561 C318.998066,73.876335 317.404024,75.0377569 315.407416,75.8226565 C313.410808,76.6075561 311.01706,77 308.226103,77 Z M305.77866,69.4586375 C306.465665,69.734413 307.281471,69.8722987 308.226103,69.8722987 C309.170735,69.8722987 309.975806,69.734413 310.641343,69.4586375 C311.306879,69.182862 311.838226,68.8222378 312.235401,68.3767543 C312.632576,67.9312707 312.94387,67.3479081 313.169294,66.626649 C313.394717,65.9053899 313.544997,65.1841417 313.620138,64.4628826 C313.69528,63.7416235 313.73285,62.8824895 313.73285,61.8854549 L313.73285,37.9249234 C313.73285,36.6521132 313.668444,35.591454 313.53963,34.7429139 C313.410817,33.8943737 313.158561,33.093576 312.782855,32.3404967 C312.407149,31.5874173 311.843599,31.0252679 311.092187,30.6540316 C310.340776,30.2827954 309.385424,30.09718 308.226103,30.09718 C307.066782,30.09718 306.106063,30.2827954 305.343917,30.6540316 C304.58177,31.0252679 304.01822,31.5874173 303.653249,32.3404967 C303.288277,33.093576 303.041389,33.8943737 302.912575,34.7429139 C302.783762,35.591454 302.719356,36.6521132 302.719356,37.9249234 L302.719356,61.8854549 C302.719356,62.8824895 302.756926,63.7416235 302.832067,64.4628826 C302.907208,65.1841417 303.057488,65.9053899 303.282912,66.626649 C303.508335,67.3479081 303.814263,67.9312707 304.200703,68.3767543 C304.587143,68.8222378 305.113124,69.182862 305.77866,69.4586375 Z M340.461504,46.1345079 L342.812337,46.1345079 C345.68917,46.1345079 347.734053,45.5299321 348.947046,44.3207624 C350.160039,43.1115928 350.766527,41.0433073 350.766527,38.1158439 C350.766527,35.2944481 350.240547,33.2738922 349.18857,32.0541158 C348.136594,30.8343394 346.204421,30.2244604 343.391995,30.2244604 L340.461504,30.2244604 L340.461504,46.1345079 Z M330.736138,76.3635981 L330.736138,23.6058806 L342.973353,23.6058806 C345.78578,23.6058806 348.200995,23.8339223 350.219072,24.2900127 C352.23715,24.746103 353.992206,25.5097776 355.484295,26.5810595 C356.976384,27.6523414 358.092751,29.1054445 358.833428,30.9404125 C359.574105,32.7753805 359.944438,35.0186748 359.944438,37.6703626 C359.944438,40.979669 359.445294,43.68435 358.446989,45.7844868 C357.448685,47.8846236 355.800972,49.4119729 353.503799,50.3665805 L360.910534,76.3635981 L351.152965,76.3635981 L344.776732,52.2757862 L340.461504,52.2757862 L340.461504,76.3635981 L330.736138,76.3635981 Z M372.535888,76.3635981 L372.535888,30.7017618 L363.583399,30.7017618 L363.583399,23.6058806 L390.923914,23.6058806 L390.923914,30.7017618 L382.261254,30.7017618 L382.261254,76.3635981 L372.535888,76.3635981 Z M408.635673,77 C399.232292,77 394.294518,71.6330643 393.822202,60.8990319 L402.291643,59.1489267 C402.506332,66.1281691 404.524379,69.617738 408.345844,69.617738 C409.827199,69.617738 410.927464,69.1722611 411.646672,68.281294 C412.36588,67.3903269 412.725479,66.1917819 412.725479,64.6856232 C412.725479,63.2218916 412.457122,61.8801576 411.920399,60.6603812 C411.383676,59.4406048 410.761088,58.4435851 410.052614,57.6692923 C409.34414,56.8949994 408.335116,55.9351028 407.025513,54.7895737 L400.005216,48.7755757 C397.944201,46.9936415 396.409197,45.1427912 395.400159,43.2229692 C394.39112,41.3031472 393.886608,38.900754 393.886608,36.0157177 C393.886608,31.9215116 395.104951,28.7395339 397.541671,26.4696892 C399.978392,24.1998444 403.322124,23.0437258 407.572967,23.0012988 C409.526638,22.9800853 411.254859,23.2187336 412.757682,23.7172509 C414.260506,24.2157683 415.500316,24.8839836 416.477152,25.7219169 C417.453987,26.5598503 418.269793,27.6045996 418.924595,28.8561963 C419.579396,30.1077929 420.067807,31.4071005 420.38984,32.7541579 C420.711874,34.1012153 420.937294,35.6020481 421.066107,37.2567014 L412.757682,38.8795262 C412.714744,37.8188511 412.644972,36.8960775 412.548361,36.1111779 C412.451751,35.3262783 412.28537,34.5307839 412.049212,33.7246708 C411.813054,32.9185577 411.507127,32.2662523 411.131421,31.767735 C410.755715,31.2692177 410.251203,30.8714704 409.617871,30.5744814 C408.984538,30.2774924 408.249239,30.1608199 407.411951,30.2244604 C405.973535,30.3093144 404.87327,30.7813077 404.111124,31.6404546 C403.348978,32.4996015 402.96791,33.6504167 402.96791,35.0929349 C402.96791,36.7900151 403.30604,38.184782 403.982311,39.2772774 C404.658581,40.3697728 405.715909,41.5418012 407.154326,42.7933979 L414.110217,48.7755757 C415.269537,49.8150374 416.278561,50.8226636 417.137317,51.7984848 C417.996073,52.7743059 418.817247,53.8879981 419.600862,55.1395947 C420.384477,56.3911914 420.98023,57.7700484 421.388139,59.2762071 C421.796048,60.7823658 422,62.3733546 422,64.0492213 C422,67.8888653 420.770924,71.0072035 418.312734,73.4043293 C415.854544,75.8014551 412.628889,77 408.635673,77 Z" id="path-1"></path>
    </defs>
    <g id="Artboard" stroke="none" stroke-width="1" fill="none" fill-rule="evenodd">
        <rect id="Rectangle-3" x="75" y="75" width="450" height="250"></rect>
        <g id="viasports" transform="translate(89.000000, 102.000000)">
            <g fill="#233952" fill-rule="nonzero">
                <rect id="Rectangle-path" x="0" y="0.95959596" width="105.961165" height="8.26728827"></rect>
                <rect id="Rectangle-path" x="0" y="26.7948718" width="105.961165" height="8.26728827"></rect>
                <polygon id="Shape" points="54.0194175 69.1647242 27.0097087 53.7106306 31.2517948 46.4296814 54.0194175 59.4552745"></polygon>
                <polygon id="Shape" points="98.6893204 60.7342658 98.6893204 26.7948718 107 26.7948718 107 65.03108"></polygon>
                <rect id="Rectangle-path" transform="translate(102.844660, 7.160062) rotate(90.000000) translate(-102.844660, -7.160062) " x="96.6116505" y="3.02641803" width="12.4660194" height="8.26728827"></rect>
                <polygon id="Shape" points="0 65.03108 0 48.4965035 8.31067961 48.4965035 8.31067961 60.6336109"></polygon>
                <polygon id="Shape" points="54.0194175 85.3701733 98.6537903 59.8640249 107 65.1396901 54.0194175 95"></polygon>
                <polygon id="Shape" points="54.0194175 85.3701733 8.509498 59.8640249 0 65.1396901 54.0194175 95"></polygon>
                <polygon id="Shape" points="0 34.028749 0 1.99300699 8.31067961 1.99300699 8.31067961 34.0175579"></polygon>
                <ellipse id="Oval" cx="4.15533981" cy="48.4965035" rx="4.15533981" ry="4.13364413"></ellipse>
                <ellipse id="Oval" cx="102.84466" cy="13.3605284" rx="4.15533981" ry="4.13364413"></ellipse>
                <ellipse id="Oval" cx="29.0873786" cy="50.5633256" rx="4.15533981" ry="4.13364413"></ellipse>
                <polygon id="Shape" points="54.0194175 69.1647242 81.0291262 53.7106306 76.7866794 46.4296814 54.0194175 59.4552745"></polygon>
                <ellipse id="Oval" cx="77.9126214" cy="50.5633256" rx="4.15533981" ry="4.13364413"></ellipse>
            </g>
            <g id="VIASPORTS">
                <use fill="#000000" xlink:href="#path-1"></use>
                <use fill="#233952" xlink:href="#path-1"></use>
            </g>
        </g>
    </g>
</svg>