<?xml version="1.0" encoding="UTF-8"?>
<svg width="600px" height="300px" viewBox="0 0 600 300" version="1.1" xmlns="http://www.w3.org/2000/svg" xmlns:xlink="http://www.w3.org/1999/xlink">
    <!-- Generator: Sketch 50 (54983) - http://www.bohemiancoding.com/sketch -->
    <title>Artboard</title>
    <desc>Created with Sketch.</desc>
    <defs>
        <linearGradient x1="100%" y1="87.86%" x2="0%" y2="87.86%" id="linearGradient-1">
            <stop stop-color="#B8F6F7" offset="0%"></stop>
            <stop stop-color="#00CCD5" offset="100%"></stop>
        </linearGradient>
    </defs>
    <g id="Artboard" stroke="none" stroke-width="1" fill="none" fill-rule="evenodd">
        <rect id="Rectangle-3" x="75" y="75" width="450" height="250"></rect>
        <g id="zenit" transform="translate(75.000000, 105.000000)" fill-rule="nonzero">
            <g id="Group" transform="translate(88.000000, 44.000000)" fill="#0A1244">
                <path d="M27.685546,9.98227273 L25.3785986,9.98227273 C24.9689223,8.16254545 24.421568,6.807 23.7331776,5.92236364 C23.4328713,5.53688803 23.082822,5.19303789 22.6921969,4.89981818 C22.3267019,4.63971849 21.9170993,4.44824988 21.4833162,4.33472727 C20.9824238,4.20330646 20.4692497,4.12439756 19.9520673,4.09927273 C19.3812069,4.069 18.7096065,4.05218182 17.9372661,4.05218182 L11.8458504,4.05218182 L11.8458504,16.2319091 L14.0587737,16.2319091 C15.2206424,16.2319091 16.4160911,16.2722727 17.6417619,16.3563636 C18.8707906,16.4370909 20.0662393,16.6019091 21.2281081,16.8474545 C22.3899768,17.093 23.4880434,17.4327273 24.5189501,17.8666364 C25.5498567,18.3039091 26.4531592,18.8757273 27.2322157,19.5787273 C28.0112722,20.2850909 28.6224285,21.1495455 29.0724008,22.1720909 C29.5223731,23.198 29.7507172,24.4089091 29.7507172,25.8048182 C29.7833564,28.0577359 28.8795887,30.2228635 27.2557217,31.782 C26.4968133,32.522 25.6203747,33.1240909 24.6297641,33.5916364 C23.6439501,34.0565267 22.5986514,34.382528 21.5236122,34.5603636 C19.3320813,34.924612 17.1162113,35.1225084 14.8949162,35.1523636 C9.93183406,35.2176437 4.96798215,35.1110649 0.0122511723,34.8328182 L0.0122511723,32.5186364 C1.10695984,32.485 1.96996636,32.3941818 2.60127074,32.2360909 C3.13040607,32.130344 3.62457966,31.8932516 4.03849562,31.5465455 C4.37227027,31.2296305 4.59189516,30.8109334 4.663084,30.3558182 C4.75375005,29.8613636 4.79740408,29.2727273 4.79740408,28.5831818 L4.79740408,7.52345455 C4.79740408,6.83390909 4.75375005,6.24527273 4.663084,5.75081818 C4.59109168,5.29111925 4.37188344,4.86731388 4.03849562,4.54327273 C3.62508694,4.19043459 3.12569558,3.95366714 2.59119674,3.85709091 C1.74187138,3.68660465 0.878420696,3.59651096 0.0122511723,3.588 L0.0122511723,1.32090909 L27.4404118,1.32090909 L27.685546,9.98227273 Z M22.1851386,25.7543636 C22.1851386,24.3281818 21.9970905,23.1710909 21.6209943,22.2830909 C21.2880815,21.4537982 20.7253098,20.7371904 19.9990793,20.2178182 C19.2353843,19.7022781 18.3673242,19.3622822 17.4570718,19.2221818 C16.349376,19.0404273 15.2282054,18.953779 14.1057857,18.9631818 L11.8458504,18.9631818 L11.8458504,31.8055455 C12.2253046,31.9871818 12.6181908,32.1351818 13.0379411,32.2495455 C13.4543333,32.3639091 14.0251937,32.4210909 14.7438061,32.4210909 C15.7780707,32.4210909 16.7418173,32.3033636 17.6417619,32.0645455 C18.5417064,31.8290909 19.3274789,31.4456364 19.9990793,30.9209091 C20.6706797,30.3961818 21.204602,29.71 21.5974883,28.8690909 C21.9903745,28.0214545 22.1851386,26.9854545 22.1851386,25.7543636 Z M67.6189062,34.6848182 L51.9269627,34.6848182 L51.9269627,32.4210909 C53.2533735,32.4210909 54.2204781,32.3269091 54.8249185,32.1385455 C55.4293588,31.9501818 55.731579,31.5028182 55.731579,30.7964545 C55.731579,30.3053636 55.6341969,29.8041818 55.4394328,29.2962727 L53.8678879,25.3608182 L43.0618373,25.3608182 L42.2525588,27.5236364 C41.7925125,28.7379091 41.5641684,29.6158182 41.5641684,30.1573636 C41.5641684,31.1429091 41.9469806,31.7651818 42.7058891,32.0275455 C43.4681556,32.2899091 44.3546681,32.4210909 45.3721427,32.4210909 L45.3721427,34.6848182 L33.9045657,34.6848182 L33.9045657,32.4210909 C34.8213003,32.4210909 35.5969988,32.2495455 36.2350192,31.9030909 C36.8730396,31.56 37.4841959,30.9074545 38.0651303,29.9488182 C38.6460646,28.9901818 39.274011,27.6312727 39.9456114,25.8788182 L49.5461392,0.681818182 L51.8799507,0.681818182 L62.0211168,26.6625455 C62.7598773,28.5024545 63.2971576,29.7436364 63.6396738,30.3928182 C63.985548,31.0386364 64.4590263,31.5398182 65.0668247,31.893 C65.671265,32.2461818 66.5208396,32.4210909 67.6189062,32.4210909 L67.6189062,34.6848182 Z M52.9847333,22.9457273 L48.3909865,11.3109091 L44.0188679,22.9490909 L52.9847333,22.9490909 L52.9847333,22.9457273 Z M110.450222,34.6848182 L94.0698883,34.6848182 L94.0698883,32.4210909 C95.4130891,32.4210909 96.4272057,32.2730909 97.1155961,31.9770909 C97.8039865,31.6844545 98.2438848,31.2572727 98.4420069,30.6989091 C98.636771,30.1405455 98.7375111,29.4039091 98.7375111,28.4856364 L98.7375111,18.4720909 L83.2907017,18.4720909 L83.2907017,28.4856364 C83.2907017,29.8647273 83.5761319,30.8637273 84.1503503,31.486 C84.7212106,32.1082727 86.0308314,32.4210909 88.0792126,32.4210909 L88.0792126,34.6848182 L71.5779906,34.6848182 L71.5779906,32.4210909 C72.9044014,32.4210909 73.91516,32.2730909 74.6102665,31.9770909 C75.3053729,31.6844545 75.7553452,31.2606364 75.9601833,30.7123636 C76.1616634,30.1607273 76.2657615,29.4207273 76.2657615,28.4856364 L76.2657615,7.52345455 C76.2657615,6.58836364 76.1683794,5.85172727 75.9736153,5.32027273 C75.7754932,4.78545455 75.3423109,4.365 74.6707105,4.05218182 C73.9991101,3.73936364 72.9682035,3.58463636 71.5779906,3.58463636 L71.5779906,1.32090909 L88.0792126,1.32090909 L88.0792126,3.58463636 C86.0476214,3.58463636 84.7447166,3.88736364 84.1604243,4.49281818 C83.5794899,5.10163636 83.2873437,6.11072727 83.2873437,7.52009091 L83.2873437,15.7408182 L98.7341531,15.7408182 L98.7341531,7.52345455 C98.7341531,6.58836364 98.6468451,5.85172727 98.4655129,5.32027273 C98.2875388,4.78545455 97.8610726,4.365 97.1894722,4.05218182 C96.5178718,3.73936364 95.4768911,3.58463636 94.0698883,3.58463636 L94.0698883,1.32090909 L110.450222,1.32090909 L110.450222,3.58463636 C109.060009,3.58463636 108.025745,3.73936364 107.354144,4.05554545 C106.682544,4.365 106.256078,4.78545455 106.06803,5.32027273 C105.876623,5.85172727 105.782599,6.58836364 105.782599,7.52345455 L105.782599,28.4856364 C105.782599,29.3870909 105.869907,30.1035455 106.041166,30.6383636 C106.212424,31.1698182 106.645606,31.6003636 107.330638,31.93 C108.019029,32.2562727 109.060009,32.4210909 110.450222,32.4210909 L110.450222,34.6848182 Z M151.216367,34.6848182 L142.30423,34.6848182 C141.506497,33.6808115 140.752481,32.6427206 140.044294,31.5734545 C139.355904,30.5307273 138.701093,29.488 138.066431,28.4351818 C137.438485,27.3857273 136.813896,26.343 136.20274,25.3103636 C135.584552,24.2704833 134.941875,23.2454082 134.275247,22.236 C133.95813,21.7401975 133.591326,21.2781066 133.180538,20.8569091 C132.82569,20.5166494 132.39697,20.263361 131.928003,20.1169091 C131.309284,19.9344142 130.668896,19.8359888 130.024016,19.8242727 C129.255034,19.7906364 128.234201,19.7738182 126.954802,19.7738182 L126.954802,28.4856364 C126.954802,29.2054545 127.02532,29.8176364 127.162998,30.3188182 C127.304034,30.8166364 127.552527,31.227 127.915191,31.5364545 C128.274497,31.8459091 128.768123,32.0746364 129.399428,32.2091818 C130.030732,32.3504545 130.826579,32.4210909 131.793683,32.4210909 L131.793683,34.6848182 L115.144709,34.6848182 L115.144709,32.4210909 C116.225986,32.4042727 117.078918,32.3201818 117.710223,32.1620909 C118.238018,32.058452 118.729155,31.8171122 119.134015,31.4624545 C119.462615,31.1344167 119.681943,30.7126477 119.761962,30.2549091 C119.859344,29.7638182 119.91643,29.1751818 119.929862,28.4856364 L119.929862,7.52345455 C119.929862,6.83390909 119.886208,6.24527273 119.795542,5.75081818 C119.725059,5.294502 119.50538,4.87451977 119.170954,4.55672727 C118.757038,4.21002117 118.262864,3.97292873 117.733729,3.86718182 C116.88242,3.68592554 116.015011,3.59126329 115.144709,3.58463636 L115.144709,1.32090909 L131.793683,1.32090909 L131.793683,3.58463636 C129.745302,3.58463636 128.428965,3.88063636 127.841315,4.46927273 C127.250306,5.06127273 126.954802,6.07709091 126.954802,7.52345455 L126.954802,16.3294545 C127.233516,16.3294545 127.559243,16.2621818 127.938697,16.1209091 C128.314793,15.983 128.798345,15.6970909 129.385996,15.2732727 C129.977004,14.8460909 130.688901,14.2271818 131.525043,13.4131818 C132.357828,12.6025455 133.382018,11.5295455 134.594257,10.2042727 C135.346449,9.34990909 135.971038,8.62336364 136.457948,8.01454545 C136.951574,7.40909091 137.398189,6.85409091 137.797791,6.35290909 C138.200751,5.85172727 138.617143,5.36736364 139.050326,4.89981818 C139.486866,4.43563636 140.020788,3.91427273 140.658809,3.33909091 C141.196089,2.86481818 141.713221,2.45781818 142.20349,2.12145455 C142.697116,1.78509091 143.187384,1.516 143.68101,1.31081818 C144.171279,1.10563636 144.681695,0.957636364 145.212259,0.866818182 C145.746182,0.776 146.3204,0.732272727 146.944988,0.732272727 C147.270715,0.732272727 147.586367,0.765909091 147.891945,0.843272727 C148.194165,0.913909091 148.459447,1.035 148.687791,1.19981818 C148.911096,1.35702985 149.095937,1.56288042 149.22843,1.80190909 C149.36275,2.03736364 149.426552,2.33 149.426552,2.67645455 C149.427581,3.13945936 149.31209,3.59525554 149.090752,4.00172727 C148.872482,4.41209091 148.425867,4.74172727 147.754267,4.98727273 C147.015506,5.24963636 146.296894,5.44136364 145.595072,5.56581818 C144.889891,5.69027273 144.275377,5.85845455 143.751528,6.07036364 C143.430327,6.1961343 143.111271,6.32733486 142.794498,6.46390909 C142.451982,6.61190909 142.089317,6.79690909 141.713221,7.01890909 C140.813521,7.55902004 139.989234,8.21616306 139.26188,8.97318182 C138.882425,9.36672727 138.432453,9.86790909 137.908605,10.4733636 C136.639478,11.9378676 135.294424,13.3345799 133.879002,14.6577273 C133.073195,15.4155975 132.220836,16.1222205 131.326921,16.7734545 C131.6697,16.742184 132.013638,16.7253509 132.357828,16.723 C133.274562,16.723 134.114063,16.7801818 134.876329,16.8945455 C135.635238,17.0122727 136.35385,17.2208182 137.035524,17.5235455 C137.717199,17.8262727 138.358577,18.2534545 138.963018,18.8017273 C139.567458,19.3533636 140.18533,20.0698182 140.806561,20.9544545 C141.871047,22.4983636 142.918744,24.0557273 143.949651,25.6299091 C144.980557,27.2040909 146.078624,28.7648182 147.240493,30.3053636 C147.746603,30.9711833 148.396311,31.5138988 149.141122,31.893 C149.493712,32.0645455 149.846302,32.1957273 150.198892,32.2865455 C150.551483,32.3773636 150.890641,32.4210909 151.216367,32.4210909 L151.216367,34.6848182 Z M199.944335,23.2181818 C199.944335,25.122 199.457424,26.8172727 198.483604,28.3140909 C197.509783,29.8041818 196.190088,31.0689091 194.521161,32.1015455 C192.703976,33.1953101 190.726683,33.9966346 188.661448,34.4762727 C186.325755,35.0374843 183.930962,35.3141833 181.529051,35.3003636 C179.809754,35.3003636 178.221419,35.1725455 176.764046,34.9202727 C175.467826,34.7110227 174.199393,34.3555815 172.982936,33.8607273 C171.91845,33.41 171.089023,32.8617273 170.491299,32.2125455 C169.924457,31.6389792 169.602874,30.8668497 169.594712,30.0598182 C169.594712,29.2525455 169.863352,28.6067273 170.403991,28.1156364 C170.944629,27.6245455 171.763981,27.3756364 172.85869,27.3756364 C173.809005,27.3756364 174.598135,27.6144545 175.22944,28.0920909 C175.860744,28.5663636 176.512196,29.3130909 177.180439,30.3289091 C177.475943,30.7729091 177.791595,31.1294545 178.127395,31.4019091 C178.463196,31.671 178.82586,31.8795455 179.218746,32.0275455 C179.611632,32.1755455 180.038098,32.2697273 180.494787,32.3100909 C180.954833,32.3504545 181.455175,32.3706364 181.995814,32.3706364 C183.533779,32.3706364 184.920633,32.2192727 186.159736,31.9165455 C187.392123,31.6138182 188.443178,31.1429091 189.3129,30.5038182 C190.179265,29.8647273 190.844149,29.0473636 191.300837,28.0550909 C191.760884,27.0628182 191.989228,25.8855455 191.989228,24.5232727 C191.989228,23.3258182 191.854908,22.2763636 191.586267,21.3749091 C191.360798,20.5605138 190.976146,19.799065 190.454621,19.1347273 C189.988269,18.5570509 189.389121,18.1011656 188.70846,17.8060909 C187.458324,17.2755059 186.058031,17.2193046 184.769523,17.648 C184.124104,17.8548091 183.506177,18.1394423 182.929338,18.4956364 C182.240948,18.9228182 181.676803,19.2356364 181.233547,19.4307273 C180.888992,19.6030388 180.51319,19.7037262 180.128765,19.7267273 C179.716174,19.7289706 179.31166,19.6122003 178.963538,19.3903636 C178.610948,19.1717273 178.432973,18.8723636 178.432973,18.4956364 C178.432973,18.1189091 178.600874,17.7791818 178.936674,17.4730909 C179.272474,17.1703636 179.776174,16.8541818 180.447775,16.5279091 C181.858136,15.8383636 183.067016,15.2295455 184.081133,14.7048182 C185.098608,14.1800909 185.914602,13.7293636 186.53919,13.3526364 C187.308173,12.8951818 187.999921,12.4579091 188.614436,12.0475455 C189.225592,11.6405455 189.74944,11.2133636 190.185981,10.7693636 C190.619163,10.3253636 190.954963,9.86118182 191.193381,9.36672727 C191.428441,8.87563636 191.545971,8.31727273 191.545971,7.695 C191.545971,6.955 191.428441,6.31927273 191.190023,5.78781818 C190.944127,5.24468518 190.547891,4.78358016 190.048303,4.45918182 C189.423429,4.06789682 188.727145,3.80492317 187.999921,3.68554545 C186.982445,3.50587631 185.950345,3.42253905 184.917275,3.43663636 C183.886369,3.43663636 182.912548,3.52409091 181.995814,3.69563636 C181.16874,3.84063015 180.36093,4.07988114 179.588126,4.40872727 C178.899736,4.71145455 178.355739,5.068 177.956137,5.47836364 C177.579188,5.82920328 177.360976,6.31857408 177.351697,6.83390909 C177.351697,7.19381818 177.442363,7.48645455 177.623695,7.70845455 C177.799282,7.92479201 177.992469,8.12617845 178.201271,8.31054545 C178.402751,8.48881818 178.597516,8.68054545 178.778848,8.88572727 C178.956822,9.09090909 179.047488,9.36672727 179.047488,9.71318182 C179.06616,10.127489 178.940314,10.5353916 178.69154,10.8669091 C178.456092,11.1605194 178.153038,11.39252 177.808385,11.543 C177.455795,11.7010909 177.069625,11.8087273 176.653232,11.8659091 C176.23684,11.9230909 175.847312,11.95 175.488006,11.95 C174.702233,11.95 174.050781,11.8322727 173.533649,11.5934545 C173.063078,11.3901921 172.646711,11.0791213 172.318052,10.6852727 C172.025906,10.3152727 171.814351,9.91163636 171.693463,9.46427273 C171.575543,9.05635063 171.513413,8.63429009 171.508773,8.20963636 C171.508773,7.769 171.609513,7.27454545 171.804277,6.733 C171.999042,6.19481818 172.324768,5.64654545 172.77474,5.09827273 C173.224712,4.55 173.805647,4.01181818 174.517543,3.48372727 C175.22944,2.96236364 176.095804,2.49818182 177.106563,2.09790909 C178.124037,1.69427273 179.306054,1.37136364 180.655971,1.12245455 C182.005888,0.880272727 183.550569,0.752454545 185.286656,0.752454545 C189.705786,0.752454545 193.04364,1.257 195.293502,2.26609091 C197.543363,3.27518182 198.668294,4.86618182 198.668294,7.029 C198.668294,7.917 198.453382,8.72763636 198.016841,9.46427273 C197.583659,10.2042727 196.975861,10.8837273 196.190088,11.5093636 C195.312689,12.1892098 194.366082,12.7743624 193.366009,13.2550909 C192.267942,13.7932727 191.065777,14.3112727 189.756156,14.8023636 C191.327701,14.7384545 192.738062,14.8494545 193.990597,15.1387273 C195.243132,15.4246364 196.310976,15.9123636 197.194131,16.6019091 C198.080643,17.2880909 198.75896,18.1794545 199.232438,19.2692727 C199.709274,20.3624545 199.944335,21.6776364 199.944335,23.2181818 Z M235.555946,23.7126364 L235.287306,34.6848182 L205.622716,34.6848182 L205.622716,32.4210909 C207.671097,32.4210909 208.987434,32.1250909 209.575084,31.5364545 C210.166093,30.9444545 210.461597,29.9286364 210.461597,28.4856364 L210.461597,7.52345455 C210.461597,6.57154545 210.364215,5.82818182 210.176167,5.29672727 C209.988119,4.76190909 209.54822,4.34481818 208.853114,4.03872727 C208.15465,3.736 207.080089,3.58463636 205.622716,3.58463636 L205.622716,1.32090909 L233.248999,1.32090909 L233.688897,9.98227273 L231.43232,9.98227273 C230.925261,8.065 230.337611,6.68927273 229.676085,5.86181818 C229.0112,5.031 228.265724,4.52309091 227.439655,4.33472727 C226.613587,4.14636364 225.374484,4.05218182 223.718989,4.05218182 L217.483179,4.05218182 L217.483179,15.8383636 L220.874761,15.8383636 C222.033272,15.8383636 222.902994,15.7374545 223.473855,15.5289091 C224.030354,15.3410335 224.473013,14.9124529 224.679378,14.3617273 C224.907722,13.7899091 225.06219,12.8850909 225.14614,11.654 L227.503457,11.654 L227.503457,22.754 L225.243522,22.754 C225.176362,21.5229091 225.015178,20.6147273 224.753254,20.0328182 C224.525296,19.4833322 224.07284,19.0582905 223.510793,18.8656364 C222.946649,18.6671818 222.083642,18.5696364 220.921773,18.5696364 L217.483179,18.5696364 L217.483179,26.417 C217.483179,27.7288182 217.516759,28.6908182 217.583919,29.2962727 C217.647721,29.9017273 217.822337,30.4062727 218.107768,30.8099091 C218.396556,31.2135455 218.863318,31.5028182 219.508054,31.6844545 C220.156149,31.8627273 221.076241,31.9535455 222.27169,31.9535455 L224.948018,31.9535455 C226.079664,31.9535455 227.154225,31.8089091 228.178416,31.523 C229.199248,31.2370909 230.203291,30.4970909 231.187186,29.3097273 C232.167722,28.119 232.856113,26.2555455 233.248999,23.7126364 L235.555946,23.7126364 Z M279.787549,34.6848182 L263.407215,34.6848182 L263.407215,32.4210909 C264.750416,32.4210909 265.764533,32.2730909 266.452923,31.9770909 C267.141313,31.6844545 267.581212,31.2572727 267.779334,30.6989091 C267.974098,30.1405455 268.074838,29.4039091 268.074838,28.4856364 L268.074838,18.4720909 L252.628029,18.4720909 L252.628029,28.4856364 C252.628029,29.8647273 252.913459,30.8637273 253.487677,31.486 C254.058537,32.1082727 255.368158,32.4210909 257.416539,32.4210909 L257.416539,34.6848182 L240.915317,34.6848182 L240.915317,32.4210909 C242.241728,32.4210909 243.252487,32.2730909 243.947593,31.9770909 C244.6427,31.6844545 245.092672,31.2606364 245.29751,30.7123636 C245.49899,30.1607273 245.603088,29.4207273 245.603088,28.4856364 L245.603088,7.52345455 C245.603088,6.58836364 245.505706,5.85172727 245.310942,5.32027273 C245.11282,4.78545455 244.679638,4.365 244.008037,4.05218182 C243.336437,3.73936364 242.30553,3.58463636 240.915317,3.58463636 L240.915317,1.32090909 L257.416539,1.32090909 L257.416539,3.58463636 C255.384948,3.58463636 254.082043,3.88736364 253.497751,4.49281818 C252.916817,5.10163636 252.624671,6.11072727 252.624671,7.52009091 L252.624671,15.7408182 L268.07148,15.7408182 L268.07148,7.52345455 C268.07148,6.58836364 267.984172,5.85172727 267.80284,5.32027273 C267.624866,4.78545455 267.198399,4.365 266.526799,4.05218182 C265.855199,3.73936364 264.814218,3.58463636 263.407215,3.58463636 L263.407215,1.32090909 L279.787549,1.32090909 L279.787549,3.58463636 C278.393978,3.58463636 277.363072,3.73936364 276.691471,4.05554545 C276.019871,4.365 275.593404,4.78545455 275.405356,5.32027273 C275.21395,5.85172727 275.119926,6.58836364 275.119926,7.52345455 L275.119926,28.4856364 C275.119926,29.3870909 275.207234,30.1035455 275.378492,30.6383636 C275.54975,31.1698182 275.982933,31.6003636 276.667965,31.93 C277.356356,32.2562727 278.393978,32.4210909 279.787549,32.4210909 L279.787549,34.6848182 Z M323.45165,34.6848182 L307.074674,34.6848182 L307.074674,32.4210909 C308.10558,32.4042727 308.928291,32.3201818 309.542805,32.1620909 C310.0672,32.0523384 310.553576,31.8064226 310.953166,31.449 C311.286029,31.1186799 311.508866,30.6934043 311.591186,30.2313636 C311.691926,29.7402727 311.738938,29.155 311.738938,28.4822727 L311.738938,10.9409091 L296.292129,28.9262727 C296.325709,29.5317273 296.406301,30.0598182 296.537263,30.5038182 C296.671583,30.9444545 296.906643,31.3043636 297.24916,31.5835455 C297.595034,31.8627273 298.068512,32.0712727 298.67631,32.2125455 C299.280751,32.3504545 300.083313,32.4210909 301.08064,32.4210909 L301.08064,34.6848182 L284.579418,34.6848182 L284.579418,32.4210909 C285.593535,32.4042727 286.409529,32.3201818 287.024043,32.1620909 C287.549398,32.0512764 288.038805,31.8107874 288.447836,31.4624545 C288.789295,31.1393775 289.020714,30.7169477 289.109363,30.2549091 C289.216819,29.7638182 289.270547,29.1751818 289.270547,28.4856364 L289.270547,7.52345455 C289.253757,6.85072727 289.203387,6.27218182 289.109363,5.78781818 C289.033918,5.33139943 288.819252,4.90957167 288.494848,4.58027273 C288.101326,4.22160585 287.618892,3.97533803 287.097919,3.86718182 C286.270436,3.68598893 285.426416,3.59129999 284.579418,3.58463636 L284.579418,1.32090909 L301.08064,1.32090909 L301.08064,3.58463636 C299.052407,3.58463636 297.742786,3.88736364 297.151778,4.49281818 C296.580917,5.11845455 296.292129,6.12754545 296.292129,7.52009091 L296.292129,24.7688182 L311.715432,6.78345455 C311.69411,6.3125053 311.615166,5.84595733 311.480372,5.39427273 C311.359744,5.00876356 311.125649,4.66875631 310.808772,4.41881818 C310.395963,4.1194793 309.920552,3.91818309 309.418559,3.83018182 C308.645927,3.67989252 307.86163,3.59772961 307.074674,3.58463636 L307.074674,1.32090909 L323.45165,1.32090909 L323.45165,3.58463636 C322.387163,3.61827273 321.55102,3.71245455 320.933148,3.86718182 C320.412175,3.97533803 319.929742,4.22160585 319.536219,4.58027273 C319.211586,4.90810164 318.999838,5.33112891 318.931779,5.78781818 C318.842957,6.36224208 318.794706,6.94222751 318.787385,7.52345455 L318.787385,28.4856364 C318.787385,29.0910909 318.820965,29.636 318.898199,30.1203636 C318.972075,30.6047273 319.163481,31.0184545 319.475775,31.3649091 C319.784711,31.708 320.251474,31.9703636 320.872704,32.152 C321.497292,32.3302727 322.356941,32.4210909 323.45165,32.4210909 L323.45165,34.6848182 Z M361.24932,10.7929091 L358.915509,10.7929091 C358.703955,8.72763636 358.250625,7.20054545 357.55216,6.21836364 C356.857054,5.23281818 356.108219,4.62736364 355.305657,4.39863636 C354.401517,4.15529048 353.468059,4.03869544 352.531947,4.05218182 L348.307581,4.05218182 L348.307581,28.4856364 C348.307581,29.451 348.408321,30.2010909 348.603085,30.7359091 C348.797849,31.2707273 349.257895,31.6844545 349.979866,31.9804545 C350.698478,32.2730909 351.752891,32.4210909 353.146462,32.4210909 L353.146462,34.6848182 L336.447117,34.6848182 L336.447117,32.4210909 C338.495499,32.4210909 339.811835,32.1250909 340.399486,31.5364545 C340.990494,30.9444545 341.285998,29.9286364 341.285998,28.4856364 L341.285998,4.05218182 L337.750022,4.05218182 C336.356451,4.05218182 335.201299,4.16318182 334.284564,4.38518182 C333.36783,4.60718182 332.561909,5.21263636 331.866803,6.20490909 C331.171696,7.19718182 330.775452,8.72763636 330.674712,10.7929091 L328.344259,10.7929091 L328.344259,1.32090909 L361.24932,1.32090909 L361.24932,10.7929091 Z" id="Shape"></path>
            </g>
            <g id="Group">
                <path d="M6.58333333,76.7871481 C28.9066667,67.7646667 43.54,56.2278889 50.4733333,42.1734444 L50.4733333,84.3401481 L6.58333333,84.3401481 C6.75666667,82.9380741 6.75666667,80.4204074 6.58333333,76.7871481 Z" id="Shape" fill="url(#linearGradient-1)"></path>
                <path d="M24.14,24.414963 C29.17,29.2548148 35.7533333,32.0185185 43.89,32.7161852 L43.89,43.8282963 C38.6733333,52.8103333 32.09,59.2747037 24.14,63.2214074 C24.2066667,54.027037 24.14,34.3878889 24.14,24.414963 Z" id="Shape" fill="url(#linearGradient-1)"></path>
                <polygon id="Shape" fill="#10C8D2" points="54.8633333 35.5135926 49 35.5135926 49 33.2925185 57.0566667 33.2925185 57.0566667 91 0 91 0 33.2925185 19.1066667 33.2925185 19.1066667 35.5135926 2.19333333 35.5135926 2.19333333 88.7755556 54.8666667 88.7755556"></polygon>
                <path d="M26.3333333,0 C29.2666667,4.23992593 32.9233333,7.32718519 37.3066667,9.25840741 C37.3066667,16.1676667 37.3333333,22.4028519 37.3066667,26.9932963 C33.28,26.9932963 29.62,24.5902222 26.3333333,19.7908148 L26.3333333,0 Z" id="Shape" fill="url(#linearGradient-1)"></path>
            </g>
        </g>
    </g>
</svg>