<?xml version="1.0" encoding="UTF-8"?>
<svg width="600px" height="300px" viewBox="0 0 600 300" version="1.1" xmlns="http://www.w3.org/2000/svg" xmlns:xlink="http://www.w3.org/1999/xlink">
    <!-- Generator: Sketch 50 (54983) - http://www.bohemiancoding.com/sketch -->
    <title>Artboard</title>
    <desc>Created with Sketch.</desc>
    <defs>
        <linearGradient x1="100%" y1="87.8597856%" x2="0%" y2="87.8597862%" id="linearGradient-1">
            <stop stop-color="#B8F6F7" offset="0%"></stop>
            <stop stop-color="#00CCD5" offset="100%"></stop>
        </linearGradient>
    </defs>
    <g id="Artboard" stroke="none" stroke-width="1" fill="none" fill-rule="evenodd">
        <rect id="Rectangle-3" x="75" y="75" width="450" height="250"></rect>
        <g id="logo-en-(1)" transform="translate(77.000000, 86.000000)" fill-rule="nonzero">
            <path d="M143.964783,94.9756098 C143.964783,96.8292777 143.491101,98.3455226 142.543723,99.5243901 C141.596344,100.703258 140.395805,101.597558 138.942068,102.207317 C137.488332,102.817076 136.067285,103.219511 134.678886,103.414634 C133.290486,103.609757 131.951109,103.707317 130.660714,103.707317 L114,103.707317 L114,101.463415 C115.421068,101.463415 116.470519,101.317075 117.148385,101.02439 C117.826251,100.731706 118.267265,100.317076 118.471442,99.7804878 C118.675618,99.2438996 118.777705,98.5040696 118.777705,97.5609756 L118.777705,76.6829268 C118.777705,75.219505 118.475528,74.2032549 117.871166,73.6341463 C117.266804,73.0650377 115.976428,72.7804878 114,72.7804878 L114,70.4878049 C116.368447,70.4390241 118.622521,70.3902442 120.76229,70.3414634 C122.902059,70.2926826 124.662033,70.2560977 126.042266,70.2317075 C127.422498,70.2073169 128.39028,70.195122 128.94564,70.195122 L129.852179,70.195122 C131.550927,70.195122 133.327235,70.3699169 135.181157,70.7195124 C137.035079,71.0691075 138.725635,71.8617825 140.252874,73.097561 C141.780114,74.3333395 142.543723,76.1138095 142.543723,78.4390244 C142.543723,80.1788706 141.923035,81.6747904 140.681643,82.9268293 C139.44025,84.1788681 137.406683,85.211378 134.580882,86.0243902 C136.508307,86.3658552 138.186612,86.9390205 139.615847,87.7439026 C141.045082,88.5487844 142.127201,89.5690996 142.862236,90.804878 C143.597271,92.0406565 143.964783,93.4308867 143.964783,94.9756098 Z M135.536422,78.6341463 C135.536422,77.4959291 135.26283,76.5000042 134.715637,75.6463416 C134.168444,74.7926787 133.359918,74.1260188 132.290034,73.6463416 C131.220149,73.1666641 129.909356,72.9268293 128.357615,72.9268293 L125.785005,72.9268293 L125.785005,84.7804878 L127.794091,84.7804878 C130.423883,84.7804878 132.371697,84.2276477 133.637591,83.1219512 C134.903485,82.0162548 135.536422,80.5203347 135.536422,78.6341463 Z M136.442961,94.5609756 C136.442961,92.3170619 135.859025,90.5731768 134.691136,89.3292681 C133.523247,88.0853598 131.87761,87.4634146 129.754175,87.4634146 L125.785005,87.4634146 L125.785005,96.0731707 C125.785005,97.2764288 125.858507,98.2154437 126.005514,98.8902437 C126.152521,99.5650441 126.520033,100.085364 127.108061,100.451219 C127.696089,100.817075 128.62712,101 129.901181,101 C131.599929,101 133.114896,100.48781 134.446126,99.4634146 C135.777356,98.4390194 136.442961,96.8048893 136.442961,94.5609756 Z M180.646775,103.707317 L164.990604,103.707317 L164.990604,101.463415 C166.313667,101.463415 167.277366,101.36992 167.881728,101.182927 C168.48609,100.995934 168.788267,100.552849 168.788267,99.8536585 C168.788267,99.3658512 168.690263,98.8699211 168.494254,98.3658537 L166.926187,94.4634146 L156.145725,94.4634146 L155.337191,96.6097561 C154.879835,97.8130142 154.651161,98.682924 154.651161,99.2195122 C154.651161,100.195127 155.030923,100.813007 155.79046,101.073171 C156.549996,101.333335 157.436109,101.463415 158.448824,101.463415 L158.448824,103.707317 L147.006834,103.707317 L147.006834,101.463415 C147.921544,101.463415 148.697403,101.292684 149.334433,100.95122 C149.971464,100.609755 150.579901,99.9634195 151.159761,99.0121953 C151.739623,98.0609708 152.364393,96.715456 153.034092,94.9756098 L162.614002,70 L164.941602,70 L175.060535,95.7560976 C175.79557,97.577245 176.334588,98.80894 176.677605,99.4512197 C177.020621,100.093499 177.494303,100.589429 178.098665,100.939024 C178.703028,101.28862 179.552389,101.463415 180.646775,101.463415 L180.646775,103.707317 Z M166.044149,92.0731707 L161.462453,80.5365854 L157.101266,92.0731707 L166.044149,92.0731707 Z M220.685409,72.8780488 C219.101,72.8780488 217.965796,73.0365836 217.279763,73.3536587 C216.59373,73.6707334 216.16905,74.1382082 216.005709,74.7560976 C215.842368,75.373987 215.760698,76.3821068 215.760698,77.7804878 L215.760698,104 L213.506602,104 L191.774171,78.2926829 L191.774171,96.5121951 C191.774171,97.8943157 191.859924,98.8983708 192.031432,99.5243901 C192.20294,100.15041 192.639871,100.63008 193.342238,100.963415 C194.044605,101.29675 195.179809,101.463415 196.747884,101.463415 L196.747884,103.707317 L184.399355,103.707317 L184.399355,101.463415 C185.869425,101.463415 186.93521,101.29675 187.596742,100.963415 C188.258274,100.63008 188.666621,100.15041 188.821795,99.5243901 C188.976969,98.8983708 189.054554,97.8943157 189.054554,96.5121951 L189.054554,79.6341463 C189.054554,78.2682858 189.017803,77.2439059 188.9443,76.5609756 C188.870796,75.8780453 188.695207,75.2804905 188.417527,74.7682928 C188.139847,74.2560949 187.686582,73.8414651 187.057719,73.5243901 C186.428856,73.2073154 185.559077,72.9918704 184.448357,72.8780488 L184.448357,70.6341463 L194.126272,70.6341463 L213.041082,92.8780488 L213.041082,77.7804878 C213.041082,76.5447093 212.955329,75.5975643 212.783821,74.9390242 C212.612313,74.2804845 212.187632,73.7723595 211.509766,73.4146341 C210.831901,73.0569088 209.757949,72.8780488 208.287878,72.8780488 L208.287878,70.6341463 L220.685409,70.6341463 L220.685409,72.8780488 Z M263.66417,103.707317 L245.21488,103.707317 L245.21488,101.463415 L246.709444,101.463415 C247.983505,101.463415 248.853283,101.38618 249.318806,101.231707 C249.784328,101.077235 250.017085,100.80488 250.017085,100.414634 C250.017085,99.8455255 249.347397,98.6260255 248.007999,96.7560976 L240.878194,86.7317073 L236.664014,90.4146341 L236.664014,97.5609756 C236.664014,99.0081374 236.998858,100.020322 237.668557,100.597561 C238.338255,101.1748 239.612297,101.463415 241.49072,101.463415 L241.49072,103.707317 L224.879009,103.707317 L224.879009,101.463415 C226.300077,101.463415 227.349528,101.317075 228.027394,101.02439 C228.705259,100.731706 229.146274,100.317076 229.35045,99.7804878 C229.554627,99.2438996 229.656713,98.5040696 229.656713,97.5609756 L229.656713,76.7804878 C229.656713,75.8373938 229.562794,75.1016286 229.374952,74.5731709 C229.187109,74.0447129 228.746094,73.6300828 228.051895,73.3292681 C227.357695,73.0284538 226.300077,72.8780488 224.879009,72.8780488 L224.879009,70.6341463 L241.49072,70.6341463 L241.49072,72.8780488 C239.448956,72.8780488 238.134079,73.1707289 237.546051,73.7560976 C236.958023,74.3414662 236.664014,75.3495864 236.664014,76.7804878 L236.664014,86.7317073 L247.003456,77.7317073 C247.722157,77.1138179 248.244841,76.5813029 248.571524,76.1341465 C248.898206,75.6869897 249.061545,75.1869946 249.061545,74.6341463 C249.061545,73.4634087 247.942674,72.8780488 245.704901,72.8780488 L245.704901,70.6341463 L260.87105,70.6341463 L260.87105,72.8780488 C259.694994,72.9756104 258.735379,73.1138201 257.992177,73.2926829 C257.248975,73.4715458 256.526201,73.7642256 255.823834,74.1707317 C255.121467,74.5772379 254.353775,75.1138179 253.520736,75.7804878 C252.687696,76.4471577 251.372819,77.5609678 249.576067,79.1219512 L246.096918,82.1219512 L255.897337,96.0243902 C256.942721,97.5040724 257.800249,98.6056876 258.469948,99.3292681 C259.139646,100.052849 259.858336,100.577234 260.62604,100.902439 C261.393743,101.227644 262.406443,101.414634 263.66417,101.463415 L263.66417,103.707317 Z M311.743069,93.8780488 L311.179545,103.707317 L281.87629,103.707317 L281.87629,101.414634 L301.746641,73.3414634 L293.979808,73.3414634 C292.101385,73.3414634 290.615003,73.4430885 289.520617,73.6463416 C288.426232,73.8495944 287.466617,74.3943046 286.641744,75.2804876 C285.816871,76.166671 285.265603,77.5690961 284.987923,79.4878049 L282.635822,79.4878049 L283.248349,70.6341463 L310.59152,70.6341463 L310.59152,72.8292683 L290.721169,101 L300.252077,101 C301.460801,101 302.469418,100.95122 303.277957,100.853659 C304.086495,100.756097 304.919522,100.487807 305.777064,100.04878 C306.634605,99.6097539 307.385963,98.902444 308.03116,97.9268293 C308.676358,96.9512145 309.16229,95.6016347 309.488972,93.8780488 L311.743069,93.8780488 Z M346.268968,92.8292683 L345.999455,103.707317 L316.402188,103.707317 L316.402188,101.463415 C318.443952,101.463415 319.75883,101.170735 320.346858,100.585366 C320.934886,99.9999972 321.228896,98.991877 321.228896,97.5609756 L321.228896,76.7804878 C321.228896,75.8373938 321.134975,75.1016286 320.947133,74.5731709 C320.759291,74.0447129 320.318275,73.6300828 319.624076,73.3292681 C318.929877,73.0284538 317.855924,72.8780488 316.402188,72.8780488 L316.402188,70.6341463 L343.96587,70.6341463 L344.406889,79.2195122 L342.152792,79.2195122 C341.646435,77.3170638 341.062499,75.9552887 340.400966,75.1341462 C339.739436,74.313004 338.996245,73.8089441 338.171372,73.6219511 C337.346497,73.4349584 336.109207,73.3414634 334.459463,73.3414634 L328.236196,73.3414634 L328.236196,85.0243902 L331.617341,85.0243902 C332.777061,85.0243902 333.642757,84.9227651 334.214452,84.7195124 C334.786144,84.5162593 335.186324,84.1300842 335.415002,83.5609756 C335.643679,82.991867 335.798852,82.0975672 335.880523,80.8780488 L338.232624,80.8780488 L338.232624,91.8780488 L335.978528,91.8780488 C335.913189,90.6585303 335.749853,89.7601655 335.488507,89.1829267 C335.22716,88.6056882 334.81473,88.2195131 334.251204,88.0243902 C333.687676,87.8292674 332.826063,87.7317073 331.666343,87.7317073 L328.236196,87.7317073 L328.236196,95.5121951 C328.236196,96.8130145 328.268862,97.7642246 328.3342,98.3658537 C328.399535,98.9674827 328.575124,99.4674775 328.860974,99.8658535 C329.14682,100.26423 329.612335,100.552844 330.257532,100.731707 C330.902729,100.91057 331.821509,101 333.013899,101 L335.684515,101 C336.81157,101 337.88552,100.857725 338.906404,100.573171 C339.927285,100.288617 340.927733,99.5569164 341.907782,98.3780489 C342.887827,97.1991811 343.57385,95.3496061 343.96587,92.8292683 L346.268968,92.8292683 Z M387.704162,72.8780488 C386.119752,72.8780488 384.98455,73.0365836 384.298517,73.3536587 C383.612485,73.6707334 383.187802,74.1382082 383.024463,74.7560976 C382.86112,75.373987 382.779452,76.3821068 382.779452,77.7804878 L382.779452,104 L380.525356,104 L358.792923,78.2926829 L358.792923,96.5121951 C358.792923,97.8943157 358.878678,98.8983708 359.050187,99.5243901 C359.221692,100.15041 359.658625,100.63008 360.36099,100.963415 C361.063359,101.29675 362.198561,101.463415 363.766638,101.463415 L363.766638,103.707317 L351.418109,103.707317 L351.418109,101.463415 C352.888178,101.463415 353.953962,101.29675 354.615495,100.963415 C355.277028,100.63008 355.685375,100.15041 355.840548,99.5243901 C355.99572,98.8983708 356.073308,97.8943157 356.073308,96.5121951 L356.073308,79.6341463 C356.073308,78.2682858 356.036556,77.2439059 355.963054,76.5609756 C355.88955,75.8780453 355.713961,75.2804905 355.436281,74.7682928 C355.158601,74.2560949 354.705336,73.8414651 354.076472,73.5243901 C353.447608,73.2073154 352.577829,72.9918704 351.467111,72.8780488 L351.467111,70.6341463 L361.145024,70.6341463 L380.059834,92.8780488 L380.059834,77.7804878 C380.059834,76.5447093 379.974083,75.5975643 379.802574,74.9390242 C379.631065,74.2804845 379.206385,73.7723595 378.528519,73.4146341 C377.850653,73.0569088 376.776703,72.8780488 375.306631,72.8780488 L375.306631,70.6341463 L387.704162,70.6341463 L387.704162,72.8780488 Z M408.558476,103.707317 L391.701754,103.707317 L391.701754,101.463415 C393.106488,101.463415 394.168189,101.32927 394.886891,101.060976 C395.605592,100.792682 396.075191,100.390247 396.295702,99.8536585 C396.51621,99.3170704 396.626464,98.5528504 396.626464,97.5609756 L396.626464,76.7804878 C396.626464,75.3495864 396.328371,74.3414662 395.732176,73.7560976 C395.135981,73.1707289 393.792521,72.8780488 391.701754,72.8780488 L391.701754,70.6341463 L408.558476,70.6341463 L408.558476,72.8780488 C407.153742,72.8780488 406.092042,73.0162588 405.37334,73.2926829 C404.654638,73.569107 404.18504,73.9715422 403.964529,74.4999998 C403.744018,75.0284578 403.633764,75.788613 403.633764,76.7804878 L403.633764,97.5609756 C403.633764,98.5040696 403.739935,99.2438996 403.952279,99.7804878 C404.16462,100.317076 404.617886,100.731706 405.312088,101.02439 C406.006287,101.317075 407.088404,101.463415 408.558476,101.463415 L408.558476,103.707317 Z M446,80.0243902 L443.672399,80.0243902 C443.460057,77.9755995 443.006792,76.4634196 442.31259,75.4878049 C441.618391,74.5121901 440.871116,73.9105701 440.070746,73.6829268 C439.270373,73.4552835 438.347509,73.3414634 437.302126,73.3414634 L433.087945,73.3414634 L433.087945,97.5609756 C433.087945,98.52033 433.18595,99.2642251 433.381958,99.7926831 C433.57797,100.321141 434.035315,100.731706 434.754017,101.02439 C435.472718,101.317075 436.526253,101.463415 437.914654,101.463415 L437.914654,103.707317 L421.25394,103.707317 L421.25394,101.463415 C423.295705,101.463415 424.610579,101.170735 425.198607,100.585366 C425.786636,99.9999972 426.080645,98.991877 426.080645,97.5609756 L426.080645,73.3414634 L422.552494,73.3414634 C421.164096,73.3414634 420.012558,73.4512184 419.097848,73.6707316 C418.183138,73.890245 417.378694,74.491865 416.684492,75.4756096 C415.990293,76.4593545 415.594196,77.9755995 415.496192,80.0243902 L413.168594,80.0243902 L413.168594,70.6341463 L446,70.6341463 L446,80.0243902 Z" id="bank-zenit" fill="#0A1244"></path>
            <g id="Group-5">
                <path d="M9.46153846,108.849895 C41.5451474,96.0637861 62.5707882,79.707317 72.5384615,59.7804878 L72.5384615,119.560976 L9.46153846,119.560976 C9.70844601,117.573004 9.70844601,114.002644 9.46153846,108.849895 Z" id="Rectangle-2" fill="url(#linearGradient-1)"></path>
                <path d="M34.6923077,34.6097561 C41.9193585,41.4698455 51.3808969,45.3932987 63.0769231,46.3801151 L63.0769231,62.1294897 C55.5788387,74.8628525 46.1173002,84.0273914 34.6923077,89.6231065 C34.7900955,76.5883729 34.6923077,48.7483207 34.6923077,34.6097561 Z" id="Rectangle-23" fill="url(#linearGradient-1)"></path>
                <polygon id="Path" fill="#10C8D2" points="78.8461538 50.3414634 70.4210112 50.3414634 70.4210112 47.195122 82 47.195122 82 129 0 129 0 47.195122 27.4590971 47.195122 27.4590971 50.3414634 3.15384615 50.3414634 3.15384615 125.853659 78.8461538 125.853659"></polygon>
                <path d="M37.8461538,0 C42.0584686,6.0125643 47.3148787,10.3869212 53.6153846,13.1230707 C53.6153846,22.9185166 53.6523439,31.7595363 53.6153846,38.2638447 C47.82589,38.2638447 42.56948,34.8609411 37.8461538,28.0551341 L37.8461538,0 Z" id="Rectangle-28" fill="url(#linearGradient-1)"></path>
            </g>
        </g>
    </g>
</svg>