<svg width="670" height="215" viewBox="0 0 670 215" fill="none" xmlns="http://www.w3.org/2000/svg">
<path d="M180 0H175V5H180V0Z" fill="url(#paint0_linear)"/>
<path d="M250 0H245V5H250V0Z" fill="url(#paint1_linear)"/>
<path d="M285 0H280V5H285V0Z" fill="url(#paint2_linear)"/>
<path d="M320 0H315V5H320V0Z" fill="url(#paint3_linear)"/>
<path d="M390 0H385V5H390V0Z" fill="url(#paint4_linear)"/>
<path d="M425 0H420V5H425V0Z" fill="url(#paint5_linear)"/>
<path d="M460 0H455V5H460V0Z" fill="url(#paint6_linear)"/>
<path d="M215 0H210V5H215V0Z" fill="url(#paint7_linear)"/>
<path d="M355 0H350V5H355V0Z" fill="url(#paint8_linear)"/>
<path d="M495 0H490V5H495V0Z" fill="url(#paint9_linear)"/>
<path d="M530 0H525V5H530V0Z" fill="url(#paint10_linear)"/>
<path d="M565 0H560V5H565V0Z" fill="url(#paint11_linear)"/>
<path d="M600 0H595V5H600V0Z" fill="url(#paint12_linear)"/>
<path d="M635 0H630V5H635V0Z" fill="url(#paint13_linear)"/>
<path d="M670 0H665V5H670V0Z" fill="url(#paint14_linear)"/>
<path d="M180 35H175V40H180V35Z" fill="url(#paint15_linear)"/>
<path d="M215 35H210V40H215V35Z" fill="url(#paint16_linear)"/>
<path d="M250 35H245V40H250V35Z" fill="url(#paint17_linear)"/>
<path d="M285 35H280V40H285V35Z" fill="url(#paint18_linear)"/>
<path d="M320 35H315V40H320V35Z" fill="url(#paint19_linear)"/>
<path d="M355 35H350V40H355V35Z" fill="url(#paint20_linear)"/>
<path d="M390 35H385V40H390V35Z" fill="url(#paint21_linear)"/>
<path d="M425 35H420V40H425V35Z" fill="url(#paint22_linear)"/>
<path d="M460 35H455V40H460V35Z" fill="url(#paint23_linear)"/>
<path d="M495 35H490V40H495V35Z" fill="url(#paint24_linear)"/>
<path d="M530 35H525V40H530V35Z" fill="url(#paint25_linear)"/>
<path d="M565 35H560V40H565V35Z" fill="url(#paint26_linear)"/>
<path d="M600 35H595V40H600V35Z" fill="url(#paint27_linear)"/>
<path d="M635 35H630V40H635V35Z" fill="url(#paint28_linear)"/>
<path d="M670 35H665V40H670V35Z" fill="url(#paint29_linear)"/>
<path d="M495 70H490V75H495V70Z" fill="url(#paint30_linear)"/>
<path d="M530 70H525V75H530V70Z" fill="url(#paint31_linear)"/>
<path d="M565 70H560V75H565V70Z" fill="url(#paint32_linear)"/>
<path d="M600 70H595V75H600V70Z" fill="url(#paint33_linear)"/>
<path d="M635 70H630V75H635V70Z" fill="url(#paint34_linear)"/>
<path d="M670 70H665V75H670V70Z" fill="url(#paint35_linear)"/>
<path d="M495 105H490V110H495V105Z" fill="url(#paint36_linear)"/>
<path d="M530 105H525V110H530V105Z" fill="url(#paint37_linear)"/>
<path d="M565 105H560V110H565V105Z" fill="url(#paint38_linear)"/>
<path d="M600 105H595V110H600V105Z" fill="url(#paint39_linear)"/>
<path d="M635 105H630V110H635V105Z" fill="url(#paint40_linear)"/>
<path d="M670 105H665V110H670V105Z" fill="url(#paint41_linear)"/>
<path d="M495 140H490V145H495V140Z" fill="url(#paint42_linear)"/>
<path d="M530 140H525V145H530V140Z" fill="url(#paint43_linear)"/>
<path d="M565 140H560V145H565V140Z" fill="url(#paint44_linear)"/>
<path d="M600 140H595V145H600V140Z" fill="url(#paint45_linear)"/>
<path d="M635 140H630V145H635V140Z" fill="url(#paint46_linear)"/>
<path d="M670 140H665V145H670V140Z" fill="url(#paint47_linear)"/>
<path d="M110 175H105V180H110V175Z" fill="url(#paint48_linear)"/>
<path d="M75 175H70V180H75V175Z" fill="url(#paint49_linear)"/>
<path d="M40 175H35V180H40V175Z" fill="url(#paint50_linear)"/>
<path d="M5 175H0V180H5V175Z" fill="url(#paint51_linear)"/>
<path d="M145 175H140V180H145V175Z" fill="url(#paint52_linear)"/>
<path d="M180 175H175V180H180V175Z" fill="url(#paint53_linear)"/>
<path d="M215 175H210V180H215V175Z" fill="url(#paint54_linear)"/>
<path d="M250 175H245V180H250V175Z" fill="url(#paint55_linear)"/>
<path d="M285 175H280V180H285V175Z" fill="url(#paint56_linear)"/>
<path d="M320 175H315V180H320V175Z" fill="url(#paint57_linear)"/>
<path d="M355 175H350V180H355V175Z" fill="url(#paint58_linear)"/>
<path d="M390 175H385V180H390V175Z" fill="url(#paint59_linear)"/>
<path d="M425 175H420V180H425V175Z" fill="url(#paint60_linear)"/>
<path d="M460 175H455V180H460V175Z" fill="url(#paint61_linear)"/>
<path d="M495 175H490V180H495V175Z" fill="url(#paint62_linear)"/>
<path d="M530 175H525V180H530V175Z" fill="url(#paint63_linear)"/>
<path d="M565 175H560V180H565V175Z" fill="url(#paint64_linear)"/>
<path d="M600 175H595V180H600V175Z" fill="url(#paint65_linear)"/>
<path d="M635 175H630V180H635V175Z" fill="url(#paint66_linear)"/>
<path d="M670 175H665V180H670V175Z" fill="url(#paint67_linear)"/>
<path d="M5 210H0V215H5V210Z" fill="url(#paint68_linear)"/>
<path d="M40 210H35V215H40V210Z" fill="url(#paint69_linear)"/>
<path d="M75 210H70V215H75V210Z" fill="url(#paint70_linear)"/>
<path d="M110 210H105V215H110V210Z" fill="url(#paint71_linear)"/>
<path d="M145 210H140V215H145V210Z" fill="url(#paint72_linear)"/>
<path d="M180 210H175V215H180V210Z" fill="url(#paint73_linear)"/>
<path d="M215 210H210V215H215V210Z" fill="url(#paint74_linear)"/>
<path d="M250 210H245V215H250V210Z" fill="url(#paint75_linear)"/>
<path d="M285 210H280V215H285V210Z" fill="url(#paint76_linear)"/>
<path d="M320 210H315V215H320V210Z" fill="url(#paint77_linear)"/>
<path d="M355 210H350V215H355V210Z" fill="url(#paint78_linear)"/>
<path d="M390 210H385V215H390V210Z" fill="url(#paint79_linear)"/>
<path d="M425 210H420V215H425V210Z" fill="url(#paint80_linear)"/>
<path d="M460 210H455V215H460V210Z" fill="url(#paint81_linear)"/>
<path d="M495 210H490V215H495V210Z" fill="url(#paint82_linear)"/>
<path d="M530 210H525V215H530V210Z" fill="url(#paint83_linear)"/>
<path d="M565 210H560V215H565V210Z" fill="url(#paint84_linear)"/>
<path d="M600 210H595V215H600V210Z" fill="url(#paint85_linear)"/>
<path d="M635 210H630V215H635V210Z" fill="url(#paint86_linear)"/>
<path d="M670 210H665V215H670V210Z" fill="url(#paint87_linear)"/>
<defs>
<linearGradient id="paint0_linear" x1="-121" y1="253.5" x2="670" y2="7.45726e-05" gradientUnits="userSpaceOnUse">
<stop stop-color="#8F06A7"/>
<stop offset="1" stop-color="white"/>
</linearGradient>
<linearGradient id="paint1_linear" x1="-121" y1="253.5" x2="670" y2="7.45726e-05" gradientUnits="userSpaceOnUse">
<stop stop-color="#8F06A7"/>
<stop offset="1" stop-color="white"/>
</linearGradient>
<linearGradient id="paint2_linear" x1="-121" y1="253.5" x2="670" y2="7.45726e-05" gradientUnits="userSpaceOnUse">
<stop stop-color="#8F06A7"/>
<stop offset="1" stop-color="white"/>
</linearGradient>
<linearGradient id="paint3_linear" x1="-121" y1="253.5" x2="670" y2="7.45726e-05" gradientUnits="userSpaceOnUse">
<stop stop-color="#8F06A7"/>
<stop offset="1" stop-color="white"/>
</linearGradient>
<linearGradient id="paint4_linear" x1="-121" y1="253.5" x2="670" y2="7.45726e-05" gradientUnits="userSpaceOnUse">
<stop stop-color="#8F06A7"/>
<stop offset="1" stop-color="white"/>
</linearGradient>
<linearGradient id="paint5_linear" x1="-121" y1="253.5" x2="670" y2="7.45726e-05" gradientUnits="userSpaceOnUse">
<stop stop-color="#8F06A7"/>
<stop offset="1" stop-color="white"/>
</linearGradient>
<linearGradient id="paint6_linear" x1="-121" y1="253.5" x2="670" y2="7.45726e-05" gradientUnits="userSpaceOnUse">
<stop stop-color="#8F06A7"/>
<stop offset="1" stop-color="white"/>
</linearGradient>
<linearGradient id="paint7_linear" x1="-121" y1="253.5" x2="670" y2="7.45726e-05" gradientUnits="userSpaceOnUse">
<stop stop-color="#8F06A7"/>
<stop offset="1" stop-color="white"/>
</linearGradient>
<linearGradient id="paint8_linear" x1="-121" y1="253.5" x2="670" y2="7.45726e-05" gradientUnits="userSpaceOnUse">
<stop stop-color="#8F06A7"/>
<stop offset="1" stop-color="white"/>
</linearGradient>
<linearGradient id="paint9_linear" x1="-121" y1="253.5" x2="670" y2="7.45726e-05" gradientUnits="userSpaceOnUse">
<stop stop-color="#8F06A7"/>
<stop offset="1" stop-color="white"/>
</linearGradient>
<linearGradient id="paint10_linear" x1="-121" y1="253.5" x2="670" y2="7.45726e-05" gradientUnits="userSpaceOnUse">
<stop stop-color="#8F06A7"/>
<stop offset="1" stop-color="white"/>
</linearGradient>
<linearGradient id="paint11_linear" x1="-121" y1="253.5" x2="670" y2="7.45726e-05" gradientUnits="userSpaceOnUse">
<stop stop-color="#8F06A7"/>
<stop offset="1" stop-color="white"/>
</linearGradient>
<linearGradient id="paint12_linear" x1="-121" y1="253.5" x2="670" y2="7.45726e-05" gradientUnits="userSpaceOnUse">
<stop stop-color="#8F06A7"/>
<stop offset="1" stop-color="white"/>
</linearGradient>
<linearGradient id="paint13_linear" x1="-121" y1="253.5" x2="670" y2="7.45726e-05" gradientUnits="userSpaceOnUse">
<stop stop-color="#8F06A7"/>
<stop offset="1" stop-color="white"/>
</linearGradient>
<linearGradient id="paint14_linear" x1="-121" y1="253.5" x2="670" y2="7.45726e-05" gradientUnits="userSpaceOnUse">
<stop stop-color="#8F06A7"/>
<stop offset="1" stop-color="white"/>
</linearGradient>
<linearGradient id="paint15_linear" x1="-121" y1="253.5" x2="670" y2="7.45726e-05" gradientUnits="userSpaceOnUse">
<stop stop-color="#8F06A7"/>
<stop offset="1" stop-color="white"/>
</linearGradient>
<linearGradient id="paint16_linear" x1="-121" y1="253.5" x2="670" y2="7.45726e-05" gradientUnits="userSpaceOnUse">
<stop stop-color="#8F06A7"/>
<stop offset="1" stop-color="white"/>
</linearGradient>
<linearGradient id="paint17_linear" x1="-121" y1="253.5" x2="670" y2="7.45726e-05" gradientUnits="userSpaceOnUse">
<stop stop-color="#8F06A7"/>
<stop offset="1" stop-color="white"/>
</linearGradient>
<linearGradient id="paint18_linear" x1="-121" y1="253.5" x2="670" y2="7.45726e-05" gradientUnits="userSpaceOnUse">
<stop stop-color="#8F06A7"/>
<stop offset="1" stop-color="white"/>
</linearGradient>
<linearGradient id="paint19_linear" x1="-121" y1="253.5" x2="670" y2="7.45726e-05" gradientUnits="userSpaceOnUse">
<stop stop-color="#8F06A7"/>
<stop offset="1" stop-color="white"/>
</linearGradient>
<linearGradient id="paint20_linear" x1="-121" y1="253.5" x2="670" y2="7.45726e-05" gradientUnits="userSpaceOnUse">
<stop stop-color="#8F06A7"/>
<stop offset="1" stop-color="white"/>
</linearGradient>
<linearGradient id="paint21_linear" x1="-121" y1="253.5" x2="670" y2="7.45726e-05" gradientUnits="userSpaceOnUse">
<stop stop-color="#8F06A7"/>
<stop offset="1" stop-color="white"/>
</linearGradient>
<linearGradient id="paint22_linear" x1="-121" y1="253.5" x2="670" y2="7.45726e-05" gradientUnits="userSpaceOnUse">
<stop stop-color="#8F06A7"/>
<stop offset="1" stop-color="white"/>
</linearGradient>
<linearGradient id="paint23_linear" x1="-121" y1="253.5" x2="670" y2="7.45726e-05" gradientUnits="userSpaceOnUse">
<stop stop-color="#8F06A7"/>
<stop offset="1" stop-color="white"/>
</linearGradient>
<linearGradient id="paint24_linear" x1="-121" y1="253.5" x2="670" y2="7.45726e-05" gradientUnits="userSpaceOnUse">
<stop stop-color="#8F06A7"/>
<stop offset="1" stop-color="white"/>
</linearGradient>
<linearGradient id="paint25_linear" x1="-121" y1="253.5" x2="670" y2="7.45726e-05" gradientUnits="userSpaceOnUse">
<stop stop-color="#8F06A7"/>
<stop offset="1" stop-color="white"/>
</linearGradient>
<linearGradient id="paint26_linear" x1="-121" y1="253.5" x2="670" y2="7.45726e-05" gradientUnits="userSpaceOnUse">
<stop stop-color="#8F06A7"/>
<stop offset="1" stop-color="white"/>
</linearGradient>
<linearGradient id="paint27_linear" x1="-121" y1="253.5" x2="670" y2="7.45726e-05" gradientUnits="userSpaceOnUse">
<stop stop-color="#8F06A7"/>
<stop offset="1" stop-color="white"/>
</linearGradient>
<linearGradient id="paint28_linear" x1="-121" y1="253.5" x2="670" y2="7.45726e-05" gradientUnits="userSpaceOnUse">
<stop stop-color="#8F06A7"/>
<stop offset="1" stop-color="white"/>
</linearGradient>
<linearGradient id="paint29_linear" x1="-121" y1="253.5" x2="670" y2="7.45726e-05" gradientUnits="userSpaceOnUse">
<stop stop-color="#8F06A7"/>
<stop offset="1" stop-color="white"/>
</linearGradient>
<linearGradient id="paint30_linear" x1="-121" y1="253.5" x2="670" y2="7.45726e-05" gradientUnits="userSpaceOnUse">
<stop stop-color="#8F06A7"/>
<stop offset="1" stop-color="white"/>
</linearGradient>
<linearGradient id="paint31_linear" x1="-121" y1="253.5" x2="670" y2="7.45726e-05" gradientUnits="userSpaceOnUse">
<stop stop-color="#8F06A7"/>
<stop offset="1" stop-color="white"/>
</linearGradient>
<linearGradient id="paint32_linear" x1="-121" y1="253.5" x2="670" y2="7.45726e-05" gradientUnits="userSpaceOnUse">
<stop stop-color="#8F06A7"/>
<stop offset="1" stop-color="white"/>
</linearGradient>
<linearGradient id="paint33_linear" x1="-121" y1="253.5" x2="670" y2="7.45726e-05" gradientUnits="userSpaceOnUse">
<stop stop-color="#8F06A7"/>
<stop offset="1" stop-color="white"/>
</linearGradient>
<linearGradient id="paint34_linear" x1="-121" y1="253.5" x2="670" y2="7.45726e-05" gradientUnits="userSpaceOnUse">
<stop stop-color="#8F06A7"/>
<stop offset="1" stop-color="white"/>
</linearGradient>
<linearGradient id="paint35_linear" x1="-121" y1="253.5" x2="670" y2="7.45726e-05" gradientUnits="userSpaceOnUse">
<stop stop-color="#8F06A7"/>
<stop offset="1" stop-color="white"/>
</linearGradient>
<linearGradient id="paint36_linear" x1="-121" y1="253.5" x2="670" y2="7.45726e-05" gradientUnits="userSpaceOnUse">
<stop stop-color="#8F06A7"/>
<stop offset="1" stop-color="white"/>
</linearGradient>
<linearGradient id="paint37_linear" x1="-121" y1="253.5" x2="670" y2="7.45726e-05" gradientUnits="userSpaceOnUse">
<stop stop-color="#8F06A7"/>
<stop offset="1" stop-color="white"/>
</linearGradient>
<linearGradient id="paint38_linear" x1="-121" y1="253.5" x2="670" y2="7.45726e-05" gradientUnits="userSpaceOnUse">
<stop stop-color="#8F06A7"/>
<stop offset="1" stop-color="white"/>
</linearGradient>
<linearGradient id="paint39_linear" x1="-121" y1="253.5" x2="670" y2="7.45726e-05" gradientUnits="userSpaceOnUse">
<stop stop-color="#8F06A7"/>
<stop offset="1" stop-color="white"/>
</linearGradient>
<linearGradient id="paint40_linear" x1="-121" y1="253.5" x2="670" y2="7.45726e-05" gradientUnits="userSpaceOnUse">
<stop stop-color="#8F06A7"/>
<stop offset="1" stop-color="white"/>
</linearGradient>
<linearGradient id="paint41_linear" x1="-121" y1="253.5" x2="670" y2="7.45726e-05" gradientUnits="userSpaceOnUse">
<stop stop-color="#8F06A7"/>
<stop offset="1" stop-color="white"/>
</linearGradient>
<linearGradient id="paint42_linear" x1="-121" y1="253.5" x2="670" y2="7.45726e-05" gradientUnits="userSpaceOnUse">
<stop stop-color="#8F06A7"/>
<stop offset="1" stop-color="white"/>
</linearGradient>
<linearGradient id="paint43_linear" x1="-121" y1="253.5" x2="670" y2="7.45726e-05" gradientUnits="userSpaceOnUse">
<stop stop-color="#8F06A7"/>
<stop offset="1" stop-color="white"/>
</linearGradient>
<linearGradient id="paint44_linear" x1="-121" y1="253.5" x2="670" y2="7.45726e-05" gradientUnits="userSpaceOnUse">
<stop stop-color="#8F06A7"/>
<stop offset="1" stop-color="white"/>
</linearGradient>
<linearGradient id="paint45_linear" x1="-121" y1="253.5" x2="670" y2="7.45726e-05" gradientUnits="userSpaceOnUse">
<stop stop-color="#8F06A7"/>
<stop offset="1" stop-color="white"/>
</linearGradient>
<linearGradient id="paint46_linear" x1="-121" y1="253.5" x2="670" y2="7.45726e-05" gradientUnits="userSpaceOnUse">
<stop stop-color="#8F06A7"/>
<stop offset="1" stop-color="white"/>
</linearGradient>
<linearGradient id="paint47_linear" x1="-121" y1="253.5" x2="670" y2="7.45726e-05" gradientUnits="userSpaceOnUse">
<stop stop-color="#8F06A7"/>
<stop offset="1" stop-color="white"/>
</linearGradient>
<linearGradient id="paint48_linear" x1="-121" y1="253.5" x2="670" y2="7.45726e-05" gradientUnits="userSpaceOnUse">
<stop stop-color="#8F06A7"/>
<stop offset="1" stop-color="white"/>
</linearGradient>
<linearGradient id="paint49_linear" x1="-121" y1="253.5" x2="670" y2="7.45726e-05" gradientUnits="userSpaceOnUse">
<stop stop-color="#8F06A7"/>
<stop offset="1" stop-color="white"/>
</linearGradient>
<linearGradient id="paint50_linear" x1="-121" y1="253.5" x2="670" y2="7.45726e-05" gradientUnits="userSpaceOnUse">
<stop stop-color="#8F06A7"/>
<stop offset="1" stop-color="white"/>
</linearGradient>
<linearGradient id="paint51_linear" x1="-121" y1="253.5" x2="670" y2="7.45726e-05" gradientUnits="userSpaceOnUse">
<stop stop-color="#8F06A7"/>
<stop offset="1" stop-color="white"/>
</linearGradient>
<linearGradient id="paint52_linear" x1="-121" y1="253.5" x2="670" y2="7.45726e-05" gradientUnits="userSpaceOnUse">
<stop stop-color="#8F06A7"/>
<stop offset="1" stop-color="white"/>
</linearGradient>
<linearGradient id="paint53_linear" x1="-121" y1="253.5" x2="670" y2="7.45726e-05" gradientUnits="userSpaceOnUse">
<stop stop-color="#8F06A7"/>
<stop offset="1" stop-color="white"/>
</linearGradient>
<linearGradient id="paint54_linear" x1="-121" y1="253.5" x2="670" y2="7.45726e-05" gradientUnits="userSpaceOnUse">
<stop stop-color="#8F06A7"/>
<stop offset="1" stop-color="white"/>
</linearGradient>
<linearGradient id="paint55_linear" x1="-121" y1="253.5" x2="670" y2="7.45726e-05" gradientUnits="userSpaceOnUse">
<stop stop-color="#8F06A7"/>
<stop offset="1" stop-color="white"/>
</linearGradient>
<linearGradient id="paint56_linear" x1="-121" y1="253.5" x2="670" y2="7.45726e-05" gradientUnits="userSpaceOnUse">
<stop stop-color="#8F06A7"/>
<stop offset="1" stop-color="white"/>
</linearGradient>
<linearGradient id="paint57_linear" x1="-121" y1="253.5" x2="670" y2="7.45726e-05" gradientUnits="userSpaceOnUse">
<stop stop-color="#8F06A7"/>
<stop offset="1" stop-color="white"/>
</linearGradient>
<linearGradient id="paint58_linear" x1="-121" y1="253.5" x2="670" y2="7.45726e-05" gradientUnits="userSpaceOnUse">
<stop stop-color="#8F06A7"/>
<stop offset="1" stop-color="white"/>
</linearGradient>
<linearGradient id="paint59_linear" x1="-121" y1="253.5" x2="670" y2="7.45726e-05" gradientUnits="userSpaceOnUse">
<stop stop-color="#8F06A7"/>
<stop offset="1" stop-color="white"/>
</linearGradient>
<linearGradient id="paint60_linear" x1="-121" y1="253.5" x2="670" y2="7.45726e-05" gradientUnits="userSpaceOnUse">
<stop stop-color="#8F06A7"/>
<stop offset="1" stop-color="white"/>
</linearGradient>
<linearGradient id="paint61_linear" x1="-121" y1="253.5" x2="670" y2="7.45726e-05" gradientUnits="userSpaceOnUse">
<stop stop-color="#8F06A7"/>
<stop offset="1" stop-color="white"/>
</linearGradient>
<linearGradient id="paint62_linear" x1="-121" y1="253.5" x2="670" y2="7.45726e-05" gradientUnits="userSpaceOnUse">
<stop stop-color="#8F06A7"/>
<stop offset="1" stop-color="white"/>
</linearGradient>
<linearGradient id="paint63_linear" x1="-121" y1="253.5" x2="670" y2="7.45726e-05" gradientUnits="userSpaceOnUse">
<stop stop-color="#8F06A7"/>
<stop offset="1" stop-color="white"/>
</linearGradient>
<linearGradient id="paint64_linear" x1="-121" y1="253.5" x2="670" y2="7.45726e-05" gradientUnits="userSpaceOnUse">
<stop stop-color="#8F06A7"/>
<stop offset="1" stop-color="white"/>
</linearGradient>
<linearGradient id="paint65_linear" x1="-121" y1="253.5" x2="670" y2="7.45726e-05" gradientUnits="userSpaceOnUse">
<stop stop-color="#8F06A7"/>
<stop offset="1" stop-color="white"/>
</linearGradient>
<linearGradient id="paint66_linear" x1="-121" y1="253.5" x2="670" y2="7.45726e-05" gradientUnits="userSpaceOnUse">
<stop stop-color="#8F06A7"/>
<stop offset="1" stop-color="white"/>
</linearGradient>
<linearGradient id="paint67_linear" x1="-121" y1="253.5" x2="670" y2="7.45726e-05" gradientUnits="userSpaceOnUse">
<stop stop-color="#8F06A7"/>
<stop offset="1" stop-color="white"/>
</linearGradient>
<linearGradient id="paint68_linear" x1="-121" y1="253.5" x2="670" y2="7.45726e-05" gradientUnits="userSpaceOnUse">
<stop stop-color="#8F06A7"/>
<stop offset="1" stop-color="white"/>
</linearGradient>
<linearGradient id="paint69_linear" x1="-121" y1="253.5" x2="670" y2="7.45726e-05" gradientUnits="userSpaceOnUse">
<stop stop-color="#8F06A7"/>
<stop offset="1" stop-color="white"/>
</linearGradient>
<linearGradient id="paint70_linear" x1="-121" y1="253.5" x2="670" y2="7.45726e-05" gradientUnits="userSpaceOnUse">
<stop stop-color="#8F06A7"/>
<stop offset="1" stop-color="white"/>
</linearGradient>
<linearGradient id="paint71_linear" x1="-121" y1="253.5" x2="670" y2="7.45726e-05" gradientUnits="userSpaceOnUse">
<stop stop-color="#8F06A7"/>
<stop offset="1" stop-color="white"/>
</linearGradient>
<linearGradient id="paint72_linear" x1="-121" y1="253.5" x2="670" y2="7.45726e-05" gradientUnits="userSpaceOnUse">
<stop stop-color="#8F06A7"/>
<stop offset="1" stop-color="white"/>
</linearGradient>
<linearGradient id="paint73_linear" x1="-121" y1="253.5" x2="670" y2="7.45726e-05" gradientUnits="userSpaceOnUse">
<stop stop-color="#8F06A7"/>
<stop offset="1" stop-color="white"/>
</linearGradient>
<linearGradient id="paint74_linear" x1="-121" y1="253.5" x2="670" y2="7.45726e-05" gradientUnits="userSpaceOnUse">
<stop stop-color="#8F06A7"/>
<stop offset="1" stop-color="white"/>
</linearGradient>
<linearGradient id="paint75_linear" x1="-121" y1="253.5" x2="670" y2="7.45726e-05" gradientUnits="userSpaceOnUse">
<stop stop-color="#8F06A7"/>
<stop offset="1" stop-color="white"/>
</linearGradient>
<linearGradient id="paint76_linear" x1="-121" y1="253.5" x2="670" y2="7.45726e-05" gradientUnits="userSpaceOnUse">
<stop stop-color="#8F06A7"/>
<stop offset="1" stop-color="white"/>
</linearGradient>
<linearGradient id="paint77_linear" x1="-121" y1="253.5" x2="670" y2="7.45726e-05" gradientUnits="userSpaceOnUse">
<stop stop-color="#8F06A7"/>
<stop offset="1" stop-color="white"/>
</linearGradient>
<linearGradient id="paint78_linear" x1="-121" y1="253.5" x2="670" y2="7.45726e-05" gradientUnits="userSpaceOnUse">
<stop stop-color="#8F06A7"/>
<stop offset="1" stop-color="white"/>
</linearGradient>
<linearGradient id="paint79_linear" x1="-121" y1="253.5" x2="670" y2="7.45726e-05" gradientUnits="userSpaceOnUse">
<stop stop-color="#8F06A7"/>
<stop offset="1" stop-color="white"/>
</linearGradient>
<linearGradient id="paint80_linear" x1="-121" y1="253.5" x2="670" y2="7.45726e-05" gradientUnits="userSpaceOnUse">
<stop stop-color="#8F06A7"/>
<stop offset="1" stop-color="white"/>
</linearGradient>
<linearGradient id="paint81_linear" x1="-121" y1="253.5" x2="670" y2="7.45726e-05" gradientUnits="userSpaceOnUse">
<stop stop-color="#8F06A7"/>
<stop offset="1" stop-color="white"/>
</linearGradient>
<linearGradient id="paint82_linear" x1="-121" y1="253.5" x2="670" y2="7.45726e-05" gradientUnits="userSpaceOnUse">
<stop stop-color="#8F06A7"/>
<stop offset="1" stop-color="white"/>
</linearGradient>
<linearGradient id="paint83_linear" x1="-121" y1="253.5" x2="670" y2="7.45726e-05" gradientUnits="userSpaceOnUse">
<stop stop-color="#8F06A7"/>
<stop offset="1" stop-color="white"/>
</linearGradient>
<linearGradient id="paint84_linear" x1="-121" y1="253.5" x2="670" y2="7.45726e-05" gradientUnits="userSpaceOnUse">
<stop stop-color="#8F06A7"/>
<stop offset="1" stop-color="white"/>
</linearGradient>
<linearGradient id="paint85_linear" x1="-121" y1="253.5" x2="670" y2="7.45726e-05" gradientUnits="userSpaceOnUse">
<stop stop-color="#8F06A7"/>
<stop offset="1" stop-color="white"/>
</linearGradient>
<linearGradient id="paint86_linear" x1="-121" y1="253.5" x2="670" y2="7.45726e-05" gradientUnits="userSpaceOnUse">
<stop stop-color="#8F06A7"/>
<stop offset="1" stop-color="white"/>
</linearGradient>
<linearGradient id="paint87_linear" x1="-121" y1="253.5" x2="670" y2="7.45726e-05" gradientUnits="userSpaceOnUse">
<stop stop-color="#8F06A7"/>
<stop offset="1" stop-color="white"/>
</linearGradient>
</defs>
</svg>
