<!DOCTYPE svg PUBLIC "-//W3C//DTD SVG 1.1//EN" "http://www.w3.org/Graphics/SVG/1.1/DTD/svg11.dtd" [
	<!ENTITY ns_flows "http://ns.adobe.com/Flows/1.0/">
]><svg xmlns="http://www.w3.org/2000/svg" width="60" height="60" viewBox="0 -4.056 60 60" overflow="visible"><path fill-rule="evenodd" clip-rule="evenodd" fill="#BA2730" d="M26.008 0c.16.507 0 1.475.085 2.027 5.988 12.642 11.89 25.466 17.86 38.042.4.844.816 1.686 1.097 2.573-2.097-.083-4.324-.037-6.416-.126-1.396-3.037-2.646-6.223-4.054-9.247-2.822.01-5.787.096-8.53.043.093 7.58-.075 14.377.043 22.04.002.155.058.478-.127.59.75-.127 2.132-1.07 2.872-1.478 4.726-2.593 9.438-5.152 14.1-7.77 1.884-1.054 3.795-2.023 5.574-3.165C49.97 32.068 51.44 20.618 52.82 9.077 43.9 6.06 34.925 2.88 26.008 0z"/><path fill-rule="evenodd" clip-rule="evenodd" fill="#BA2730" d="M26.093 27.74v.084h6.08c-.164-.553-.414-1.084-.675-1.604-1.812-3.604-3.508-7.46-5.363-11.062-.008.035-.042.042-.042.084-.05 4.148-.01 7.85-.043 12.456.037-.008.04.016.043.042z"/><path fill-rule="evenodd" clip-rule="evenodd" fill="#E82734" d="M26.05 15.243c-1.77 4.167-3.542 8.336-5.277 12.54 1.69.098 3.56.015 5.32.042v-.084c-.002-.024-.006-.05-.043-.04.033-4.606-.008-8.307.043-12.456h-.043z"/><path fill-rule="evenodd" clip-rule="evenodd" fill="#E82734" d="M26.093 55.354c-.118-7.663.05-14.46-.043-22.04-2.477-.1-5.136-.015-7.684-.042-1.306 2.972-2.43 6.127-3.715 9.12-2.232.06-4.453.133-6.754.127A3343.598 3343.598 0 0 1 26.094 2.025C26.01 1.474 26.17.506 26.01 0 17.297 3.04 8.667 6.165 0 9.246 1.308 20.762 2.66 32.23 3.97 43.743a3300.59 3300.59 0 0 0 21.996 12.202c.185-.114.13-.436.127-.59z"/><path fill-rule="evenodd" clip-rule="evenodd" fill="#B3B3B3" d="M43.952 40.07C37.992 27.51 32.1 14.706 26.12 2.083v10.07c.06.888.15 1.903.015 2.666l-.015.07v.295a.084.084 0 0 0 .015-.028c1.854 3.6 3.55 7.458 5.363 11.062.26.52.51 1.05.674 1.603H26.12v5.49c2.723.05 5.66-.035 8.46-.043 1.408 3.025 2.657 6.21 4.054 9.248 2.092.09 4.32.043 6.416.126-.28-.887-.696-1.73-1.098-2.575z"/></svg>