<svg xmlns="http://www.w3.org/2000/svg" width="60" height="60" viewBox="0 0 60 60"><circle fill="#FE574A" cx="28.777" cy="31.561" r="28.407"/><path fill-rule="evenodd" clip-rule="evenodd" fill="#FEFCFC" d="M24.12 33.323l-3.54 8.875c-.402 1.008-.828 2.01-1.2 3.03-.144.394-.374.46-.74.453-1.013-.02-2.03-.044-3.04.01-.682.034-.684-.186-.46-.72 1.548-3.683 3.074-7.372 4.608-11.06 2.496-5.996 4.996-11.992 7.49-17.99.166-.4.33-.792.67-1.082 1.07-.916 2.55-.503 3.144.906 1.05 2.492 2.074 4.996 3.11 7.492 2.697 6.49 5.39 12.98 8.097 19.464.363.877.467 1.722-.206 2.486-.568.647-1.314.828-2.14.63-.506-.123-.886-.475-1.28-.793-4.626-3.737-9.252-7.477-13.88-11.214-.176-.144-.36-.278-.636-.488zm12.11 5.073c.045.025.09.053.132.078a3.447 3.447 0 0 0-.01-.174c-2.356-5.846-4.715-11.692-7.145-17.714-1.248 3.122-2.402 6.03-3.576 8.93-.156.387-.03.582.268.81 1.143.878 2.266 1.78 3.4 2.668 2.31 1.805 4.623 3.602 6.933 5.402z"/></svg>