<!DOCTYPE svg PUBLIC "-//W3C//DTD SVG 1.1//EN" "http://www.w3.org/Graphics/SVG/1.1/DTD/svg11.dtd" [
	<!ENTITY ns_flows "http://ns.adobe.com/Flows/1.0/">
]><svg xmlns="http://www.w3.org/2000/svg" width="60" height="60" viewBox="-0.021 -11.843 60 60" overflow="visible"><path fill-rule="evenodd" clip-rule="evenodd" fill="#FF8B00" d="M49.515 11.98c-7.268 2.268-14.56 4.507-21.818 6.784v10.513c-.263 3.92-.038 6.067-.113 10.174.075 2.867-.15 6.03.113 8.707 7.327-2.472 14.578-5.017 21.932-7.46h.225v-28.83c-.14.04-.23.08-.34.113zM25.52.137c-.12-.04-.224-.175-.508-.127-3.78.64-7.62 2.258-11.555 3.428C9.554 4.6 5.564 5.518 1.902 6.868c7.686 2.472 15.427 4.888 23.11 7.364 7.45-2.58 15.223-4.838 22.6-7.492C40.257 4.41 32.522 2.52 25.52.137zM.34 11.755c-.082-.02-.076-.025-.138-.047A.555.555 0 0 1 0 11.643v28.94h.113c7.32 2.515 14.678 4.992 22.044 7.462a754.25 754.25 0 0 0 0-29.167C14.945 16.443 7.6 14.14.34 11.755z"/></svg>