<svg xmlns="http://www.w3.org/2000/svg" width="60" height="60" viewBox="0 0 60 60"><path fill="#3B89BE" d="M8.303 11.96c1.1-1.153 2.33-2.15 3.63-3.065 3.43-2.414 7.222-3.97 11.35-4.697.875-.153 1.76-.26 2.648-.313.07-.004.15.012.19-.073h3.813c.248.175.558-.006.81.14-.323.025-.274.287-.294.49-.074.783-.135 1.568-.208 2.35-.012.146.004.252.175.243.258-.015.507.045.76.075 1.048.123 2.08.32 3.103.578.175.043.224.106.177.274-.26.934-.517 1.87-.772 2.805-2.023-.492-4.076-.768-6.162-.715-.58.014-1.16.094-1.74.136-1.127.08-2.23.31-3.322.594-1.213.27-2.362.726-3.492 1.233-1.188.535-2.3 1.208-3.392 1.917-.528-.76-1.062-1.515-1.578-2.283-.145-.22-.233-.233-.452-.08-1.027.727-1.967 1.554-2.89 2.405-.124.115-.197.174-.347.02-.66-.685-1.335-1.358-2.004-2.036z"/><path fill="#3A518C" d="M26.415 59.973c-.327-.152-.685-.1-1.025-.132a27.796 27.796 0 0 1-9.233-2.524c.382-.826.773-1.653 1.14-2.49.124-.283.255-.31.525-.186 1.116.522 2.275.927 3.458 1.27.192.055.304.03.355-.172.234-.906.472-1.812.707-2.72.05 0 .1-.015.146-.003 1.364.346 2.744.564 4.152.672 1.61.12 3.198.017 4.79-.21.778-.114 1.54-.313 2.312-.466.247.93.5 1.856.733 2.787.05.2.146.178.287.14a24.49 24.49 0 0 0 4.682-1.837 24.535 24.535 0 0 0 2.76-1.65c.14-.1.236-.123.354.053.53.787 1.077 1.565 1.618 2.347-1.506 1.115-3.14 2.006-4.85 2.76a27.89 27.89 0 0 1-7.603 2.123c-.604.084-1.215.113-1.82.172-.09.008-.2-.043-.263.07h-.806a3.983 3.983 0 0 0-1.613 0c-.267-.002-.536-.002-.804-.002z"/><path fill="#3B89BE" d="M27.22 59.973c.54-.11 1.077-.11 1.614 0H27.22z"/><path fill="#3A518C" d="M33.682 10.766l.772-2.805c.047-.166-.002-.23-.177-.272a24.355 24.355 0 0 0-3.103-.578c-.253-.03-.502-.09-.76-.076-.17.01-.187-.097-.174-.242.073-.783.134-1.568.207-2.352.02-.202-.03-.464.295-.49a24.9 24.9 0 0 1 7.03 1.587c6.98 2.66 12.136 7.343 15.5 14.01.162.32.088.418-.205.55-1.772.808-3.54 1.633-5.31 2.452-1.09-2.394-2.614-4.48-4.487-6.313-.854-.836-1.754-1.62-2.77-2.262-.05-.05-.1-.108-.16-.148-2.038-1.406-4.266-2.414-6.658-3.062z"/><path fill="#3B89BE" d="M33.74 53.012c-.77.15-1.532.352-2.312.465-1.59.228-3.18.332-4.79.21a24.192 24.192 0 0 1-4.15-.67c-.046-.013-.098 0-.147.003-.762-.272-1.535-.525-2.287-.828-1.62-.645-3.165-1.428-4.563-2.48.52-.748 1.05-1.488 1.56-2.245.154-.23.266-.27.51-.1a18.547 18.547 0 0 0 5.252 2.49c.308.092.386.02.467-.272.24-.878.42-1.77.732-2.628a16.34 16.34 0 0 0 4.814.49c2.823-.137 5.413-.99 7.776-2.535.144-.092.29-.18.435-.268.58.73 1.076 1.524 1.626 2.278.16.22.107.32-.098.454a23.6 23.6 0 0 1-2.303 1.33c-.11.054-.267.083-.17.282.418.875.83 1.754 1.243 2.633-.274.21-.606.293-.913.43-.866.39-1.792.63-2.683.963z"/><path fill="#3A518C" d="M13.965 25.163c-.404.988-.802 1.978-1.047 3.023-.79 3.364-.53 6.64.81 9.828.05.122.09.25.135.375-.842.383-1.69.756-2.522 1.16-.24.12-.323.067-.417-.16-.32-.793-.65-1.58-.848-2.41-.07-.306-.2-.375-.482-.297-.867.243-1.737.476-2.605.71-.025-.053-.06-.103-.075-.16-.377-1.386-.563-2.807-.645-4.235-.094-1.63.014-3.26.3-4.87.123-.68.28-1.353.42-2.03.027-.066.057-.133.077-.203a21.174 21.174 0 0 1 2.07-4.89c.348-.597.66-1.22 1.147-1.723.747.53 1.483 1.073 2.243 1.582.242.163.23.268.08.48-.507.72-.945 1.48-1.333 2.27-.066.136-.147.246.07.343.878.39 1.75.8 2.625 1.203z"/><path fill="#00ACEA" d="M33.682 10.766a21.61 21.61 0 0 1 6.664 3.063c.06.04.107.097.158.146-.516.74-1.04 1.47-1.542 2.22-.177.264-.308.29-.57.102-.68-.482-1.41-.872-2.153-1.245-.25-.124-.36-.085-.47.166a59.947 59.947 0 0 1-.893 1.925c-.093.192-.135.424-.345.546-1.364-.595-2.773-1.034-4.25-1.236a15.953 15.953 0 0 0-3.863-.073c-1.683.18-3.286.633-4.834 1.303-.15-.067-.187-.217-.248-.348-.316-.67-.625-1.346-.942-2.017-.2-.425-.194-.452.25-.63.734-.292 1.46-.607 2.232-.785.308-.07.35-.213.273-.49-.242-.875-.466-1.756-.697-2.635 1.092-.283 2.195-.513 3.323-.594.58-.042 1.16-.123 1.74-.136 2.087-.052 4.14.223 6.164.716z"/><path fill="#4CC0DC" d="M34.533 17.692c.21-.122.252-.354.345-.546.308-.638.608-1.278.894-1.925.106-.25.22-.29.467-.164.74.374 1.474.763 2.15 1.244.264.188.396.16.57-.104.5-.75 1.027-1.48 1.543-2.22 1.016.645 1.915 1.427 2.77 2.263 1.873 1.83 3.397 3.917 4.488 6.31-1.274.604-2.55 1.214-3.827 1.812-2.36 1.106-4.73 2.2-7.086 3.314-.293.14-.404.092-.55-.19a7.79 7.79 0 0 0-1.475-2.037c-.195-.19-.195-.295 0-.49 1.306-1.285 2.593-2.59 3.897-3.876.21-.21.27-.315.007-.56-1.248-1.17-2.664-2.087-4.195-2.833z"/><path fill="#00ACEA" d="M6.985 37.395c.87-.234 1.738-.467 2.605-.71.28-.077.412-.01.482.296.197.83.527 1.62.848 2.41.094.23.177.28.42.163.832-.405 1.68-.778 2.52-1.163.282.51.543 1.03.848 1.526 2.12 3.445 5.116 5.768 8.995 6.936.104.033.207.07.31.104-.312.856-.492 1.75-.734 2.628-.083.29-.16.363-.47.27a18.56 18.56 0 0 1-5.25-2.49c-.245-.17-.357-.13-.51.1-.51.757-1.04 1.498-1.56 2.247-.127-.075-.26-.14-.375-.227-1.22-.938-2.362-1.953-3.384-3.11a23.396 23.396 0 0 1-2.8-3.958c-.26-.452-.418-.963-.763-1.367-.114-.562-.43-1.05-.6-1.596-.208-.68-.52-1.332-.583-2.055z"/><path fill="#4CC0DC" d="M22.457 10.78c.23.88.455 1.76.698 2.636.077.276.035.418-.273.49-.77.177-1.498.49-2.23.784-.447.178-.452.205-.252.63.317.67.626 1.345.94 2.016.062.13.098.28.25.348-1.713.827-3.274 1.872-4.61 3.236a15.857 15.857 0 0 0-2.83 3.932c-.053.107-.122.207-.184.31-.875-.402-1.747-.81-2.626-1.203-.217-.1-.136-.21-.07-.344.388-.79.825-1.552 1.333-2.272.15-.213.162-.318-.08-.48-.76-.508-1.496-1.05-2.242-1.58.18-.39.48-.697.74-1.027a22.77 22.77 0 0 1 2.637-2.77c.616-.55 1.298-1.013 1.918-1.556 1.09-.707 2.204-1.38 3.392-1.916 1.128-.51 2.277-.964 3.49-1.235z"/><path fill="#00ACEA" d="M33.74 53.012c.89-.332 1.816-.568 2.686-.96.307-.14.64-.222.913-.43.044-.015.095-.02.136-.04 2.097-.992 3.965-2.312 5.654-3.895 1.077-1.008 1.99-2.157 2.87-3.34 1.21.84 2.42 1.678 3.63 2.52.4.277.79.572 1.2.832.225.14.26.242.094.474a28.46 28.46 0 0 1-5.484 5.752c-.41.323-.812.66-1.266.923-.54-.78-1.087-1.56-1.617-2.35-.117-.175-.215-.15-.354-.052a24.51 24.51 0 0 1-2.76 1.647 24.527 24.527 0 0 1-4.68 1.838c-.145.04-.24.062-.29-.14-.233-.93-.487-1.854-.733-2.783z"/><path fill="#4CC0DC" d="M46 44.348c-.88 1.184-1.793 2.332-2.87 3.342-1.688 1.58-3.558 2.9-5.653 3.894-.04.02-.092.024-.138.04-.415-.88-.827-1.758-1.245-2.633-.097-.197.06-.227.17-.28a23.282 23.282 0 0 0 2.303-1.33c.204-.134.258-.233.097-.454-.55-.754-1.046-1.547-1.626-2.28.737-.596 1.49-1.173 2.15-1.86.54-.564 1.055-1.15 1.497-1.793.138-.2.235-.232.455-.077 1.558 1.108 3.127 2.198 4.692 3.295.06.04.108.093.164.14z"/><path fill="#3B89BE" d="M6.985 37.395c.062.725.375 1.375.584 2.058.167.545.483 1.032.597 1.596-.808.37-1.612.747-2.427 1.1-.307.135-.313.28-.176.56a26.423 26.423 0 0 0 1.82 3.167c.11.157.14.253-.047.38-.782.53-1.557 1.08-2.334 1.623-1.608-2.258-2.803-4.726-3.66-7.36A28.09 28.09 0 0 1 0 32.7c.01-1.127-.02-2.254.113-3.375.242.016.485.01.73.037.71.08 1.425.125 2.138.186.18.016.254-.045.27-.24.11-1.234.346-2.448.636-3.652.076-.314.2-.35.465-.276.878.246 1.757.48 2.636.72-.14.677-.298 1.35-.42 2.03a20.8 20.8 0 0 0-.3 4.868c.08 1.43.267 2.852.644 4.236.016.057.05.108.075.16z"/><path fill="#4CC0DC" d="M5.005 47.877c.777-.544 1.552-1.092 2.334-1.624.184-.126.154-.222.045-.38a26.268 26.268 0 0 1-1.82-3.166c-.138-.277-.13-.425.177-.56.815-.353 1.62-.73 2.427-1.102.343.404.502.915.76 1.367a23.356 23.356 0 0 0 2.803 3.958c1.022 1.156 2.164 2.173 3.384 3.11.116.087.25.15.373.228 1.4 1.054 2.945 1.836 4.564 2.48.752.302 1.525.555 2.29.827-.236.905-.473 1.812-.708 2.72-.05.202-.164.226-.355.17-1.18-.343-2.34-.746-3.456-1.27-.27-.125-.4-.1-.525.186-.368.84-.76 1.666-1.14 2.49-2.11-.96-4.045-2.2-5.84-3.664a28.152 28.152 0 0 1-5.16-5.52c-.06-.078-.103-.164-.154-.248z"/><path fill="#00ACEA" d="M6.986 26.1c-.88-.24-1.758-.474-2.635-.72-.265-.075-.39-.038-.463.276-.29 1.204-.524 2.417-.634 3.65-.018.197-.09.258-.27.242-.713-.06-1.43-.105-2.14-.186-.243-.028-.486-.02-.728-.037.196-2.39.72-4.707 1.53-6.958C3.04 18.49 5.2 15.09 8.085 12.15c.067-.07.146-.127.22-.19.668.677 1.34 1.35 2.002 2.034.15.154.223.095.348-.02.922-.85 1.86-1.678 2.89-2.404.218-.154.306-.14.45.077.517.768 1.05 1.523 1.58 2.283-.62.543-1.303 1.007-1.92 1.557a22.392 22.392 0 0 0-2.634 2.77c-.26.33-.56.636-.74 1.025-.487.503-.8 1.126-1.145 1.722a21.143 21.143 0 0 0-2.07 4.89c-.022.07-.052.138-.078.206z"/></svg>