<svg xmlns="http://www.w3.org/2000/svg" width="60" height="60" viewBox="0 0 60 60"><g fill-rule="evenodd" clip-rule="evenodd"><path fill="#F38B01" d="M30.18 3.23c.547.168 1.118.145 1.675.214 4.532.56 8.677 2.13 12.457 4.678.285.192.56.4.842.592.146.1.206.176.072.356a257.724 257.724 0 0 0-2.594 3.484c-.162.222-.27.13-.428.017a23.318 23.318 0 0 0-8.782-3.957 22.924 22.924 0 0 0-4.57-.532c-5.49-.09-10.426 1.536-14.786 4.863-3.373 2.574-5.86 5.85-7.472 9.78-.126.307-.23.352-.538.227a129.32 129.32 0 0 0-3.793-1.478c-.284-.106-.324-.21-.21-.486C4.65 14.742 8.893 9.96 14.81 6.688c3.583-1.98 7.437-3.084 11.52-3.38.07-.005.157.023.19-.077h3.663z"/><path fill="#425465" d="M43.106 28.088c-.725 0-1.448-.01-2.174.006-.223.005-.305-.075-.373-.272-1.643-4.77-4.916-7.77-9.86-8.738-4.14-.808-7.85.31-10.96 3.163-2.895 2.66-4.24 6.02-4.114 9.947.182 5.742 4.603 10.876 10.248 11.933 6.49 1.216 12.654-2.423 14.67-8.667.077-.234.172-.314.418-.313 1.437.012 2.873.01 4.31.002.274-.004.336.046.272.34-1.52 6.86-7.196 12.265-14.135 13.445-9.448 1.606-18.363-4.487-20.28-13.864-1.91-9.344 4.124-18.58 13.48-20.634 9.43-2.07 18.813 3.885 20.925 13.274.07.31.032.396-.295.386-.71-.023-1.422-.008-2.134-.008z"/><path fill="#F38B01" d="M28.383 60c-7.552-.103-14.103-2.7-19.617-7.88-.47-.442-.467-.446-.014-.9.873-.87 1.745-1.742 2.616-2.616.366-.365.366-.363.777.03a23.338 23.338 0 0 0 8.287 5.14 23.323 23.323 0 0 0 7.072 1.368c11.63.445 21.597-7.704 23.9-18.608.077-.36.16-.72.207-1.084.03-.22.104-.303.334-.3 1.423.006 2.848.015 4.27-.006.415-.005.303.244.273.447a27.774 27.774 0 0 1-1.243 5.21c-1.652 4.773-4.367 8.838-8.166 12.164-3.94 3.447-8.494 5.644-13.65 6.577a28.514 28.514 0 0 1-5.044.46z"/><path fill="#425465" d="M28.362 52.174c0-.697.01-1.397-.007-2.097-.005-.252.072-.312.32-.32 4.986-.118 9.237-1.965 12.728-5.517 2.406-2.447 3.962-5.38 4.706-8.73.062-.284.16-.366.444-.363 1.396.015 2.795.012 4.194.002.264-.004.335.04.285.332-1.59 9.437-9.032 16.99-18.456 18.72a23.647 23.647 0 0 1-3.863.388c-.28.007-.373-.062-.363-.354.024-.688.01-1.375.01-2.062zm.03-41.121c0 .7-.007 1.398.005 2.097.003.218-.04.3-.288.31-7.144.317-12.427 3.63-15.877 9.88-.256.464-.46.96-.666 1.45-.082.197-.17.235-.367.157-1.33-.527-2.662-1.055-4.002-1.56-.282-.104-.18-.24-.115-.4.97-2.37 2.28-4.532 3.975-6.452 3.578-4.055 8.028-6.583 13.35-7.556a21.193 21.193 0 0 1 3.713-.343c.236 0 .28.076.276.28-.008.712-.003 1.424-.003 2.135z"/><path fill="#F38B01" d="M7.842 31.61c.7 0 1.4.01 2.098-.005.233-.006.294.06.304.295.295 7.21 3.69 12.483 9.99 15.93.378.206.776.38 1.178.536.217.085.22.18.143.365-.53 1.305-1.062 2.608-1.57 3.92-.104.275-.213.27-.442.17-2.3-.97-4.4-2.265-6.27-3.917-3.963-3.5-6.454-7.85-7.475-13.036-.252-1.286-.356-2.588-.4-3.898-.01-.277.05-.378.35-.367.696.024 1.396.008 2.094.008zm40.786-3.522c-.698 0-1.398-.008-2.098.005-.24.005-.35-.053-.41-.31-1.453-6.116-5.083-10.42-10.826-12.945-.27-.117-.334-.208-.22-.49.514-1.27 1.012-2.545 1.496-3.827.102-.27.2-.312.463-.197 7.355 3.213 11.99 8.7 13.823 16.53.07.297.098.604.18.896.075.27.014.353-.272.345-.713-.018-1.426-.006-2.136-.006zm-20.234-6.104c0 .725-.01 1.45.005 2.173.002.258-.037.36-.343.382-3.343.224-5.91 2.425-6.607 5.653a6.76 6.76 0 0 0 .333 3.963c.086.223.102.338-.165.452a220.58 220.58 0 0 0-4.11 1.807c-.236.105-.317.052-.414-.17-2.024-4.663-.603-10.576 3.32-13.872 2.145-1.802 4.604-2.786 7.396-2.956.584-.037.584-.038.584.542v2.02z"/><path fill="#425465" d="M54.063 28.088c-.712 0-1.422-.007-2.135.004-.21.003-.278-.07-.312-.274a22.927 22.927 0 0 0-3.11-8.398c-.144-.235-.1-.33.12-.464 1.188-.73 2.375-1.467 3.55-2.22.236-.15.324-.1.455.12a28.164 28.164 0 0 1 3.718 9.912c.056.325.094.653.154.978.05.26-.018.356-.303.35-.71-.02-1.42-.008-2.135-.008zM2.433 31.61c.712 0 1.424.008 2.135-.005.22-.004.277.065.28.28.026 3.11.663 6.096 1.884 8.953.092.217.056.294-.156.385-1.305.562-2.605 1.13-3.9 1.712-.212.097-.302.066-.39-.146a28.738 28.738 0 0 1-2.09-7.883A34.894 34.894 0 0 1 0 31.945c-.006-.264.063-.35.336-.343.7.022 1.4.008 2.097.008z"/><path fill="#F38B01" d="M37.275 35.15c.814 0 1.628.006 2.44-.002.24-.002.35.01.244.31-1.224 3.492-3.544 5.955-6.925 7.437-.21.09-.27.03-.346-.163a355.984 355.984 0 0 0-1.66-4.253c-.09-.223-.03-.298.176-.387a6.903 6.903 0 0 0 3.137-2.68c.124-.195.258-.272.49-.268.814.014 1.628.005 2.44.005z"/><path fill="#425465" d="M37.237 28.088c-.813 0-1.626-.007-2.438.004-.206.003-.32-.064-.428-.235a6.872 6.872 0 0 0-3.185-2.73c-.22-.096-.233-.185-.153-.39a298.91 298.91 0 0 0 1.655-4.25c.075-.2.15-.244.345-.158 3.376 1.48 5.693 3.94 6.92 7.423.1.282.043.344-.243.34-.826-.015-1.65-.006-2.476-.006zM28.385 41.28c0 .737-.008 1.476.003 2.213.004.227-.03.334-.305.323-3.092-.12-5.774-1.22-8.056-3.31-.227-.21-.25-.33-.014-.56 1.056-1.03 2.09-2.077 3.13-3.123.14-.142.227-.217.42-.037 1.283 1.2 2.814 1.827 4.567 1.9.24.01.257.12.256.31-.006.76 0 1.524 0 2.285z"/></g></svg>