<!DOCTYPE svg PUBLIC "-//W3C//DTD SVG 1.1//EN" "http://www.w3.org/Graphics/SVG/1.1/DTD/svg11.dtd" [
	<!ENTITY ns_flows "http://ns.adobe.com/Flows/1.0/">
]><svg xmlns="http://www.w3.org/2000/svg" width="60" height="60" viewBox="0 -16.949 60 60" overflow="visible"><path fill-rule="evenodd" clip-rule="evenodd" fill="#273C5B" d="M29.868 4.063c.647.316.747.963 1.41 1.254 1.376.603 5.07.19 5.21-1.254.135-1.38-1.876-1.66-3.147-1.71-2.41-.093-4.91.588-7.052 1.71-2.847 1.49-7.23 4.198-11.395 1.825-.797-.455-1.74-1.322-1.736-2.51.003-2.06 2.696-2.543 4.557-2.508 1.05.02 2.492.098 2.604 1.37-.46.814-5.437-1.187-5.535 1.14-.05 1.193 1.638 1.35 2.388 1.367 3.368.084 4.955-1.82 7.273-3.08A13.756 13.756 0 0 1 29.868.073c4.007-.328 9.378.36 9.333 3.99-.03 2.652-4.052 3.445-6.943 3.308-2.873-.136-5.91-2.08-2.388-3.306zM3.063 11.817c.092-.02.102.044.108.114 4.5 3.707 13.26 4.97 21.815 5.02 9.964.056 20.707-.69 25.937-4.904-1.16 5.63-2.29 10.347-4.666 14.367-2.328 3.942-5.824 7.07-6.728 12.2-2.685 3.683-9.014 4.814-15.41 4.333-3.625-.27-8.437-1.818-9.66-4.446-.313-.676-.408-1.588-.65-2.28-1.904-5.442-6.37-8.522-8.032-14.368-1.157.557-2.01 2.354-2.17 4.104-.51 5.503 3.528 9.127 8.03 9.69-5.298 3.05-11.242-1.06-11.61-6.384-.3-4.296 2.26-7.828 4.883-9.69a40.73 40.73 0 0 1-1.845-7.755z"/><path fill-rule="evenodd" clip-rule="evenodd" fill="#273C5B" d="M48.535 4.52c.95.5 2.48 1.167 2.495 2.623.018 1.79-2.68 2.835-4.232 3.42-8.706 3.282-23.448 3.424-33.86 1.482-2.03-.378-3.83-.79-5.968-1.597-1.523-.573-4.207-1.604-4.233-3.305-.03-1.89 2.55-2.455 3.582-3.08.476-.234-.76.796-.76 1.597 0 1.577 2.33 2.442 3.796 2.965 9.365 3.333 25.754 3.265 35.378.228 2.24-.707 4.997-2.106 3.8-4.333z"/></svg>