<!DOCTYPE svg PUBLIC "-//W3C//DTD SVG 1.1//EN" "http://www.w3.org/Graphics/SVG/1.1/DTD/svg11.dtd" [
	<!ENTITY ns_flows "http://ns.adobe.com/Flows/1.0/">
]><svg xmlns="http://www.w3.org/2000/svg" width="60" height="60" viewBox="0 -4.103 60 60" overflow="visible"><path fill="#1572B6" d="M4.52 50.31L0 0h49.68l-4.525 50.302-20.346 5.596L4.52 50.31z"/><path fill="#33A9DC" d="M24.84 51.62l16.438-4.52 3.87-42.986H24.84V51.62z"/><path fill="#FFF" d="M40.436 10.022H24.84v6.14h8.798l-.57 6.29H24.84v6.14h7.678l-.725 7.962-6.938 1.847v6.39l12.75-3.487.095-1.037 1.058-11.674.02-.236.003-.023 1.508-16.66"/><path fill="#EBEBEB" d="M25.1 38.404l-7.038-1.846-.45-4.898H11.27l.883 9.642 12.946 3.49.026-.007v-6.39m-.015-22.247v-6.126H9.284l.15 1.648.288 3.113.128 1.38h15.26m-7.096 11.049l.128 1.38h6.948v-6.14h-7.516l.153 1.647"/></svg>