<svg xmlns="http://www.w3.org/2000/svg" width="60" height="60" viewBox="0 0 60 60"><path fill="#006EE5" d="M8.5 57.125C8.5 58.782 7.323 60 5.667 60h-2C2.01 60 .5 58.782.5 57.125V18.5a3 3 0 0 1 3-3h2a3 3 0 0 1 3 3v38.625zm11 0c0 1.657-1.177 2.875-2.833 2.875h-2c-1.657 0-3.167-1.218-3.167-2.875V18.5a3 3 0 0 1 3-3h2a3 3 0 0 1 3 3v38.625zm11 0c0 1.657-1.177 2.875-2.833 2.875h-2c-1.657 0-3.167-1.218-3.167-2.875V18.5a3 3 0 0 1 3-3h2a3 3 0 0 1 3 3v38.625z"/><path fill="#00E297" d="M41.5 57.125c0 1.657-1.177 2.875-2.834 2.875h-2c-1.656 0-3.166-1.218-3.166-2.875V40.5a3 3 0 0 1 3-3h2a3 3 0 0 1 3 3v16.625zm11.334 0C52.834 58.782 51.657 60 50 60h-2c-1.656 0-3.166-1.218-3.166-2.875V40.5a3 3 0 0 1 3-3h2a3 3 0 0 1 3 3v16.625z"/></svg>