<!DOCTYPE svg PUBLIC "-//W3C//DTD SVG 1.1//EN" "http://www.w3.org/Graphics/SVG/1.1/DTD/svg11.dtd" [
	<!ENTITY ns_flows "http://ns.adobe.com/Flows/1.0/">
]><svg xmlns="http://www.w3.org/2000/svg" width="60" height="60" viewBox="0 -17.927 60 60" overflow="visible"><path fill-rule="evenodd" clip-rule="evenodd" fill="#0083CC" d="M21.29 0h2.61c5.158.762 8.374 3.465 10.35 7.406-.953-.12-2.767.438-3.955.084-.455-.136-.858-.844-1.346-1.262a11.054 11.054 0 0 0-1.517-1.095c-3.765-2.162-9.77-1.37-12.203 1.936 2.405-1.974 7.472-1.26 9.847.25-6.754-1.46-12.458 1.32-11.95 8.584-.345.182-.754-.38-1.263-.59-.553-.225-1.234-.31-1.852-.42C9.076 6.21 13.942 1.234 21.292 0zm20.872 4.292v6.06h-6.06c.057-1.992-.112-4.208.084-6.06h5.976z"/><path fill-rule="evenodd" clip-rule="evenodd" fill="#0083CC" d="M35.177 8.5v4.545h-4.544V8.5h4.544zM46.2 10.856v3.366h-3.45v-3.366h3.45zm6.986.084v3.45h-3.45v-3.45h3.45zm6.648 3.872v6.144c-2.02-.056-4.262.11-6.143-.084.058-1.992-.11-4.21.086-6.06h6.06zM48.39 17.505v3.366h-3.367v-3.364h3.366zm-7.07.335v3.45h-3.367c-.19-.984-.03-2.324-.083-3.45h3.45zm10.94 3.282v3.535h-3.534v-3.535h3.534zM0 19.27c.957-4.708 3.742-7.59 8.92-8.078-.2 1.16-.068 2.7.084 3.788-4.596-.136-7.227 5.51-4.713 9.172.475.69 1.29 1.384 2.02 1.684-1.733-1.136-1.92-5.132-.755-7.068-.42 3.198.823 5.46 2.525 6.816-1.46.673-2.588 1.676-3.872 2.523C2.053 26.645.51 24.567 0 21.46v-2.19z"/><path fill-rule="evenodd" clip-rule="evenodd" fill="#0083CC" d="M3.535 30.128c3.78-3.407 7.63-6.61 14.474-6.647 3.94-.02 7.296 1.44 10.602 2.693 3.244 1.23 6.528 2.534 9.762 3.535 3.56 1.1 7.605 1.814 11.614 1.01 3.853-.773 7.878-2.67 9.592-5.723.076-.136.63-1.432.337-.59-1.562 4.505-5.73 6.813-10.856 7.575-8.486 1.26-16.903-.835-23.562-3.2-2.352-.835-4.552-1.75-7.152-2.02-5.997-.614-10.71 1.4-14.813 3.368z"/><path fill-rule="evenodd" clip-rule="evenodd" fill="#0083CC" d="M34.84 26.088c3.956 2.22 13.183 3.592 17 0-1.044 1.898-3.266 3.404-6.06 3.62-4.554.35-8.255-1.945-10.94-3.62zM3.703 31.727c3.726-2.52 9.025-3.967 15.064-3.282 4.96.564 9.54 2.318 13.213 4.292.122.065.744.238.42.337-7.28-3.065-20.237-4.08-28.697-1.347z"/></svg>