<!DOCTYPE svg PUBLIC "-//W3C//DTD SVG 1.1//EN" "http://www.w3.org/Graphics/SVG/1.1/DTD/svg11.dtd" [
	<!ENTITY ns_flows "http://ns.adobe.com/Flows/1.0/">
]><svg xmlns="http://www.w3.org/2000/svg" width="60" height="60" viewBox="0 -8.028 60 60" overflow="visible"><path fill-rule="evenodd" clip-rule="evenodd" fill="#2661B5" d="M51.958 2.786V49.17c-.188 1.68-1.123 2.612-2.8 2.802H36.083c0-6.712-.083-13.287-.083-20h6c.366-2.583.66-5.388 1-8h-7c.234-2.688-.278-6.437 1-8 1.325-1.62 4.2-.865 7-1v-7c-2.45-.236-5.37-.32-7.846-.017C31.477 8.53 28 11.377 28 15.972v8h-7v8h7c0 6.713-.042 13.288-.042 20H2.772C1.746 51.91 1.018 51.42.54 50.76c-.557-.766-.54-1.534-.54-2.88V3.433C0 2.123.204 1.48.834.85 1.48.2 2.13.013 3.418.013h44.447c.64 0 1.19-.043 1.67.027 1.428.21 2.235 1.218 2.423 2.746z"/></svg>