<svg xmlns="http://www.w3.org/2000/svg" width="60" height="60" viewBox="0 0 60 60"><path fill-rule="evenodd" clip-rule="evenodd" fill="#65D6E5" d="M0 34.693c.288-.934 1.012-1.396 1.864-1.71.564-.21 1.15-.29 1.752-.272.084.004.106-.02.104-.102a79.675 79.675 0 0 0-.235-3.752c-.124-1.513-.263-3.025-.345-4.542-.037-.71-.06-1.42-.06-2.132-.003-1.884.148-3.754.603-5.59.018-.076.003-.103-.07-.13-.642-.242-1.23-.575-1.693-1.092-.787-.878-1.008-1.91-.673-3.02.49-1.63 1.595-2.643 3.278-2.964.852-.162 1.67.013 2.445.388.14.067.276.145.413.222.047.027.078.034.126-.006C8.934 8.78 10.584 8 12.36 7.453a24.677 24.677 0 0 1 3.544-.785c.986-.15 1.977-.258 2.97-.34.02 0 .04.004.052-.02h1.207c.125.028.252.006.38.014.042 0 .086-.01.128.007.886.025 1.767.076 2.646.172 1.894.208 3.738.602 5.473 1.423.825.392 1.6.873 2.302 1.458.07.06.115.066.194.015.566-.366 1.177-.62 1.85-.703a3.617 3.617 0 0 1 2.776.777c.88.693 1.42 1.6 1.55 2.72.153 1.32-.36 2.357-1.427 3.13a4.254 4.254 0 0 1-.996.53c-.075.03-.095.06-.073.14.292 1.115.498 2.247.65 3.39.164 1.252.26 2.51.313 3.77.042.952.06 1.904.074 2.856.018 1.162.01 2.324.023 3.486.013.964.024 1.93.062 2.892 0 .09.015.125.12.13a4.57 4.57 0 0 1 1.803.43c.678.318 1.214.772 1.46 1.51v.36c-.074.173-.17.326-.338.424-.05.03-.04.084-.045.13-.024.177-.07.345-.165.5-.195.313-.493.422-.844.403-.486-.022-.914-.224-1.324-.466-.158-.094-.312-.195-.484-.305.017.278.03.535.046.793.06.882.107 1.765.146 2.647.04.924.067 1.847.062 2.77-.01 1.654-.1 3.302-.36 4.937-.285 1.78-.764 3.5-1.543 5.132a10.77 10.77 0 0 1-2.09 2.982c-.075.074-.06.1.015.152.69.503 1.295 1.092 1.74 1.83.195.322.336.665.362 1.047.032.47-.142.85-.497 1.147-.184.153-.38.3-.58.43-.45.288-.908.282-1.365.016-.348-.204-.623-.492-.887-.79-.29-.325-.567-.658-.86-.98a2.812 2.812 0 0 0-.783-.63c-.06-.03-.11-.042-.18-.006-1.45.767-2.992 1.272-4.593 1.612a26.23 26.23 0 0 1-4.685.536c-1.15.033-2.3.004-3.443-.107-2.053-.2-4.05-.63-5.96-1.422-.19-.078-.357-.02-.53.016-.545.108-1 .398-1.43.736-.422.33-.81.7-1.24 1.017-.298.22-.602.43-.955.55-.58.2-1.058.03-1.383-.485-.04-.062-.076-.093-.156-.103-.174-.024-.3-.14-.387-.283-.375-.613-.37-1.23.002-1.842.29-.476.697-.838 1.134-1.17.336-.256.68-.5 1.025-.742.07-.05.063-.074.005-.128a9.937 9.937 0 0 1-2.146-2.823 12.765 12.765 0 0 1-1.072-3.04c-.296-1.312-.423-2.646-.47-3.99-.053-1.605.025-3.206.135-4.806.09-1.31.2-2.62.3-3.93.026-.344.043-.688.063-1.046a2.724 2.724 0 0 0-.7.315c-.406.276-.838.504-1.327.602-.19.037-.383.05-.573.002C.69 36.35.5 36.07.413 35.7a.417.417 0 0 1-.01-.06.317.317 0 0 0-.16-.282c-.133-.085-.185-.234-.243-.375v-.29z"/><path fill-rule="evenodd" clip-rule="evenodd" fill="#979797" d="M20.64 6.327c-.17.003-.34.02-.507-.02h.506v.02z"/><path fill-rule="evenodd" clip-rule="evenodd" fill="#65D6E5" d="M37.146 12.592c-.005 1.11-.51 1.946-1.425 2.552a4.68 4.68 0 0 1-.81.422c-.054.023-.08.02-.1-.044a20.75 20.75 0 0 0-.772-2.29c-.027-.068.014-.093.052-.128.27-.253.435-.55.406-.936-.05-.672-.596-1.21-1.232-1.198-.162.003-.32.03-.475.08-.06.02-.096.01-.134-.04-.364-.46-.763-.893-1.2-1.286-.04-.037-.064-.062.002-.104.69-.427 1.432-.69 2.255-.655.863.035 1.605.37 2.23.958a3.777 3.777 0 0 1 1.168 2.152c.015.08.027.16.03.24.007.092.004.185.004.277zM5.137 9.634c.715.004 1.373.214 1.994.56.07.038.078.06.016.117a10.255 10.255 0 0 0-1.48 1.697c-.046.067-.08.06-.142.03-.257-.127-.523-.23-.812-.25-.573-.043-.96.184-1.208.704-.27.56-.17 1.038.3 1.45.16.143.337.26.524.36.057.03.07.058.043.12a14.727 14.727 0 0 0-.565 1.7c-.01.038-.01.09-.08.06-.794-.306-1.49-.74-1.935-1.495-.454-.774-.497-1.598-.2-2.428.47-1.317 1.384-2.172 2.746-2.53a3.19 3.19 0 0 1 .8-.092z"/><path fill-rule="evenodd" clip-rule="evenodd" fill="#F6D29E" d="M10.094 57.334c-.293.08-.57.193-.83.344-.462.268-.86.618-1.265.962-.37.315-.747.626-1.178.857-.254.138-.515.254-.814.18-.264-.064-.422-.252-.55-.475-.024-.044-.005-.094.006-.14.056-.24.18-.447.312-.65.145-.216.3-.427.412-.663.06-.124.047-.205-.042-.25-.09-.05-.17-.01-.23.12-.11.223-.26.423-.397.63-.147.223-.278.452-.343.713-.02.08-.054.076-.106.035-.043-.035-.09-.07-.117-.12-.273-.46-.307-.93-.05-1.408.214-.4.534-.71.876-1 .412-.347.862-.644 1.3-.96.07-.05.13-.044.2.017a12.86 12.86 0 0 0 2.708 1.72c.035.02.084.025.104.084zm19.776-.574c.32-.184.618-.37.91-.568.475-.325.925-.68 1.348-1.07.042-.04.07-.062.13-.02.69.497 1.3 1.075 1.742 1.81.156.26.275.536.31.842.05.402-.103.72-.408.975-.062.05-.077.017-.098-.035-.092-.24-.18-.48-.278-.717a2 2 0 0 0-.432-.663c-.088-.088-.175-.098-.24-.023-.072.082-.052.16.02.232.226.22.347.5.46.783.076.193.146.39.227.582.027.057.015.082-.03.12-.405.327-.815.354-1.255.075-.31-.195-.554-.465-.793-.734-.36-.405-.692-.835-1.092-1.204a3.123 3.123 0 0 0-.52-.39zM3.73 33.74c0 .435-.02.868-.082 1.298-.02.135-.09.218-.218.256-.25.074-.472.2-.688.342-.362.242-.748.436-1.182.518a1.046 1.046 0 0 1-.37.006c-.284-.05-.514-.357-.503-.654.002-.054.035-.053.068-.066.174-.064.34-.14.47-.283.09-.1.104-.196.032-.262-.068-.06-.164-.043-.25.05-.118.132-.28.18-.437.24-.042.015-.068-.01-.1-.03-.153-.102-.207-.27-.14-.48.117-.373.36-.662.665-.893.55-.415 1.183-.633 1.86-.73.24-.032.48-.038.722-.047.13-.005.154.05.152.16-.004.19 0 .383 0 .576zm32.354-.48c0-.118.008-.234-.003-.35-.005-.092.03-.105.108-.1.787.05 1.526.253 2.183.704.33.23.588.523.734.902.092.236.05.408-.114.53-.047.034-.086.044-.145.022-.162-.062-.322-.12-.436-.264-.06-.068-.137-.075-.207-.02-.074.06-.08.135-.024.213.122.17.3.263.492.326.082.027.097.063.08.147-.104.507-.407.692-.943.563a3.485 3.485 0 0 1-1.1-.498c-.137-.088-.267-.184-.417-.24-.068-.025-.084-.07-.088-.137-.035-.6-.073-1.2-.11-1.803-.003.004-.008.004-.012.004z"/><path fill-rule="evenodd" clip-rule="evenodd" d="M17.234 18.953c.026-.61.322-1.058.852-1.332.926-.477 1.875-.517 2.822-.062.402.193.673.513.754.968a.784.784 0 0 1-.014.334c.006.13-.066.23-.126.336-.218.287-.524.448-.85.573a4.102 4.102 0 0 1-1.752.25c-.456-.028-.903-.104-1.294-.37a.962.962 0 0 1-.348-.393c-.034-.1-.086-.195-.044-.305z"/><path fill-rule="evenodd" clip-rule="evenodd" fill="#FFF" d="M25.107 18.745c-1.09-.005-2.125-.265-3.05-.887-1.044-.702-1.68-1.69-1.944-2.91-.208-.965-.033-1.897.376-2.78.54-1.172 1.45-1.98 2.62-2.492 1.264-.556 2.58-.696 3.916-.312 1.726.497 2.792 1.654 3.24 3.384.232.904.257 1.812-.035 2.71-.382 1.172-1.167 2.004-2.237 2.58-.894.483-1.857.702-2.887.707z"/><path fill-rule="evenodd" clip-rule="evenodd" fill="#F6D29E" d="M21.508 19.17c.566.266 1.097.59 1.52 1.06.21.23.38.492.41.814.037.44-.2.756-.503 1.032-.318.288-.69.333-1.094.223-.375-.106-.725-.277-1.086-.42-.436-.17-.883-.272-1.354-.246-.33.02-.646.123-.958.227-.395.133-.783.286-1.195.365a1.558 1.558 0 0 1-.527.025c-.463-.07-.812-.43-.908-.953-.117-.636.128-1.15.573-1.582.256-.25.563-.41.92-.467.198.372.544.535.927.626.92.22 1.816.143 2.68-.247.234-.103.435-.256.596-.458z"/><path fill-rule="evenodd" clip-rule="evenodd" fill="#F9F9F9" d="M17.575 14.684a4 4 0 0 1-.47 1.8c-.135.254-.3.488-.486.71-.31.37-.673.672-1.078.93a5.522 5.522 0 0 1-2.068.782c-.393.067-.79.08-1.188.075-.79-.04-1.55-.215-2.242-.61-1.23-.703-1.945-1.767-2.152-3.166a4.478 4.478 0 0 1 .197-2.198 4.154 4.154 0 0 1 1.2-1.738c.66-.582 1.437-.935 2.286-1.137.325-.076.66-.13.998-.133.218-.012.437-.015.655 0 1.04.076 1.997.377 2.82 1.042.415.327.733.736.988 1.196.25.456.398.947.48 1.458.03.207.06.416.053.626.02.12.02.242.003.364z"/><path fill-rule="evenodd" clip-rule="evenodd" fill="#939393" d="M13.23 9.998h-.655c.218-.032.437-.033.655 0z"/><path fill-rule="evenodd" clip-rule="evenodd" fill="#FEFEFE" d="M21.312 22.677c.022.373.047.745.066 1.117.016.313 0 .626-.043.937-.014.096-.076.16-.142.218-.207.18-.475.23-.718.327-.035.014-.086-.01-.13-.023a1.286 1.286 0 0 1-.75-.6.528.528 0 0 1-.073-.226c-.05-.53-.023-1.058.016-1.587l.062-.89c.352-.022.68.083 1.002.203.184.068.36.158.545.22.115.037.16.096.15.212 0 .03-.007.065.015.093zm-2.097-.704c-.047.657-.118 1.312-.1 1.973.002.12 0 .243.02.36a.34.34 0 0 1-.096.314c-.18.19-.36.38-.6.498-.303.15-.568.1-.79-.15-.275-.31-.39-.69-.464-1.083a3.77 3.77 0 0 1 .002-1.306c.017-.023.03-.046.063-.05.52-.084.997-.298 1.495-.448.153-.045.306-.102.468-.11z"/><path fill-rule="evenodd" clip-rule="evenodd" fill="#949494" d="M17.575 14.684v-.364a.653.653 0 0 1 0 .364z"/><path fill-rule="evenodd" clip-rule="evenodd" d="M24.212 14.502c-.007.32-.165.743-.526 1.072-.62.562-1.507.486-2.036-.163a1.732 1.732 0 0 1 .185-2.35c.643-.574 1.624-.418 2.11.332.178.28.267.59.267 1.112zm-12.468.215c-.013.524-.188.947-.56 1.278-.587.524-1.476.463-2.01-.134a1.712 1.712 0 0 1 .123-2.377c.765-.695 1.96-.367 2.337.64.04.113.072.23.09.35.012.09.015.183.02.245z"/><path fill-rule="evenodd" clip-rule="evenodd" fill="#FEFEFE" d="M23.758 14.696c-.002.28-.21.468-.44.397-.15-.046-.253-.208-.253-.398 0-.19.104-.353.252-.398.23-.07.44.12.44.4zm-12.481.396c0 .232-.14.408-.332.415-.243.01-.424-.24-.365-.508.043-.2.208-.338.38-.317.186.024.316.192.317.408z"/></svg>