<!DOCTYPE svg PUBLIC "-//W3C//DTD SVG 1.1//EN" "http://www.w3.org/Graphics/SVG/1.1/DTD/svg11.dtd" [
	<!ENTITY ns_flows "http://ns.adobe.com/Flows/1.0/">
]><svg xmlns="http://www.w3.org/2000/svg" width="60" height="60" viewBox="0 -4.616 60 60" overflow="visible"><path fill-rule="evenodd" clip-rule="evenodd" fill="#616161" d="M46.922 8.058c5.766 5.236 10.26 16.11 7.078 27.19-2.458 7.596-7.037 13.072-13.594 16.57-.458-.154-.72-.64-1.046-.966-2.55-2.55-5.138-5.152-7.722-7.56-6.708 1.724-12.506-.945-15.928-4.506-3.403-3.542-5.74-9.887-3.7-16.25 1.685-5.26 5.814-9.087 10.94-10.618 6.215-1.855 12.675.386 16.087 4.022a424.62 424.62 0 0 0 7.885-7.882zM27.295 29.535h19.788c2.11 0 4.252.135 3.862-2.412-.344-2.243-4.076-1.61-6.758-1.61H27.295c2.52-.24 5.604.08 8.125-.16-1.144-3.214-3.362-5.643-7.08-5.953-6.01-.5-11.184 5.6-8.123 11.825.147.3.533.93.804 1.288 1.493 1.972 3.433 3.432 5.39 5.39.713.71 1.636 1.714 2.657 2.735.504.504 2.15 2.52 2.896 2.573.463.035 1.68-.51 2.333-.802 5.113-2.308 8.373-6.688 9.41-12.79-5.444-.055-11.1.105-16.41-.082zM42.337 44.82c3.165.593 3.33-4.663 0-3.942-2.33.503-1.573 3.647 0 3.942z"/><path fill-rule="evenodd" clip-rule="evenodd" fill="#B7B7B7" d="M27.295 29.535c-2.29-.02-2.3-4 0-4.022h16.892c2.682 0 6.414-.632 6.758 1.61.39 2.547-1.75 2.412-3.862 2.412H27.295z"/><path fill-rule="evenodd" clip-rule="evenodd" fill="#B7B7B7" d="M54 35.247c-3.31 13.15-16.713 21.516-29.44 19.95-1.064-.13-2.182-.143-3.218-.402-7.458-1.87-13.86-6.618-17.536-12.952-2.552-4.395-4.258-9.97-3.7-16.57.694-8.23 4.3-13.677 9.09-18.34h.08c.438-.42.97-.747 1.367-1.207a67.666 67.666 0 0 0 2.575-1.77c.188-.026.347-.082.402-.24.13.02.138-.077.24-.082.3-.158.564-.35.886-.483.585-.296 1.185-.582 1.77-.883.15-.01.27-.053.322-.16.285-.01.458-.133.644-.243.144-.044.334-.042.402-.16a4.762 4.762 0 0 0 1.126-.402h.08c.235-.087.57-.074.725-.24.14.005.25-.02.322-.082.317-.058.65-.1.885-.24.12-.014.297.028.322-.082.3.006.556-.034.724-.16.354.003.665-.033.885-.162.622.03 1.004-.176 1.61-.16.264-.004.4-.137.723-.082.485.002.828-.137 1.368-.08h1.93c.626-.036 1.038.143 1.69.08.06.182.45.03.643.08.094.068.216.107.402.082.404.05.76.148 1.205.16.965.24 1.972.44 2.896.725.094.067.216.106.403.08.153.14.42.17.643.24.105.084.298.08.403.163.494.122.833.4 1.366.482.28.23.683.336 1.046.483.168.153.384.26.643.32.073.142.282.148.403.242.414.146.67.453 1.125.562.056.16.215.214.4.242.42.333.865.638 1.37.885.848.677 1.692 1.362 2.573 2.01.005.05.012.094.08.08.302.423.744.703 1.046 1.126a437.295 437.295 0 0 1-7.884 7.883c-3.412-3.637-9.872-5.878-16.088-4.023-5.125 1.53-9.254 5.358-10.94 10.618-2.04 6.363.298 12.708 3.7 16.25 3.422 3.56 9.22 6.23 15.93 4.505 2.583 2.41 5.172 5.013 7.72 7.562.327.326.59.812 1.047.966C46.962 48.32 51.54 42.843 54 35.248zM28.26 8.057c2.014-.648 1.574-4.355-1.126-3.86-2.734.5-1.555 4.725 1.126 3.86zM11.77 14.25c3.166.595 3.33-4.66 0-3.94-2.33.505-1.573 3.648 0 3.94zM5.415 29.457c3.307 1.066 3.752-4.512.322-3.862-2.286.435-1.728 3.41-.322 3.862zM12.09 44.82c2.988.295 2.772-4.504-.24-3.942-2.404.447-1.798 3.74.24 3.942zm15.527 6.113c2.59-.092 2.516-4.502-.483-3.942-2.32.434-1.987 4.03.483 3.944z"/><path fill-rule="evenodd" clip-rule="evenodd" fill="#373737" d="M27.295 25.512c-2.3.02-2.29 4.002 0 4.022 5.31.188 10.966.027 16.41.08-1.038 6.104-4.298 10.484-9.41 12.792-.654.294-1.87.837-2.334.804-.742-.053-2.39-2.07-2.894-2.573-1.02-1.02-1.944-2.024-2.655-2.735-1.957-1.958-3.9-3.418-5.39-5.39-.27-.36-.656-.987-.803-1.288C17.157 24.998 22.33 18.9 28.34 19.4c3.717.31 5.936 2.738 7.08 5.952-2.52.24-5.605-.08-8.125.16z"/></svg>