<svg width="60" height="60" xmlns="http://www.w3.org/2000/svg" xmlns:xlink="http://www.w3.org/1999/xlink" viewBox="0 0 128 128"><defs><path id="a" d="M107.3 67.3c0 24.5-19.9 44.4-44.4 44.4S18.5 91.8 18.5 67.3s19.9-44.4 44.4-44.4 44.4 19.9 44.4 44.4"/></defs><clipPath id="b"><use xlink:href="#a" overflow="visible"/></clipPath><path clip-path="url(#b)" fill="#F8D846" d="M10.4 14.7h105.1v105.1H10.4z"/><defs><path id="c" d="M23.1 78.4l21.6-27.6 23.5 31.3z"/></defs><clipPath id="d"><use xlink:href="#c" overflow="visible"/></clipPath><path clip-path="url(#d)" fill="#41B168" d="M14.9 42.6h61.5v47.6H14.9z"/><defs><path id="e" d="M49.6 78.9l28-35.8 25.2 34.8z"/></defs><clipPath id="f"><use xlink:href="#e" overflow="visible"/></clipPath><path clip-path="url(#f)" fill="#20A362" d="M41.4 35H111v52.1H41.4z"/><g><defs><circle id="g" cx="62.9" cy="67.4" r="44.4"/></defs><clipPath id="h"><use xlink:href="#g" overflow="visible"/></clipPath><g clip-path="url(#h)"><defs><path id="i" d="M17.4 54.3h91.5v58.8H17.4z"/></defs><clipPath id="j"><use xlink:href="#i" overflow="visible"/></clipPath><g clip-path="url(#j)"><defs><path id="k" d="M17.4 78.8h94.8v36H17.4z"/></defs><clipPath id="l"><use xlink:href="#k" overflow="visible"/></clipPath><g clip-path="url(#l)"><defs><path id="m" d="M17.4 21.6h91.5v91.5H17.4z"/></defs><clipPath id="n"><use xlink:href="#m" overflow="visible"/></clipPath><path clip-path="url(#n)" fill="#3F8CF4" d="M9.2 70.7h111.2V123H9.2z"/></g></g><g clip-path="url(#j)"><defs><path id="o" d="M17.4 21.6h91.5v91.5H17.4z"/></defs><clipPath id="p"><use xlink:href="#o" overflow="visible"/></clipPath><path clip-path="url(#p)" fill="none" stroke="#EEE" stroke-width="4.904" stroke-miterlimit="10" d="M17.4 78.8h94.8v36H17.4z"/></g></g></g><g><defs><circle id="q" cx="100.7" cy="78.8" r="9.8"/></defs><clipPath id="r"><use xlink:href="#q" overflow="visible"/></clipPath><path clip-path="url(#r)" fill="#DC4A3D" d="M82.8 60.8h36v36h-36z"/></g><g><defs><circle id="s" cx="100.7" cy="78.8" r="4.9"/></defs><clipPath id="t"><use xlink:href="#s" overflow="visible"/></clipPath><path clip-path="url(#t)" fill="#812A28" d="M87.7 65.7h26.2v26.2H87.7z"/></g><g><defs><path id="u" d="M50.1 24.1c0-8.8-8.1-15.6-17.3-13.5-3.8.9-6.9 3.5-8.7 6.9-3.8 7.1-.9 12.4 2.6 16.6 0 0 7.5 8.7 9.1 22.7 0 0 0 .5.5.5s.5-.5.5-.5c1.5-14 9.1-22.7 9.1-22.7 2.1-2.8 4.2-6.1 4.2-10"/></defs><clipPath id="v"><use xlink:href="#u" overflow="visible"/></clipPath><path clip-path="url(#v)" fill="#DC4A3D" d="M14.1 2h44.1v63.5H14.1z"/></g><g><defs><path id="w" d="M41.4 23.9c0 2.9-2.4 5.3-5.3 5.3s-5.3-2.4-5.3-5.3 2.4-5.3 5.3-5.3c3 0 5.3 2.4 5.3 5.3"/></defs><clipPath id="x"><use xlink:href="#w" overflow="visible"/></clipPath><path clip-path="url(#x)" fill="#812A28" d="M22.7 10.4h26.9v27H22.7z"/></g></svg>