<svg width="60" height="60" xmlns="http://www.w3.org/2000/svg" xmlns:xlink="http://www.w3.org/1999/xlink" viewBox="0 0 128 128"><defs><path id="a" d="M18.5 4.2h87v104.1h-87z"/></defs><clipPath id="b"><use xlink:href="#a" overflow="visible"/></clipPath><g clip-path="url(#b)"><defs><path id="c" d="M-82.4-1673.7h2122.2v8119H-82.4z"/></defs><clipPath id="d"><use xlink:href="#c" overflow="visible"/></clipPath><g clip-path="url(#d)"><defs><path id="e" d="M62.7 107.8c-23.4.2-42.6-18.5-42.8-41.9-.2-23.4 18.5-42.5 41.9-42.7 23.4-.2 42.5 18.5 42.7 41.9.3 23.4-18.5 42.5-41.8 42.7"/></defs><clipPath id="f"><use xlink:href="#e" overflow="visible"/></clipPath><g clip-path="url(#f)"><defs><path id="g" d="M18.5 4.2h87v104.1h-87z"/></defs><clipPath id="h"><use xlink:href="#g" overflow="visible"/></clipPath><path clip-path="url(#h)" fill="#FFDE44" d="M12.1 15.4h100.2v100.1H12.1z"/></g></g></g><g clip-path="url(#b)"><defs><path id="i" d="M-82.4-1673.7h2122.2v8119H-82.4z"/></defs><clipPath id="j"><use xlink:href="#i" overflow="visible"/></clipPath><g clip-path="url(#j)"><defs><path id="k" d="M78.3 18.3v33.9h29.9L78.3 18.3"/></defs><clipPath id="l"><use xlink:href="#k" overflow="visible"/></clipPath><g clip-path="url(#l)"><defs><path id="m" d="M18.5 4.2h87v104.1h-87z"/></defs><clipPath id="n"><use xlink:href="#m" overflow="visible"/></clipPath><g clip-path="url(#n)"><defs><path id="o" d="M77.6 22.8h28v29.5h-28z"/></defs><clipPath id="p"><use xlink:href="#o" overflow="visible"/></clipPath><g clip-path="url(#p)"><defs><path id="q" d="M63 108.2c-23.4.2-42.5-18.5-42.7-41.9s18.5-42.5 41.9-42.7c23.4-.2 42.5 18.5 42.7 41.9S86.4 107.9 63 108.2"/></defs><clipPath id="r"><use xlink:href="#q" overflow="visible"/></clipPath><g clip-path="url(#r)"><defs><path id="s" d="M77.6 18.2h28v34.2h-28z"/></defs><clipPath id="t"><use xlink:href="#s" overflow="visible"/></clipPath><path clip-path="url(#t)" fill="#3F8CF4" d="M12.5 15.8h100.2v100.1H12.5z"/></g></g></g></g></g></g><g clip-path="url(#b)"><defs><path id="u" d="M-82.4-1673.7h2122.2v8119H-82.4z"/></defs><clipPath id="v"><use xlink:href="#u" overflow="visible"/></clipPath><g clip-path="url(#v)"><defs><path id="w" d="M72.6 87.5H24.4l10.8 15.8s26 12.7 26.3 12.7c.3-.1 11.1-9.4 11.1-9.4V87.5"/></defs><clipPath id="x"><use xlink:href="#w" overflow="visible"/></clipPath><g clip-path="url(#x)"><defs><path id="y" d="M18.5 4.2h87v104.1h-87z"/></defs><clipPath id="z"><use xlink:href="#y" overflow="visible"/></clipPath><g clip-path="url(#z)"><defs><path id="A" d="M23.2 86.5h49.7v21.8H23.2z"/></defs><clipPath id="B"><use xlink:href="#A" overflow="visible"/></clipPath><g clip-path="url(#B)"><defs><path id="C" d="M62.7 107.8c-23.4.2-42.5-18.6-42.8-41.9-.2-23.4 18.5-42.5 41.9-42.7 23.4-.2 42.5 18.5 42.7 41.9.3 23.3-18.4 42.4-41.8 42.7"/></defs><clipPath id="D"><use xlink:href="#C" overflow="visible"/></clipPath><g clip-path="url(#D)"><defs><path id="E" d="M23.2 86.5h49.7v21.8H23.2z"/></defs><clipPath id="F"><use xlink:href="#E" overflow="visible"/></clipPath><path clip-path="url(#F)" fill="#3F8CF4" d="M12.2 15.4h100.2v100.1H12.2z"/></g></g></g></g></g></g><g clip-path="url(#b)"><defs><path id="G" d="M-82.4-1673.7h2122.2v8119H-82.4z"/></defs><clipPath id="H"><use xlink:href="#G" overflow="visible"/></clipPath><g clip-path="url(#H)"><defs><path id="I" d="M48.5 25.2v27h-32l4.6-18.4 9.1-18.5 8.9.5 6.7 3.9 2.7 5.5"/></defs><clipPath id="J"><use xlink:href="#I" overflow="visible"/></clipPath><g clip-path="url(#J)"><defs><path id="K" d="M18.5 4.2h87v104.1h-87z"/></defs><clipPath id="L"><use xlink:href="#K" overflow="visible"/></clipPath><g clip-path="url(#L)"><defs><path id="M" d="M18.5 22.8h31.1v29.5H18.5z"/></defs><clipPath id="N"><use xlink:href="#M" overflow="visible"/></clipPath><g clip-path="url(#N)"><defs><path id="O" d="M62.7 107.8c-23.4.2-42.6-18.5-42.8-41.9-.2-23.4 18.5-42.5 41.9-42.7s42.5 18.5 42.7 41.9c.3 23.4-18.5 42.5-41.8 42.7"/></defs><clipPath id="P"><use xlink:href="#O" overflow="visible"/></clipPath><g clip-path="url(#P)"><defs><path id="Q" d="M18.5 15.1h31.1v37.3H18.5z"/></defs><clipPath id="R"><use xlink:href="#Q" overflow="visible"/></clipPath><path clip-path="url(#R)" fill="#20A362" d="M12.2 15.4h100.2v100.1H12.2z"/></g></g></g></g></g></g><g clip-path="url(#b)"><defs><path id="S" d="M-82.4-1673.7h2122.2v8119H-82.4z"/></defs><clipPath id="T"><use xlink:href="#S" overflow="visible"/></clipPath><g clip-path="url(#T)"><defs><path id="U" d="M78.3 57.7h32.2v23.8H78.3"/></defs><clipPath id="V"><use xlink:href="#U" overflow="visible"/></clipPath><g clip-path="url(#V)"><defs><path id="W" d="M18.5 4.2h87v104.1h-87z"/></defs><clipPath id="X"><use xlink:href="#W" overflow="visible"/></clipPath><g clip-path="url(#X)"><defs><path id="Y" d="M77.6 57h28v24.9h-28z"/></defs><clipPath id="Z"><use xlink:href="#Y" overflow="visible"/></clipPath><g clip-path="url(#Z)"><defs><path id="aa" d="M62.6 107.6c-23.4.2-42.5-18.6-42.7-41.9-.3-23.4 18.5-42.5 41.9-42.7 23.4-.2 42.5 18.5 42.7 41.9.3 23.3-18.5 42.4-41.9 42.7"/></defs><clipPath id="ab"><use xlink:href="#aa" overflow="visible"/></clipPath><g clip-path="url(#ab)"><defs><path id="ac" d="M77.6 57h28v24.9h-28z"/></defs><clipPath id="ad"><use xlink:href="#ac" overflow="visible"/></clipPath><path clip-path="url(#ad)" fill="#20A362" d="M12.1 15.2h100.2v100.1H12.1z"/></g></g></g></g></g></g><g clip-path="url(#b)"><defs><path id="ae" d="M-82.4-1673.7h2122.2v8119H-82.4z"/></defs><clipPath id="af"><use xlink:href="#ae" overflow="visible"/></clipPath><g clip-path="url(#af)"><defs><path id="ag" d="M119.3 87.5v-5.7h-41V57.9h40v-5.7h-40V20.6h-5.7v31.6H54.2V-4.5h-5.7v56.7H10.2v5.7h62.4v23.9H5.4v5.7h67.2v24.4h5.7V87.5h41"/></defs><clipPath id="ah"><use xlink:href="#ag" overflow="visible"/></clipPath><g clip-path="url(#ah)"><defs><path id="ai" d="M18.5 4.2h87v104.1h-87z"/></defs><clipPath id="aj"><use xlink:href="#ai" overflow="visible"/></clipPath><g clip-path="url(#aj)"><defs><path id="ak" d="M18.5 22.8h87v85.4h-87z"/></defs><clipPath id="al"><use xlink:href="#ak" overflow="visible"/></clipPath><g clip-path="url(#al)"><defs><path id="am" d="M62.8 107.8c-23.4.3-42.5-18.5-42.8-41.9-.2-23.4 18.5-42.5 41.9-42.7 23.4-.2 42.5 18.5 42.7 41.9.3 23.4-18.5 42.5-41.8 42.7"/></defs><clipPath id="an"><use xlink:href="#am" overflow="visible"/></clipPath><g clip-path="url(#an)"><defs><path id="ao" d="M18.5 4.2h87v104.1h-87z"/></defs><clipPath id="ap"><use xlink:href="#ao" overflow="visible"/></clipPath><path clip-path="url(#ap)" fill="#EEE" d="M12.3 15.5h100.2v100.1H12.3z"/></g></g></g></g></g></g><g clip-path="url(#b)"><defs><path id="aq" d="M-82.4-1673.7h2122.2v8119H-82.4z"/></defs><clipPath id="ar"><use xlink:href="#aq" overflow="visible"/></clipPath><g clip-path="url(#ar)"><defs><path id="as" d="M18.5 4.2h87v104.1h-87z"/></defs><clipPath id="at"><use xlink:href="#as" overflow="visible"/></clipPath><path clip-path="url(#at)" fill="none" stroke="#DC493C" stroke-width="18.063" stroke-miterlimit="10" d="M73.8 52.6V17.7"/></g></g><g clip-path="url(#b)"><defs><path id="au" d="M-82.4-1673.7h2122.2v8119H-82.4z"/></defs><clipPath id="av"><use xlink:href="#au" overflow="visible"/></clipPath><g clip-path="url(#av)"><defs><path id="aw" d="M58.2 19.8h31.2L73.8 4.2 58.2 19.8"/></defs><clipPath id="ax"><use xlink:href="#aw" overflow="visible"/></clipPath><g clip-path="url(#ax)"><defs><path id="ay" d="M18.5 4.2h87v104.1h-87z"/></defs><clipPath id="az"><use xlink:href="#ay" overflow="visible"/></clipPath><path clip-path="url(#az)" fill="#DC4A3D" d="M50.4-3.5h46.7v31.1H50.4z"/></g></g></g><g clip-path="url(#b)"><defs><path id="aA" d="M-82.4-1673.7h2122.2v8119H-82.4z"/></defs><clipPath id="aB"><use xlink:href="#aA" overflow="visible"/></clipPath><g clip-path="url(#aB)"><defs><path id="aC" d="M89.4 19.8L73.8 4.2 58.2 19.8h6.4v29.1L34.5 79.8v31.9h18.3V87.2l30.1-30.8V19.8h6.5"/></defs><clipPath id="aD"><use xlink:href="#aC" overflow="visible"/></clipPath><g clip-path="url(#aD)"><defs><path id="aE" d="M18.5 4.2h87v104.1h-87z"/></defs><clipPath id="aF"><use xlink:href="#aE" overflow="visible"/></clipPath><g clip-path="url(#aF)"><defs><path id="aG" d="M34.1 22.8H90v85.4H34.1z"/></defs><clipPath id="aH"><use xlink:href="#aG" overflow="visible"/></clipPath><g clip-path="url(#aH)"><defs><path id="aI" d="M62.7 107.8c-23.4.2-42.6-18.5-42.8-41.9-.2-23.4 18.5-42.5 41.9-42.7 23.4-.2 42.5 18.5 42.7 41.9.3 23.4-18.5 42.5-41.8 42.7"/></defs><clipPath id="aJ"><use xlink:href="#aI" overflow="visible"/></clipPath><g clip-path="url(#aJ)"><defs><path id="aK" d="M34.1 4.2H90v104.1H34.1z"/></defs><clipPath id="aL"><use xlink:href="#aK" overflow="visible"/></clipPath><path clip-path="url(#aL)" fill="#DC4B3E" d="M12.1 15.4h100.2v100.1H12.1z"/></g></g></g></g></g></g></svg>