<!DOCTYPE svg PUBLIC "-//W3C//DTD SVG 1.1//EN" "http://www.w3.org/Graphics/SVG/1.1/DTD/svg11.dtd" [
	<!ENTITY ns_flows "http://ns.adobe.com/Flows/1.0/">
]><svg xmlns="http://www.w3.org/2000/svg" width="60" height="60" viewBox="0 -6.05 60 60" overflow="visible"><path fill-rule="evenodd" clip-rule="evenodd" fill="#D94234" d="M12.885 0h28.18c8.21.378 12.507 4.672 12.885 12.886v28.178c-.375 8.217-4.675 12.507-12.886 12.886h-28.18C4.674 53.57.374 49.283 0 41.064V12.886C.372 4.668 4.675.38 12.885 0zm19.87 13.247c-1.447-1.11-2.66-1.85-4.576-2.048-6.357-.65-10.906 4.082-10.238 10.234.433 3.986 3.132 6.616 5.058 10.237 1.09 2.05 2.406 5.675 2.89 8.55.13.77.017 2.814 1.206 2.65.8-.11.872-2.206.963-2.77a27.904 27.904 0 0 1 2.77-8.43c1.626-3.15 4.662-6.447 5.057-9.996.378-3.41-.7-5.745-1.928-7.225a6.93 6.93 0 0 0-1.206-1.204z"/><path fill-rule="evenodd" clip-rule="evenodd" fill="#E2A19B" d="M26.252 16.5c.17-.202 1.157-.202 1.325 0h-1.325z"/><path fill-rule="evenodd" clip-rule="evenodd" fill="#D94234" d="M23.603 22.038c-1.074-2.58.336-5.208 2.65-5.54h1.324c5.795.995 2.508 9.964-2.77 6.865-.37-.472-.813-.873-1.204-1.325z"/><path fill-rule="evenodd" clip-rule="evenodd" fill="#E2A19B" d="M32.755 13.247c.452.352.853.752 1.204 1.205a6.804 6.804 0 0 1-1.206-1.205z"/><path fill-rule="evenodd" clip-rule="evenodd" fill="#FFF" d="M33.96 14.45c1.227 1.48 2.305 3.817 1.927 7.226-.395 3.548-3.43 6.844-5.058 9.996a27.948 27.948 0 0 0-2.773 8.43c-.09.563-.163 2.66-.963 2.77-1.19.164-1.075-1.88-1.205-2.65-.486-2.875-1.8-6.5-2.89-8.55-1.927-3.62-4.626-6.25-5.06-10.236-.667-6.152 3.88-10.886 10.237-10.236 1.917.198 3.13.938 4.576 2.048.352.45.753.852 1.205 1.203zm-7.71 2.05c-2.313.33-3.723 2.96-2.65 5.54.27.575.748.937 1.206 1.324 5.277 3.1 8.565-5.87 2.77-6.864-.17-.202-1.157-.202-1.326 0z"/><path fill-rule="evenodd" clip-rule="evenodd" fill="#E2A19B" d="M23.603 22.038c.39.452.833.853 1.205 1.325-.458-.386-.937-.75-1.205-1.325z"/></svg>