<svg xmlns="http://www.w3.org/2000/svg" width="60" height="60" viewBox="0 0 60 60"><g fill-rule="evenodd" clip-rule="evenodd"><path fill="#FAAE33" d="M54.752 5.25c.002 1.993.004 3.986.004 5.978-.364.336-.743.655-1.09 1.006-8.418 8.48-16.846 16.95-25.226 25.464-.833.847-1.265.903-2.08.012-1.68-1.843-3.49-3.567-5.245-5.34l-.495.153v12.53l-6.522-5.992c1.954-1.995 3.876-4.024 5.88-5.974.694-.678.832-1.082.046-1.804a69.73 69.73 0 0 1-4.3-4.315c-.683-.744-1.05-.742-1.77-.01-4.234 4.32-8.528 8.587-12.81 12.858-.342.34-.597.804-1.123.93C.024 29.23.036 17.715 0 6.2c-.002-.808.164-.97.97-.97 17.928.028 35.854.02 53.782.02z"/><path fill="#F15A1C" d="M14.098 39.062c2.174 1.998 4.35 3.995 6.522 5.993 1.662 1.527 3.367 3.01 4.962 4.6.775.772 1.197.792 2.005-.02 8.633-8.663 17.313-17.28 25.99-25.9.333-.333.562-.853 1.16-.83-.015 10.246-.03 20.494-.043 30.74-.002 1.762-.04 3.523.02 5.282.028.828-.214 1.085-1.058 1.072-3.43-.046-6.862-.02-10.293-.02H.023v-7.046c.363-.327.74-.642 1.087-.985 4.33-4.295 8.658-8.59 12.988-12.89z"/><path fill="#FEFDFD" d="M14.098 39.062c-4.33 4.298-8.656 8.595-12.987 12.89-.345.344-.722.658-1.086.985v-12.19c.526-.128.78-.59 1.122-.932 4.283-4.27 8.577-8.537 12.812-12.857.718-.732 1.085-.735 1.768.01a70.57 70.57 0 0 0 4.3 4.315c.787.722.65 1.126-.046 1.804-2.006 1.948-3.928 3.977-5.882 5.975zm40.639-16.157c-.6-.023-.827.497-1.16.83-8.677 8.62-17.357 17.237-25.99 25.9-.81.812-1.23.79-2.006.02-1.593-1.59-3.3-3.072-4.96-4.6v-12.53l.495-.155c1.756 1.773 3.565 3.498 5.245 5.34.814.893 1.247.836 2.08-.01 8.38-8.517 16.807-16.985 25.225-25.465.347-.35.726-.67 1.09-1.006-.005 3.89-.013 7.782-.018 11.674z"/></g></svg>