<svg width="60" height="60" xmlns="http://www.w3.org/2000/svg" xmlns:xlink="http://www.w3.org/1999/xlink" viewBox="0 0 128 128"><defs><path id="a" d="M18.6 5.1h89v103.3h-89z"/></defs><clipPath id="b"><use xlink:href="#a" overflow="visible"/></clipPath><g clip-path="url(#b)"><defs><path id="c" d="M-777.6-835.7h2171V4579h-2171z"/></defs><clipPath id="d"><use xlink:href="#c" overflow="visible"/></clipPath><g clip-path="url(#d)"><defs><path id="e" d="M106.4 64.2c0 23.8-19.3 43.2-43.2 43.2-23.8 0-43.2-19.3-43.2-43.2C20 40.4 39.3 21 63.2 21c23.9.1 43.2 19.4 43.2 43.2"/></defs><clipPath id="f"><use xlink:href="#e" overflow="visible"/></clipPath><g clip-path="url(#f)"><defs><path id="g" d="M18.6 5.1h89v103.3h-89z"/></defs><clipPath id="h"><use xlink:href="#g" overflow="visible"/></clipPath><path clip-path="url(#h)" fill="#F8D846" d="M12.1 13.1h102.2v102.2H12.1z"/></g></g></g><g clip-path="url(#b)"><defs><path id="i" d="M-777.6-835.7h2171V4579h-2171z"/></defs><clipPath id="j"><use xlink:href="#i" overflow="visible"/></clipPath><g clip-path="url(#j)"><defs><path id="k" d="M117.9 70.3V57.2h-7.2v13.1h-9.9V61h-7.2c-.8 0-1.5.7-1.5 1.5s-.7 1.5-1.5 1.5h-3.4v-8.5c0-.8-.7-1.5-1.5-1.5h-.5c-.8 0-1.5-.7-1.5-1.5v-3.2h-7.2V54h-8.3v14.9H46.8V55.6l-14 6.4v11.6c0 .8-.7 1.5-1.5 1.5h-.5c-.8 0-1.5-.7-1.5-1.5v-.2c0-.8-.7-1.5-1.5-1.5h-4.1c-.8 0-1.5.7-1.5 1.5v.2c0 .8-.7 1.5-1.5 1.5H20c-.8 0-1.5-.7-1.5-1.5V62h-7.2v6.9H4.2V120h42.5l11.9-7.9h63.5V70.3h-4.2"/></defs><clipPath id="l"><use xlink:href="#k" overflow="visible"/></clipPath><g clip-path="url(#l)"><defs><path id="m" d="M18.6 5.1h89v103.3h-89z"/></defs><clipPath id="n"><use xlink:href="#m" overflow="visible"/></clipPath><g clip-path="url(#n)"><defs><path id="o" d="M18.6 48h89v58.8h-89z"/></defs><clipPath id="p"><use xlink:href="#o" overflow="visible"/></clipPath><g clip-path="url(#p)"><defs><path id="q" d="M106.4 63.5c0 23.8-19.3 43.2-43.2 43.2-23.8 0-43.2-19.3-43.2-43.2 0-23.8 19.3-43.2 43.2-43.2 23.9.1 43.2 19.4 43.2 43.2"/></defs><clipPath id="r"><use xlink:href="#q" overflow="visible"/></clipPath><g clip-path="url(#r)"><defs><path id="s" d="M18.6 48h89v60.4h-89z"/></defs><clipPath id="t"><use xlink:href="#s" overflow="visible"/></clipPath><path clip-path="url(#t)" fill="#3F8CF4" d="M12.1 12.4h102.2v102.2H12.1z"/></g></g></g></g></g></g><g clip-path="url(#b)"><defs><path id="u" d="M-777.6-835.7h2171V4579h-2171z"/></defs><clipPath id="v"><use xlink:href="#u" overflow="visible"/></clipPath><g clip-path="url(#v)"><defs><circle id="w" cx="63.2" cy="64.3" r="43.2"/></defs><clipPath id="x"><use xlink:href="#w" overflow="visible"/></clipPath><g clip-path="url(#x)"><defs><path id="y" d="M18.6 5.1h89v103.3h-89z"/></defs><clipPath id="z"><use xlink:href="#y" overflow="visible"/></clipPath><g clip-path="url(#z)"><defs><path id="A" d="M18.6 55.9h89v52.4h-89z"/></defs><clipPath id="B"><use xlink:href="#A" overflow="visible"/></clipPath><g clip-path="url(#B)"><defs><ellipse id="C" cx="63.2" cy="127.6" rx="82.9" ry="46.5"/></defs><clipPath id="D"><use xlink:href="#C" overflow="visible"/></clipPath><g clip-path="url(#D)"><defs><path id="E" d="M18.6 21h89v87.4h-89z"/></defs><clipPath id="F"><use xlink:href="#E" overflow="visible"/></clipPath><path clip-path="url(#F)" fill="#20A362" d="M-27.6 73.2h181.7v108.9H-27.6z"/></g></g><g clip-path="url(#B)"><defs><path id="G" d="M18.6 21h89v87.4h-89z"/></defs><clipPath id="H"><use xlink:href="#G" overflow="visible"/></clipPath><ellipse clip-path="url(#H)" fill="none" stroke="#ECECEC" stroke-width="4.949" stroke-miterlimit="10" cx="63.2" cy="127.6" rx="82.9" ry="46.5"/></g></g></g></g></g><g clip-path="url(#b)"><defs><path id="I" d="M-777.6-835.7h2171V4579h-2171z"/></defs><clipPath id="J"><use xlink:href="#I" overflow="visible"/></clipPath><g clip-path="url(#J)"><defs><path id="K" d="M91.8 33.4C91.8 16.4 76 3 58.3 7.2c-7.4 1.7-13.4 6.8-17 13.5-7.4 13.8-1.7 24.1 5 32.3 0 0 14.6 16.9 17.6 44.1 0 0 0 1 .9 1s.9-1 .9-1C68.7 69.9 83.3 53 83.3 53c4.5-5.5 8.5-11.9 8.5-19.6"/></defs><clipPath id="L"><use xlink:href="#K" overflow="visible"/></clipPath><g clip-path="url(#L)"><defs><path id="M" d="M18.6 5.1h89v103.3h-89z"/></defs><clipPath id="N"><use xlink:href="#M" overflow="visible"/></clipPath><path clip-path="url(#N)" fill="#DC4A3D" d="M29.9-1.5h69.8V106H29.9z"/></g></g></g><g clip-path="url(#b)"><defs><path id="O" d="M-777.6-835.7h2171V4579h-2171z"/></defs><clipPath id="P"><use xlink:href="#O" overflow="visible"/></clipPath><g clip-path="url(#P)"><defs><path id="Q" d="M74.3 33.1c0 5.3-4.2 9.6-9.4 9.6s-9.4-4.3-9.4-9.6 4.2-9.6 9.4-9.6c5.1 0 9.4 4.3 9.4 9.6"/></defs><clipPath id="R"><use xlink:href="#Q" overflow="visible"/></clipPath><g clip-path="url(#R)"><defs><path id="S" d="M18.6 5.1h89v103.3h-89z"/></defs><clipPath id="T"><use xlink:href="#S" overflow="visible"/></clipPath><path clip-path="url(#T)" fill="#812A28" d="M47.4 15.6h34.8v35H47.4z"/></g></g></g></svg>