<!DOCTYPE svg PUBLIC "-//W3C//DTD SVG 1.1//EN" "http://www.w3.org/Graphics/SVG/1.1/DTD/svg11.dtd" [
	<!ENTITY ns_flows "http://ns.adobe.com/Flows/1.0/">
]><svg xmlns="http://www.w3.org/2000/svg" width="60" height="60" viewBox="0 -2.396 60 60" overflow="visible"><path fill-rule="evenodd" clip-rule="evenodd" fill="#F4EBBE" d="M17.212 22.07C10.517 13.144 9.504.765 6.562 2.166c-2.945 1.4-4.906-2.664-5.468.7-.56 3.364 5.326 17.94 7.148 22.006 1.822 4.065 2.663 2.943 1.542 8.55-1.122 5.605-3.925 18.22-2.664 19.902 1.262 1.68 5.047 2.522 6.868 1.96 1.822-.56 7.71-26.067 9.25-27.89 1.543-1.822 2.804-4.344 7.29-8.27 4.485-3.925 6.727-4.766 7.85-7.71 1.12-2.942-.282-6.586-3.928-5.325-3.64 1.262-16.816 16.54-17.238 15.98z"/><path fill-rule="evenodd" clip-rule="evenodd" fill="#4E4031" d="M17.418 34.72a17.39 17.39 0 0 0-.817-2.25c.307.717.565 1.48.82 2.25zM.83 3.61a1.785 1.785 0 0 0-.243-.137c.064.05.148.094.243.135z"/><path fill-rule="evenodd" clip-rule="evenodd" fill="#4E4031" d="M33.91 23.815c-2.54-7.535 7.712-6.275 7.79-12.118-2.136 2.852-5.255-1.83-7.355-3.03 1.02-.133.804-1.502 2.163-1.298 2.708.75 4.08 2.842 7.356 3.027-1.515-2.62-4.26-4.867-6.924-4.76-2.906.116-5.308 3.444-6.49 4.76-3.544 3.938-10.214 7.565-12.552 9.954C14.914 12.92 11.736 6.56 8.81.013 5.122-.068 1.813.23.154 2.176 2.814 4.03 7.996-.374 8.81 3.474c-2.932.466-6.725.677-7.98.135.94.61-1.44.665-.676 2.027 3.035 2.937 4.69 6.707 6.924 11.686 1.478 3.29 3.813 7.49 3.895 9.954.128 3.818-2.413 9.19-3.462 13.417-1.102 4.448-2.436 8.558-2.94 12.695 2.86-9.28 6.216-18.06 8.136-28.276C8.63 23.774 10.683 12.764 7.51 9.1c-.007 2.18 2.51 5.565 1.733 9.954-1.764-1.987-2.09-5.412-3.896-7.357.56-.81 1.924 1.22 1.73 2.596 1.32-3.203-3.244-4.25-3.894-6.924 1.6-1.287 4.33-1.44 6.492-2.166 2.642 5.292 5.238 10.63 8.223 15.58-.138 1.016-1.34.97-1.732 1.73 3.023-.837 8.08-5.935 12.12-9.088 3.416-2.668 4.754-3.47 7.79 0-5.418 4.538-8.88 11.03-15.148 14.715-.146 4.04-1.586 6.78-1.73 10.82-.796-1.212-1.28-2.735-1.78-4.242 1.938 6.686-.08 14.185-1.25 21.553-4.447 1.284-9.065-.55-11.637-2.56-.012.133-.035.265-.047.397 2.656 2.343 7.526 4.46 12.552 3.027 1.63-7.168 2.84-14.76 3.895-22.504 2.4 2.938 7.27 3.404 10.818 5.193 2.143-.258.986-1.123 1.73-2.597 2.09.697 6.17 1.85 6.926-.867 2.11 1.032-2.684 2.313 0 2.597-1.266 2.648-4.98 3.605-8.656 2.597v-1.73c-.938-.074-.195 1.535-.433 2.163 2.784 1.11 5.782 1.967 8.224.433 1.257-.79 1.1-2.752 2.16-4.327 1.5-2.222 2.876-2.17 3.03-3.895.65-7.263-9.35-6.03-10.82-10.385zM42.567 9.1c-1.184 1.015-2.675-1.346-3.896-1.73.91-.738 2.61 1.41 3.897 1.73zM1.452 2.176C2.442 1.146 4.237.92 6.212.878c-1.044.974-3.123.914-4.76 1.298zm35.92 12.117c-1.676 2.795-4.733 4.21-7.356 6.06 2.3-1.93 4.35-6.262 7.357-6.06zm4.762 22.505c-.892-.117-.104-1.916-1.298-1.73-.582 1.005-1.547 1.627-2.598 2.164-1.258-.474-3.057-.405-3.894-1.3-1.07.518-1.693 1.482-2.164 2.598-4.648-2.393-12.038-2.963-10.387-10.387 3.616-1.865 6.52-4.442 9.52-6.924-1.14 9.34 16.265 6.155 10.82 15.577z"/><path fill-rule="evenodd" clip-rule="evenodd" fill="#4E4031" d="M4.48 53.678c.017.01.035.024.05.036.01-.107.027-.216.04-.325l-.09.287zm9.523-7.358c.413-.63 1.965-2.317 1.298-2.598-.71.73-.94 1.944-1.73 2.597v5.624c1.62 3.206-.14-3.31.434-5.626z"/><path fill-rule="evenodd" clip-rule="evenodd" fill="#4E4031" d="M16.167 50.215c-2.185-1.023.745-4.05 0-4.76-1.238.81-1.846 5.665 0 4.76z"/></svg>