<!DOCTYPE svg PUBLIC "-//W3C//DTD SVG 1.1//EN" "http://www.w3.org/Graphics/SVG/1.1/DTD/svg11.dtd" [
	<!ENTITY ns_flows "http://ns.adobe.com/Flows/1.0/">
]><svg xmlns="http://www.w3.org/2000/svg" width="60" height="60" viewBox="0 -1.896 60 60" overflow="visible"><path fill-rule="evenodd" clip-rule="evenodd" fill="#4343AA" d="M3.95.272c6.14-.613 13.14 0 20.076 0h9.958c3.255 0 7.86-.387 9.316.654 2.598 1.86 1.605 7.705 1.605 13.256v29.783c0 4.98.768 11.596-1.927 13.417-1.862 1.26-7.562.49-10.44.49H10.694c-3.536 0-7.776.626-9.477-.982C-.48 55.286.092 48.93.092 44.126V9.272c0-2.238-.33-4.786.32-6.546C1.138.778 2.537.416 3.95.272zM9 29.104c1.583-.625 4.982-1.542 9.564-2.813C21.51 25.475 29 25.106 29 28.106c0 9-.375 15.82 0 24h7v-25c0-9-13.382-8.374-19.845-6.212 0-4.8-.155-9.988-.155-14.788H9c-.374 7.31.107 15.42 0 23zm22-23c-1.73 2.984-3.754 6.614-5.69 9.388h7.23c2.084-2.677 5.167-5.906 6.46-9.388h-8zm-22 45c2.236-1.652 4.947-4.428 7.315-6.486-2.074-2.63-4.972-5.156-7.315-7.514v14z"/></svg>