<svg xmlns="http://www.w3.org/2000/svg" width="60" height="60" viewBox="0 0 60 60"><g fill-rule="evenodd" clip-rule="evenodd"><path fill="#78758C" d="M41.735 44.556c-7.432 3.123-14.857 6.26-22.298 9.362-2.14.892-4.214 1.956-6.456 2.604 1.27-2.98 2.528-5.962 3.804-8.938 2.83-6.6 5.67-13.198 8.504-19.796.32.074.648.126.96.225 4.417 1.42 8.83 2.842 13.246 4.266l.25.197c.02.372.007.748.07 1.113.64 3.566 1.29 7.13 1.938 10.695-.003.09-.01.18-.015.27z"/><path fill="#A3ECBA" d="M25.288 27.788c-2.835 6.598-5.674 13.196-8.504 19.796-1.276 2.977-2.535 5.958-3.802 8.938-1.184-1.935-1.635-4.157-2.385-6.254C7.167 40.686 3.84 31.065.474 21.458c-.083-.235-.166-.47-.243-.708-.11-.346-.394-.728-.097-1.05.325-.35.707.004 1.035.11 7.708 2.495 15.412 5.006 23.117 7.51.314.1.64.16.962.24.017.075.03.15.042.228z"/><path fill="#6698A1" d="M39.743 32.478l-.25-.2c.05-1.048-.307-2.033-.487-3.046-1.07-6.005-2.178-12.002-3.21-18.015-.296-1.724-.887-3.41-.77-5.197 2.746 3.952 5.5 7.898 8.234 11.857 4.34 6.285 8.668 12.58 12.995 18.87.21.307.372.643.558.967-.047.043-.092.09-.137.135-.56-.15-1.127-.276-1.678-.453-5.087-1.636-10.17-3.28-15.255-4.92z"/><path fill="#8087E6" d="M35.024 6.02c-.115 1.785.476 3.472.77 5.196 1.033 6.013 2.14 12.01 3.21 18.015.182 1.015.537 2 .49 3.05a10210.3 10210.3 0 0 0-13.248-4.267c-.312-.1-.64-.15-.96-.225a2.53 2.53 0 0 0-.04-.228c2.956-6.904 5.904-13.81 8.895-20.7.14-.317-.015-1.22.885-.84z"/><path fill="#6799A1" d="M41.735 44.556l.017-.27c2.366-.976 4.726-1.97 7.102-2.922 2.604-1.044 5.113-2.33 7.802-3.165.04.04.078.08.118.117-2.354 4.2-4.702 8.4-7.066 12.594-1.646 2.92-3.312 5.83-5.164 9.09-.98-5.39-1.894-10.417-2.81-15.445z"/><path fill="#6698A1" d="M56.812 37.713c.257.22.213.418-.04.605l-.117-.12.02-.35c.046-.046.09-.092.137-.135z"/><path fill="#30426B" d="M56.676 37.848l-.02.352c-2.69.836-5.198 2.12-7.803 3.165-2.376.952-4.735 1.946-7.102 2.92-.645-3.563-1.297-7.128-1.935-10.693-.064-.365-.05-.74-.072-1.113 5.084 1.64 10.168 3.282 15.255 4.917.552.175 1.118.3 1.68.45z"/></g></svg>