<!DOCTYPE svg PUBLIC "-//W3C//DTD SVG 1.1//EN" "http://www.w3.org/Graphics/SVG/1.1/DTD/svg11.dtd" [
	<!ENTITY ns_flows "http://ns.adobe.com/Flows/1.0/">
]><svg xmlns="http://www.w3.org/2000/svg" width="60" height="60" viewBox="0 -4.098 60 60" overflow="visible"><path fill-rule="evenodd" clip-rule="evenodd" fill="#E64C18" d="M0 .255v-.11C13.787-.052 28.824.038 43.208.038c2.146 0 4.917-.168 6.11.218-1.673 16.547-2.955 33.488-4.582 50.083-6.676 1.834-13.386 3.634-19.968 5.563h-.327c-6.536-2.01-13.434-3.658-19.966-5.674C3.06 33.493 1.607 16.797 0 .254z"/><path fill-rule="evenodd" clip-rule="evenodd" fill="#F36518" d="M24.66 51.647c5.44-1.543 10.974-2.992 16.367-4.583 1.18-14.387 2.475-28.66 3.818-42.88H24.66v47.463"/><path fill-rule="evenodd" clip-rule="evenodd" fill="#FFF" d="M24.66 10.986c0-.035 0 .036 0 0H9.166c.507 6.1 1.086 12.126 1.637 18.18 4.4.25 3.437.064 8.02.136 0 .024 5.838.02 5.838.044 2.475.07 5.276-.07 7.53-.07v.106c-.23 2.522-.547 4.953-.654 7.595-2.09.803-4.608 1.186-6.765 1.925h-.11c-2.275-.656-4.76-1.11-6.872-1.925-.124-1.59-.24-3.187-.437-4.706h-6.22c.15 3.28.62 6.24.765 9.52 4.2 1.23 8.56 2.307 12.766 3.53.067-.007.13-.017.11-.106 4.258-1.03 8.274-2.3 12.548-3.316l1.637-18.61H24.66c-2.254.072-5.673-.035-7.964 0-.213.004-.228-.077-.218-.32-.164-1.765-.273-3.744-.437-5.883H39.5c.136-1.323.315-2.86.382-4.4 0-.533.108-1.12.108-1.656-5.093-.003-10.24-.043-15.33-.043z"/></svg>