<!DOCTYPE svg PUBLIC "-//W3C//DTD SVG 1.1//EN" "http://www.w3.org/Graphics/SVG/1.1/DTD/svg11.dtd" [
	<!ENTITY ns_flows "http://ns.adobe.com/Flows/1.0/">
]><svg xmlns="http://www.w3.org/2000/svg" width="60" height="60" viewBox="-0.177 -2.216 60 60" overflow="visible"><path fill-rule="evenodd" clip-rule="evenodd" fill="#0083CC" d="M35.822 19.086c1.305.748 2.884 1.394 4.407 1.66 3.544.62 6.773-.428 8.66-2.023.706-.6 1.176-1.393 1.71-2.126.533-.732 1.146-1.372 1.556-2.282-1.84 1.494-4.032 2.515-7.053 2.49-3.887-.035-7.086-1.88-9.49-4.202-2.32-2.24-4.23-5.775-3.733-9.853.13-1.068.462-1.824.83-2.645-.003-.03-.008-.06-.052-.052C32.655.02 32.65-.01 32.606 0c-.6.612-1.07 1.395-1.556 2.075-.42.587-.846 1.147-1.193 1.763-.73 1.295-1.158 3.02-1.037 4.823.31 4.638 3.547 8.447 7.002 10.427z"/><path fill-rule="evenodd" clip-rule="evenodd" fill="#0083CC" d="M42.407 29.146c-4.206.405-8.19-.86-11.253-2.438-2.826-1.455-5.484-3.705-7.468-6.327-2.005-2.65-3.6-6.097-3.837-10.007-.2-3.29.65-5.702 1.66-7.727h-.158c-.568.625-1.072 1.43-1.608 2.178-.52.73-1.088 1.426-1.555 2.074-1.07 1.48-1.8 3.045-2.283 4.926-1.102 4.31.126 8.547 1.815 11.772 1.595 3.048 3.902 5.51 6.846 7.57 3.5 2.452 7.692 4.356 13.378 3.942 5.613-.41 8.93-3.176 11.408-6.638.838-1.17 1.736-2.322 2.49-3.58-.73.374-1.177 1.046-1.815 1.504-2.004 1.444-4.56 2.458-7.624 2.752z"/><path fill-rule="evenodd" clip-rule="evenodd" fill="#0083CC" d="M50.55 38.947a10.19 10.19 0 0 1-.728.727c-3.616 3.192-8.428 5.134-15.194 5.134-3.588 0-6.83-.86-9.698-1.92-2.847-1.048-5.41-2.576-7.468-4.147-4.288-3.27-8.08-7.5-10.216-12.963-1.076-2.75-1.933-6.167-1.763-9.75.17-3.614.884-6.634 2.385-9.23-.073-.013-.086-.086-.154-.104-1.458 2.06-2.93 3.966-4.356 5.963C1.953 14.626.95 17.133.402 19.863c-1.32 6.577.847 12.423 3.112 16.49 2.36 4.242 5.663 7.75 9.75 10.53 3.917 2.66 9.163 4.995 15.04 5.288 6.592.33 11.28-1.485 14.934-4.043 3.1-2.17 5.043-5.394 7.26-8.505.302-.342.798-.752.83-1.192-.344-.016-.593.32-.78.52z"/></svg>