<svg xmlns="http://www.w3.org/2000/svg" width="60" height="60" viewBox="0 0 60 60"><path fill="#425465" d="M39.797 24.478H19.773a1.5 1.5 0 0 0-1.502 1.502v13.766h.027c.12.71.732 1.25 1.477 1.25h20.024a1.5 1.5 0 0 0 1.476-1.25h.024V25.98a1.5 1.5 0 0 0-1.5-1.502zm-.76 3.32l-8.716 7.524a.73.73 0 0 1-.284.152.738.738 0 0 1-.74-.138l-8.715-7.523c-.312-.27-.347-.745-.076-1.06s.745-.348 1.06-.076L29.8 33.79l8.255-7.128a.752.752 0 0 1 .98 1.138z"/><path fill="#188389" d="M14.22 22.97a3.503 3.503 0 1 0-4.912-4.993L.52 26.617l4.915 4.996 8.786-8.643z"/><path fill="#00D9D8" d="M14.527 42.028L0 27.44v9.93l9.56 9.604a3.505 3.505 0 0 0 4.967-4.946z"/><path fill="#188389" d="M45.6 42.004a3.503 3.503 0 1 0 4.914 4.993l8.785-8.642-4.915-4.997-8.786 8.644z"/><path fill="#00D9D8" d="M45.293 22.945l14.527 14.59V27.6L50.26 18a3.505 3.505 0 1 0-4.966 4.945z"/></svg>