<!DOCTYPE svg PUBLIC "-//W3C//DTD SVG 1.1//EN" "http://www.w3.org/Graphics/SVG/1.1/DTD/svg11.dtd" [
	<!ENTITY ns_flows "http://ns.adobe.com/Flows/1.0/">
]><svg xmlns="http://www.w3.org/2000/svg" width="60" height="60" viewBox="0 -12.659 60 60" overflow="visible"><path fill-rule="evenodd" clip-rule="evenodd" fill="#144C84" d="M48.715 15.885c1.67.01 1.377-2.103 2.624-2.55 2.994 3.505-5.197 6.692-5.775 1.984-.753 1.93-5.16 4.165-5.773.564-1.205.796-1.264 1.468-2.624 1.417-.987-.037-2.01-1.422-2.1-1.416-1.598.113-1.65 2.53-3.938 2.268-5.746-.662-.188-13.094 4.986-9.353.212 2.32-.66 5.813 1.05 6.517 2.975-.378 1.716-5.326 4.46-5.952 1.324 1.427-.834 4.47.265 6.518 6.005-1.664 1.2-16.43 8.398-15.87 3.69 6.164-6.02 11.536-1.575 15.87zM47.14 9.65c.44-2.292 3.172-5.04 1.575-7.65-.95 1.904-1.926 5.283-1.574 7.65zm-16.008 6.52c2.956.517 3.432-4.57 2.624-6.236-1.73.93-4.063 3.712-2.624 6.235z"/><path fill-rule="evenodd" clip-rule="evenodd" fill="#144C84" d="M7.25 12.484c2.56-2.254 4.51-10.534 8.4-9.634 3.48.805.258 7.597.525 11.05 1.38-2.326 3.51-8.484 6.036-11.05 1.28-1.306 4.464-3.08 5.77-.85.598 4.53-3.246 10.16-1.312 13.6.637 1.135 1.706.734 2.625 1.984-1.686 2.57-4.57-.07-4.986-1.7-1.064-4.138 2.258-9.808 1.573-12.75-6.11 1.808-5.25 11.143-10.497 13.885-2.98-2.563.32-7.56-.262-11.905-5 2.82-5.407 10.597-10.234 13.603C3.29 13.845 8.8 7.375 5.673 2.564c-1.73-.26-1.683 1.394-3.412 1.133C1.696.62 5.453-.18 6.99.864c2.98 2.026 1.05 8.493.26 11.62zM42.942 4.55c1.387 1.602-.256 4.46-2.1 3.4-.71-1.61.108-3.784 2.1-3.4z"/><path fill-rule="evenodd" clip-rule="evenodd" fill="#144C84" d="M60 32.04c-.996 3.613-4.8 5.496-9.185 4.53-.857 3.644.27 7.976-1.05 10.77-3.7-.45-3.702-6.59-2.887-10.2-1.348.226-1.993-.305-2.887-.568-.57-1.367-1.1-2.778-1.05-4.817-1.874-.004-2.757 3.417-3.672 5.385-3.31.004.22-3.697-1.05-5.667-2.484.905-3.212 3.71-3.937 6.518-2.05-.937-5.436 1.324-6.036-1.98-2.71 2.37-4.932-.645-4.985-3.686-2.803 1.46-.75 6.65-4.2 7.083-.423-1.3.244-3.13 0-5.1-3.24 5.23-16.938 8.547-18.895-.85-1.17-5.623 4.073-13.695 9.185-14.736 1.675-.342 5.606-.604 6.035 3.118-1.968.64-2.285-1.253-3.937-1.417-7.633-.76-14.1 15.67-4.197 17.288 5.19.846 9.28-3.135 11.81-6.52.63-5.46-.08-12.366 4.987-13.035 2.592 5.1-1.288 10.167-3.15 13.886 1.714-2.926 4.716-2.063 5.25 2.832 2.67.05 1.84-5.187 3.674-5.1 2.256.875-1.053 4.91.79 6.234 3.495-.287 2.29-5.65 4.46-7.37 1.295-.16 1.5 1.027 1.05 1.984.644-.532 1.384-.96 2.362-1.133.563.526 1.565.576 1.575 1.7 1.203-.495 1.73-1.72 3.15-1.982 2.196.555 1.062 4.707 2.623 5.95 1.656-.194 1.738-2.09 2.625-3.116.496-2.148-1.76-4.73.524-5.386 1.106.22.79 1.98 1.05 3.116 2.45-2.895 8.45-.976 7.084 3.4 1.01-.674 1.612-2.275 2.888-1.13zm-38.84-3.686c.842-2.106 2.938-5.265 1.575-7.936-.636 2.34-1.933 5.468-1.575 7.936zm29.13 5.95c1.567.71 4.06.845 4.986-.566.866-4.945-6.047-3.98-4.985.567zm-1.312 9.352c-.7-1.604.198-4.936-.524-6.518-.146 1.836-.882 5.55.524 6.518z"/><path fill-rule="evenodd" clip-rule="evenodd" fill="#144C84" d="M31.132 24.67c1.418 1.47-.037 4.808-2.1 3.4-.36-1.378.153-3.637 2.1-3.4z"/></svg>