<svg xmlns="http://www.w3.org/2000/svg" width="60" height="60" viewBox="0 0 60 60"><g fill-rule="evenodd" clip-rule="evenodd"><path fill="#F9A132" d="M40.814 27.877c-.595.69-1.057 1.474-1.57 2.22-2.255 3.275-4.5 6.56-6.747 9.837-.07.102-.15.194-.228.292l-4.49-6.556c-.66-.96-1.323-1.917-1.985-2.876a.066.066 0 0 1 .017-.055c.827-1.2 1.66-2.393 2.48-3.596 4.098-6.006 8.193-12.016 12.29-18.022.068-.1.15-.192.228-.287.004.18.01.357.01.536l.003 17.78c0 .19.018.383.026.574-.01.05-.024.1-.037.152z"/><path fill="#010101" d="M25.814 30.74a.06.06 0 0 0-.017.054c-.498.72-1 1.44-1.494 2.16-1.643 2.4-3.283 4.8-4.925 7.198-.8-1.043-1.502-2.155-2.245-3.24-1.99-2.906-3.97-5.82-5.956-8.732-.068-.1-.15-.19-.226-.285.024-.21-.07-.39-.136-.58.008-.177.023-.355.024-.533l.005-17.89c.913 1.216 1.736 2.495 2.593 3.75 4.055 5.933 8.106 11.868 12.158 17.803.07.1.148.196.22.294z"/><path fill="#A11C2A" d="M40.852 27.725c-.01-.19-.026-.383-.026-.575 0-5.926 0-11.852-.002-17.778 0-.18-.007-.357-.01-.536.112-.114.26-.068.39-.068 3.284-.002 6.568.003 9.852-.01.355 0 .43.115.425.444-.014.865.01 1.73.016 2.595l-.03.5c-.1.13-.205.26-.297.394l-6.21 9.068-4.107 5.968z"/><path fill="#0188C0" d="M10.84 8.89c0 5.964 0 11.927-.004 17.89 0 .18-.016.357-.024.536-.144-.027-.18-.165-.246-.262a2063.08 2063.08 0 0 1-4.122-6.02c-1.89-2.77-3.77-5.546-5.665-8.314-.185-.267-.328-.574-.604-.77-.006-.962-.01-1.924-.022-2.885-.002-.233.09-.306.318-.306 3.352.004 6.705.002 10.058.003.117 0 .258-.037.31.127z"/><path fill="#3EBAD3" d="M.18 11.95c.275.196.417.503.6.77 1.895 2.768 3.777 5.543 5.666 8.313 1.37 2.01 2.744 4.016 4.122 6.02.066.098.102.235.246.263.066.188.16.368.138.578-.005.206-.012.413-.012.62 0 6.922-.003 13.844.008 20.767 0 .4-.073.538-.51.535-3.303-.02-6.606-.02-9.91 0-.433.002-.517-.13-.516-.533.01-12.248.008-24.498.007-36.746 0-.192-.014-.385-.02-.577l.18-.01zm.192.658l-.087.025v.362c0 12.015.002 24.03-.008 36.046 0 .406.12.51.512.506 3.123-.015 6.247-.015 9.37 0 .407.003.54-.087.54-.52-.013-6.965-.01-13.93-.004-20.894 0-.29-.082-.526-.243-.76a1704.96 1704.96 0 0 1-3.487-5.105c-1.903-2.794-3.802-5.59-5.704-8.382-.293-.427-.595-.85-.89-1.275z"/><path fill="#D21B33" d="M40.852 27.725c1.368-1.99 2.737-3.978 4.104-5.968 2.07-3.02 4.14-6.044 6.21-9.066.093-.133.198-.26.297-.392.006.165.02.33.02.493v36.38c0 .593.073.52-.533.52-3.22.002-6.44-.006-9.66.01-.376.002-.48-.09-.48-.473.012-7.116.008-14.232.007-21.348.01-.053.022-.104.035-.154z"/><path fill="#C87D1C" d="M19.378 40.152c1.642-2.398 3.282-4.798 4.925-7.197.495-.722.996-1.44 1.494-2.16.662.958 1.326 1.916 1.985 2.876l4.487 6.557c-.624.92-1.24 1.843-1.866 2.76-1.417 2.073-2.84 4.144-4.258 6.214-.07.103-.127.21-.19.317-.073.066-.15.078-.233.018-1.67-2.453-3.34-4.904-5.004-7.36-.454-.672-.95-1.313-1.343-2.022z"/><path fill="#38B6E4" d="M.372 12.608c.296.425.6.848.89 1.277 1.902 2.793 3.8 5.588 5.704 8.382 1.16 1.703 2.32 3.405 3.487 5.104.162.236.243.47.243.764-.006 6.964-.01 13.93.005 20.893 0 .434-.132.523-.54.52-3.122-.014-6.246-.014-9.37 0-.394.004-.514-.1-.513-.503.01-12.016.008-24.03.008-36.046v-.362c.03-.01.058-.02.088-.027z"/></g></svg>