<!DOCTYPE svg PUBLIC "-//W3C//DTD SVG 1.1//EN" "http://www.w3.org/Graphics/SVG/1.1/DTD/svg11.dtd" [
	<!ENTITY ns_flows "http://ns.adobe.com/Flows/1.0/">
]><svg xmlns="http://www.w3.org/2000/svg" width="60" height="60" viewBox="0 -15.365 60 60" overflow="visible"><path fill="#F50" d="M17.402 38.882c-4.64 2.72 3.776 6.854 3.51 1.97-.097-1.776-2.35-2.65-3.51-1.97zm6.56 3.398c.817.795 2.598.965 3.767.367 3.1-4.662-5.837-6.003-3.77-.366z"/><path fill="#009790" d="M45.128 19.463c-.337-7.164-.862-14.71-4.052-19.29C28.27-1.4 27.276 8.077 22.642 14.15 18.43 8.16 16.346-2.934 3.89.767c-4.98 15.322-5.163 26.17-.637 42.822 2.987-.18 6.752.37 9.218-.3-1.64-9.08-5.706-22.087-1.906-31.52 3.105 2.32 4.455 6.468 6.04 11.003 1.166 3.34 1.67 11.75 6.356 11.003 3.145-.502 3.823-8.855 4.766-11.598 1.603-4.655 2.417-8.528 6.04-10.41 2.734 10.26-.41 22.295-1.908 31.522 2.778.672 6.87.115 10.17.298 2.804-6.19 3.502-15.57 3.1-24.127z"/></svg>