<!DOCTYPE svg PUBLIC "-//W3C//DTD SVG 1.1//EN" "http://www.w3.org/Graphics/SVG/1.1/DTD/svg11.dtd" [
	<!ENTITY ns_flows "http://ns.adobe.com/Flows/1.0/">
]><svg xmlns="http://www.w3.org/2000/svg" width="60" height="60" viewBox="0 0 60 60" overflow="visible"><path fill-rule="evenodd" clip-rule="evenodd" fill="#A1AF88" d="M4.563 42.57c3.06 3.897 6.814 7.256 11.393 9.978 1.126-1.545.785-4.223 1.628-5.986.173 2.256.512 4.384 2.393 5.32.003.073.118.058.192.075v.074c.504-.1.71-.435 1.146-.59h.096c-3.102 1.01-2.213 5.533-2.393 8.35a5.72 5.72 0 0 1-2.01-.515c.06-2.635-.315-4.932-1.246-6.8-4.528-2.69-8.292-5.965-11.202-9.903z"/><path fill-rule="evenodd" clip-rule="evenodd" fill="#55B359" d="M17.393.666c-.13-.023 1.74 4.175 1.724 4.064.69 7.846-.19 13.288-.19 22.948 0 5.45-.234 10.483-.432 15.15-.03.71-.054 1.48-.19 2.106-.128.587.015.9-.56 1.64-.842 1.763-.66 4.43-1.787 5.974-4.58-2.722-8.334-6.08-11.393-9.977.022-.31-.28-.375-.383-.59-.562-.872-1.047-1.804-1.627-2.66-.266-.51-.463-1.07-.767-1.55-2.63-5.29-2.12-13.404 0-18.85.27-.63.588-1.22.767-1.92.644-1.105 1.19-2.284 1.82-3.4.27-.408.603-.766.765-1.257.813-.97 1.57-2.003 2.393-2.956.813-.942 1.643-1.87 2.585-2.735 1.906-1.75 4.08-3.094 6.127-4.803v-.075c.65-.31.606-1.157.86-1.773"/><path fill-rule="evenodd" clip-rule="evenodd" fill="#1E8A36" d="M25.915 48.04c-.062.075-.22.076-.192.22-.25.077-.323.295-.574.37a26.68 26.68 0 0 0-2.204 1.7c-.065.173-.318.198-.383.37-.445.198-.8.467-1.15.74h-.095c-.204.174-.24.23-.467.368-.24.195-.095.14-.585.24-.074-.016-.284-.094-.288-.166-1.79-.898-2-2.438-2.323-4.398-.073-.448.024-1.576.12-2.4.624-12.413.282-27.823-.095-40.28-.043-1.375.012-2.748-.29-4.138.078.013.097.074.193.073.02.08.105.113.19.146V.96c.06.325.262.54.48.74.124.35.35.617.575.887.17.237.287.517.573.665v.074a7 7 0 0 0 .768.813c.323.34.67.663 1.148.885V5.1c.62.483 1.13 1.05 1.82 1.478.222.05.255.246.478.296-.017.062.038.07.097.074.25.397.623.702 1.054.96.98 1.092 2.054 2.11 2.968 3.252v.074c.128.22.21.48.48.59.594.576.927 1.354 1.53 1.922.382.814.905 1.52 1.34 2.292.338.676.69 1.34 1.055 1.996.412 1.183 1.09 2.164 1.34 3.473.232.633.32 1.378.67 1.922.117.424.264.83.287 1.33-.113-.014-.082-.136-.096-.224-.188-.14-.057.593-.096.813.274-.01-.083-.508.192-.52v.223c.01.213-.053.484.095.592-.136.437-.16.82-.095 1.108.067.294.143-.422.095-.813h.097v.445c.037.53.01.677.096 1.108-.16 1.035-.16 2.586 0 3.62-.088.425-.075.52-.096 1.036v.44h-.096c-.01-.2.054-1.12-.093-.74.06.3-.125.79.095.963.022.238-.168.313-.094.593v.22h-.096c.073-.98-.293-.023 0 .297-.167.83-.504 1.532-.575 2.44-.296 1.173-.854 2.146-1.245 3.25-.49.654-.808 1.445-1.244 2.144-.723 1.166-1.616 2.202-2.394 3.326-.41.25-.602.668-.958.96v.074c-.423.265-.606.715-1.053.96-.222.284-.77.903-.955.962"/></svg>