<!DOCTYPE svg PUBLIC "-//W3C//DTD SVG 1.1//EN" "http://www.w3.org/Graphics/SVG/1.1/DTD/svg11.dtd" [
	<!ENTITY ns_flows "http://ns.adobe.com/Flows/1.0/">
]><svg xmlns="http://www.w3.org/2000/svg" width="60" height="60" viewBox="0 -1.063 60 60" overflow="visible"><path fill-rule="evenodd" clip-rule="evenodd" fill="#27627C" d="M14.23 13.95c-.468-1.463-1.32-2.543-2.244-3.55 2.427-1.416 4.472 2.415 2.243 3.55z"/><path fill-rule="evenodd" clip-rule="evenodd" fill="#27627C" d="M17.033 36.285c-1.08 2.278.03 6.78-3.645 6.262-1.557-.22-3.036-2.428-3.738-4.112-1.86-4.464-1.19-11.246.56-15.23-.246-.767-.888-1.088-1.308-1.684-1.892-2.683-2.548-5.956-3.83-9.436C4.01 9.21.827 7.36.117 4.42-.443 2.1 1.057.232 3.015.028c2.375-.247 5.41 1.27 7.196 2.43.72.465 1.213 1.28 1.87 1.495 1.016.33 2.04.067 2.99.187 3.68.466 5.98 2.008 8.6 3.738 4.093 2.704 7.704 6.24 10.465 10.093.867 1.21 1.963 2.62 2.71 4.208.728 1.545 1.287 3.376 1.963 4.86.64 1.412 1.455 3.014 2.242 4.578.573 1.143 1.264 3.685 2.335 4.486.458.343 1.25.47 1.87.747 1.785.8 3.457 1.56 5.045 2.617 2.115 1.41 4.143 2.815 5.795 4.485.678.686 1.314 1.573 1.682 2.522-2.59.93-6.016 1.024-8.69 1.87 1.316 2.252 3.95 3.08 5.887 4.67.955.786 1.928 1.664 2.71 2.618.78.95 1.73 1.845 2.15 3.083-1.343-1.007-2.598-2.064-4.112-2.99-3.847-2.35-8.873-3.67-10.093-8.41 2.356-1.41 5.57-1.966 9.436-1.87-.59-1.28-1.923-1.755-2.896-2.43-2.038-1.407-4.068-2.86-6.82-3.83-1.262-.443-2.962-.676-3.832-1.4-1.023-.856-2-3.2-2.617-4.58-.78-1.743-1.555-3.396-2.24-4.86-.776-1.653-1.356-3.407-2.15-5.045-2.98-6.16-7.96-11.22-13.924-14.672-2.686-1.558-5.38-2.57-9.626-2.525-1.25-1.04-2.44-1.863-4.02-2.62-.913-.435-4.674-2.483-5.046-.37-.306 1.734 1.875 3.646 2.71 4.766 1.094 1.466 2.042 3.093 2.617 4.765.98 2.853 1.574 5.67 3.273 7.85.546.7 1.46 1.345 1.59 2.056.23 1.3-.588 2.77-.936 3.737-1.076 2.994-1.05 8.14.094 11.12.398 1.037.853 2.6 2.43 2.897.444-3.606.863-7.237 3.27-8.878 2.428 6.204 5.366 11.893 9.907 15.98.145.05.006.098-.094.093-3.803-3.174-7.89-6.064-9.72-11.214z"/></svg>