<svg xmlns="http://www.w3.org/2000/svg" width="60" height="60" viewBox="0 0 60 60"><path fill="#328899" d="M30.282 11.535h4.915c.06.12.175.08.27.086 3.09.235 6.1.85 9.004 1.94 4.293 1.618 8.048 4.023 10.937 7.635 3.54 4.43 4.938 9.484 4.155 15.1C59.05 40 57.552 43.32 55.37 46.34c-3.214 4.45-7.4 7.738-12.355 10.03-8.02 3.707-16.347 4.676-24.945 2.438-5.13-1.336-9.65-3.803-13.152-7.86-4.23-4.9-5.752-10.58-4.48-16.94.898-4.496 3.124-8.324 6.25-11.617 5.91-6.226 13.29-9.502 21.716-10.606.626-.08 1.27-.04 1.88-.248zm2.7 3.508c-11.38-.068-20.767 9.097-21.043 20.482-.29 11.753 9.066 21.287 20.51 21.55 11.762.273 21.297-9.113 21.527-20.575.24-11.865-9.37-21.502-20.995-21.457z"/><path fill="#98DCDC" d="M32.98 14.857c11.63-.046 21.235 9.59 20.997 21.456-.23 11.463-9.768 20.85-21.528 20.578-11.447-.263-20.8-9.797-20.513-21.55.277-11.385 9.664-20.55 21.042-20.482zM12.726 35.202c-.01 8.872 7.207 16.123 16.08 16.154 8.83.03 16.17-7.216 16.21-15.952.04-9.116-7.207-16.187-15.854-16.337-9.07-.16-16.443 7.156-16.436 16.135z"/></svg>