<!DOCTYPE svg PUBLIC "-//W3C//DTD SVG 1.1//EN" "http://www.w3.org/Graphics/SVG/1.1/DTD/svg11.dtd" [
	<!ENTITY ns_flows "http://ns.adobe.com/Flows/1.0/">
]><svg xmlns="http://www.w3.org/2000/svg" width="60" height="60" viewBox="0 -1.727 60 60" overflow="visible"><path fill-rule="evenodd" clip-rule="evenodd" fill="#7BAF15" d="M49.822 36.49V24.17c0-2.692.084-5.505 0-8.215-.077-2.448-2.056-3.488-3.773-4.44-3.49-1.936-7.024-4.037-10.42-6.01-2.61-1.518-5.205-2.99-7.815-4.51-.838-.487-1.943-1.135-3.14-.968-.042.006-.045.03-.1.033-1.087.08-1.906.545-2.737 1.036-5.65 3.334-11.198 6.484-16.863 9.75-.793.458-1.583.963-2.37 1.403-.882.49-1.524.974-2.005 1.8-.53.916-.6 1.74-.6 3.207V40.03c0 2.506 1.622 3.436 3.24 4.376.82.478 1.63.904 2.437 1.37 1.468.844 3.154 1.986 5.276 2.304 3.793.565 6.38-1.146 7.18-4.008.284-1.02.267-2.19.267-3.54V19.628c0-.567.09-1.52-.133-1.77-.265-.298-1.11-.2-1.77-.2-.637 0-1.487-.12-1.77.2-.316.358-.134 1.812-.134 2.47v18.234c0 1.777.236 3.71-.5 4.708-.785 1.062-2.26 1.364-3.807.802-1.096-.397-2.23-1.247-3.34-1.87-.498-.278-1.03-.568-1.67-.936-.368-.21-1.41-.686-1.535-1.068-.11-.337-.032-.942-.032-1.47V17.56c0-.5-.074-1.17.034-1.503.12-.372.832-.655 1.27-.9.38-.215.905-.542 1.3-.77 5.824-3.332 11.393-6.628 17.165-9.884.437-.245.967-.696 1.37-.733.46-.042 1.066.47 1.468.7 3.137 1.796 6.262 3.596 9.283 5.344 3.012 1.79 6.22 3.522 9.283 5.344.464.277 1.088.544 1.2.9.106.327.035.916.035 1.47V38.73c0 .518.078 1.196-.033 1.502-.098.27-.825.647-1.2.868-.507.295-1.01.58-1.337.768-5.823 3.36-11.4 6.6-17.23 9.918-.418.238-.994.698-1.402.7-.48.003-1.13-.562-1.535-.8-1.024-.602-1.856-1.062-2.872-1.67-.435-.26-1.062-.807-1.503-.802-.3.003-.65.278-.935.434-.652.355-1.225.593-1.903.835-.33.117-.725.186-.9.502.11.43.57.57.9.767 1.854 1.102 3.6 2.126 5.442 3.24.724.437 1.49.955 2.337 1.134 2.222.47 3.717-.828 5.076-1.602 5.9-3.356 11.648-6.73 17.633-10.15 1.456-.836 2.946-1.812 3.17-3.81.143-1.257.002-2.69.002-4.073z"/><path fill-rule="evenodd" clip-rule="evenodd" fill="#7BAF15" d="M34.062 36.023c-2.227.38-4.872.298-6.746-.2-1.723-.456-2.664-1.43-3.005-3.138-.077-.396-.057-.705-.332-.902-.34-.242-1.037-.134-1.703-.134-.62 0-1.442-.11-1.703.132-.352.33-.177 1.228-.1 1.736.1.655.224 1.182.368 1.535 1.127 2.763 3.67 4.026 6.88 4.543 2.225.355 4.93.368 7.045-.034 2.196-.42 3.86-1.188 5.143-2.472 1.21-1.208 1.982-3.478 1.503-5.844-.406-2.007-1.877-3.125-3.81-3.807-2.94-1.04-6.39-1.095-9.647-1.77-1.006-.208-2.247-.53-2.604-1.235-.274-.536-.186-1.492.03-1.97.48-1.052 1.677-1.436 2.94-1.637.72-.117 1.714-.21 2.604-.168 1.6.075 3.355.227 4.44 1.068.435.337.833.856 1.07 1.335.146.3.38 1.552.667 1.737.257.164 1.04.1 1.737.1.64 0 1.45.1 1.702-.167.37-.396.055-1.43-.067-1.937-.178-.742-.357-1.225-.6-1.703-1.522-2.985-5.225-4.255-9.72-4.04h-.065c-3.248 0-5.915.838-7.513 2.57-.81.88-1.373 2.018-1.503 3.54-.122 1.444.223 2.948 1.037 3.975 2.26 2.853 7.486 2.53 11.753 3.373 1.394.277 3 .58 3.44 1.637.24.576.112 1.63-.1 2.103-.47 1.045-1.75 1.536-3.138 1.77z"/></svg>