<!DOCTYPE svg PUBLIC "-//W3C//DTD SVG 1.1//EN" "http://www.w3.org/Graphics/SVG/1.1/DTD/svg11.dtd" [
	<!ENTITY ns_flows "http://ns.adobe.com/Flows/1.0/">
]><svg xmlns="http://www.w3.org/2000/svg" width="60" height="60" viewBox="0 -7.724 60 60" overflow="visible"><path fill-rule="evenodd" clip-rule="evenodd" fill="#247FB2" d="M41.76 30.582c-.112-.778.593-1.51.816-2.348.523-1.95.063-4.4-.102-6.844-.19-2.842.8-5.107.51-7.457-.323-2.643-2.25-5.197-3.778-7.048-1.73-2.095-3.68-3.698-6.13-4.698 3.145-.96 8.246-1.495 11.278-.066 2.417 1.14 4.402 3.99 4.657 6.707.395 4.166-1.01 8.65-2.35 12.257-1.39 3.75-3.242 7.164-4.9 9.5z"/><path fill-rule="evenodd" clip-rule="evenodd" fill="#247FB2" d="M41.146 13.218c-4.02-.207-7.16.907-6.74 5.414.222 2.398 1.474 5.055 2.654 7.253 1.27 2.364 2.527 4.614 3.68 6.13-2.485.532-2.12 2.784-2.452 5.72a686.87 686.87 0 0 1-.51 4.29c-.423 3.433-.642 7.392-2.657 8.886-1.943 1.44-5.663 1.898-7.25.615-3.543-2.867-1.36-11.188-2.145-16.65-.258-1.795-1.533-2.932-3.37-2.758.34-2.414 2.436-5.362 2.655-8.887.214-3.468-.34-7.94-2.657-9.193-2.135-1.157-5.56-.022-7.252.817.817-6.506 3.113-11.992 9.604-12.564 8.904-.785 13.735 5.036 16.443 10.928z"/><path fill-rule="evenodd" clip-rule="evenodd" fill="#247FB2" d="M17.756 3.616c-.736 1.18-1.77 2.375-2.554 4.086-.693 1.51-1.21 3.297-1.532 5.31-.313 1.97-.217 4.152-.205 6.437.02 3.944-.772 7.215.715 9.906a6.965 6.965 0 0 0 1.84 2.146c-.984 1.03-1.795 2.036-2.86 3.27-.765.88-1.938 2.805-3.27 2.86-1.834.072-3.272-2.81-4.188-4.7-1.048-2.165-1.69-4.242-2.35-6.436-1.85-6.16-6.17-20.36-.622-24.465 6.384-4.72 10.31.06 15.026 1.585zM41.25 14.955c.075 1.765-.51 3.407-.512 5.21-.007 2.99 1.136 6.012-.104 8.58-1.22-2.5-4.266-6.554-4.596-10.42-.268-3.174 2.075-3.676 5.21-3.37zm-3.883 2.564c-.095 1.307 2.8 1.17 2.758-.41-.622-.714-2.696-.444-2.758.41z"/><path fill-rule="evenodd" clip-rule="evenodd" fill="#247FB2" d="M20.616 31.706c-3.45-.404-5.646-2.52-5.823-5.924-.143-2.754.82-5.943.205-8.887 1.526-.896 5.584-2.978 7.252-.92 1.194 1.476 1.318 6.14.92 8.48-.49 2.868-2.118 5.11-2.554 7.25zm-2.33-14.24c-.318 1.56 3.468 1.956 2.964.102-.188-.688-1.527-.84-2.247-.612-.512.163-.624.062-.716.51zm30.419 16.488c-1.723 1.623-5.375 2.688-8.58 1.838-.22-1.512.448-2.14 1.532-2.35 1.61 1.252 4.753.903 7.048.512zm-32.891 3.779c1.914-.784 3.423-.65 4.7-1.838.748-.7 1.207-1.654 2.042-2.248.96.094 1.578.762 1.533 1.635-.128 2.408-5.653 4.06-8.277 2.45z"/></svg>