<!DOCTYPE svg PUBLIC "-//W3C//DTD SVG 1.1//EN" "http://www.w3.org/Graphics/SVG/1.1/DTD/svg11.dtd" [
	<!ENTITY ns_flows "http://ns.adobe.com/Flows/1.0/">
]><svg xmlns="http://www.w3.org/2000/svg" width="60" height="60" viewBox="0 -5.913 60 60" overflow="visible"><path fill-rule="evenodd" clip-rule="evenodd" fill="#F67B00" d="M53.81 45.104V30.518c0-2.4.478-5.453 0-7.352-.603-2.376-7.034-1.493-10.81-1.493-1.784 0-3.624.094-5.298.13l.008-.016a.235.235 0 0 0-.06.02c-.17 0-.334.005-.497.007a.127.127 0 0 1-.018-.027c0 .01 0 .02.002.027-.28.004-.554.004-.82.004l.013-.03c-.033.007-.06.018-.088.028-.16 0-.318-.004-.474-.006l-.014-.023c0 .008 0 .015.002.02a15.62 15.62 0 0 1-1.842-.134c-.673-.097-1.406-1.138-1.496-1.494a8.722 8.722 0 0 1-.204-1.568c-.02-.397-.025-.816-.02-1.255l-.002.002.002-.003a.243.243 0 0 0 .022-.083v-.002c0-.014 0-.026-.004-.04v-.003a.166.166 0 0 0-.017-.04c.03-1.82.222-3.928.222-5.854 0-3.094.348-6.5 0-8.96-.36-2.567-2.37-2.182-5.403-2.182-3.37 0-5.893-.27-5.404 3.215v9.304c0 2.54.42 5.218 0 7.235-.626 2.994-5.76 1.265-9.2 1.723-.748-.452-1.403-.85-1.496-1.61-.5-4.16.528-12.56 0-17.802A2.32 2.32 0 0 0 9.074.195c-1.355-.27-5.84-.25-7.128 0C1.134.354.65.864.366 1.592l-.03-.018c-.006.033-.01.063-.014.093.002.003 0 .007 0 .012l-.01.072C-.24 3.392.108 5.986.108 8.12v37.903c0 2.623-.312 5.43.35 6.77 0 .002-.004.003-.004.007 0 0 0 .002.004.005l.006.004h.004l.004.004c0-.002-.003-.002-.004-.004.062.127.133.24.215.336.007.07.018.136.115.115 1.43 1.138 4.563.69 7.36.69H45.53c2.116 0 4.46.31 6.324 0 .978-.162 1.512-.824 1.8-1.767a.158.158 0 0 0 .022-.033l.02-.038-.02-.002c-.305.004-.103-.193-.137-.413.032.22-.17.417.134.413.524-1.836.134-4.684.134-7.006zm-5.63 8.644c0-.012 0-.026-.005-.037.004.013.005.027.006.04zm-.01-.044a.07.07 0 0 0-.017-.025c.008.004.013.014.016.023zm-.026-1.408zm.277-5.484c-.01 0-.017 0-.027-.002a.15.15 0 0 0 .03.002zm1.38 0c-.01 0-.02 0-.03-.002a.15.15 0 0 0 .03.002zm1.38 0c-.01 0-.02 0-.03-.002a.15.15 0 0 0 .03.002zm1.38 0c-.01 0-.02 0-.03-.002.01.002.02.002.03.002zm-20.866-8.935l.055-.06-.056.06zm-.076.107a.51.51 0 0 1 .058-.085.536.536 0 0 0-.058.083zm.15-.185l.067-.065c-.022.02-.045.04-.066.063zm11.663.22c.01-.01.02-.025.03-.037-.01.012-.02.028-.03.038zm-.027.025l.01-.01-.01.01zm-11.21-1.096zm11.166 1.113h-.006.005zm.024-.006l-.01.004.01-.003zm-.067-.017l.003.002h-.004zm.017.018h.005-.006zm-9.76 4.406h-.116c-.803-.78-1.233-3.04-1.225-5.145a.386.386 0 0 0 .005-.264c.02-.882.116-1.724.3-2.406.315-1.18 1.188-1.69 1.954-2.065h.116c1.733-.26 3.94-.045 5.865-.114h.115c.722.206 1.735.9 2.07 1.494.382.68.617 2.248.635 3.827v.004a.274.274 0 0 0-.006.048v.008c-.002.015-.004.03-.004.045v.007l.004.04v.006c.002.016.003.03.007.042 0 1.35-.158 2.68-.52 3.44-.82 1.73-2.29 1.724-5.06 1.724-1.712 0-3.33.144-4.138-.688zm9.74-4.756l-.002.01.003-.01zm-.01.313zm4.81 11.5c-.175-.07-.59.24-.625-.145.033.387.45.073.624.146zm.03 1.398a.076.076 0 0 0-.025-.018c.01.003.017.01.025.017zm-1.102-2.445l-.005.003.006-.003zm.315 2.276h.01-.01zm-.234-.976s0 .002-.003.004l.004-.004zm-.035.038a.02.02 0 0 1-.01.01c.006-.003.008-.007.01-.01zm-.157.096l.02-.007c-.005 0-.01.005-.02.007zm.058-.02c.005-.005.01-.007.017-.012l-.017.01zm.048-.032l.013-.008-.014.008zm-.166.067c.007 0 .012 0 .018-.003-.007.002-.01.004-.018.004zm.488-.55h.01-.01zm-.488-.826c.007 0 .012-.003.017-.005-.006 0-.01.004-.017.004zm.178 2.68a.045.045 0 0 0-.013.01l.013-.01zm-.044.03a.047.047 0 0 0-.016.01.042.042 0 0 1 .017-.01zm-.052.023c-.006.002-.012.006-.02.008.008-.002.014-.006.02-.008zm-.064.02c-.006 0-.01 0-.018.003l.018-.004zm.193-.1c.005-.002.008-.007.01-.01-.003.003-.005.008-.01.01zm.045-.045c0 .002 0 .002-.003.005l.004-.005zm.81-1.438l.017-.014-.017.014zm.045-.036l.018-.013c-.006.005-.01.01-.018.014zm.05-.032l.02-.012-.02.012zm.062-.032l.02-.008-.02.008zm.087-.03a.128.128 0 0 0-.024-.04c.01.01.018.024.024.04zm-.03-.043c-.01-.01-.017-.014-.027-.02.01.006.018.01.026.02zm-.236.197c-.007.005-.01.01-.016.016.005-.007.01-.01.015-.016zm-.035.042l-.01.014c.003-.003.005-.01.01-.015zm-.03.046l-.007.012.004-.012zm-.916-1.297c.007-.002.01-.006.016-.01l-.016.01zm.056-.025L47 48.5l-.01.005zm.376-.517c.01.002.016.002.024.002-.01 0-.015 0-.024-.003zm-.285 4.588l.01-.008-.01.008zm-.15.09zm.06-.023l.016-.01-.017.01zm.047-.032l.013-.01-.013.01zm.088-.08c0 .003 0 .003-.003.005l.004-.003zm.235-.404c.004 0 .006 0 .01.003-.004-.004-.007-.004-.01-.004zm.133-1.374c.034.39.45.076.625.148-.175-.07-.59.242-.625-.147zm.663.172c.01.01.02.025.024.04a.12.12 0 0 0-.023-.04zm-.044.06c-.007.006-.013.008-.02.012l.02-.01zm-.06.03c-.01.002-.014.007-.02.01.007-.003.012-.008.02-.01zm3.414-3.028c-.02-.002-.044-.004-.066-.01.023.006.045.008.066.01zm.05.005l-.002-.002v.002c.015.272-.416.457-.485.587.07-.13.5-.314.485-.588zm-.497.62a.05.05 0 0 0 .005.023.04.04 0 0 1-.007-.02zm0-.006c0-.006.002-.015.005-.02-.004.005-.005.014-.006.02zm.034.06c-.012-.007-.02-.016-.027-.023.008.008.017.017.028.025zm-.968-.68a.31.31 0 0 1-.065-.008c.024.005.045.007.066.01zm.048.006v-.003.002c.015.27-.417.456-.485.586.067-.13.5-.314.484-.588zm-.495.62a.04.04 0 0 0 0 .002zm0-.007c0-.006.002-.015.006-.02-.004.005-.005.014-.006.02zm.035.06a.098.098 0 0 1-.028-.023.168.168 0 0 0 .027.024zm-.97-.68a.31.31 0 0 1-.064-.008c.024.005.044.007.065.01zm.05.006v-.004.002c.015.272-.418.457-.487.587.07-.13.5-.314.487-.588zm-.498.62c0 .006.004.016.007.02a.042.042 0 0 1-.008-.02zm.002-.008c0-.006 0-.015.004-.02-.004.005-.005.014-.006.02zm.035.06a.098.098 0 0 1-.028-.023.1.1 0 0 0 .028.023zm-.36-.33l.017-.012c-.005.005-.01.01-.017.014zm.045-.035l.018-.01c-.006.003-.01.007-.018.01zm.05-.032l.02-.01-.02.01zm.062-.03l.02-.01-.02.01zm-.248.223a.02.02 0 0 1 .004-.01l-.005.01zm.024-.043l.01-.016-.01.016zm.03-.042l.015-.016c-.007.005-.01.01-.016.015zm-.422-.393zm-.588 4.693l-.018.004.018-.005zm1.025-1.56l-.016.017.015-.017zm-.035.044c-.004.003-.006.01-.01.012l.01-.014zm-.03.045l-.006.01.004-.01zm.102-.127c-.005.005-.01.01-.017.014l.017-.015zm.046-.035c-.006.004-.01.01-.018.014.007-.004.012-.01.018-.014zm4.395-4.233c-.01 0-.02.002-.026.004.01 0 .02-.003.028-.003zm.083-.005l-.03.003.03-.003zm-.35 1.33a.245.245 0 0 1-.055.023c.02-.007.038-.012.056-.022zm-.6-.146zm.427.194zm-.857-1.38c-.01 0-.02.004-.03.004l.03-.003zm-.35 1.332a.263.263 0 0 1-.055.022c.02-.007.038-.012.056-.022zm-.6-.147zm.427.194zm-.858-1.38c-.012 0-.02.003-.03.003l.03-.003zm-.35 1.33a.272.272 0 0 1-.056.023c.02-.007.038-.012.056-.022zm-.6-.146zm.43.194zm-.855-1.376c-.013-.003-.023 0-.033 0 .01 0 .02-.003.033 0zm-.16 1.4a.157.157 0 0 0-.024-.043.11.11 0 0 1 .024.042zm-.063-.067c-.178-.07-.603.253-.626-.162.023.415.448.092.626.163zm.027.02a.124.124 0 0 0-.02-.018c.007.005.014.01.02.017zm-.464-.31zm.026-.04zm-11.31-24.837a.086.086 0 0 0 .018-.02l-.018.02zm-1.38 0l.018-.02-.02.02zM47.488 52.13c.034.39.45.073.625.146-.175-.073-.59.243-.625-.146zm.663.17c.01.01.02.025.024.04a.12.12 0 0 0-.023-.04zm-.044.06zm-.06.03c-.01.003-.014.007-.02.012a.063.063 0 0 1 .02-.013zm4.96-.267zm-.687-5.304c-.01 0-.02.004-.028.006.01-.002.016-.006.026-.008zm-.066.02a.047.047 0 0 0-.02.01.062.062 0 0 1 .02-.01zm-.053.02c-.006.005-.012.01-.02.014.008-.004.014-.01.02-.013zm-.132.13l.008-.014-.01.014zm-.05.096l.002-.006c0 .003 0 .005-.003.007zm.022-.05l.004-.012-.004.013zm-1.032-.227c-.01 0-.02 0-.03.003.01-.002.02-.004.03-.004zm-.097.016c.01-.002.018-.006.026-.008-.01 0-.017.005-.025.007zm-.224.164l.008-.013-.008.014zm-.05.097l.003-.006v.008zm.024-.05l.005-.012-.005.013zm-1.032-.227c-.01 0-.02.002-.028.004.01-.002.018-.004.028-.004zm-.096.017c.01-.002.016-.006.025-.008-.01 0-.018.004-.026.006zm-.227.164c.004-.002.007-.01.01-.012l-.01.014zm-.05.098l.003-.006c0 .003 0 .005-.002.007zm.024-.05l.006-.012c-.002.004-.005.008-.006.013zm-1.026-.227l-.03.003.03-.002zm-.096.018c.008-.006.017-.008.024-.01-.008.002-.017.004-.025.01zm-.255.204zm-.062.17zm.017-.054v-.008.008zm.017-.056l.002-.007-.003.007zm-11.413-24.2l.014-.01c-.005.003-.01.005-.013.01zm.44-.77l.038-.002-.036.002zm-.08-.01l.03.003-.028-.004zm.04.005c.013.002.023.005.034.005-.01-.003-.022-.003-.032-.005zm-1.78.775l.013-.01c-.003.003-.01.005-.012.01zm.444-.77a.19.19 0 0 0 .037-.005c-.013.002-.025.005-.036.005zm-.08-.01c.008 0 .018.003.027.004-.01 0-.02-.003-.027-.005zm.038.007h.034l-.035-.002zm-3.36-2.983l.065.012-.065-.013zm-.058-.02c.013.007.028.01.045.015a.24.24 0 0 1-.046-.014zm-.033-.017c.01.006.02.013.03.017a.08.08 0 0 1-.03-.017zm-.024-.025c.003.008.01.014.018.02-.008-.006-.015-.01-.02-.02zm-.01-.02c.002.005.004.012.008.016a.027.027 0 0 1-.008-.017zm0-.03a.05.05 0 0 0-.002.02c0-.005 0-.012.003-.02zm.137-.523l-.01-.01a.03.03 0 0 0 .01.01zm.037.035zm-.04-.777l.057.01-.057-.01zm-.05-.014c.01.004.02.006.034.01l-.033-.01zm-.064-.037zm.022.02l.03.013-.03-.014zm-.044-.064zm.008.024l.008.014c-.003-.003-.006-.01-.008-.014zm.148-.552zm-.033-.027c0-.002 0-.002-.002-.002l.003.002zm15.267 36.397h-.025.024zm.522-1.013l-.016.017.015-.016zm-.035.043c-.003.004-.005.01-.01.015l.01-.014zm-.03.05c-.002.002-.004.004-.005.01 0-.006.002-.008.004-.01zm.103-.13c-.005.004-.01.01-.016.013l.017-.014zm.046-.034l-.02.013.02-.013zm5.033-.23l.015.03c-.005-.007-.01-.02-.015-.03zm.026.046c.004.01.012.014.02.022-.008-.007-.016-.013-.02-.022zm.033.034zm.067.04l-.025-.014a.09.09 0 0 0 .024.012zm-1-5.417a.093.093 0 0 1-.015.013c.004-.006.01-.01.014-.014zm-.043.038a.032.032 0 0 1-.01.013c.004-.003.008-.01.01-.013zm-1.234-.095a.077.077 0 0 0-.023.01l.023-.01zm-.054.022l-.02.013c.005-.004.012-.01.02-.013zm-.05.034a.093.093 0 0 1-.015.013.07.07 0 0 1 .016-.015zm-.04.038l-.012.013c.005-.003.008-.01.013-.013zm-1.235-.095zm-.056.02l-.02.014c.006-.004.012-.01.02-.013zm-.05.035c-.004.004-.01.01-.016.013l.017-.014zm-.04.038l-.013.013.013-.013zm-1.23-.097c-.01.002-.016.006-.022.008l.023-.008zm-.055.023l-.02.01.02-.01zm-.05.032l-.014.01.016-.01zm-.044.04l-.006.008.007-.006zM37.54 21.855c-.173.102-.22.23-.39-.04.173.27.218.142.39.04zm.046-.024l-.036.02.035-.02zm-.452-.016c.018.187-.077.283-.193.3.117-.016.21-.113.194-.3zm-.33.288c-.008-.004-.016-.006-.023-.008a.09.09 0 0 1 .023.008zm-.045-.02c-.007-.003-.013-.005-.02-.01.007.006.013.007.02.01zm-.04-.025l-.016-.008.014.007zm-.707-.1l.02-.013-.02.012zm-.05.02c-.057.008-.11-.028-.196-.164.087.135.14.17.196.164zm.046-.02c-.01.005-.016.01-.023.01.01 0 .015-.005.023-.01zm-.025.014l-.022.007.02-.006zm-.233-.16c.02.19-.074.288-.19.304.116-.016.21-.115.19-.303zm-.328.29c-.01 0-.018-.004-.025-.006l.023.008zm-.044-.017a.073.073 0 0 1-.02-.01c.006.005.01.006.02.01zm-.044-.024l-.014-.01.014.01zm-3.298-3.115c0-.002.002-.004.004-.006l-.004.005zm-.04.07l.008-.02-.008.02zm.013-.03l.015-.022-.013.023zm.185-.414l.003.005-.002-.004zm-.156-1.004v-.004.004zm-.046.09c0-.006 0-.01.002-.015l-.003.017zM32 17.63l.006-.012-.006.013zm.01-.022l.01-.012-.01.012zm.163-.447v.003zM2.523 6.284zm-.295.044c.024.002.05.002.075.002-.025 0-.05 0-.076-.003zm.093.002zm1.486-.018a.42.42 0 0 0 0 .002zm-.2.016c.026.002.05.002.077.002-.026 0-.05 0-.076-.002zm.096.002zM3.6 6.326l-.078-.01.077.01zm-1.38 0l-.077-.01.076.01zM3.5 6.31zm-.226-.046c.002.002.004.002.006.002l-.006-.002zM2.12 6.31l-.063-.01a.64.64 0 0 0 .063.013zm-.226-.046c.002.002.004.002.007.002 0 0-.003 0-.005-.002zm3.39.018zm-.202.046zm-.422-.062c-.002 0-.004 0-.006-.002.002.002.004.002.006.002zm.405.062c-.026 0-.05 0-.076-.002.023.002.05.002.074.002zm-.163-.013c.025.004.05.008.076.01-.026-.002-.05-.006-.076-.01zm-.086-.017l.063.013a.658.658 0 0 1-.065-.01zM.424 1.626c-.018-.01-.037-.02-.055-.034a.442.442 0 0 0 .053.034zm.157.057c-.01-.004-.022-.01-.034-.01.012 0 .023.006.036.01zM.498 1.66l-.043-.02.043.02zm-.247.53l-.027.07c.012-.026.02-.05.028-.07zm.045-.213c0 .01 0 .022-.002.03 0-.008 0-.02.002-.03zm-.003.046c0 .012-.004.025-.006.037l.006-.037zm-.006.04l-.01.05.01-.05zm-.014.06l-.017.054.017-.055zM.61 52.91l.043.043-.043-.043zm-.1-.073zm.046.03L.6 52.9l-.044-.033zm46.32.918c.193-.07.444.028.597-.28-.152.308-.403.21-.596.28zm-.082.045c.013-.01.025-.02.038-.025-.012.006-.025.016-.038.025zm.045-.03a.126.126 0 0 1-.002 0zm.65-.297c.1.374.535.078.658.17-.124-.092-.56.204-.658-.17zm.69.257a.32.32 0 0 1-.007.07.354.354 0 0 0 .01-.07zm4.993-1.442l.027.01-.026-.01zm.052.013c.008.003.017.003.025.006-.007-.003-.016-.003-.024-.005zm.055.008h.02-.02zm.184-.804zm.063.115c.007.015.01.03.013.043a.15.15 0 0 0-.013-.043zm-.02-.05l.018.04c-.005-.01-.01-.027-.02-.04z"/></svg>