<!DOCTYPE svg PUBLIC "-//W3C//DTD SVG 1.1//EN" "http://www.w3.org/Graphics/SVG/1.1/DTD/svg11.dtd" [
	<!ENTITY ns_flows "http://ns.adobe.com/Flows/1.0/">
]><svg xmlns="http://www.w3.org/2000/svg" width="60" height="60" viewBox="0 0 60 60" overflow="visible"><path fill-rule="evenodd" clip-rule="evenodd" fill="#BB2B50" d="M47.942 48.987V0H5.465v.03C3.952.286 2.785.95 1.86 1.857.97 2.73.237 3.957.056 5.454c-.127 1.05 0 2.267 0 3.416v51.055h42.478c.56-.173 1.097-.28 1.59-.48 1.392-.56 2.55-1.686 3.208-2.965.93-1.81.61-4.723.61-7.493zM40.548 5.214c.902.434 1.6 1.068 2.383 1.618.017.3-.045.63-.06.81-.23-.003-.37-.21-.55-.33-.52-.356-1.15-.676-1.74-.99.055-.416-.087-.792-.03-1.108zm-10.3-2.398c.918-.09 1.875.04 2.72.12.212.543.46 1.207.55 1.768-.753-.06-1.744-.014-2.443-.03-.213-.238-.296-.572-.428-.87-.14-.31-.292-.595-.398-.927-.003-.02-.003-.04-.003-.06zm-6.814 1.26c.645.605 1.138 1.36 1.682 2.067-.63.482-1.424.802-1.987 1.348-.71-.63-1.318-1.364-1.958-2.065.644-.557 1.502-.903 2.26-1.35zm-8.71 6.442c.92.576 1.743 1.248 2.598 1.887-.5.777-1.07 1.488-1.558 2.277a63.626 63.626 0 0 1-2.78-1.77c.482-.89 1.162-1.594 1.74-2.394zM8.246 20.645c1.078.45 2.142.916 3.21 1.377-.34 1.062-.664 1.953-1.01 2.996a36.013 36.013 0 0 1-3.3-1.227c.337-1.09.722-2.177 1.1-3.144zm-3.88 12.673c.052 0 .078-.023.09-.06.027-.02.056-.036.06 0 .46.15 1.057.164 1.5.33.716.103 1.474.17 2.108.36-.13.644-.265 1.298-.428 1.976-.046.187-.14.377-.183.57-.018.08.02.162 0 .237-.018.067-.08.12-.092.184-.042.213 0 .376-.12.538-1.368-.076-2.67-.216-3.88-.447.212-1.218.662-2.44.947-3.685zM10.6 55.61c-.443 0-.983.112-1.346 0-.16-.05-.375-.408-.52-.6-.482-.642-.966-1.3-1.466-1.858-.092.75.03 1.708-.06 2.458-.765-.02-1.61.04-2.324-.03v-8.6c.027-.022.02-.082.06-.09 1.608.124 3.182-.165 4.647 0 1.807.204 2.415 1.726 2.233 3.597-.116 1.18-.797 2-1.956 2.216.482.756 1.066 1.463 1.62 2.188.17.227.42.436.49.72H10.6zm10.604 0H18.88c-.09-.49.03-1.187-.06-1.678a14.83 14.83 0 0 0-2.108 0c-.092.49.028 1.187-.062 1.678h-2.293c-.055-1.036-.03-2.197-.03-3.356 0-1.17-.115-2.39 0-3.355.133-1.12 1.032-1.878 2.11-2.01.408-.05.883 0 1.312 0 .44 0 .894-.04 1.28 0 1.12.116 1.796.82 2.14 1.68.118 2.222.067 4.77.033 7.04zm4.98 0H23.83a249.89 249.89 0 0 1 0-8.658.238.238 0 0 1 .093-.062h2.26c.052 2.838.052 5.883 0 8.72zm8.526 0h-5.866c-.073-2.818-.01-5.763-.03-8.63-.003-.052.022-.078.06-.09h2.23c.09 2.06-.027 4.38.06 6.353 1.04.135 2.426-.06 3.547.06.05.7.053 1.608 0 2.307zm-5.866-26.337c.06.604.253 1.486.305 2.097-1.03-.42-2.014-.884-3.028-1.318a19.86 19.86 0 0 1-.09-2.276c.995.44 1.865 1.005 2.81 1.497zm-2.11-6.68c.094-.738.38-1.288.55-1.948.503.395 1.08.987 1.56 1.497.123.132.44.4.457.51.044.24-.31.99-.394 1.35-.038.155.014.285-.09.42-.75-.557-1.4-1.208-2.08-1.83zm3.546 14.95c.198.037.34-.02.458.06.175.114.397.902.49 1.11.187.42.357.722.458 1.137-1.12-.012-2.342-.18-3.454-.3-.253-.324-.35-.756-.49-1.167-.152-.45-.36-.828-.458-1.35-.035-.005-.025-.055-.03-.09.905.116 2.128.43 3.026.6zm-.886-21.603c0-.063.24-.397.305-.48.24-.303.63-.708.824-.838.35.43.638.958.978 1.497.246.392.388.46.092.867-.235.324-.47.658-.672.988-.397-.43-.762-.988-1.16-1.527-.098-.13-.37-.39-.37-.51zm4.52-3.985c.05-.13.26-.107.31-.24.503-.045.844-.408 1.373-.33.13.58.382 1.045.49 1.648-.487.182-.857.48-1.438.57-.318-.496-.54-1.116-.736-1.648zm9.11 41.708c-.12.97-.945 1.816-1.96 1.947-1.345.173-3.175-.103-4.797-.03.02-.71-.038-1.496.032-2.157h4.337c.05-.28.05-.766 0-1.048-1.456-.073-2.827.128-3.637-.48-.898-.677-1.275-2.453-.7-3.654.174-.363.447-.62.732-.84.326-.247.69-.442 1.19-.51 1.365-.173 2.84.134 4.31 0-.006.026.012.03.03.033-.02.71.04 1.497-.03 2.157H38.56c-.113.195-.062.682-.028.927 1.572-.034 3.046-.1 3.85.688.56.552.8 1.69.643 2.968zm-2.69-42.638c.652.09 1.25.233 1.864.36-.03.26-.094.488-.093.78-.683.043-1.03-.122-1.68-.062-.017-.42-.145-.7-.09-1.078zm4.706.96c-1.838-1.05-3.783-1.884-6.388-2.128-.65-.06-1.337.01-1.924.09a9.618 9.618 0 0 0-2.813.84c-.442.213-.83.43-1.222.688-.267.175-.524.32-.825.51-.853.537-1.653 1.487-2.383 2.397-1.394 1.734-2.435 3.888-3.147 6.352-.22.75-.49 1.572-.642 2.336-.163.81-.398 1.832-.49 2.756a23.44 23.44 0 0 0 .092 5.424c.62 4.43 1.728 8.684 3.147 12.196H8.43c-.105-.46.02-.927.06-1.38.037-.396-.068-.806 0-1.197.015-.086.083-.185.09-.27.032-.27-.032-.547 0-.81.014-.106.076-.197.094-.3.036-.225-.024-.468 0-.69.074-.678.173-1.587.275-2.308.042-.31.144-.605.18-.898.038-.286-.06-.572.093-.78.83-5.318 2.362-10.05 4.43-14.29 1.965-4.03 4.53-7.515 7.488-10.518a27.674 27.674 0 0 1 2.445-1.738c.86-.545 1.812-.93 2.75-1.41 1.115-.335 2.22-.68 3.392-.957 1.833-.276 3.95-.355 5.928-.09a17.38 17.38 0 0 1 5.685 1.83c1.67.877 3.146 1.994 4.217 3.236-.183.357-.347.735-.517 1.107z"/><path fill-rule="evenodd" clip-rule="evenodd" fill="#BB2B50" d="M9.407 49.288c-.653-.07-1.436-.012-2.14-.03-.07.51-.01 1.15-.03 1.708.652.07 1.437.01 2.14.028.07-.51.01-1.144.03-1.706zm7.335-.03c-.04.013-.063.038-.062.09.02.73-.04 1.54.032 2.22.7-.022 1.486.037 2.137-.03v-2.25c-.643-.07-1.417-.012-2.11-.03z"/></svg>