<svg width="60" height="60" viewBox="0 0 60 60" xmlns="http://www.w3.org/2000/svg" xmlns:xlink="http://www.w3.org/1999/xlink"><title>Page 1</title><defs><path id="a" d="M59.565.807V54H0V.807z"/></defs><g fill="none" fill-rule="evenodd"><g transform="translate(0 2.194)"><mask id="b" fill="#fff"><use xlink:href="#a"/></mask><path d="M33.282 39.614l-.048-.087a71.84 71.84 0 0 1-6.884.003c.022.08.023.104.035.12a57.962 57.962 0 0 0 3.275 3.943c.14.157.217.09.319-.028.505-.58 1.024-1.15 1.517-1.742.606-.728 1.19-1.472 1.786-2.209zM26.26 15.275a74.418 74.418 0 0 1 7.02-.008c-.034-.083-.041-.116-.061-.14a58.729 58.729 0 0 0-3.241-3.894c-.132-.145-.214-.152-.344 0-.531.62-1.083 1.222-1.606 1.85-.58.692-1.135 1.404-1.768 2.192zm15.782 9.09c.054-.075.079-.097.09-.125a55.194 55.194 0 0 0 1.789-4.833c.076-.238-.063-.239-.211-.268-.765-.15-1.53-.313-2.296-.45a42.18 42.18 0 0 0-2.893-.429 79.559 79.559 0 0 1 3.52 6.104zm-3.501 12.14c.119 0 .163.003.207-.002 1.685-.195 3.352-.502 5.012-.856.254-.054.184-.182.134-.338a57.561 57.561 0 0 0-1.734-4.708c-.022-.05-.015-.145-.14-.133a77.972 77.972 0 0 1-3.48 6.036zm-17.456.015a81.875 81.875 0 0 1-3.541-6.133 63.277 63.277 0 0 0-1.83 4.914c-.087.27.008.326.233.368.945.175 1.887.375 2.835.538.734.126 1.47.253 2.303.313zm-3.54-12.113a80.444 80.444 0 0 1 3.558-6.16c-.546.077-1.026.141-1.506.213a64.898 64.898 0 0 0-3.737.684c-.165.035-.225.083-.164.272a57.602 57.602 0 0 0 1.85 4.991zm28.113-14.8c-.016-.288-.028-.73-.068-1.17-.1-1.088-.293-2.155-.801-3.139-.67-1.299-1.721-1.976-3.2-1.948-.908.017-1.771.243-2.603.587-2.807 1.161-5.08 3.081-7.256 5.135-.145.138-.08.22.026.331 1.719 1.857 3.29 3.837 4.756 5.9a.51.51 0 0 0 .418.23 33.8 33.8 0 0 1 1.522.155c2.012.248 4.01.574 5.989 1.018.17.038.236.021.279-.162.542-2.23.903-4.484.938-6.937zm-31.702.003c.077 2.737.434 4.753.883 6.756.076.341.199.383.519.31 2.398-.55 4.828-.902 7.276-1.139.224-.022.366-.09.498-.277 1.446-2.035 2.994-3.988 4.696-5.816.187-.202.139-.297-.031-.457a38.429 38.429 0 0 0-2.4-2.11c-1.592-1.27-3.262-2.414-5.2-3.102-.882-.313-1.79-.51-2.733-.399-1.52.18-2.382 1.15-2.896 2.497-.543 1.423-.615 2.915-.612 3.737zm43.08 17.848c-.007-.905-.338-1.638-.836-2.307-.765-1.027-1.766-1.786-2.846-2.445-2.074-1.268-4.332-2.106-6.648-2.803-.246-.075-.308.033-.37.235a59.297 59.297 0 0 1-2.701 6.998c-.09.197-.076.354.01.543a58.561 58.561 0 0 1 2.707 7.032c.059.19.13.25.337.186 1.978-.593 3.913-1.294 5.737-2.274 1.263-.679 2.459-1.457 3.42-2.542.677-.764 1.165-1.617 1.19-2.623zM2.579 27.39c-.002.583.163 1.121.436 1.625.577 1.065 1.45 1.852 2.425 2.534 2.285 1.598 4.86 2.553 7.503 3.355.193.06.262-.009.315-.179a59.352 59.352 0 0 1 2.732-7.093.524.524 0 0 0-.005-.48 58.733 58.733 0 0 1-2.71-7.032c-.07-.222-.158-.28-.384-.213-2.02.611-3.996 1.331-5.853 2.35-1.21.661-2.347 1.421-3.271 2.461-.678.763-1.166 1.616-1.188 2.672zm43.08 17.65c-.042-2.342-.398-4.572-.935-6.78-.051-.212-.14-.206-.31-.167-2.443.556-4.916.921-7.408 1.168-.272.026-.421.13-.57.34a57.62 57.62 0 0 1-4.655 5.762c-.166.18-.15.272.017.43 1.326 1.258 2.709 2.448 4.23 3.464 1.43.954 2.926 1.77 4.643 2.098 2.1.405 3.623-.434 4.38-2.438.482-1.272.576-2.602.608-3.877zm-31.705.09c.017.31.029.776.07 1.238.108 1.181.327 2.334.939 3.375.562.958 1.37 1.544 2.495 1.673 1.032.12 2.009-.108 2.955-.477 2.912-1.135 5.238-3.116 7.477-5.22.128-.12.087-.197-.012-.305a59.512 59.512 0 0 1-4.8-5.952.41.41 0 0 0-.334-.188c-.485-.039-.97-.092-1.453-.15-2.058-.25-4.103-.574-6.124-1.04-.176-.04-.232.003-.275.177-.54 2.207-.894 4.44-.938 6.868zm15.93-27.415c-1.791.03-3.547.067-5.301.195-.151.011-.25.057-.335.182a72.604 72.604 0 0 0-5.264 9.116.389.389 0 0 0-.002.381 72.233 72.233 0 0 0 5.268 9.115.382.382 0 0 0 .33.19c.998.042 1.994.114 2.99.138 2.46.061 4.92.031 7.378-.13.237-.016.362-.114.485-.295a73.191 73.191 0 0 0 5.165-8.94.542.542 0 0 0 .002-.537 87.398 87.398 0 0 0-1.941-3.702 68.917 68.917 0 0 0-3.25-5.262c-.088-.13-.163-.244-.36-.258-1.731-.119-3.464-.163-5.164-.193zM0 27.031c.132-.1.07-.252.09-.377.289-1.899 1.35-3.336 2.745-4.56 1.98-1.74 4.32-2.848 6.763-3.764a28.597 28.597 0 0 1 2.58-.845c.259-.07.304-.167.24-.426-.624-2.573-1.05-5.174-.971-7.833.052-1.72.309-3.406 1.076-4.976C13.756 1.724 16.143.482 18.93.88c1.972.28 3.72 1.108 5.39 2.134 1.903 1.168 3.609 2.59 5.218 4.13.204.194.303.224.529.01 2.117-2.017 4.376-3.847 7.027-5.133C38.48 1.35 39.92.85 41.484.822 44.2.775 46.074 2.06 47.2 4.484c.565 1.216.809 2.517.914 3.846.235 2.962-.235 5.851-.915 8.717-.066.28-.008.368.255.445 2.542.741 5.002 1.681 7.264 3.082 1.289.798 2.476 1.723 3.406 2.938 2.004 2.62 1.91 5.57-.24 8.074-1.357 1.578-3.065 2.676-4.9 3.6-1.765.89-3.613 1.566-5.51 2.111-.277.08-.344.171-.273.464.599 2.461 1.009 4.951.973 7.494-.026 1.755-.258 3.476-.993 5.098-1.23 2.718-3.823 4.065-6.758 3.532-2.294-.417-4.284-1.493-6.176-2.788-1.51-1.034-2.898-2.219-4.216-3.485-.188-.18-.278-.16-.456.008-1.97 1.873-4.062 3.587-6.48 4.863-1.585.838-3.24 1.484-5.065 1.494-2.604.015-4.44-1.218-5.56-3.54-.598-1.24-.858-2.573-.968-3.936-.241-2.973.227-5.874.913-8.749.065-.275.013-.37-.253-.449-2.587-.752-5.087-1.713-7.38-3.153-1.363-.856-2.6-1.86-3.536-3.19C.61 30.053.192 29.061.07 27.954c-.007-.065.01-.14-.071-.174v-.75z" fill="#1CDCFE" mask="url(#b)"/></g><path d="M35.13 29.592a5.328 5.328 0 0 1-5.332 5.344c-2.933-.004-5.307-2.384-5.314-5.327a5.311 5.311 0 0 1 5.314-5.353 5.311 5.311 0 0 1 5.332 5.336" fill="#1CDCFE"/></g></svg>