<!DOCTYPE svg PUBLIC "-//W3C//DTD SVG 1.1//EN" "http://www.w3.org/Graphics/SVG/1.1/DTD/svg11.dtd" [
	<!ENTITY ns_flows "http://ns.adobe.com/Flows/1.0/">
]><svg xmlns="http://www.w3.org/2000/svg" width="60" height="60" viewBox="0 -8.674 60 60" overflow="visible"><path fill-rule="evenodd" clip-rule="evenodd" fill="#DD0020" d="M55.852 12.232v5.366c-.46.866-1.248 1.334-1.955 1.76-3.58 2.14-8.01 3.848-12.603 5.982-1.896.878-4.112 1.884-6.304 2.932-2.213 1.06-4.434 2.694-6.41 2.93-2.362.285-3.542-.623-5.215-1.405-5.838-2.73-11.018-4.968-16.842-7.625-1.452-.662-5.78-2.1-6.193-3.634-.542-2.013-.326-5.667 0-6.57 1.755-1.814 4.336-2.365 6.737-3.4 4.71-2.036 9.474-3.945 14.342-5.983 2.42-1.012 5.187-2.502 7.603-2.58 2.44-.08 5.038 1.453 7.173 2.346 4.653 1.946 8.49 3.66 13.146 5.63 1.914.81 6.356 2.066 6.52 4.253zm-29.554-6.6c-1.24.618-2.72.974-3.912 1.644 1.67.19 3.314.41 5.107.47.918.767 1.098 2.332 2.064 3.05.285-.983.575-1.96 1.086-2.698 1.486-.195 3.173-.173 4.455-.587-1.15-.516-2.492-.83-3.477-1.522.297-.776.64-1.5.87-2.346-1.376.077-2.315 1.222-3.585 1.174-1.38-.052-2.434-1.538-3.803-1.407.5.634.746 1.54 1.198 2.225zm14.67 2.817c-2.836 1.045-5.395 2.386-8.26 3.4 2.35 1.295 4.94 2.332 7.607 3.284 2.706-1.222 5.677-2.16 8.148-3.636-2.598-.912-4.873-2.168-7.496-3.05zM9.782 12.082c.064 2.448 5.66 3.02 8.258 2.815 2.004-.158 5.635-.98 5.542-2.934-.118-2.464-5.627-2.9-8.04-2.697-1.893.16-5.812.786-5.76 2.814zm10.54 5.162c2.967 1.254 5.798 2.655 8.8 3.87 1.238-1.948 2.883-4.082 3.694-6.1-4.046.873-8.507 1.295-12.495 2.23z"/><path fill-rule="evenodd" clip-rule="evenodd" fill="#DD0020" d="M55.852 21.82v6.1c-.53.81-1.3 1.312-2.064 1.76-5.19 3.034-12.523 5.862-18.36 8.68-2.92 1.407-5.733 4.107-9.563 2.933-2.063-.632-4.208-2.068-6.41-3.05-4.545-2.024-8.462-3.796-13.04-5.865-1.38-.624-5.675-2.042-6.084-3.52-.504-1.83 0-4.36 0-5.98.585.835 1.32 1.13 2.066 1.523 5.243 2.79 12.48 5.79 18.362 8.448 1.87.844 4.525 2.42 6.41 2.58 3.062.264 5.843-1.89 8.26-3.05 4.818-2.31 9-4.2 13.905-6.568 2.073-1 5.342-2.262 6.52-3.99z"/><path fill-rule="evenodd" clip-rule="evenodd" fill="#DD0020" d="M55.852 31.673v6.1c-1.406 1.834-3.742 2.71-5.976 3.754-4.348 2.032-8.905 4.086-13.256 6.1-2.237 1.035-4.316 2.48-6.518 3.284-2.65.97-4.615.078-6.737-.937-5.917-2.83-11.018-4.965-16.842-7.624C5.12 41.707.75 40.262.33 38.71c-.497-1.837-.054-4.328 0-5.98 1.593 1.645 3.86 2.553 5.976 3.518 4.332 1.974 8.737 3.958 13.04 5.865 2.185.97 4.4 2.23 6.627 2.932 1.007.317 2.584.314 3.585 0 2.26-.71 4.413-2.1 6.628-3.167 4.323-2.085 8.867-4.11 13.474-6.335 2.067-1 5.448-2.38 6.192-3.872z"/></svg>