<svg width="60" height="60" viewBox="0 0 60 60" xmlns="http://www.w3.org/2000/svg" xmlns:xlink="http://www.w3.org/1999/xlink"><title>Page 1</title><defs><path id="a" d="M.373.414H31.59v41.543H.373V.414z"/></defs><g fill="none" fill-rule="evenodd"><path d="M58 43.361c-.016.078-.041.155-.045.233-.075 1.663-.45 3.253-1.207 4.74-.62 1.222-1.463 2.281-2.452 3.222-2.078 1.977-4.533 3.257-7.302 3.946a17.34 17.34 0 0 1-2.419.412c-.85.087-1.706.105-2.559.067-2.362-.106-4.636-.629-6.832-1.498-.469-.184-.928-.394-1.391-.592-.052-.022-.1-.05-.173-.088 1.091-.838 2.168-1.656 3.167-2.555.375.147.73.294 1.089.425 1.127.413 2.285.708 3.472.892.965.15 1.934.228 2.91.192 1.674-.062 3.282-.402 4.788-1.163 1.56-.788 2.816-1.925 3.809-3.36.624-.903 1.14-1.86 1.457-2.918a9.318 9.318 0 0 0 .367-1.996c.127-1.698-.2-3.319-.81-4.891a18.713 18.713 0 0 0-4.013-6.255c-1.239-1.285-2.628-2.381-4.129-3.34-2.1-1.34-4.33-2.399-6.71-3.136a26.126 26.126 0 0 0-3.71-.86 20.529 20.529 0 0 0-2.064-.24c-.72-.04-1.441-.078-2.163-.094-.406-.008-.813.03-1.219.041-.143.004-.22.063-.285.194-.502 1.028-1.293 1.734-2.381 2.081a3.981 3.981 0 0 1-5.123-3.06 3.995 3.995 0 0 1 3.156-4.685c1.621-.318 3.221.389 4.112 1.785.125.292.272.33.463.29.067-.013.138-.012.206-.012.826.011 1.651.01 2.476.04.543.018 1.085.07 1.627.126.563.057 1.125.13 1.687.208.885.121 1.76.299 2.629.507a28.98 28.98 0 0 1 6.582 2.421 27.22 27.22 0 0 1 8.14 6.374c.89 1.019 1.704 2.092 2.39 3.263a17.874 17.874 0 0 1 2.09 5.301c.138.64.244 1.287.294 1.942.014.182.017.366.032.55.006.072.028.143.044.214v1.277z" fill="#9013FE"/><g transform="translate(12 2)"><mask id="b" fill="#fff"><use xlink:href="#a"/></mask><path d="M31.575 17.6c-.064-.02-.117-.033-.17-.05a40.52 40.52 0 0 0-3.205-.951c-.121-.03-.166-.083-.181-.2-.052-.412-.1-.824-.176-1.231a18.5 18.5 0 0 0-1.316-4.132c-.552-1.233-1.223-2.398-2.065-3.465-.684-.867-1.463-1.639-2.376-2.277a8.48 8.48 0 0 0-3.551-1.456 8.164 8.164 0 0 0-1.936-.086 14.25 14.25 0 0 0-5.47 1.562c-1.084.56-2.062 1.26-2.862 2.178-.63.722-1.18 1.502-1.674 2.32a18.59 18.59 0 0 0-2.327 6.044 22.85 22.85 0 0 0-.308 2.044 27.31 27.31 0 0 0-.12 3.764c.018.56.071 1.119.121 1.677.138 1.528.437 3.027.862 4.503.41 1.428.94 2.813 1.606 4.145.338.674.71 1.332 1.076 1.993.143.258.085.226.385.193a3.784 3.784 0 0 1 1.902.26c1.343.561 2.173 1.544 2.436 2.955.383 2.052-.993 4.114-3.203 4.501-2.348.41-4.251-1.15-4.628-3.054-.183-.918-.063-1.797.393-2.624.069-.126.066-.216-.006-.336a33.265 33.265 0 0 1-2.206-4.426 29.352 29.352 0 0 1-1.708-5.72c-.136-.72-.228-1.45-.325-2.176-.093-.701-.118-1.408-.152-2.113a20.965 20.965 0 0 1 .024-2.17c.14-2.574.661-5.074 1.54-7.505.488-1.348 1.091-2.64 1.869-3.852C5.128 5.883 6.772 4.17 8.816 2.833A14.794 14.794 0 0 1 13.941.698a11.957 11.957 0 0 1 1.922-.253c.395-.018.79-.038 1.185-.03 1.03.024 2.04.18 3.03.461 2.118.6 3.956 1.673 5.565 3.136 1.301 1.184 2.359 2.553 3.22 4.07 1.06 1.867 1.778 3.86 2.215 5.948.149.707.262 1.422.37 2.136.068.443.097.892.142 1.338.002.026-.008.052-.015.095" fill="#9013FE" mask="url(#b)"/></g><path d="M10.178 27l.194.872c.198.882.418 1.758.68 2.622.063.207.06.205-.1.338-1.805 1.503-3.301 3.282-4.426 5.39a12.651 12.651 0 0 0-1.334 3.813c-.085.492-.135.988-.15 1.49-.083 2.743.806 5.137 2.421 7.26.85 1.118 1.935 1.94 3.172 2.543a10.9 10.9 0 0 0 2.907.932c.625.112 1.253.194 1.886.211.61.017 1.222.045 1.832.02a18 18 0 0 0 4.793-.882 21.856 21.856 0 0 0 3.854-1.692 34.078 34.078 0 0 0 4.288-2.781c2.236-1.72 4.163-3.749 5.7-6.167.475-.747.912-1.518 1.302-2.315.085-.172.084-.171-.042-.318a4.123 4.123 0 0 1-.993-2.238c-.258-2.109 1.066-4.013 2.967-4.492 2.157-.544 4.31.849 4.777 3.1.488 2.345-.982 4.483-3.12 4.904-.33.065-.263.01-.417.33-1.468 3.05-3.362 5.775-5.735 8.132a26.928 26.928 0 0 1-5.582 4.26 28.543 28.543 0 0 1-7.12 2.888c-.895.231-1.793.44-2.707.572-.475.069-.954.11-1.432.155-.768.07-1.538.062-2.306.025a16.772 16.772 0 0 1-1.485-.143 15.776 15.776 0 0 1-2.404-.52c-1.89-.564-3.633-1.435-5.172-2.722-1.496-1.251-2.6-2.806-3.327-4.652a15.812 15.812 0 0 1-.923-3.458c-.15-.993-.197-1.99-.168-2.992a16.691 16.691 0 0 1 1.384-6.179C4.395 32.98 5.84 30.984 7.6 29.225a24.393 24.393 0 0 1 2.405-2.1c.049-.037.1-.072.174-.125" fill="#9013FE"/></g></svg>