<svg xmlns="http://www.w3.org/2000/svg" width="60" height="60" viewBox="0 0 60 60"><path fill="#FFF" d="M27.26 6.002C12.493 6.002.523 17.972.523 32.74c0 14.765 11.97 26.736 26.737 26.736 14.764 0 26.736-11.972 26.736-26.736 0-14.767-11.972-26.738-26.736-26.738zm-.188 41.8c-8.266 0-14.97-6.702-14.97-14.968 0-8.268 6.704-14.97 14.97-14.97 8.265 0 14.967 6.702 14.967 14.97 0 8.266-6.704 14.968-14.97 14.968z"/><path fill="#ADADAD" d="M27.26 60C12.23 60 0 47.77 0 32.74 0 17.708 12.23 5.48 27.26 5.48c15.03 0 27.26 12.228 27.26 27.26C54.52 47.77 42.29 60 27.26 60zm0-53.475c-14.455 0-26.213 11.76-26.213 26.215 0 14.454 11.76 26.213 26.213 26.213 14.454 0 26.21-11.76 26.21-26.213.002-14.454-11.756-26.215-26.21-26.215zm-.188 41.8c-8.542 0-15.492-6.95-15.492-15.49S18.53 17.34 27.072 17.34c8.54 0 15.49 6.95 15.49 15.492s-6.95 15.49-15.49 15.49zm0-29.936c-7.965 0-14.445 6.48-14.445 14.443 0 7.966 6.48 14.445 14.445 14.445 7.964 0 14.44-6.48 14.44-14.446.002-7.965-6.476-14.445-14.44-14.445z"/><path fill="#D14632" d="M10.29 54.87c-.46.194-.825.07-1.22-.24a15.893 15.893 0 0 1-2.918-2.968c-.218-.29-.357-.57-.282-.932.362-.22.96-.39.647-.942-.315-.55-.635-1.146-1.22-1.5-.015-.126.075-.297-.145-.34l.01.014c-.142-.55-.45-1-.86-1.385h.002c.018-.306-.212-.51-.336-.753-.496-.975-1.075-1.912-1.36-2.984l.32-.18c3.362-1.202 6.628-2.644 9.92-4.02.184-.046.367-.092.55-.136.89 1.893 2.012 3.625 3.526 5.096 1.388 1.34 3.038 2.277 4.736 3.145l-.046.34c-1.482 3.336-2.877 6.707-4.12 10.142-.05.082-.097.165-.145.25-.76-.073-1.36-.544-2.04-.814-.91-.36-1.637-1.08-2.604-1.333l.013.01c.042-.276-.2-.27-.355-.35l.007.01c-.124-.2-.327-.14-.51-.156-.944-1.016-1.02-1.014-1.572.026zm38.613-4.147c.075.3-.03.544-.212.786a15.16 15.16 0 0 1-3.184 3.192c-.277.202-.533.307-.854.134-.25-.23-.494-.468-.745-.702-.807-.058-1.24.492-1.68 1.032l.014-.01c-.195-.1-.264-.013-.27.177-.19-.234-.293 0-.42.09-1.322.772-2.616 1.59-4.112 2.016a6.344 6.344 0 0 1-.166-.22c-1.17-3.458-2.754-6.74-4.147-10.107-.02-.132-.04-.26-.063-.394.246-.14.485-.286.735-.41 3.15-1.535 5.5-3.88 7.058-7.02.15-.306.323-.59.485-.886.136.03.268.062.4.093 3.33 1.464 6.674 2.883 10.1 4.108.055.02.11.035.165.054.166.34-.06.61-.186.873-.548 1.136-1.124 2.257-1.69 3.387-.23.098-.314.288-.344.52l.006-.007c-.39.33-.634.767-.86 1.21l.006-.005a66 66 0 0 0-.825.964c-.17.2-.17.352.132.406.22.242.44.476.66.715zm-38.78-40.027c.398.624.823.813 1.495.284.53-.416 1.28-.52 1.692-1.13.334-.013.57-.247.842-.393 1.026-.553 2.035-1.138 3.16-1.476.143.33.285.657.426.987 1.246 3.177 2.455 6.372 3.878 9.477l.035.33c-.916.506-1.876.937-2.75 1.53-2.49 1.7-4.26 3.986-5.51 6.708l-.32-.02c-3.274-1.48-6.613-2.805-9.97-4.087-.11-.182-.306-.182-.48-.225-.03-.33.156-.593.285-.866.457-.96.932-1.912 1.4-2.868l-.004.007.18-.167c.618-.765 1.036-1.67 1.63-2.438.56-.72.484-1.14-.27-1.54-.042-.263.023-.485.19-.71.923-1.24 1.984-2.34 3.236-3.257.283-.207.538-.296.858-.14zm32.629.176c.035.045.06.098.102.133 1.003.783 1.003.783 1.83-.275.53-.168.816.263 1.17.495 1.203.787 2.095 1.885 2.945 3.024.123.17.144.36.133.56-.267.21-.532.422-.688.73-.292.123-.18.292-.05.453.245.3.495.6.74.898l-.01-.006c.27.364.372.864.865 1.043l-.007-.017c-.148.233.055.322.18.44h-.017c.63 1.21 1.272 2.416 1.88 3.636.125.255.384.538.14.87-.057-.02-.096-.003-.12.048-3.436 1.227-6.8 2.63-10.134 4.097-.12.03-.244.057-.364.084-.208-.137-.257-.367-.352-.57a15.403 15.403 0 0 0-3.316-4.644c-1.35-1.31-2.945-2.236-4.606-3.065.018-.13.033-.257.05-.384 1.414-3.102 2.653-6.277 3.9-9.45.133-.304.266-.61.4-.912 1.032.225 1.906.812 2.84 1.26.673.326 1.213.896 1.974 1.053l-.012-.01c-.026.265.193.277.354.353l-.013-.006c.067.05.124.11.185.166z"/></svg>