<!DOCTYPE svg PUBLIC "-//W3C//DTD SVG 1.1//EN" "http://www.w3.org/Graphics/SVG/1.1/DTD/svg11.dtd" [
	<!ENTITY ns_flows "http://ns.adobe.com/Flows/1.0/">
]><svg xmlns="http://www.w3.org/2000/svg" width="60" height="60" viewBox="0 -13.197 60 60" overflow="visible"><path fill-rule="evenodd" clip-rule="evenodd" fill="#BC1337" d="M46.798 8.557v1.712c-1.02 11.326-1.708 22.99-2.72 34.326-8.172.41-17.775 1.312-26.172 1.81-6.752.404-13.76 1.456-16.51-3.12C-.88 39.5.286 32.818.39 27.284c.593 2.404 2.146 4.208 4.732 4.53 4.614.57 8.342-1.93 11.073-3.726 4.708-3.097 9.614-7.82 12.583-12.583 1.568-2.515 3.358-5.872 3.322-9.362-.038-3.638-2.146-5.5-5.032-6.142 4.19.385 8.523-.03 12.38.403 4.482.502 6.933 3.515 7.35 8.155z"/><path fill-rule="evenodd" clip-rule="evenodd" fill="#BC1337" d="M21.85 2.913c2.12-.205 3.693.77 3.47 3.557-.212 2.62-1.805 5.193-3.124 7.114-2.725 3.968-6.32 7.388-10.672 9.805-1.696.94-5.672 2.974-7.72 1.56-2.174-1.503-.396-6.113.52-7.896 1.307-2.542 2.95-4.5 4.424-6.073 1.512-1.61 3.522-3.417 5.64-4.86 2.083-1.414 4.46-2.92 7.46-3.21z"/></svg>