<!DOCTYPE svg PUBLIC "-//W3C//DTD SVG 1.1//EN" "http://www.w3.org/Graphics/SVG/1.1/DTD/svg11.dtd" [
	<!ENTITY ns_flows "http://ns.adobe.com/Flows/1.0/">
]><svg xmlns="http://www.w3.org/2000/svg" width="60" height="60" viewBox="-0.163 -10.533 60 60" overflow="visible"><path fill-rule="evenodd" clip-rule="evenodd" fill="#CE6499" d="M54.767 27.83c-2.756-.99-6.564-.6-8.856.742-.67-1.305-1.477-2.964-1.35-4.993.076-1.207.56-2.195.747-3.264-.598-.91-2.778-.55-3.59-.1-.52 1.83-1.04 3.51-1.818 5.043a77.73 77.73 0 0 1-2.425 4.4c-.892-1.47-1.2-3.72-.652-5.737.136-.496.52-1.385.42-1.73-.3-1.015-3.19-.462-3.636-.05-.657 2.768-1.8 5.217-2.843 7.712a133.34 133.34 0 0 1-2.424 5.487c-.274.575-.427 1.26-.934 1.63-.05-.45-.09-.836-.046-1.384.133-1.602.79-3.755 1.21-5.438.158-.625.468-1.412.327-1.83-.24-.713-1.566-.8-2.003-.296.406-2.136 0-4.264-2.19-4.004-1.672.198-3.018 1.617-3.962 2.62-.37.394-.626.878-.98 1.187-.417.364-.998.573-1.444.84-1.494.888-3.042 1.743-4.428 2.57-1.653-1.772-3.44-3.14-5.314-4.746-1.642-1.407-3.85-3.215-4.055-6.08-.14-1.982.53-3.56 1.307-4.844 2.26-3.732 6.283-6.212 9.975-8.256 2.535-1.402 5.362-2.624 8.764-3.213 3.555-.614 8.062-.27 9.368 2.126.324.595.518 1.505.42 2.57-.208 2.255-1.618 4.187-2.937 5.586-1.446 1.532-3.02 2.603-4.894 3.51-2.896 1.4-8.51 2.833-11.465.493-.364-.29-.563-.938-1.166-.89-.312.76.206 1.433.56 1.878 2.955 3.734 10.357 2.43 14.354.644 2.277-1.017 4.4-2.703 5.967-4.745 1.523-1.985 3.03-4.747 2.798-8.158C37.21 1.875 32.415.338 27.454 0h-.885C19.855.5 14.65 3.048 9.974 6.08a29.652 29.652 0 0 0-6.152 5.29C2.062 13.36.292 16.033 0 19.18v.445c.583 3.507 2.69 5.655 4.848 7.562 1.63 1.442 3.512 2.67 5.22 3.955.57.43 1.186.837 1.584 1.434-1.89.96-4.02 2.263-5.92 3.856-1.834 1.538-3.577 3.2-3.774 6.13-.205 3.03 1.326 4.832 4.01 4.843h.745c3.375-.37 5.853-2.13 7.41-4.597 1.447-2.292 2.348-6.802.886-9.937 1.062-.665 2.247-1.47 3.307-1.975-.457 1.654-.964 3.814-.653 5.98.244 1.69.887 4.035 2.144 4.598.736.33 1.77.12 2.284-.346 1.277-1.154 1.805-3.786 2.657-5.34-.163 1.822-.33 4.374 1.025 4.895.66.255 1.332-.11 1.77-.543.74-.727 1.314-1.895 1.866-2.967 1.598-3.103 3.318-7.06 4.52-10.132.274 2.15 1.02 3.797 1.773 5.438-1.026 1.688-2.335 3.062-3.543 4.647-.338.445-.976 1.19-.837 1.928.205 1.098 2.256.833 3.262.543 1.108-.316 2.11-.864 2.844-1.482 1.655-1.394 2.154-4.13.93-6.574 1.36-1.95 2.46-4.18 3.59-6.375.337 1.884.86 3.57 1.63 4.993-.735.65-1.53 1.504-2.236 2.57-.67 1.008-1.812 3.108-1.025 4.448.62 1.06 1.98.525 2.937.1 1.616-.72 3.585-2.137 3.82-4.103.154-1.28-.224-2.04-.466-3.064 2.15-.924 5.128-1.013 7.505-.298 2.23.67 4.28 2.23 4.288 4.746.005 1.47-.827 2.205-1.584 2.77-.19.14-.565.31-.514.69.986.235 1.77-.542 2.283-1.137.57-.656 1.022-1.523 1.07-2.62v-.346c-.327-3.213-2.274-5.136-4.894-6.077zM7.877 44.093c-1.19.32-2.353.024-2.47-1.235-.114-1.212.45-2.31.93-3.114 1.468-2.445 4.41-4.105 6.526-5.535h.093c1.12 4.84-1.698 8.976-5.08 9.883zm16.686-14.136a58.23 58.23 0 0 1-2.005 5.685c-.176.432-.83 2.362-1.445 2.324-.576-.036-.76-1.665-.745-2.72.015-1.238.175-2.163.42-3.063.418-1.547 1.435-3.598 2.33-4.547.42-.444 1.346-1.26 2.05-.84.11 1.174-.317 2.193-.605 3.163zm8.904 8.304c-.05-.29.36-.56.605-.84a29.01 29.01 0 0 0 2.19-2.866c.042.02.083.044.093.1-.156 1.848-1.51 3.156-2.888 3.607zm8.434-2.125c.11-1.945 1.22-3.256 2.24-4.4.79 2.144-.648 4.14-2.238 4.4z"/></svg>