<!DOCTYPE svg PUBLIC "-//W3C//DTD SVG 1.1//EN" "http://www.w3.org/Graphics/SVG/1.1/DTD/svg11.dtd" [
	<!ENTITY ns_flows "http://ns.adobe.com/Flows/1.0/">
]><svg xmlns="http://www.w3.org/2000/svg" width="60" height="60" viewBox="0 0.163 60 60" overflow="visible"><path fill-rule="evenodd" clip-rule="evenodd" d="M18.647 0h2.62c.552 1.676.464 3.993 1.536 5.15.917.076 2.224-.236 2.62.36-.19 3.062.047 7.804-1.987 9.666-1.104 1.01-2.982 1.18-4.336 2.08.122.95 2.342 1.91 2.8.812.32-.02.18.423.543.36.883-.403 1.777-.173 2.53-.36.47-.117.717-.54 1.173-.633.623-.126 1.335.137 2.077 0 .758-.14 1.404-.956 2.26-1.265.785-.284 1.772-.175 2.438-.45.706-.293 1.444-.952 2.17-1.446a38.43 38.43 0 0 1 2.168-1.356c1.503-.89 3.003-2.034 4.517-2.53 1.105-.36 2.2-.555 3.343-1.084.83-.383 2.03-1.483 2.8-1.535.986-.068 1.323.856 2.077 1.172 1.634-.62 3.494-1.503 4.787-2.62.795-.684 1.294-1.745 2.983-1.083-.106 1.672-1.955 2.377-2.8 3.612.08 1.224-.18 2.11-.994 2.438-1.353-.393-3.033-.022-3.342 1.177-2.078.52-2.937 1.948-4.427 3.07-1.952 1.47-4.61 1.934-6.864 3.072-1.1.55-2.12 1.58-3.253 2.346-1.177.8-2.575 1.307-3.522 1.99-.632.452-1.28 1.188-1.987 1.806-1.33 1.164-2.13 1.213-2.71 3.25-.344 1.21-1.212 2.56-1.355 3.615-.08.594.035 1.222 0 1.897-.113 2.272-.568 4.854-.903 7.316-.185 1.363-.592 2.68-.723 3.886-.08.748.144 1.606 0 2.44-.198 1.17-1.27 2.248-1.444 3.702-.09.745.108 1.437 0 2.35-.97.084-1.62.488-2.168.993-.367 1.53.827 1.644.813 2.62-.023 1.67-2.85 1.64-3.25 3.344H15.76c.998-.838 1.04-1.645 1.626-3.072.455-1.11 1.112-2.01 1.175-3.432.2-4.553-.07-9.825.18-14.724.076-1.456.59-2.762.724-3.794.183-1.402.202-2.68.272-3.976-.46-.7-1.033-.594-1.445-.903-.535-.4-.643-1.07-1.174-1.716.193 1.332-.52 3.727-1.06 3.39.656-.94.224-2.358.157-4.02-.62-.345-1.147-.078-1.808-.182-.55-.088-.974-.552-1.536-.724-.226-.07-.55.05-.814 0-.435-.08-.825-.4-1.174-.45-2.59-.37-3.135.955-4.336 2.257-.453.49-1.956 1.645-2.168 2.168-.132.327.023.995-.09 1.536-.084.404-.328.674-.36.995-.063.596.342 1.232 0 1.716-.777.056-.874-.57-1.266-.902-1.892.22-1.8-1.108-2.17-2.35-.255-.858-.61-1.35-.452-2.26.073-.42.58-.97.813-1.537.178-.43.245-1.12.542-1.714.27-.54.736-.976.904-1.537.264-.89.25-1.84.54-2.53.47-1.127 1.52-1.71 1.445-3.07.58-.626 1.228-1.184 1.717-1.898.034-.544-.025-.998-.09-1.444-.04-.52.707-.257.722-.722-1.656-1.157-3.927-3.486-3.162-6.144.6-2.083 3.676-2.17 6.053-2.62.224.552 1.094.9 1.263 1.63.055.243-.115.653-.09.904.02.236.212.54.27.813.294 1.385.61 2.38.723 3.432.783-.286.988-.976 1.808-1.265 1.362-.48 2.932 0 4.517-.18.77-.09 1.412-.48 2.168-.362.404-1.068.11-1.964.812-2.892-.92-.796-.372-1.845-.632-3.16-.246-1.245-1.775-2.338-1.897-3.252-.09-.673.41-1.414.18-2.167z"/><path fill-rule="evenodd" clip-rule="evenodd" fill="#9F0000" d="M16.208 27.914c.067 1.662.025 3.216-.632 4.155 2.02 1.333 1.73-2.195 1.536-3.526l.023.03c-.077-.32.022-.363.022-.66 0-.453.677-1.582.948-2.486.27-.904 1.265-1.356 2.213-2.53.948-1.174 1.04-1.537 1.536-2.485.497-.948.587-1.174.587-1.987-.36.062-.22-.38-.54-.36a.74.74 0 0 1-.3.35c-.044.09-.094.18-.152.28-.497.858-.95 1.22-1.446 1.897-.495.678-2.122 2.35-2.62 3.16-.494.816-1.172 4.16-1.172 4.16z"/></svg>