<svg xmlns="http://www.w3.org/2000/svg" width="60" height="60" viewBox="0 0 60 60"><path fill-rule="evenodd" clip-rule="evenodd" fill="#585457" d="M29.265 1.197C13.048 1.197-.1 14.343-.1 30.562c0 16.217 13.147 29.363 29.365 29.363 16.216 0 29.364-13.146 29.364-29.363 0-16.22-13.15-29.365-29.366-29.365zm.02 49.99c-11.248.19-20.747-9.067-20.742-20.565.006-11.425 9.256-20.65 20.694-20.69 11.318-.043 20.734 9.15 20.75 20.663.015 11.53-9.438 20.75-20.703 20.593z"/><path fill-rule="evenodd" clip-rule="evenodd" fill="#FEFDFD" d="M36.467 31.714c-3.113-.085-5.377 2.59-5.406 5.268-.027 2.793 2.388 5.438 5.354 5.433 2.976-.006 5.417-2.397 5.41-5.377-.01-2.916-2.232-5.317-5.356-5.324zM21.99 29.483c3.02.09 5.384-2.553 5.37-5.387-.014-2.815-2.396-5.33-5.38-5.33-2.715-.002-5.357 2.258-5.366 5.34-.01 3.02 2.512 5.456 5.377 5.377zm14.418-.018c2.95.015 5.324-2.383 5.367-5.31.043-2.92-2.424-5.364-5.32-5.353-2.96.012-5.306 2.374-5.365 5.312-.054 2.637 2.316 5.438 5.318 5.35zM16.712 37.03c-.23 2.91 2.415 5.35 5.27 5.357 2.917.007 5.347-2.455 5.356-5.243.01-2.945-2.128-5.355-5.333-5.42-3.023-.058-5.488 2.51-5.293 5.306z"/><path fill-rule="evenodd" clip-rule="evenodd" fill="#E84036" d="M36.467 31.714c3.124.007 5.348 2.408 5.354 5.323.01 2.98-2.432 5.37-5.407 5.377-2.966.006-5.38-2.64-5.352-5.433.03-2.676 2.295-5.35 5.408-5.265zM21.99 29.483c-2.863.08-5.385-2.356-5.376-5.377.01-3.08 2.65-5.34 5.367-5.34 2.985.002 5.367 2.515 5.38 5.33.015 2.835-2.35 5.476-5.37 5.387z"/><path fill-rule="evenodd" clip-rule="evenodd" fill="#D0D0D0" d="M36.408 29.465c-3.002.087-5.372-2.714-5.318-5.35.06-2.938 2.404-5.3 5.365-5.312 2.896-.012 5.363 2.433 5.32 5.352-.043 2.927-2.416 5.324-5.367 5.31zM16.712 37.03c-.195-2.796 2.27-5.364 5.293-5.305 3.205.063 5.343 2.474 5.333 5.42-.01 2.787-2.44 5.25-5.356 5.242-2.855-.006-5.5-2.448-5.27-5.357z"/></svg>