<!DOCTYPE svg PUBLIC "-//W3C//DTD SVG 1.1//EN" "http://www.w3.org/Graphics/SVG/1.1/DTD/svg11.dtd" [
	<!ENTITY ns_flows "http://ns.adobe.com/Flows/1.0/">
]><svg xmlns="http://www.w3.org/2000/svg" width="60" height="60" viewBox="0 -10.341 60 60" overflow="visible"><path fill-rule="evenodd" clip-rule="evenodd" fill="#00B8EC" d="M39.63 0h2.815c2.486.273 4.446 1.19 6.214 2.633.555.454 1.23 1.125 1.64 1.197 1.22.215 2.82-.733 3.986-1.197 1.334-.53 2.412-1.104 3.635-1.556C57.035 4 55.153 5.91 53.115 7.66c2.5-.164 4.338-1 6.332-1.676v.36c-1.69 2.22-3.564 4.258-5.745 5.982-.89 21.414-12.283 34.48-31.42 37.334h-7.39C8.963 48.93 3.63 46.95 0 44.273c7.29.468 12.416-1.773 16.415-4.427.327-.217 1.02-.3.938-.84-5.653-.81-9.64-3.96-10.905-8.853 1.445.15 3.937.354 5.042-.24-5.433-1.676-9.384-5.5-9.38-12.325 1.476.687 3.057 1.267 5.042 1.436-2.106-1.934-4.716-5.074-5.042-9.45-.2-2.715.48-5.16 1.525-7.18 6.177 6.58 13.768 12.354 25.443 12.923C28.025 6.457 32.638 1.433 39.63 0z"/></svg>