<svg xmlns="http://www.w3.org/2000/svg" viewBox="0 0 512 512"><path d="M469.333 149.333H42.667c-5.12 0-8.533 3.413-8.533 8.533v273.067c0 5.12 3.413 8.533 8.533 8.533h426.667c5.12 0 8.533-3.413 8.533-8.533V157.867c0-5.12-3.414-8.534-8.534-8.534zM460.8 422.4H51.2v-256h409.6v256z"/><path d="M293.017 384.6c.428.398.884.774 1.383 1.107 14.509 7.255 29.02 10.698 44.249 11.058a99.88 99.88 0 0 0 5.37 0c15.229-.36 29.739-3.803 44.249-11.058.5-.333.955-.708 1.383-1.107 32.125-17.33 54.083-51.324 54.083-90.2 0-56.32-46.08-102.4-102.4-102.4-56.32 0-102.4 46.08-102.4 102.4-.001 38.876 21.958 72.87 54.083 90.2zm31.25-124.333c0-9.387 7.68-17.067 17.067-17.067s17.067 7.68 17.067 17.067-7.68 17.067-17.067 17.067-17.067-7.681-17.067-17.067zm17.066 34.133c18.773 0 34.133 15.36 34.133 34.133v44.013c-10.469 4.608-22.012 7.187-34.133 7.187s-23.665-2.579-34.133-7.187v-44.013c0-18.773 15.36-34.133 34.133-34.133zm0-85.333c46.933 0 85.333 38.4 85.333 85.333 0 27.763-13.441 52.535-34.133 68.144v-34.011c0-19.214-10.731-36.037-26.491-44.792 5.828-6.13 9.424-14.401 9.424-23.475 0-18.773-15.36-34.133-34.133-34.133-18.773 0-34.133 15.36-34.133 34.133 0 9.075 3.596 17.345 9.424 23.475-15.76 8.754-26.491 25.578-26.491 44.792v34.011C269.441 346.935 256 322.163 256 294.4c0-46.933 38.4-85.333 85.333-85.333zM76.8 268.8h8.533c5.12 0 8.533-3.413 8.533-8.533 0-5.12-3.413-8.533-8.533-8.533H76.8c-5.12 0-8.533 3.413-8.533 8.533 0 5.12 3.413 8.533 8.533 8.533zM162.133 251.733h-42.667c-5.12 0-8.533 3.413-8.533 8.533 0 5.12 3.413 8.533 8.533 8.533h42.667c5.12 0 8.533-3.413 8.533-8.533.001-5.119-3.413-8.533-8.533-8.533zM196.267 268.8h17.067c5.12 0 8.533-3.413 8.533-8.533 0-5.12-3.413-8.533-8.533-8.533h-17.067c-5.12 0-8.533 3.413-8.533 8.533-.001 5.12 3.413 8.533 8.533 8.533zM213.333 302.933H179.2c-5.12 0-8.533 3.413-8.533 8.533S174.08 320 179.2 320h34.133c5.12 0 8.533-3.413 8.533-8.533s-3.413-8.534-8.533-8.534zM76.8 320h68.267c5.12 0 8.533-3.413 8.533-8.533s-3.413-8.533-8.533-8.533H76.8c-5.12 0-8.533 3.413-8.533 8.533S71.68 320 76.8 320zM76.8 371.2h42.667c5.12 0 8.533-3.413 8.533-8.533s-3.413-8.533-8.533-8.533H76.8c-5.12 0-8.533 3.413-8.533 8.533S71.68 371.2 76.8 371.2zM213.333 354.133H153.6c-5.12 0-8.533 3.413-8.533 8.533s3.413 8.533 8.533 8.533h59.733c5.12 0 8.533-3.413 8.533-8.533s-3.413-8.533-8.533-8.533zM110.933 217.6H179.2c5.12 0 8.533-3.413 8.533-8.533s-3.413-8.533-8.533-8.533h-68.267c-5.12 0-8.533 3.413-8.533 8.533s3.413 8.533 8.533 8.533z"/><path d="M486.4 106.667H290.133V64c0-18.773-15.36-34.133-34.133-34.133-18.773 0-34.133 15.36-34.133 34.133v42.667H25.6c-14.507 0-25.6 11.093-25.6 25.6v324.267c0 14.507 11.093 25.6 25.6 25.6h460.8c14.507 0 25.6-11.093 25.6-25.6V132.267c0-14.507-11.093-25.6-25.6-25.6zM238.933 115.2V72.533h34.133v51.2h-34.133V115.2zm17.92-68.267c5.973 0 11.947 3.413 14.507 8.533h-29.867c2.56-5.119 9.387-8.533 15.36-8.533zm238.08 409.6c0 5.12-3.413 8.533-8.533 8.533H25.6c-5.12 0-8.533-3.413-8.533-8.533V132.267c0-5.12 3.413-8.533 8.533-8.533h196.267v8.533c0 5.12 3.413 8.533 8.533 8.533h51.2c5.12 0 8.533-3.413 8.533-8.533v-8.533H486.4c5.12 0 8.533 3.413 8.533 8.533v324.266z"/></svg>