<svg xmlns="http://www.w3.org/2000/svg" viewBox="0 0 512 512"><path d="M471.579 0H273.965c-15.27 0-26.947 11.677-26.947 26.947v8.916c-21.409-11.42-45.866-17.898-71.86-17.898-84.435 0-152.702 68.267-152.702 152.702 0 25.477 6.365 50.084 18.1 71.86h-.135c-15.27 0-26.947 11.677-26.947 26.947v161.684c0 11.677 7.186 21.558 17.965 25.151v46.709c0 3.593 1.797 7.186 5.389 8.084.898.898 2.695.898 3.593.898 2.695 0 4.491-.898 6.288-2.695l51.2-51.2H291.93c15.27 0 26.947-11.677 26.947-26.947v-68.267l21.558-21.558h131.144c15.27 0 26.947-11.677 26.947-26.947V26.947C498.526 11.677 486.849 0 471.579 0zM175.158 35.93c27.641 0 53.302 8.279 74.658 22.489.262.305.527.598.795.865 34.452 23.528 56.323 61.208 59.002 102.74l.032.512c.067 1.106.116 2.216.156 3.328.01.282.024.564.032.846.039 1.316.062 2.634.062 3.956s-.023 2.64-.062 3.956c-.008.283-.022.564-.032.847a135.93 135.93 0 0 1-.156 3.327l-.032.513c-2.679 41.532-24.55 79.211-59.002 102.74a15.99 15.99 0 0 0-.795.865 134.332 134.332 0 0 1-15.739 9.007c-25.083 11.901-53.268 15.999-80.824 11.51-7.07-1.233-14.14-3.005-21.21-5.214-2.695-1.797-6.288-.898-8.982 1.797l-28.744 28.744v-45.81c0-2.695-.898-5.389-3.593-7.186a145.716 145.716 0 0 1-5.366-4.679c-.222-.203-.445-.406-.666-.611a141.9 141.9 0 0 1-1.992-1.883c-6.773-6.558-13.086-14.038-18.923-22.469-.047-.047-.101-.093-.149-.139-14.847-21.929-23.206-47.823-23.206-75.313C40.421 96.112 100.604 35.93 175.158 35.93zm125.754 395.228c0 5.389-3.593 8.982-8.982 8.982H94.316c-2.695 0-4.491.898-6.288 2.695L49.404 481.46v-32.337c0-5.389-3.593-8.982-8.982-8.982-5.389 0-8.982-3.593-8.982-8.982V269.474c0-5.389 3.593-8.982 8.982-8.982h11.523a151.733 151.733 0 0 0 24.407 26.049v63.775c0 3.593 1.796 7.186 5.389 8.084.738.738 2.077.868 3.032.891a7.681 7.681 0 0 0 3.071-.324c1.21-.345 2.244-.967 3.245-1.866.181-.159.359-.324.532-.498l39.523-39.523c7.29 2.278 14.81 3.86 22.327 4.869 25.279 3.603 50.669.846 74.122-7.797.235-.086.468-.177.703-.264.738-.276 1.476-.551 2.21-.839a151.755 151.755 0 0 0 16.512-7.579v26.88c0 5.389 3.593 8.982 8.982 8.982h17.965v44.912c0 3.593 1.797 7.186 5.389 8.084.739.739 2.078.868 3.032.891a7.681 7.681 0 0 0 3.071-.324c1.21-.346 2.243-.967 3.245-1.866.181-.159.359-.324.532-.498l11.677-11.677v50.304zm179.649-116.772c0 5.389-3.593 8.982-8.982 8.982H336.842c-2.695 0-4.491.898-6.288 2.695l-26.947 26.947-11.677 11.677V332.35c0-5.389-3.593-8.982-8.982-8.982h-17.965v-29.154a153.284 153.284 0 0 0 26.66-24.741h64.063c4.491 0 8.084-3.593 8.084-8.982 0-5.389-3.593-8.982-8.084-8.982h-50.938a152.054 152.054 0 0 0 13.325-26.947h55.578c4.491 0 8.084-3.593 8.084-8.982 0-5.389-2.695-8.982-8.084-8.982h-50.06a152.884 152.884 0 0 0 3.965-26.709l.016-.238h18.233c5.389 0 8.982-3.593 8.982-8.982 0-5.39-3.593-8.982-8.982-8.982h-18.233l-.016-.238a152.884 152.884 0 0 0-3.965-26.709h50.06c4.491 0 8.084-3.593 8.084-8.982s-2.695-8.982-8.084-8.982h-55.578a151.952 151.952 0 0 0-13.325-26.947h32.074c5.389 0 8.982-3.593 8.982-8.982s-3.593-8.982-8.982-8.982H291.93c-.095 0-.184.01-.278.012a153.258 153.258 0 0 0-26.669-24.753V26.947c0-5.389 3.593-8.982 8.982-8.982h197.614c5.389 0 8.982 3.593 8.982 8.982v287.439z"/><path d="M435.649 71.86h-62.877c-5.389 0-8.982 3.593-8.982 8.982s3.593 8.982 8.982 8.982h62.877c5.389 0 8.982-3.593 8.982-8.982s-3.592-8.982-8.982-8.982zM435.649 116.772h-26.947c-5.389 0-8.982 3.593-8.982 8.982s3.593 8.982 8.982 8.982h26.947c5.389 0 8.982-3.593 8.982-8.982s-3.592-8.982-8.982-8.982zM435.649 161.684h-53.895c-5.389 0-8.982 3.593-8.982 8.982 0 5.389 3.593 8.982 8.982 8.982h53.895c5.389 0 8.982-3.593 8.982-8.982.001-5.389-3.592-8.982-8.982-8.982zM435.649 206.596h-26.947c-5.389 0-8.982 3.593-8.982 8.982 0 5.39 3.593 8.982 8.982 8.982h26.947c5.389 0 8.982-3.593 8.982-8.982.001-5.389-3.592-8.982-8.982-8.982zM435.649 251.509h-44.912c-5.389 0-8.982 3.593-8.982 8.982 0 5.39 3.593 8.982 8.982 8.982h44.912c5.389 0 8.982-3.593 8.982-8.982.001-5.389-3.592-8.982-8.982-8.982zM202.105 134.737h44.912c5.39 0 8.982-3.593 8.982-8.982s-3.593-8.982-8.982-8.982h-44.912c-5.39 0-8.982 3.593-8.982 8.982s3.593 8.982 8.982 8.982zM103.298 134.737h62.877c5.39 0 8.982-3.593 8.982-8.982s-3.593-8.982-8.982-8.982h-62.877c-5.389 0-8.982 3.593-8.982 8.982s3.593 8.982 8.982 8.982zM247.018 161.684h-8.982c-5.389 0-8.982 3.593-8.982 8.982 0 5.389 3.593 8.982 8.982 8.982h8.982c5.39 0 8.982-3.593 8.982-8.982 0-5.389-3.593-8.982-8.982-8.982zM157.193 170.667c0 5.389 3.593 8.982 8.982 8.982h35.93c5.389 0 8.982-3.593 8.982-8.982 0-5.39-3.593-8.982-8.982-8.982h-35.93c-5.389-.001-8.982 3.592-8.982 8.982zM103.298 179.649h26.947c5.389 0 8.982-3.593 8.982-8.982 0-5.39-3.593-8.982-8.982-8.982h-26.947c-5.389 0-8.982 3.593-8.982 8.982 0 5.389 3.593 8.982 8.982 8.982zM247.018 206.596H220.07c-5.39 0-8.982 3.593-8.982 8.982 0 5.39 3.593 8.982 8.982 8.982h26.947c5.39 0 8.982-3.593 8.982-8.982.001-5.389-3.592-8.982-8.981-8.982zM103.298 224.561h80.842c5.39 0 8.982-3.593 8.982-8.982 0-5.389-3.593-8.982-8.982-8.982h-80.842c-5.389 0-8.982 3.593-8.982 8.982 0 5.389 3.593 8.982 8.982 8.982zM229.053 350.316h-62.877c-5.389 0-8.982 3.593-8.982 8.982 0 5.389 3.593 8.982 8.982 8.982h62.877c5.389 0 8.982-3.593 8.982-8.982 0-5.389-3.593-8.982-8.982-8.982zM121.263 368.281h8.982c5.389 0 8.982-3.593 8.982-8.982 0-5.389-3.593-8.982-8.982-8.982h-8.982c-5.39 0-8.982 3.593-8.982 8.982 0 5.389 3.593 8.982 8.982 8.982zM229.053 395.228h-26.947c-5.39 0-8.982 3.593-8.982 8.982s3.593 8.982 8.982 8.982h26.947c5.389 0 8.982-3.593 8.982-8.982s-3.593-8.982-8.982-8.982zM166.175 395.228h-44.912c-5.39 0-8.982 3.593-8.982 8.982s3.593 8.982 8.982 8.982h44.912c5.39 0 8.982-3.593 8.982-8.982s-3.592-8.982-8.982-8.982z"/></svg>