<svg width="600" height="600" viewBox="0 0 600 600" xmlns="http://www.w3.org/2000/svg"><title>Artboard 4</title><g fill="#FFF" fill-rule="evenodd"><path d="M117.48 292.6c25.2 0 37.38-12.88 37.38-29.96 0-34.86-53.62-24.92-53.62-39.76 0-5.6 4.76-9.38 13.3-9.38 9.52 0 19.6 3.22 27.16 10.22l11.06-14.56c-9.24-8.54-21.56-13.02-36.4-13.02-21.98 0-35.42 12.88-35.42 28.42 0 35.14 53.76 23.8 53.76 40.32 0 5.32-5.32 10.36-16.24 10.36-12.88 0-23.1-5.74-29.68-12.6L78 277.76c8.68 8.82 21.56 14.84 39.48 14.84zm92.4-1.68v-75.88h27.16v-17.5h-74.48v17.5h27.3v75.88h20.02zm126.98 0l-35.98-93.38h-24.92l-36.12 93.38h22.68l5.88-15.82h40.04l5.74 15.82h22.68zm-33.88-33.32h-29.12l14.56-40.18 14.56 40.18zm87.78 35c20.58 0 32.34-11.34 39.06-22.96l-17.08-8.26c-3.92 7.7-12.32 13.58-21.98 13.58-16.94 0-29.26-13.02-29.26-30.66s12.32-30.66 29.26-30.66c9.66 0 18.06 6.02 21.98 13.58l17.08-8.4C423.24 207.2 411.34 196 390.76 196c-28 0-49.7 19.6-49.7 48.3 0 28.7 21.7 48.3 49.7 48.3zm130.9-1.68l-39.62-49.56 37.1-43.82h-24.5l-33.04 41.72v-41.72h-19.88v93.38h19.88v-28.7l7.28-8.68 28.28 37.38h24.5zM148.77 404.38v-17.5H97.88V311H78v93.38h70.77zM229.08 404.38v-17.5H163v-21.14h65.1v-17.5H163V328.5h66.08V311H163v93.38h66.08zM301.04 404.38L337.02 311h-22.68l-25.76 71.82-25.9-71.82H240l36.12 93.38h24.92zM422.08 404.38v-17.5H356v-21.14h65.1v-17.5H356V328.5h66.08V311H356v93.38h66.08z"/><path d="M421.77 404.267v-17.479H355v-21.114h65.78v-17.48H355V328.48h66.77V311H355v93.267h66.77zM519 404.38v-17.5h-57.92V311H442v93.38h77zM229.08 404.38v-17.5H163v-21.14h65.1v-17.5H163V328.5h66.08V311H163v93.38h66.08z"/></g></svg>