<svg xmlns="http://www.w3.org/2000/svg" viewBox="0 0 512 512"><path d="M162.133 285.867c8.523 0 16.336-3.173 22.333-8.386l11.653 11.653c-5.214 5.998-8.386 13.811-8.386 22.333 0 18.773 15.36 34.133 34.133 34.133 18.773 0 34.133-15.36 34.133-34.133a33.842 33.842 0 0 0-4.8-17.387l59.266-59.266c5.998 5.214 13.811 8.386 22.333 8.386 8.392 0 16.097-3.076 22.058-8.148l29.512 36.419c-5.525 6.071-8.903 14.124-8.903 22.929 0 18.773 15.36 34.133 34.133 34.133 18.773 0 34.133-15.36 34.133-34.133 0-18.773-15.36-34.133-34.133-34.133-3.854 0-7.56.657-11.023 1.848l-33.658-41.536a33.815 33.815 0 0 0 2.014-11.512c0-18.773-15.36-34.133-34.133-34.133-18.773 0-34.133 15.36-34.133 34.133 0 4.07.724 7.979 2.047 11.607l-61.459 61.46a33.842 33.842 0 0 0-17.387-4.8c-4.07 0-7.979.724-11.607 2.047l-16.04-16.04a33.835 33.835 0 0 0 2.047-11.607c0-18.773-15.36-34.133-34.133-34.133C143.36 217.6 128 232.96 128 251.733c0 4.303.815 8.422 2.285 12.222l-15.663 15.663a33.802 33.802 0 0 0-12.222-2.285c-18.773 0-34.133 15.36-34.133 34.133 0 18.773 15.36 34.133 34.133 34.133 18.773 0 34.133-15.36 34.133-34.133 0-8.523-3.173-16.336-8.386-22.333L139.8 277.48c5.998 5.214 13.811 8.387 22.333 8.387zm264.534 8.533c0 9.387-7.68 17.067-17.067 17.067s-17.067-7.68-17.067-17.067 7.68-17.067 17.067-17.067 17.067 7.68 17.067 17.067zM332.8 192c9.387 0 17.067 7.68 17.067 17.067s-7.68 17.067-17.067 17.067-17.067-7.68-17.067-17.067S323.413 192 332.8 192zm-99.798 106.578c.247.324.512.642.812.942.342.342.685.64 1.034.913 2.541 2.982 4.086 6.833 4.086 11.034 0 9.387-7.68 17.067-17.067 17.067s-17.067-7.68-17.067-17.067 7.68-17.067 17.067-17.067c4.249 0 8.139 1.585 11.135 4.178zm-70.869-63.911c9.387 0 17.067 7.68 17.067 17.067s-7.68 17.067-17.067 17.067-17.067-7.68-17.067-17.067c.001-9.387 7.681-17.067 17.067-17.067zM102.4 328.533c-9.387 0-17.067-7.68-17.067-17.067S93.013 294.4 102.4 294.4s17.067 7.68 17.067 17.067-7.68 17.066-17.067 17.066z"/><path d="M503.467 371.2h-25.6V106.667c0-14.507-11.093-25.6-25.6-25.6H59.733c-14.507 0-25.6 11.093-25.6 25.6V371.2h-25.6c-5.12 0-8.533 3.413-8.533 8.533v25.6c0 14.507 11.093 25.6 25.6 25.6h460.8c14.507 0 25.6-11.093 25.6-25.6v-25.6c0-5.12-3.413-8.533-8.533-8.533zM51.2 106.667c0-5.12 3.413-8.533 8.533-8.533h392.533c5.12 0 8.533 3.413 8.533 8.533V371.2H324.267c-5.12 0-8.533 3.413-8.533 8.533v8.533H196.267v-8.533c0-5.12-3.413-8.533-8.533-8.533H51.2V106.667zm443.733 298.666c0 5.12-3.413 8.533-8.533 8.533H25.6c-5.12 0-8.533-3.413-8.533-8.533v-17.067H179.2v8.533c0 5.12 3.413 8.533 8.533 8.533h136.533c5.12 0 8.533-3.413 8.533-8.533v-8.533H494.932v17.067z"/><path d="M76.8 132.267h93.867c5.12 0 8.533-3.413 8.533-8.533s-3.413-8.533-8.533-8.533H76.8c-5.12 0-8.533 3.413-8.533 8.533s3.413 8.533 8.533 8.533zM204.8 132.267h76.8c5.12 0 8.533-3.413 8.533-8.533s-3.413-8.533-8.533-8.533h-76.8c-5.12 0-8.533 3.413-8.533 8.533s3.413 8.533 8.533 8.533zM76.8 166.4H128c5.12 0 8.533-3.413 8.533-8.533s-3.413-8.533-8.533-8.533H76.8c-5.12 0-8.533 3.413-8.533 8.533S71.68 166.4 76.8 166.4zM162.133 149.333c-5.12 0-8.533 3.413-8.533 8.533s3.413 8.533 8.533 8.533h76.8c5.12 0 8.533-3.413 8.533-8.533s-3.413-8.533-8.533-8.533h-76.8zM281.6 149.333h-8.533c-5.12 0-8.533 3.413-8.533 8.533s3.413 8.533 8.533 8.533h8.533c5.12 0 8.533-3.413 8.533-8.533s-3.413-8.533-8.533-8.533z"/></svg>