<svg width="285" height="845" viewBox="0 0 285 845" fill="none" xmlns="http://www.w3.org/2000/svg">
<path d="M5 0H0V5H5V0Z" fill="#C4C2CC"/>
<path d="M40 0H35V5H40V0Z" fill="#C4C2CC"/>
<path d="M75 0H70V5H75V0Z" fill="#C4C2CC"/>
<path d="M110 0H105V5H110V0Z" fill="#C4C2CC"/>
<path d="M145 0H140V5H145V0Z" fill="#C4C2CC"/>
<path d="M180 0H175V5H180V0Z" fill="#C4C2CC"/>
<path d="M215 0H210V5H215V0Z" fill="#C4C2CC"/>
<path d="M250 0H245V5H250V0Z" fill="#C4C2CC"/>
<path d="M285 0H280V5H285V0Z" fill="#C4C2CC"/>
<path d="M5 35H0V40H5V35Z" fill="#C4C2CC"/>
<path d="M40 35H35V40H40V35Z" fill="#C4C2CC"/>
<path d="M75 35H70V40H75V35Z" fill="#C4C2CC"/>
<path d="M110 35H105V40H110V35Z" fill="#C4C2CC"/>
<path d="M145 35H140V40H145V35Z" fill="#C4C2CC"/>
<path d="M180 35H175V40H180V35Z" fill="#C4C2CC"/>
<path d="M215 35H210V40H215V35Z" fill="#C4C2CC"/>
<path d="M250 35H245V40H250V35Z" fill="#C4C2CC"/>
<path d="M285 35H280V40H285V35Z" fill="#C4C2CC"/>
<path d="M5 70H0V75H5V70Z" fill="#C4C2CC"/>
<path d="M40 70H35V75H40V70Z" fill="#C4C2CC"/>
<path d="M75 70H70V75H75V70Z" fill="#C4C2CC"/>
<path d="M110 70H105V75H110V70Z" fill="#C4C2CC"/>
<path d="M145 70H140V75H145V70Z" fill="#C4C2CC"/>
<path d="M180 70H175V75H180V70Z" fill="#C4C2CC"/>
<path d="M215 70H210V75H215V70Z" fill="#C4C2CC"/>
<path d="M250 70H245V75H250V70Z" fill="#C4C2CC"/>
<path d="M285 70H280V75H285V70Z" fill="#C4C2CC"/>
<path d="M5 105H0V110H5V105Z" fill="#C4C2CC"/>
<path d="M40 105H35V110H40V105Z" fill="#C4C2CC"/>
<path d="M75 105H70V110H75V105Z" fill="#C4C2CC"/>
<path d="M110 105H105V110H110V105Z" fill="#C4C2CC"/>
<path d="M145 105H140V110H145V105Z" fill="#C4C2CC"/>
<path d="M180 105H175V110H180V105Z" fill="#C4C2CC"/>
<path d="M215 105H210V110H215V105Z" fill="#C4C2CC"/>
<path d="M250 105H245V110H250V105Z" fill="#C4C2CC"/>
<path d="M285 105H280V110H285V105Z" fill="#C4C2CC"/>
<path d="M5 140H0V145H5V140Z" fill="#C4C2CC"/>
<path d="M40 140H35V145H40V140Z" fill="#C4C2CC"/>
<path d="M75 140H70V145H75V140Z" fill="#C4C2CC"/>
<path d="M110 140H105V145H110V140Z" fill="#C4C2CC"/>
<path d="M145 140H140V145H145V140Z" fill="#C4C2CC"/>
<path d="M180 140H175V145H180V140Z" fill="#C4C2CC"/>
<path d="M215 140H210V145H215V140Z" fill="#C4C2CC"/>
<path d="M250 140H245V145H250V140Z" fill="#C4C2CC"/>
<path d="M285 140H280V145H285V140Z" fill="#C4C2CC"/>
<path d="M5 175H0V180H5V175Z" fill="#C4C2CC"/>
<path d="M40 175H35V180H40V175Z" fill="#C4C2CC"/>
<path d="M75 175H70V180H75V175Z" fill="#C4C2CC"/>
<path d="M110 175H105V180H110V175Z" fill="#C4C2CC"/>
<path d="M145 175H140V180H145V175Z" fill="#C4C2CC"/>
<path d="M180 175H175V180H180V175Z" fill="#C4C2CC"/>
<path d="M215 175H210V180H215V175Z" fill="#C4C2CC"/>
<path d="M250 175H245V180H250V175Z" fill="#C4C2CC"/>
<path d="M285 175H280V180H285V175Z" fill="#C4C2CC"/>
<path d="M5 210H0V215H5V210Z" fill="#C4C2CC"/>
<path d="M40 210H35V215H40V210Z" fill="#C4C2CC"/>
<path d="M75 210H70V215H75V210Z" fill="#C4C2CC"/>
<path d="M110 210H105V215H110V210Z" fill="#C4C2CC"/>
<path d="M145 210H140V215H145V210Z" fill="#C4C2CC"/>
<path d="M180 210H175V215H180V210Z" fill="#C4C2CC"/>
<path d="M215 210H210V215H215V210Z" fill="#C4C2CC"/>
<path d="M250 210H245V215H250V210Z" fill="#C4C2CC"/>
<path d="M285 210H280V215H285V210Z" fill="#C4C2CC"/>
<path d="M5 245H0V250H5V245Z" fill="#C4C2CC"/>
<path d="M40 245H35V250H40V245Z" fill="#C4C2CC"/>
<path d="M75 245H70V250H75V245Z" fill="#C4C2CC"/>
<path d="M110 245H105V250H110V245Z" fill="#C4C2CC"/>
<path d="M145 245H140V250H145V245Z" fill="#C4C2CC"/>
<path d="M180 245H175V250H180V245Z" fill="#C4C2CC"/>
<path d="M215 245H210V250H215V245Z" fill="#C4C2CC"/>
<path d="M250 245H245V250H250V245Z" fill="#C4C2CC"/>
<path d="M285 245H280V250H285V245Z" fill="#C4C2CC"/>
<path d="M5 280H0V285H5V280Z" fill="#C4C2CC"/>
<path d="M40 280H35V285H40V280Z" fill="#C4C2CC"/>
<path d="M75 280H70V285H75V280Z" fill="#C4C2CC"/>
<path d="M110 280H105V285H110V280Z" fill="#C4C2CC"/>
<path d="M145 280H140V285H145V280Z" fill="#C4C2CC"/>
<path d="M180 280H175V285H180V280Z" fill="#C4C2CC"/>
<path d="M215 280H210V285H215V280Z" fill="#C4C2CC"/>
<path d="M250 280H245V285H250V280Z" fill="#C4C2CC"/>
<path d="M285 280H280V285H285V280Z" fill="#C4C2CC"/>
<path d="M5 315H0V320H5V315Z" fill="#C4C2CC"/>
<path d="M40 315H35V320H40V315Z" fill="#C4C2CC"/>
<path d="M75 315H70V320H75V315Z" fill="#C4C2CC"/>
<path d="M110 315H105V320H110V315Z" fill="#C4C2CC"/>
<path d="M145 315H140V320H145V315Z" fill="#C4C2CC"/>
<path d="M180 315H175V320H180V315Z" fill="#C4C2CC"/>
<path d="M215 315H210V320H215V315Z" fill="#C4C2CC"/>
<path d="M250 315H245V320H250V315Z" fill="#C4C2CC"/>
<path d="M285 315H280V320H285V315Z" fill="#C4C2CC"/>
<path d="M5 350H0V355H5V350Z" fill="#C4C2CC"/>
<path d="M40 350H35V355H40V350Z" fill="#C4C2CC"/>
<path d="M75 350H70V355H75V350Z" fill="#C4C2CC"/>
<path d="M110 350H105V355H110V350Z" fill="#C4C2CC"/>
<path d="M145 350H140V355H145V350Z" fill="#C4C2CC"/>
<path d="M180 350H175V355H180V350Z" fill="#C4C2CC"/>
<path d="M215 350H210V355H215V350Z" fill="#C4C2CC"/>
<path d="M250 350H245V355H250V350Z" fill="#C4C2CC"/>
<path d="M285 350H280V355H285V350Z" fill="#C4C2CC"/>
<path d="M5 385H0V390H5V385Z" fill="#C4C2CC"/>
<path d="M40 385H35V390H40V385Z" fill="#C4C2CC"/>
<path d="M75 385H70V390H75V385Z" fill="#C4C2CC"/>
<path d="M110 385H105V390H110V385Z" fill="#C4C2CC"/>
<path d="M145 385H140V390H145V385Z" fill="#C4C2CC"/>
<path d="M180 385H175V390H180V385Z" fill="#C4C2CC"/>
<path d="M215 385H210V390H215V385Z" fill="#C4C2CC"/>
<path d="M250 385H245V390H250V385Z" fill="#C4C2CC"/>
<path d="M285 385H280V390H285V385Z" fill="#C4C2CC"/>
<path d="M5 420H0V425H5V420Z" fill="#C4C2CC"/>
<path d="M40 420H35V425H40V420Z" fill="#C4C2CC"/>
<path d="M75 420H70V425H75V420Z" fill="#C4C2CC"/>
<path d="M110 420H105V425H110V420Z" fill="#C4C2CC"/>
<path d="M145 420H140V425H145V420Z" fill="#C4C2CC"/>
<path d="M180 420H175V425H180V420Z" fill="#C4C2CC"/>
<path d="M215 420H210V425H215V420Z" fill="#C4C2CC"/>
<path d="M250 420H245V425H250V420Z" fill="#C4C2CC"/>
<path d="M285 420H280V425H285V420Z" fill="#C4C2CC"/>
<path d="M5 455H0V460H5V455Z" fill="#C4C2CC"/>
<path d="M40 455H35V460H40V455Z" fill="#C4C2CC"/>
<path d="M75 455H70V460H75V455Z" fill="#C4C2CC"/>
<path d="M110 455H105V460H110V455Z" fill="#C4C2CC"/>
<path d="M145 455H140V460H145V455Z" fill="#C4C2CC"/>
<path d="M5 490H0V495H5V490Z" fill="#C4C2CC"/>
<path d="M40 490H35V495H40V490Z" fill="#C4C2CC"/>
<path d="M75 490H70V495H75V490Z" fill="#C4C2CC"/>
<path d="M110 490H105V495H110V490Z" fill="#C4C2CC"/>
<path d="M145 490H140V495H145V490Z" fill="#C4C2CC"/>
<path d="M5 525H0V530H5V525Z" fill="#C4C2CC"/>
<path d="M40 525H35V530H40V525Z" fill="#C4C2CC"/>
<path d="M75 525H70V530H75V525Z" fill="#C4C2CC"/>
<path d="M110 525H105V530H110V525Z" fill="#C4C2CC"/>
<path d="M145 525H140V530H145V525Z" fill="#C4C2CC"/>
<path d="M5 560H0V565H5V560Z" fill="#C4C2CC"/>
<path d="M40 560H35V565H40V560Z" fill="#C4C2CC"/>
<path d="M75 560H70V565H75V560Z" fill="#C4C2CC"/>
<path d="M110 560H105V565H110V560Z" fill="#C4C2CC"/>
<path d="M145 560H140V565H145V560Z" fill="#C4C2CC"/>
<path d="M5 595H0V600H5V595Z" fill="#C4C2CC"/>
<path d="M40 595H35V600H40V595Z" fill="#C4C2CC"/>
<path d="M75 595H70V600H75V595Z" fill="#C4C2CC"/>
<path d="M110 595H105V600H110V595Z" fill="#C4C2CC"/>
<path d="M145 595H140V600H145V595Z" fill="#C4C2CC"/>
<path d="M5 630H0V635H5V630Z" fill="#C4C2CC"/>
<path d="M40 630H35V635H40V630Z" fill="#C4C2CC"/>
<path d="M75 630H70V635H75V630Z" fill="#C4C2CC"/>
<path d="M110 630H105V635H110V630Z" fill="#C4C2CC"/>
<path d="M145 630H140V635H145V630Z" fill="#C4C2CC"/>
<path d="M5 665H0V670H5V665Z" fill="#C4C2CC"/>
<path d="M40 665H35V670H40V665Z" fill="#C4C2CC"/>
<path d="M75 665H70V670H75V665Z" fill="#C4C2CC"/>
<path d="M110 665H105V670H110V665Z" fill="#C4C2CC"/>
<path d="M145 665H140V670H145V665Z" fill="#C4C2CC"/>
<path d="M5 700H0V705H5V700Z" fill="#C4C2CC"/>
<path d="M40 700H35V705H40V700Z" fill="#C4C2CC"/>
<path d="M75 700H70V705H75V700Z" fill="#C4C2CC"/>
<path d="M110 700H105V705H110V700Z" fill="#C4C2CC"/>
<path d="M145 700H140V705H145V700Z" fill="#C4C2CC"/>
<path d="M5 735H0V740H5V735Z" fill="#C4C2CC"/>
<path d="M40 735H35V740H40V735Z" fill="#C4C2CC"/>
<path d="M75 735H70V740H75V735Z" fill="#C4C2CC"/>
<path d="M110 735H105V740H110V735Z" fill="#C4C2CC"/>
<path d="M145 735H140V740H145V735Z" fill="#C4C2CC"/>
<path d="M5 770H0V775H5V770Z" fill="#C4C2CC"/>
<path d="M40 770H35V775H40V770Z" fill="#C4C2CC"/>
<path d="M75 770H70V775H75V770Z" fill="#C4C2CC"/>
<path d="M110 770H105V775H110V770Z" fill="#C4C2CC"/>
<path d="M145 770H140V775H145V770Z" fill="#C4C2CC"/>
<path d="M5 805H0V810H5V805Z" fill="#C4C2CC"/>
<path d="M40 805H35V810H40V805Z" fill="#C4C2CC"/>
<path d="M75 805H70V810H75V805Z" fill="#C4C2CC"/>
<path d="M110 805H105V810H110V805Z" fill="#C4C2CC"/>
<path d="M145 805H140V810H145V805Z" fill="#C4C2CC"/>
<path d="M5 840H0V845H5V840Z" fill="#C4C2CC"/>
<path d="M40 840H35V845H40V840Z" fill="#C4C2CC"/>
<path d="M75 840H70V845H75V840Z" fill="#C4C2CC"/>
<path d="M110 840H105V845H110V840Z" fill="#C4C2CC"/>
<path d="M145 840H140V845H145V840Z" fill="#C4C2CC"/>
</svg>
