<svg width="32" height="32" viewBox="0 0 32 32" fill="none" xmlns="http://www.w3.org/2000/svg">
<g clip-path="url(#clip0)">
<path d="M22 0H10C4.478 0 0 4.46355 0 9.96774V21.929C0 27.4332 4.478 31.8968 10 31.8968H22C27.522 31.8968 32 27.4332 32 21.929V9.96774C32 4.46355 27.522 0 22 0ZM29 21.929C29 25.7766 25.86 28.9065 22 28.9065H10C6.14 28.9065 3 25.7766 3 21.929V9.96774C3 6.12019 6.14 2.99032 10 2.99032H22C25.86 2.99032 29 6.12019 29 9.96774V21.929Z" fill="white"/>
<path d="M16 7.97412C11.582 7.97412 8 11.5446 8 15.9483C8 20.3521 11.582 23.9225 16 23.9225C20.418 23.9225 24 20.3521 24 15.9483C24 11.5446 20.418 7.97412 16 7.97412ZM16 20.9322C13.244 20.9322 11 18.6954 11 15.9483C11 13.1992 13.244 10.9644 16 10.9644C18.756 10.9644 21 13.1992 21 15.9483C21 18.6954 18.756 20.9322 16 20.9322Z" fill="white"/>
<path d="M24.6002 8.43859C25.1889 8.43859 25.6662 7.96286 25.6662 7.37603C25.6662 6.7892 25.1889 6.31348 24.6002 6.31348C24.0114 6.31348 23.5342 6.7892 23.5342 7.37603C23.5342 7.96286 24.0114 8.43859 24.6002 8.43859Z" fill="white"/>
</g>
<defs>
<clipPath id="clip0">
<rect width="32" height="31.8968" fill="white"/>
</clipPath>
</defs>
</svg>
