<svg width="32" height="32" viewBox="0 0 32 32" fill="none" xmlns="http://www.w3.org/2000/svg">
<g clip-path="url(#clip0)">
<path d="M7.27072 10.6118H0.395752V31.1908H7.27072V10.6118Z" fill="white"/>
<path d="M29.8335 12.4915C28.3893 10.9201 26.4793 10.1343 24.1044 10.1343C23.2295 10.1343 22.4341 10.2416 21.7187 10.4563C21.0035 10.6708 20.3995 10.9719 19.9062 11.3596C19.4133 11.7472 19.0208 12.1071 18.7293 12.4392C18.4522 12.7547 18.1812 13.1222 17.9167 13.5378V10.6116H11.0623L11.0833 11.6085C11.0974 12.2732 11.1043 14.322 11.1043 17.7551C11.1043 21.1886 11.0904 25.667 11.0625 31.1909H17.9167V19.707C17.9167 19.0011 17.9927 18.4405 18.1458 18.0248C18.4376 17.3184 18.8782 16.727 19.4688 16.2496C20.0593 15.7716 20.7917 15.5328 21.667 15.5328C22.8611 15.5328 23.7399 15.9446 24.3025 16.7683C24.8649 17.592 25.1461 18.7307 25.1461 20.1844V31.1902H32.0003V19.3958C31.9998 16.3637 31.2781 14.0623 29.8335 12.4915Z" fill="white"/>
<path d="M3.87494 0.706055C2.7223 0.706055 1.78835 1.04202 1.07288 1.71329C0.357481 2.3847 0 3.23235 0 4.25704C0 5.2674 0.347192 6.11214 1.04165 6.79032C1.73589 7.46858 2.65269 7.80788 3.79153 7.80788H3.8332C4.99999 7.80788 5.94109 7.46887 6.65627 6.79032C7.37145 6.11214 7.72207 5.26769 7.70828 4.25704C7.69442 3.23243 7.34 2.3847 6.64576 1.71329C5.9516 1.04173 5.02765 0.706055 3.87494 0.706055Z" fill="white"/>
</g>
<defs>
<clipPath id="clip0">
<rect width="32.0001" height="31.8968" fill="white"/>
</clipPath>
</defs>
</svg>
