<svg xmlns="http://www.w3.org/2000/svg" viewBox="0 0 96 96"><path d="M48.07 47.746l-.07-.002a1.782 1.782 0 0 1-.071.002c-5.957 0-11.206-1.508-14.308 1.34-1.859 1.709-2.642 3.768-2.642 5.985 0 9.261 7.42 10.398 16.949 10.398h.142c9.529 0 16.949-1.138 16.949-10.398 0-2.218-.783-4.276-2.642-5.985-3.102-2.848-8.35-1.34-14.307-1.34zm-8.102 12.655c-1.813 0-3.283-2.036-3.283-4.547s1.47-4.546 3.283-4.546 3.285 2.035 3.285 4.546-1.472 4.547-3.285 4.547zm16.063 0c-1.814 0-3.285-2.036-3.285-4.547s1.471-4.546 3.285-4.546c1.812 0 3.283 2.035 3.283 4.546s-1.47 4.547-3.283 4.547zM48 0C21.489 0 0 21.49 0 48s21.489 48 48 48c26.509 0 48-21.49 48-48S74.509 0 48 0zm4.378 67.701L48 67.705l-4.379-.004c-3.803 0-18.863-.291-18.863-18.445 0-4.177 1.432-7.233 3.775-9.778-.374-.923-.393-6.165 1.602-11.183 0 0 4.576.502 11.5 5.253 1.451-.401 3.908-.601 6.365-.601 2.455 0 4.912.199 6.365.601 6.923-4.751 11.498-5.253 11.498-5.253 1.995 5.018 1.977 10.26 1.603 11.183 2.344 2.545 3.776 5.602 3.776 9.778 0 18.154-15.061 18.445-18.864 18.445z"/></svg>