<svg xmlns="http://www.w3.org/2000/svg" width="97.75" height="97.75" viewBox="0 0 97.75 97.75"><path d="M50.729 33.67c0-6.775-4.039-17.311-11.826-17.311-2.448 0-5.071 1.222-6.577 3.105-1.598 1.979-2.062 4.511-2.062 6.965 0 6.3 3.658 16.741 11.736 16.741 2.345 0 4.872-1.123 6.382-2.63 2.159-2.171 2.347-5.175 2.347-6.87zm-5.072 24.744c-.748-.094-1.218-.094-2.156-.094-.847 0-5.918.185-9.859 1.511-2.064.748-8.071 3.008-8.071 9.687 0 6.682 6.478 11.485 16.522 11.485 9.015 0 13.804-4.338 13.804-10.163-.001-4.813-3.099-7.344-10.24-12.426z"/><path d="M48.875 0C21.882 0 0 21.882 0 48.875S21.882 97.75 48.875 97.75 97.75 75.868 97.75 48.875 75.868 0 48.875 0zM37.489 84.945c-13.616 0-20.184-6.488-20.184-13.455 0-3.385 1.687-8.18 7.227-11.475 5.818-3.576 13.709-4.043 17.936-4.334-1.319-1.692-2.816-3.479-2.816-6.395 0-1.597.47-2.539.934-3.669-1.034.096-2.062.188-3.002.188-9.948 0-15.581-7.438-15.581-14.775 0-4.322 1.969-9.124 6.005-12.605 5.354-4.422 12.67-5.622 17.744-5.622H64.25l-6.105 3.836h-5.816c2.158 1.786 6.658 5.549 6.658 12.703 0 6.957-3.938 10.259-7.879 13.36-1.223 1.221-2.632 2.538-2.632 4.611 0 2.065 1.41 3.193 2.44 4.047l3.383 2.628c4.132 3.479 7.888 6.679 7.886 13.177-.001 8.847-8.55 17.78-24.696 17.78zm40.516-37.22v9.464h-4.646v-9.464h-9.393v-4.697h9.393v-9.406h4.646v9.406h9.438v4.697h-9.438z"/></svg>