<svg xmlns="http://www.w3.org/2000/svg" viewBox="0 0 512 512"><path d="M29.642 102.4h86.232c16.345 0 29.642-13.298 29.642-29.642V29.642C145.516 13.298 132.219 0 115.874 0H29.642C13.297 0 0 13.298 0 29.642v43.116C0 89.102 13.297 102.4 29.642 102.4zM16.168 29.642c0-7.43 6.044-13.474 13.474-13.474h86.232c7.43 0 13.474 6.044 13.474 13.474v43.116c0 7.43-6.044 13.474-13.474 13.474H29.642c-7.43 0-13.474-6.044-13.474-13.474V29.642zm81.713 118.119a8.082 8.082 0 0 0-2.933 11.049l2.164 3.73a8.08 8.08 0 0 0 11.05 2.933 8.082 8.082 0 0 0 2.933-11.049l-2.164-3.73c-2.241-3.861-7.187-5.172-11.05-2.933zm-3.565 304.955H51.2a8.084 8.084 0 0 0-8.084 8.084 8.084 8.084 0 0 0 8.084 8.084h43.116a8.083 8.083 0 0 0 8.084-8.084 8.084 8.084 0 0 0-8.084-8.084zM79.476 116.07a8.085 8.085 0 0 0-2.931 11.051l2.165 3.728a8.08 8.08 0 0 0 11.052 2.93 8.085 8.085 0 0 0 2.931-11.051L90.528 119a8.085 8.085 0 0 0-11.052-2.93zm238.451 95.078a8.086 8.086 0 0 0-2.933 11.051l2.165 3.73a8.079 8.079 0 0 0 11.051 2.932 8.086 8.086 0 0 0 2.933-11.051l-2.166-3.73c-2.241-3.862-7.188-5.171-11.05-2.932zm-36.803-63.387a8.082 8.082 0 0 0-2.933 11.049l2.164 3.73a8.08 8.08 0 0 0 11.05 2.933 8.082 8.082 0 0 0 2.933-11.049l-2.164-3.73a8.086 8.086 0 0 0-11.05-2.933zm18.401 31.693a8.084 8.084 0 0 0-2.932 11.051l2.164 3.728a8.079 8.079 0 0 0 11.051 2.932 8.084 8.084 0 0 0 2.932-11.051l-2.164-3.728c-2.242-3.861-7.192-5.171-11.051-2.932z"/><path d="M51.2 59.284h43.116a8.084 8.084 0 0 0 0-16.168H51.2c-4.465 0-8.084 3.619-8.084 8.084s3.619 8.084 8.084 8.084zm183.242 0h43.116a8.084 8.084 0 0 0 0-16.168h-43.116c-4.465 0-8.084 3.619-8.084 8.084s3.619 8.084 8.084 8.084z"/><path d="M212.884 102.4h86.232c16.345 0 29.642-13.298 29.642-29.642V29.642C328.758 13.298 315.461 0 299.116 0h-86.232c-16.345 0-29.642 13.298-29.642 29.642v43.116c0 16.344 13.297 29.642 29.642 29.642zm-13.473-72.758c0-7.43 6.044-13.474 13.474-13.474h86.232c7.43 0 13.474 6.044 13.474 13.474v43.116c0 7.43-6.044 13.474-13.474 13.474h-86.232c-7.43 0-13.474-6.044-13.474-13.474V29.642zm-64.726 181.506a8.086 8.086 0 0 0-2.933 11.051l2.166 3.73a8.079 8.079 0 0 0 11.051 2.932 8.086 8.086 0 0 0 2.933-11.051l-2.166-3.73c-2.242-3.862-7.189-5.171-11.051-2.932zm128.034-95.078a8.085 8.085 0 0 0-2.931 11.051l2.166 3.728a8.08 8.08 0 0 0 11.052 2.93 8.085 8.085 0 0 0 2.931-11.051L273.77 119c-2.243-3.861-7.193-5.173-11.051-2.93zm-146.436 63.384a8.084 8.084 0 0 0-2.932 11.051l2.164 3.728a8.079 8.079 0 0 0 11.051 2.932 8.084 8.084 0 0 0 2.932-11.051l-2.164-3.728c-2.242-3.861-7.192-5.171-11.051-2.932zm-.409 230.146H29.642C13.297 409.6 0 422.898 0 439.242v43.116C0 498.702 13.297 512 29.642 512h86.232c16.345 0 29.642-13.298 29.642-29.642v-43.116c0-16.344-13.297-29.642-29.642-29.642zm13.473 72.758c0 7.43-6.044 13.474-13.474 13.474H29.642c-7.43 0-13.474-6.044-13.474-13.474v-43.116c0-7.43 6.044-13.474 13.474-13.474h86.232c7.43 0 13.474 6.044 13.474 13.474v43.116zm174.23-148.719a8.083 8.083 0 0 0 6.999-4.026l2.164-3.728a8.085 8.085 0 0 0-2.932-11.051 8.086 8.086 0 0 0-11.049 2.933l-2.164 3.728a8.085 8.085 0 0 0 6.982 12.144zm-36.806 63.386A8.084 8.084 0 0 0 273.77 393l2.166-3.728a8.085 8.085 0 0 0-13.982-8.12l-2.165 3.728a8.085 8.085 0 0 0 6.982 12.145zm18.403-31.692a8.082 8.082 0 0 0 6.999-4.027l2.164-3.729a8.084 8.084 0 0 0-2.933-11.05 8.08 8.08 0 0 0-11.049 2.934l-2.164 3.73a8.082 8.082 0 0 0 6.983 12.142zm186.405-149.754c-22.289 0-40.421 18.132-40.421 40.421s18.132 40.421 40.421 40.421C493.868 296.421 512 278.289 512 256s-18.132-40.421-40.421-40.421zm0 64.674c-13.373 0-24.253-10.88-24.253-24.253 0-13.372 10.879-24.253 24.253-24.253 13.373 0 24.253 10.88 24.253 24.253 0 13.372-10.88 24.253-24.253 24.253z"/><path d="M471.579 247.377a8.084 8.084 0 0 0-8.084 8.084v1.078a8.084 8.084 0 0 0 8.084 8.084 8.083 8.083 0 0 0 8.084-8.084v-1.078a8.083 8.083 0 0 0-8.084-8.084zm-80.516-18.652a8.085 8.085 0 0 0-11.432 11.433l7.758 7.757H8.084A8.083 8.083 0 0 0 0 255.999a8.084 8.084 0 0 0 8.084 8.084h379.305l-7.758 7.757a8.085 8.085 0 0 0 11.432 11.433l21.558-21.558a8.085 8.085 0 0 0 0-11.433l-21.558-21.557z"/><path d="M328.21 283.14a8.085 8.085 0 0 0-11.049 2.933l-2.166 3.73a8.085 8.085 0 0 0 13.984 8.119l2.165-3.729a8.09 8.09 0 0 0-2.934-11.053zm-226.278 82.193a8.082 8.082 0 0 0 6.999-4.027l2.164-3.729a8.084 8.084 0 0 0-2.933-11.05 8.08 8.08 0 0 0-11.049 2.934l-2.164 3.73a8.082 8.082 0 0 0 6.983 12.142zm18.403-31.694a8.083 8.083 0 0 0 6.999-4.026l2.164-3.728a8.085 8.085 0 0 0-2.932-11.051 8.086 8.086 0 0 0-11.049 2.933l-2.164 3.728a8.085 8.085 0 0 0 6.982 12.144zm-36.806 63.386A8.084 8.084 0 0 0 90.528 393l2.165-3.728a8.085 8.085 0 0 0-13.982-8.12l-2.166 3.728a8.085 8.085 0 0 0 6.984 12.145zm61.439-113.885a8.085 8.085 0 0 0-11.049 2.933l-2.166 3.73a8.085 8.085 0 0 0 13.984 8.119l2.166-3.729a8.09 8.09 0 0 0-2.935-11.053zM299.116 409.6h-86.232c-16.345 0-29.642 13.298-29.642 29.642v43.116c0 16.344 13.297 29.642 29.642 29.642h86.232c16.345 0 29.642-13.298 29.642-29.642v-43.116c0-16.344-13.297-29.642-29.642-29.642zm13.473 72.758c0 7.43-6.044 13.474-13.474 13.474h-86.232c-7.43 0-13.474-6.044-13.474-13.474v-43.116c0-7.43 6.044-13.474 13.474-13.474h86.232c7.43 0 13.474 6.044 13.474 13.474v43.116z"/><path d="M277.558 452.716h-43.116a8.084 8.084 0 0 0-8.084 8.084 8.084 8.084 0 0 0 8.084 8.084h43.116a8.083 8.083 0 0 0 8.084-8.084 8.083 8.083 0 0 0-8.084-8.084z"/></svg>