<svg xmlns="http://www.w3.org/2000/svg" viewBox="0 0 512 512"><path d="M462.956 452.716H460.8a8.084 8.084 0 0 0 0 16.168h2.156a8.084 8.084 0 0 0 0-16.168zM412.613 59.284h4.105a8.084 8.084 0 0 0 0-16.168h-4.105a8.084 8.084 0 0 0 0 16.168zm15.85 339.537h-35.032v-13.474c0-10.401-8.463-18.863-18.863-18.863H231.747v-50.323a19.07 19.07 0 0 0 2.307-1.301l94.759-62.538c5.305-3.502 8.473-9.386 8.473-15.744s-3.168-12.242-8.473-15.744l-94.76-62.538a18.999 18.999 0 0 0-2.306-1.301v-43.816h45.811c10.401 0 18.863-8.463 18.863-18.863V18.863c0-10.4-8.463-18.863-18.863-18.863h-107.79c-10.401 0-18.863 8.463-18.863 18.863v75.453c0 10.401 8.463 18.863 18.863 18.863h45.81v43.815a19.07 19.07 0 0 0-2.307 1.301l-94.759 62.538c-5.305 3.502-8.473 9.386-8.473 15.744s3.168 12.242 8.473 15.744l94.76 62.538c.745.492 1.516.925 2.306 1.301v50.324H72.758c-10.401 0-18.863 8.463-18.863 18.863v13.474H18.863C8.463 398.821 0 407.284 0 417.684v75.453C0 503.537 8.463 512 18.863 512h86.232c10.401 0 18.863-8.463 18.863-18.863v-75.453c0-10.401-8.463-18.863-18.863-18.863H70.063v-13.474a2.699 2.699 0 0 1 2.695-2.695h301.81a2.699 2.699 0 0 1 2.695 2.695v13.474h-35.032c-10.401 0-18.863 8.463-18.863 18.863v75.453c0 10.401 8.463 18.863 18.863 18.863h86.232c10.401 0 18.863-8.463 18.863-18.863v-75.453c0-10.4-8.462-18.863-18.863-18.863zm-323.368 16.168a2.699 2.699 0 0 1 2.695 2.695v75.453a2.699 2.699 0 0 1-2.695 2.695H18.863a2.699 2.699 0 0 1-2.695-2.695v-75.453a2.699 2.699 0 0 1 2.695-2.695h86.232zm64.673-317.978a2.699 2.699 0 0 1-2.695-2.695V18.863a2.699 2.699 0 0 1 2.695-2.695h107.79a2.699 2.699 0 0 1 2.695 2.695v75.453a2.699 2.699 0 0 1-2.695 2.695h-107.79zm53.946 204.8h-.101c-.5-.01-.998-.158-1.434-.446l-94.759-62.538c-1.054-.695-1.212-1.707-1.212-2.249 0-.541.157-1.553 1.212-2.248l94.759-62.538a2.686 2.686 0 0 1 2.968 0l94.759 62.538c1.054.695 1.212 1.707 1.212 2.248 0 .541-.157 1.553-1.212 2.249l-94.759 62.538a2.681 2.681 0 0 1-1.433.446zm207.444 191.326a2.699 2.699 0 0 1-2.695 2.695h-86.232a2.699 2.699 0 0 1-2.695-2.695v-75.453a2.699 2.699 0 0 1 2.695-2.695h86.232a2.699 2.699 0 0 1 2.695 2.695v75.453z"/><path d="M309.895 59.284h2.156a8.084 8.084 0 0 0 0-16.168h-2.156a8.084 8.084 0 0 0 0 16.168zM459.691 51.2a8.084 8.084 0 0 0-8.084-8.084h-4.105a8.084 8.084 0 0 0 0 16.168h4.105a8.084 8.084 0 0 0 8.084-8.084zm-81.967 8.084h4.105a8.084 8.084 0 0 0 0-16.168h-4.105a8.084 8.084 0 0 0 0 16.168zM266.779 237.137h-86.232a8.084 8.084 0 0 0 0 16.168h86.232a8.084 8.084 0 0 0 0-16.168zm76.056-177.853h4.105a8.084 8.084 0 0 0 0-16.168h-4.105a8.084 8.084 0 0 0 0 16.168zm-140.73 161.684h43.116a8.084 8.084 0 0 0 0-16.168h-43.116a8.084 8.084 0 0 0 0 16.168zm289.137 228.405a13.584 13.584 0 0 1-2.078 1.502 8.085 8.085 0 0 0 4.099 15.059 8.053 8.053 0 0 0 4.085-1.113 29.77 29.77 0 0 0 4.563-3.298 8.084 8.084 0 0 0 .739-11.408 8.08 8.08 0 0 0-11.408-.742zm12.674-278.985a8.084 8.084 0 0 0-8.084 8.084v4.105a8.084 8.084 0 0 0 16.168 0v-4.105a8.085 8.085 0 0 0-8.084-8.084zm0 34.89a8.084 8.084 0 0 0-8.084 8.084v4.105a8.084 8.084 0 0 0 16.168 0v-4.105a8.084 8.084 0 0 0-8.084-8.084zm0-69.779a8.084 8.084 0 0 0-8.084 8.084v4.105a8.084 8.084 0 0 0 16.168 0v-4.105a8.084 8.084 0 0 0-8.084-8.084zm0 104.668a8.084 8.084 0 0 0-8.084 8.084v4.105a8.084 8.084 0 0 0 16.168 0v-4.105a8.084 8.084 0 0 0-8.084-8.084zM494.408 53.12a8.083 8.083 0 0 0-6.41-9.467 29.786 29.786 0 0 0-5.594-.537h-.012a8.084 8.084 0 0 0-.012 16.168c.861.001 1.724.084 2.561.246.516.099 1.03.148 1.537.148a8.09 8.09 0 0 0 7.93-6.558zm9.508 47.49a8.084 8.084 0 0 0-8.084 8.084v4.105a8.084 8.084 0 0 0 16.168 0v-4.105a8.084 8.084 0 0 0-8.084-8.084zm0-34.89a8.084 8.084 0 0 0-8.084 8.084v4.105a8.084 8.084 0 0 0 16.168 0v-4.105a8.085 8.085 0 0 0-8.084-8.084zm0 209.336a8.084 8.084 0 0 0-8.084 8.084v4.105a8.084 8.084 0 0 0 16.168 0v-4.105a8.085 8.085 0 0 0-8.084-8.084zm0 104.668a8.084 8.084 0 0 0-8.084 8.084v4.105a8.084 8.084 0 0 0 16.168 0v-4.105a8.085 8.085 0 0 0-8.084-8.084zm0 34.888a8.084 8.084 0 0 0-8.084 8.084v4.105a8.084 8.084 0 0 0 16.168 0v-4.105a8.085 8.085 0 0 0-8.084-8.084zm0-104.667a8.084 8.084 0 0 0-8.084 8.084v4.105a8.084 8.084 0 0 0 16.168 0v-4.105a8.085 8.085 0 0 0-8.084-8.084zm0 34.89a8.084 8.084 0 0 0-8.084 8.084v4.105a8.084 8.084 0 0 0 16.168 0v-4.105a8.084 8.084 0 0 0-8.084-8.084z"/></svg>