<svg xmlns="http://www.w3.org/2000/svg" viewBox="0 0 511 511"><path d="M327.5 0C226.318 0 144 82.318 144 183.5c0 47.9 18.455 91.563 48.62 124.275l-23.392 23.39c-.468.47-.853.987-1.172 1.533C163.13 329.642 157.443 328 151.5 328c-8.417 0-16.327 3.278-22.272 9.228l-120 120C3.28 463.175 0 471.085 0 479.5s3.278 16.324 9.226 22.27C15.173 507.722 23.083 511 31.5 511s16.327-3.278 22.272-9.228l120-120c5.95-5.948 9.228-13.858 9.228-22.272 0-5.943-1.642-11.63-4.698-16.556a7.519 7.519 0 0 0 1.533-1.172l23.39-23.39C235.938 348.544 279.602 367 327.5 367 428.682 367 511 284.682 511 183.5S428.682 0 327.5 0zM43.163 491.167C40.05 494.284 35.908 496 31.5 496s-8.55-1.716-11.667-4.835C16.716 488.05 15 483.905 15 479.5s1.716-8.55 4.834-11.666L126.53 361.137l23.332 23.33-106.7 106.7zm120.003-120l-2.697 2.696-23.333-23.33 2.7-2.7C142.95 344.717 147.09 343 151.5 343s8.55 1.716 11.667 4.835c3.117 3.116 4.833 7.258 4.833 11.665s-1.716 8.55-4.834 11.666zM327.5 352C234.59 352 159 276.41 159 183.5S234.59 15 327.5 15 496 90.59 496 183.5 420.41 352 327.5 352z"/><path d="M473.064 141.375c-9.877-34.188-31.68-63.97-61.392-83.858a7.5 7.5 0 0 0-8.344 12.465c26.78 17.926 46.428 44.76 55.326 75.556a7.504 7.504 0 0 0 7.202 5.42c.69 0 1.39-.096 2.085-.297a7.496 7.496 0 0 0 5.125-9.284zm-160.74 177.792c-29.982-3.314-57.39-16.145-79.26-37.105a7.499 7.499 0 1 0-10.376 10.829c23.926 22.933 55.175 37.56 87.99 41.187a7.502 7.502 0 0 0 8.276-6.63 7.5 7.5 0 0 0-6.63-8.28zm-106.154-73.06a7.497 7.497 0 0 0-10.106-3.217 7.499 7.499 0 0 0-3.217 10.107c2.6 5.03 5.52 9.97 8.675 14.683a7.496 7.496 0 0 0 10.405 2.06 7.5 7.5 0 0 0 2.06-10.405 136.565 136.565 0 0 1-7.816-13.228zM357.843 50.383c4.93 1.12 9.85 2.53 14.625 4.195a7.503 7.503 0 0 0 9.552-4.612 7.497 7.497 0 0 0-4.612-9.55 150.811 150.811 0 0 0-16.246-4.66 7.497 7.497 0 0 0-8.974 5.653 7.5 7.5 0 0 0 5.655 8.972zm57.01 123.647a7.495 7.495 0 0 0-9.725-5.645l-15.764 5.255c-1.168-6.344-2.942-12.397-5.245-18.064l10.733-5.368a7.497 7.497 0 0 0 3.354-3.354l16-32a7.5 7.5 0 1 0-13.416-6.708l-14.88 29.764-8.633 4.317c-6.53-10.32-15.05-18.576-24.84-23.83l13.77-27.543a7.5 7.5 0 0 0-13.415-6.708L338.28 113.17c-3.507-.755-7.104-1.17-10.78-1.17s-7.274.415-10.78 1.17l-14.512-29.024a7.498 7.498 0 0 0-10.062-3.354 7.499 7.499 0 0 0-3.354 10.062l13.77 27.542c-9.79 5.254-18.308 13.512-24.84 23.83l-8.632-4.316-14.882-29.764a7.499 7.499 0 0 0-10.062-3.354 7.499 7.499 0 0 0-3.354 10.062l16 32a7.497 7.497 0 0 0 3.354 3.354l10.735 5.368a92.658 92.658 0 0 0-5.243 18.064l-15.764-5.255a7.502 7.502 0 0 0-9.726 5.644l-8 40a7.5 7.5 0 0 0 7.364 8.97c3.5 0 6.633-2.464 7.347-6.03l6.333-31.67 10.863 3.622c-.022.858-.052 1.713-.052 2.577 0 8.993 1.22 17.634 3.428 25.703a7.51 7.51 0 0 0-1.23.992l-16 16a7.501 7.501 0 0 0-1.127 9.162l24 40a7.494 7.494 0 0 0 10.29 2.572 7.499 7.499 0 0 0 2.573-10.29l-20.987-34.98 8.17-8.17c11.13 23.06 31.34 38.51 54.385 38.51s43.257-15.45 54.387-38.51l8.17 8.17-20.987 34.98a7.5 7.5 0 1 0 12.861 7.718l24-40a7.497 7.497 0 0 0-1.126-9.163l-16-16a7.49 7.49 0 0 0-1.23-.992c2.21-8.07 3.427-16.71 3.427-25.705 0-.864-.03-1.72-.05-2.577l10.863-3.62 6.333 31.67a7.503 7.503 0 0 0 8.827 5.884 7.502 7.502 0 0 0 5.883-8.825l-8-40zM320 255.225c-23.194-4.81-41-31.552-41-63.726 0-10.043 1.736-19.556 4.828-28.04 10.484 6.31 22.908 10.178 36.172 11.237v80.528zM290.47 149.91c8.904-13.998 22.196-22.91 37.03-22.91s28.126 8.912 37.03 22.91C354.26 156.367 341.113 160 327.5 160s-26.76-3.634-37.03-10.09zM335 255.227V174.7c13.264-1.06 25.688-4.93 36.172-11.237 3.092 8.483 4.828 17.995 4.828 28.038 0 32.175-17.806 58.918-41 63.727z"/></svg>