<svg xmlns="http://www.w3.org/2000/svg" viewBox="0 0 479 479"><path d="M278.908 246.057L361.575 131.9a7.498 7.498 0 1 0-10.473-10.473l-114.158 82.666C216.35 205.416 200 222.58 200 243.5c0 21.78 17.72 39.5 39.5 39.5 20.92 0 38.085-16.35 39.408-36.943zm-4.004-20.046a39.746 39.746 0 0 0-17.915-17.913l64.942-47.028-47.03 64.942zM215 243.5c0-13.51 10.99-24.5 24.5-24.5s24.5 10.99 24.5 24.5-10.99 24.5-24.5 24.5-24.5-10.99-24.5-24.5z"/><path d="M478.996 243.424c-.002-3.423-.07-6.855-.216-10.297-1.172-27.675-7.203-54.697-17.614-79.992a7.402 7.402 0 0 0-.397-1.288 7.562 7.562 0 0 0-.7-1.3c-11.62-27.318-28.373-52.56-49.68-74.34-.054-.056-.11-.108-.163-.163a7.507 7.507 0 0 0-3.277-3.277c-21.873-21.486-47.283-38.377-74.83-50.043a7.659 7.659 0 0 0-.968-.495 7.705 7.705 0 0 0-.96-.318c-23.8-9.832-49.156-15.785-75.185-17.426-5.086-.32-10.15-.465-15.2-.474-.102-.002-.203-.013-.307-.013-.107 0-.212.01-.318.015-28.356.024-56.064 4.94-82.563 14.714-30.193 11.136-57.453 28.005-81.026 50.14a242.207 242.207 0 0 0-5.29 5.136c-.052.05-.107.09-.157.14-.063.064-.117.132-.177.196-20.95 20.97-37.63 45.286-49.618 72.397C6.847 177.283 0 209.837 0 243.5c0 48.145 14.272 94.6 41.274 134.344C48.574 388.586 60.778 395 73.92 395H87.5a7.5 7.5 0 0 0 0-15H73.92c-8.17 0-15.735-3.958-20.24-10.586A224.586 224.586 0 0 1 35.06 336.3l22.534-9.334a7.502 7.502 0 0 0 4.06-9.8 7.502 7.502 0 0 0-9.8-4.058l-22.543 9.338C20.75 299.7 15.944 275.63 15.13 251H39.5a7.5 7.5 0 0 0 0-15H15.136c.8-24.642 5.54-48.597 14.146-71.457l22.572 9.35a7.45 7.45 0 0 0 2.867.573 7.5 7.5 0 0 0 2.874-14.432l-22.555-9.342c10.16-22.358 23.75-42.66 40.507-60.54l17.23 17.23c1.463 1.464 3.383 2.197 5.302 2.197s3.84-.734 5.302-2.2a7.496 7.496 0 0 0 0-10.605L86.15 79.542c18.175-17.01 38.574-30.62 60.5-40.602l9.385 22.654a7.505 7.505 0 0 0 6.932 4.632 7.502 7.502 0 0 0 6.927-10.373L160.508 33.2c22.664-8.51 46.726-13.288 71.49-14.076V43.5a7.5 7.5 0 0 0 15 0V19.133c2.35.077 4.704.178 7.064.327a220.537 220.537 0 0 1 64.354 13.917l-9.31 22.477a7.5 7.5 0 0 0 13.858 5.74l9.29-22.425c21.95 10.064 42.346 23.732 60.35 40.617l-16.988 16.987a7.497 7.497 0 0 0 0 10.606c1.464 1.465 3.384 2.198 5.303 2.198s3.84-.732 5.303-2.197l16.985-16.98c16.872 18.03 30.513 38.436 40.57 60.37l-22.373 9.266a7.502 7.502 0 0 0-4.06 9.8 7.506 7.506 0 0 0 6.933 4.63c.957 0 1.93-.183 2.867-.572l22.424-9.288c8.355 22.02 13.214 45.332 14.223 69.158.033.747.05 1.492.074 2.238H439.5a7.5 7.5 0 0 0 0 15h24.373c-.802 24.664-5.584 48.71-14.158 71.456l-22.57-9.35a7.504 7.504 0 0 0-9.8 4.06 7.502 7.502 0 0 0 4.06 9.8l22.544 9.337a225.57 225.57 0 0 1-18.635 33.113c-4.502 6.63-12.068 10.587-20.237 10.587H391.5a7.5 7.5 0 0 0 0 15h13.58c13.143 0 25.346-6.413 32.645-17.154 27.098-39.885 41.265-86.096 41.27-134.247 0-.034.006-.066.006-.1 0-.026-.003-.05-.003-.076z"/><path d="M327.5 300h-176c-21.78 0-39.5 17.72-39.5 39.5v96c0 21.78 17.72 39.5 39.5 39.5h176c21.78 0 39.5-17.72 39.5-39.5v-96c0-21.78-17.72-39.5-39.5-39.5zM352 435.5c0 13.51-10.99 24.5-24.5 24.5h-176c-13.51 0-24.5-10.99-24.5-24.5v-96c0-13.51 10.99-24.5 24.5-24.5h176c13.51 0 24.5 10.99 24.5 24.5v96z"/><path d="M204.803 342.197a7.497 7.497 0 0 0-10.606 0l-40 40a7.497 7.497 0 0 0 0 10.606l40 40c1.464 1.464 3.384 2.197 5.303 2.197s3.84-.732 5.303-2.197a7.497 7.497 0 0 0 0-10.606L170.106 387.5l34.697-34.697a7.497 7.497 0 0 0 0-10.606zm80 0a7.497 7.497 0 0 0-10.606 0 7.497 7.497 0 0 0 0 10.606l34.697 34.697-34.697 34.697a7.497 7.497 0 0 0 0 10.606c1.464 1.464 3.384 2.197 5.303 2.197s3.84-.732 5.303-2.197l40-40a7.497 7.497 0 0 0 0-10.606l-40-40zM239.5 396c-1.97 0-3.91.8-5.3 2.2a7.528 7.528 0 0 0-2.2 5.3c0 1.97.8 3.91 2.2 5.3 1.39 1.4 3.33 2.2 5.3 2.2 1.97 0 3.91-.8 5.3-2.2 1.4-1.39 2.2-3.33 2.2-5.3 0-1.97-.8-3.91-2.2-5.3a7.528 7.528 0 0 0-5.3-2.2zm24 0c-1.97 0-3.91.8-5.3 2.2a7.528 7.528 0 0 0-2.2 5.3c0 1.97.8 3.91 2.2 5.3 1.39 1.4 3.33 2.2 5.3 2.2 1.97 0 3.91-.8 5.3-2.2 1.4-1.39 2.2-3.33 2.2-5.3a7.51 7.51 0 0 0-7.5-7.5zm-48 0c-1.97 0-3.91.8-5.3 2.2a7.528 7.528 0 0 0-2.2 5.3c0 1.97.8 3.91 2.2 5.3 1.39 1.4 3.33 2.2 5.3 2.2 1.97 0 3.91-.8 5.3-2.2 1.4-1.39 2.2-3.33 2.2-5.3 0-1.97-.8-3.91-2.2-5.3a7.528 7.528 0 0 0-5.3-2.2z"/></svg>