<svg xmlns="http://www.w3.org/2000/svg" viewBox="0 0 444.48 444.48" opacity=".1"><path d="M233.513 165.996a5.5 5.5 0 0 0 5.5 5.5h143.091a5.5 5.5 0 0 0 5.5-5.5V76.857a5.5 5.5 0 0 0-5.5-5.5H239.013a5.5 5.5 0 0 0-5.5 5.5v89.139zm11-83.639h132.091v78.138H244.513V82.357z"/><path d="M348.754 95.839a5.5 5.5 0 0 0-7.777 0l-39.508 39.507-22.501-22.5a5.5 5.5 0 0 0-7.777 0l-17.007 17.006a5.5 5.5 0 0 0 7.777 7.778l13.118-13.117 22.501 22.5c1.073 1.074 2.481 1.611 3.889 1.611s2.815-.537 3.889-1.611l39.508-39.507 14.291 14.291a5.5 5.5 0 0 0 7.777-7.778l-18.18-18.18zm-33.759 166.614c-30.024 0-54.45 24.426-54.45 54.451s24.426 54.451 54.45 54.451 54.45-24.426 54.45-54.451-24.425-54.451-54.45-54.451zm43.09 48.95h-40.812l-28.846-28.845c7.352-5.7 16.567-9.105 26.568-9.105 22.095 0 40.377 16.58 43.09 37.95zm-86.54 5.5c0-10.001 3.405-19.216 9.104-26.568l27.91 27.91-14.433 36.756c-13.446-7.395-22.581-21.698-22.581-38.098zm43.45 43.451c-3.668 0-7.23-.462-10.635-1.321l14.384-36.629h39.341c-2.713 21.369-20.995 37.95-43.09 37.95zm-189.763-95.561h42.618a5.499 5.499 0 0 0 4.763-8.25l-39.568-68.534a5.499 5.499 0 0 0-9.526 0l-16.546 28.658-5.905-10.229a5.499 5.499 0 0 0-9.526 0l-28.927 50.108a5.502 5.502 0 0 0 4.763 8.25h57.854v-.003zm3.05-63.034l30.042 52.034H98.241l30.041-52.034zm-31.977 18.429l4.317 7.479-15.085 26.128h-8.633l19.401-33.607zm2.505-100.902h100.146a5.5 5.5 0 1 0 0-11H98.81a5.5 5.5 0 1 0 0 11zm-40.058 0h22.533a5.5 5.5 0 1 0 0-11H58.752a5.5 5.5 0 1 0 0 11zm145.703 15.781a5.5 5.5 0 0 0-5.5-5.5H58.752a5.5 5.5 0 1 0 0 11h140.204a5.5 5.5 0 0 0 5.499-5.5zm64.602 73.82a5.5 5.5 0 0 0 0 11h100.146a5.5 5.5 0 0 0 0-11H269.057zm-40.058 11h22.532a5.5 5.5 0 0 0 0-11h-22.532a5.5 5.5 0 0 0 0 11zm0 21.281h140.203a5.5 5.5 0 0 0 0-11H228.999a5.5 5.5 0 0 0 0 11zm-13.77 59.595H115.083a5.5 5.5 0 1 0 0 11h100.146a5.5 5.5 0 1 0 0-11zm-140.204 0a5.5 5.5 0 1 0 0 11h22.533a5.5 5.5 0 1 0 0-11H75.025zm140.204 21.281H75.025a5.5 5.5 0 1 0 0 11h140.204a5.5 5.5 0 1 0 0-11z"/><path d="M411.23 0H93.26c-1.458 0-2.857.58-3.889 1.61l-60.01 60a5.5 5.5 0 0 0-1.611 3.89v373.48a5.5 5.5 0 0 0 5.5 5.5h317.763a5.5 5.5 0 0 0 3.882-1.604l60.217-60a5.499 5.499 0 0 0 1.618-3.896V5.5a5.5 5.5 0 0 0-5.5-5.5zM87.76 18.777V60H46.53l41.23-41.223zM38.75 71h54.51a5.5 5.5 0 0 0 5.5-5.5V11h306.97v362.48h-54.51a5.5 5.5 0 0 0-5.5 5.5v54.5H38.75V71zm359.167 313.48l-41.198 41.049V384.48h41.198z"/><path d="M200.24 408.897h-42a5.5 5.5 0 1 0 0 11h42a5.5 5.5 0 1 0 0-11zm86 0h-42a5.5 5.5 0 0 0 0 11h42a5.5 5.5 0 0 0 0-11zm-71.267-7.834a5.5 5.5 0 0 0-5.5 5.5v12.667a5.5 5.5 0 1 0 11 0v-12.667a5.5 5.5 0 0 0-5.5-5.5zm14.534 0a5.5 5.5 0 0 0-5.5 5.5v12.667a5.5 5.5 0 0 0 11 0v-12.667a5.5 5.5 0 0 0-5.5-5.5zM158.24 38.582h42a5.5 5.5 0 1 0 0-11h-42a5.5 5.5 0 1 0 0 11zm86 0h42a5.5 5.5 0 0 0 0-11h-42a5.5 5.5 0 0 0 0 11zm-29.267 4.834a5.5 5.5 0 0 0 5.5-5.5V25.249a5.5 5.5 0 1 0-11 0v12.667a5.5 5.5 0 0 0 5.5 5.5zm14.534 0a5.5 5.5 0 0 0 5.5-5.5V25.249a5.5 5.5 0 0 0-11 0v12.667a5.5 5.5 0 0 0 5.5 5.5z"/></svg>