<svg xmlns="http://www.w3.org/2000/svg" viewBox="0 0 511 511"><path d="M39.5 103c1.97 0 3.91-.8 5.3-2.2 1.4-1.39 2.2-3.33 2.2-5.3s-.8-3.91-2.2-5.3a7.528 7.528 0 0 0-5.3-2.2c-1.97 0-3.91.8-5.3 2.2-1.4 1.39-2.2 3.33-2.2 5.3s.8 3.91 2.2 5.3c1.39 1.4 3.33 2.2 5.3 2.2zm24 0c1.97 0 3.91-.8 5.3-2.2 1.4-1.39 2.2-3.33 2.2-5.3s-.8-3.91-2.2-5.3a7.528 7.528 0 0 0-5.3-2.2c-1.97 0-3.91.8-5.3 2.2-1.4 1.39-2.2 3.33-2.2 5.3s.8 3.91 2.2 5.3c1.39 1.4 3.33 2.2 5.3 2.2zm24 0c1.97 0 3.91-.8 5.3-2.2 1.4-1.39 2.2-3.33 2.2-5.3s-.8-3.91-2.2-5.3a7.528 7.528 0 0 0-5.3-2.2c-1.97 0-3.91.8-5.3 2.2a7.528 7.528 0 0 0-2.2 5.3 7.51 7.51 0 0 0 7.5 7.5zm368 0h16a7.5 7.5 0 0 0 0-15h-16a7.5 7.5 0 0 0 0 15zm-16 209h-80c-12.958 0-23.5 10.542-23.5 23.5v56c0 12.958 10.542 23.5 23.5 23.5h80c12.958 0 23.5-10.542 23.5-23.5v-56c0-12.958-10.542-23.5-23.5-23.5zm8.5 79.5c0 4.687-3.813 8.5-8.5 8.5h-80c-4.687 0-8.5-3.813-8.5-8.5v-56c0-4.687 3.813-8.5 8.5-8.5h80c4.687 0 8.5 3.813 8.5 8.5v56zM359.5 231c12.958 0 23.5-10.542 23.5-23.5S372.458 184 359.5 184 336 194.542 336 207.5s10.542 23.5 23.5 23.5zm0-32c4.687 0 8.5 3.813 8.5 8.5s-3.813 8.5-8.5 8.5-8.5-3.813-8.5-8.5 3.813-8.5 8.5-8.5z"/><path d="M423.5 344h-48a7.5 7.5 0 0 0 0 15h48a7.5 7.5 0 0 0 0-15zm-24 24h-24a7.5 7.5 0 0 0 0 15h24a7.5 7.5 0 0 0 0-15zm-360-193h16a7.5 7.5 0 0 0 0-15h-16a7.5 7.5 0 0 0 0 15zm0 40h16a7.5 7.5 0 0 0 0-15h-16a7.5 7.5 0 0 0 0 15zm24 25h-8a7.5 7.5 0 0 0 0 15h8a7.5 7.5 0 0 0 0-15zm-24 55h16a7.5 7.5 0 0 0 0-15h-16a7.5 7.5 0 0 0 0 15zm48-120h32a7.5 7.5 0 0 0 0-15h-32a7.5 7.5 0 0 0 0 15zm0 120h64a7.5 7.5 0 0 0 0-15h-64a7.5 7.5 0 0 0 0 15zm0-80h80a7.5 7.5 0 0 0 0-15h-80a7.5 7.5 0 0 0 0 15zm8 25a7.5 7.5 0 0 0 0 15h32a7.5 7.5 0 0 0 0-15h-32zm95.5 7.5a7.5 7.5 0 0 0-7.5-7.5h-24a7.5 7.5 0 0 0 0 15h24a7.5 7.5 0 0 0 7.5-7.5zm24.5-7.5c-1.97 0-3.91.8-5.3 2.2-1.4 1.39-2.2 3.33-2.2 5.3s.8 3.91 2.2 5.3c1.39 1.4 3.33 2.2 5.3 2.2 1.97 0 3.91-.8 5.3-2.2 1.4-1.39 2.2-3.33 2.2-5.3s-.8-3.91-2.2-5.3a7.528 7.528 0 0 0-5.3-2.2zm-21.3 82.2c-1.4 1.39-2.2 3.33-2.2 5.3s.8 3.91 2.2 5.3c1.39 1.4 3.33 2.2 5.3 2.2 1.97 0 3.91-.8 5.3-2.2 1.4-1.39 2.2-3.33 2.2-5.3s-.8-3.91-2.2-5.3c-1.39-1.4-3.32-2.2-5.3-2.2s-3.91.8-5.3 2.2zM63.5 320h-8a7.5 7.5 0 0 0 0 15h8a7.5 7.5 0 0 0 0-15zm111.5 7.5a7.5 7.5 0 0 0-7.5-7.5h-72a7.5 7.5 0 0 0 0 15h72a7.5 7.5 0 0 0 7.5-7.5zM63.5 360h-8a7.5 7.5 0 0 0 0 15h8a7.5 7.5 0 0 0 0-15zm32 0a7.5 7.5 0 0 0 0 15h48a7.5 7.5 0 0 0 0-15h-48zm111.5 7.5a7.5 7.5 0 0 0-7.5-7.5h-24a7.5 7.5 0 0 0 0 15h24a7.5 7.5 0 0 0 7.5-7.5zM55.5 400h-16a7.5 7.5 0 0 0 0 15h16a7.5 7.5 0 0 0 0-15zm56 0h-24a7.5 7.5 0 0 0 0 15h24a7.5 7.5 0 0 0 0-15zm112 0h-16a7.5 7.5 0 0 0 0 15h16a7.5 7.5 0 0 0 0-15zm-72-225h64a7.5 7.5 0 0 0 0-15h-64a7.5 7.5 0 0 0 0 15zm24 225h-32a7.5 7.5 0 0 0 0 15h32a7.5 7.5 0 0 0 0-15z"/><path d="M471.5 56H263V39.5a7.5 7.5 0 0 0-15 0V56H39.5C17.72 56 0 73.72 0 95.5v320C0 437.28 17.72 455 39.5 455H248v16.5a7.5 7.5 0 0 0 15 0V455h208.5c21.78 0 39.5-17.72 39.5-39.5v-320c0-21.78-17.72-39.5-39.5-39.5zm0 15c13.51 0 24.5 10.99 24.5 24.5V120H263v-17h160.5a7.5 7.5 0 0 0 0-15H263V71h208.5zm-432 0H248v17H119.5a7.5 7.5 0 0 0 0 15H248v17H15V95.5C15 81.99 25.99 71 39.5 71zm0 369C25.99 440 15 429.01 15 415.5V135h233v305H39.5zM263 327h32.5c4.687 0 8.5 3.813 8.5 8.5v56c0 4.687-3.813 8.5-8.5 8.5H263v-73zm0-52.394l48.5-48.5 42.697 42.697a7.497 7.497 0 0 0 10.606 0L448 185.606V271.5c0 4.687-3.813 8.5-8.5 8.5H263v-5.394zm96.5-21.712l-42.697-42.697a7.497 7.497 0 0 0-10.606 0L263 253.394V175h174.394L359.5 252.894zM471.5 440H263v-25h32.5c12.958 0 23.5-10.542 23.5-23.5v-56c0-12.958-10.542-23.5-23.5-23.5H263v-17h176.5c12.958 0 23.5-10.542 23.5-23.5v-88c0-12.958-10.542-23.5-23.5-23.5H263v-25h233v280.5c0 13.51-10.99 24.5-24.5 24.5z"/></svg>